G04 #@! TF.GenerationSoftware,KiCad,Pcbnew,5.99.0-unknown-a5c7d45~86~ubuntu18.04.1*
G04 #@! TF.CreationDate,2020-01-09T21:59:45+01:00*
G04 #@! TF.ProjectId,v1,76312e6b-6963-4616-945f-706362585858,rev?*
G04 #@! TF.SameCoordinates,Original*
G04 #@! TF.FileFunction,Soldermask,Bot*
G04 #@! TF.FilePolarity,Negative*
%FSLAX46Y46*%
G04 Gerber Fmt 4.6, Leading zero omitted, Abs format (unit mm)*
G04 Created by KiCad (PCBNEW 5.99.0-unknown-a5c7d45~86~ubuntu18.04.1) date 2020-01-09 21:59:45*
%MOMM*%
%LPD*%
G04 APERTURE LIST*
G04 APERTURE END LIST*
G36*
X193641289Y-116276545D02*
G01*
X193821260Y-116326794D01*
X193967435Y-116404517D01*
X193986244Y-116414518D01*
X194077340Y-116492047D01*
X194128539Y-116535621D01*
X194241511Y-116684455D01*
X194319887Y-116854078D01*
X194319887Y-116854079D01*
X194357813Y-117026573D01*
X194360011Y-117036573D01*
X194359338Y-117229429D01*
X194359333Y-117229451D01*
X194359333Y-117229453D01*
X194340394Y-117312811D01*
X194317941Y-117411640D01*
X194238382Y-117580710D01*
X194124374Y-117728753D01*
X193981235Y-117848861D01*
X193815644Y-117935429D01*
X193635327Y-117984421D01*
X193448696Y-117993548D01*
X193264458Y-117962387D01*
X193091210Y-117892390D01*
X192937034Y-117786824D01*
X192852703Y-117697020D01*
X192809124Y-117650614D01*
X192713446Y-117490113D01*
X192654467Y-117312814D01*
X192654466Y-117312811D01*
X192634934Y-117126980D01*
X192655763Y-116941291D01*
X192659168Y-116931290D01*
X192715979Y-116764406D01*
X192715979Y-116764405D01*
X192812775Y-116604577D01*
X192941633Y-116469262D01*
X193096542Y-116364775D01*
X193270275Y-116295989D01*
X193454726Y-116266115D01*
X193641289Y-116276545D01*
G37*
G36*
X204141289Y-116276545D02*
G01*
X204321260Y-116326794D01*
X204467435Y-116404517D01*
X204486244Y-116414518D01*
X204577340Y-116492047D01*
X204628539Y-116535621D01*
X204741511Y-116684455D01*
X204819887Y-116854078D01*
X204819887Y-116854079D01*
X204857813Y-117026573D01*
X204860011Y-117036573D01*
X204859338Y-117229429D01*
X204859333Y-117229451D01*
X204859333Y-117229453D01*
X204840394Y-117312811D01*
X204817941Y-117411640D01*
X204738382Y-117580710D01*
X204624374Y-117728753D01*
X204481235Y-117848861D01*
X204315644Y-117935429D01*
X204135327Y-117984421D01*
X203948696Y-117993548D01*
X203764458Y-117962387D01*
X203591210Y-117892390D01*
X203437034Y-117786824D01*
X203352703Y-117697020D01*
X203309124Y-117650614D01*
X203213446Y-117490113D01*
X203154467Y-117312814D01*
X203154466Y-117312811D01*
X203134934Y-117126980D01*
X203155763Y-116941291D01*
X203159168Y-116931290D01*
X203215979Y-116764406D01*
X203215979Y-116764405D01*
X203312775Y-116604577D01*
X203441633Y-116469262D01*
X203596542Y-116364775D01*
X203770275Y-116295989D01*
X203954726Y-116266115D01*
X204141289Y-116276545D01*
G37*
G36*
X200641289Y-116276545D02*
G01*
X200821260Y-116326794D01*
X200967435Y-116404517D01*
X200986244Y-116414518D01*
X201077340Y-116492047D01*
X201128539Y-116535621D01*
X201241511Y-116684455D01*
X201319887Y-116854078D01*
X201319887Y-116854079D01*
X201357813Y-117026573D01*
X201360011Y-117036573D01*
X201359338Y-117229429D01*
X201359333Y-117229451D01*
X201359333Y-117229453D01*
X201340394Y-117312811D01*
X201317941Y-117411640D01*
X201238382Y-117580710D01*
X201124374Y-117728753D01*
X200981235Y-117848861D01*
X200815644Y-117935429D01*
X200635327Y-117984421D01*
X200448696Y-117993548D01*
X200264458Y-117962387D01*
X200091210Y-117892390D01*
X199937034Y-117786824D01*
X199852703Y-117697020D01*
X199809124Y-117650614D01*
X199713446Y-117490113D01*
X199654467Y-117312814D01*
X199654466Y-117312811D01*
X199634934Y-117126980D01*
X199655763Y-116941291D01*
X199659168Y-116931290D01*
X199715979Y-116764406D01*
X199715979Y-116764405D01*
X199812775Y-116604577D01*
X199941633Y-116469262D01*
X200096542Y-116364775D01*
X200270275Y-116295989D01*
X200454726Y-116266115D01*
X200641289Y-116276545D01*
G37*
G36*
X197141289Y-116276545D02*
G01*
X197321260Y-116326794D01*
X197467435Y-116404517D01*
X197486244Y-116414518D01*
X197577340Y-116492047D01*
X197628539Y-116535621D01*
X197741511Y-116684455D01*
X197819887Y-116854078D01*
X197819887Y-116854079D01*
X197857813Y-117026573D01*
X197860011Y-117036573D01*
X197859338Y-117229429D01*
X197859333Y-117229451D01*
X197859333Y-117229453D01*
X197840394Y-117312811D01*
X197817941Y-117411640D01*
X197738382Y-117580710D01*
X197624374Y-117728753D01*
X197481235Y-117848861D01*
X197315644Y-117935429D01*
X197135327Y-117984421D01*
X196948696Y-117993548D01*
X196764458Y-117962387D01*
X196591210Y-117892390D01*
X196437034Y-117786824D01*
X196352703Y-117697020D01*
X196309124Y-117650614D01*
X196213446Y-117490113D01*
X196154467Y-117312814D01*
X196154466Y-117312811D01*
X196134934Y-117126980D01*
X196155763Y-116941291D01*
X196159168Y-116931290D01*
X196215979Y-116764406D01*
X196215979Y-116764405D01*
X196312775Y-116604577D01*
X196441633Y-116469262D01*
X196596542Y-116364775D01*
X196770275Y-116295989D01*
X196954726Y-116266115D01*
X197141289Y-116276545D01*
G37*
G36*
X176111289Y-116266545D02*
G01*
X176291260Y-116316794D01*
X176446404Y-116399286D01*
X176456244Y-116404518D01*
X176559090Y-116492047D01*
X176598539Y-116525621D01*
X176711511Y-116674455D01*
X176789887Y-116844078D01*
X176830011Y-117026573D01*
X176829338Y-117219429D01*
X176787941Y-117401640D01*
X176708382Y-117570710D01*
X176594374Y-117718753D01*
X176451235Y-117838861D01*
X176285644Y-117925429D01*
X176105327Y-117974421D01*
X175918696Y-117983548D01*
X175734458Y-117952387D01*
X175561210Y-117882390D01*
X175407034Y-117776824D01*
X175322703Y-117687020D01*
X175279124Y-117640614D01*
X175183446Y-117480113D01*
X175124467Y-117302814D01*
X175124466Y-117302811D01*
X175104934Y-117116980D01*
X175125763Y-116931291D01*
X175185979Y-116754405D01*
X175282775Y-116594577D01*
X175411633Y-116459262D01*
X175566542Y-116354775D01*
X175740275Y-116285989D01*
X175924726Y-116256115D01*
X176111289Y-116266545D01*
G37*
G36*
X165611289Y-116266545D02*
G01*
X165791260Y-116316794D01*
X165946404Y-116399286D01*
X165956244Y-116404518D01*
X166059090Y-116492047D01*
X166098539Y-116525621D01*
X166211511Y-116674455D01*
X166289887Y-116844078D01*
X166330011Y-117026573D01*
X166329338Y-117219429D01*
X166287941Y-117401640D01*
X166208382Y-117570710D01*
X166094374Y-117718753D01*
X165951235Y-117838861D01*
X165785644Y-117925429D01*
X165605327Y-117974421D01*
X165418696Y-117983548D01*
X165234458Y-117952387D01*
X165061210Y-117882390D01*
X164907034Y-117776824D01*
X164822703Y-117687020D01*
X164779124Y-117640614D01*
X164683446Y-117480113D01*
X164624467Y-117302814D01*
X164624466Y-117302811D01*
X164604934Y-117116980D01*
X164625763Y-116931291D01*
X164685979Y-116754405D01*
X164782775Y-116594577D01*
X164911633Y-116459262D01*
X165066542Y-116354775D01*
X165240275Y-116285989D01*
X165424726Y-116256115D01*
X165611289Y-116266545D01*
G37*
G36*
X169111289Y-116266545D02*
G01*
X169291260Y-116316794D01*
X169446404Y-116399286D01*
X169456244Y-116404518D01*
X169559090Y-116492047D01*
X169598539Y-116525621D01*
X169711511Y-116674455D01*
X169789887Y-116844078D01*
X169830011Y-117026573D01*
X169829338Y-117219429D01*
X169787941Y-117401640D01*
X169708382Y-117570710D01*
X169594374Y-117718753D01*
X169451235Y-117838861D01*
X169285644Y-117925429D01*
X169105327Y-117974421D01*
X168918696Y-117983548D01*
X168734458Y-117952387D01*
X168561210Y-117882390D01*
X168407034Y-117776824D01*
X168322703Y-117687020D01*
X168279124Y-117640614D01*
X168183446Y-117480113D01*
X168124467Y-117302814D01*
X168124466Y-117302811D01*
X168104934Y-117116980D01*
X168125763Y-116931291D01*
X168185979Y-116754405D01*
X168282775Y-116594577D01*
X168411633Y-116459262D01*
X168566542Y-116354775D01*
X168740275Y-116285989D01*
X168924726Y-116256115D01*
X169111289Y-116266545D01*
G37*
G36*
X172611289Y-116266545D02*
G01*
X172791260Y-116316794D01*
X172946404Y-116399286D01*
X172956244Y-116404518D01*
X173059090Y-116492047D01*
X173098539Y-116525621D01*
X173211511Y-116674455D01*
X173289887Y-116844078D01*
X173330011Y-117026573D01*
X173329338Y-117219429D01*
X173287941Y-117401640D01*
X173208382Y-117570710D01*
X173094374Y-117718753D01*
X172951235Y-117838861D01*
X172785644Y-117925429D01*
X172605327Y-117974421D01*
X172418696Y-117983548D01*
X172234458Y-117952387D01*
X172061210Y-117882390D01*
X171907034Y-117776824D01*
X171822703Y-117687020D01*
X171779124Y-117640614D01*
X171683446Y-117480113D01*
X171624467Y-117302814D01*
X171624466Y-117302811D01*
X171604934Y-117116980D01*
X171625763Y-116931291D01*
X171685979Y-116754405D01*
X171782775Y-116594577D01*
X171911633Y-116459262D01*
X172066542Y-116354775D01*
X172240275Y-116285989D01*
X172424726Y-116256115D01*
X172611289Y-116266545D01*
G37*
G36*
X211297011Y-113429643D02*
G01*
X211538022Y-113507953D01*
X211763823Y-113623004D01*
X211968846Y-113771962D01*
X212148038Y-113951154D01*
X212296996Y-114156177D01*
X212412047Y-114381978D01*
X212490357Y-114622989D01*
X212530000Y-114873290D01*
X212530000Y-115126710D01*
X212490357Y-115377011D01*
X212412047Y-115618022D01*
X212296996Y-115843823D01*
X212148038Y-116048846D01*
X211968846Y-116228038D01*
X211763823Y-116376996D01*
X211538022Y-116492047D01*
X211297011Y-116570357D01*
X211046710Y-116610000D01*
X210793290Y-116610000D01*
X210542989Y-116570357D01*
X210301978Y-116492047D01*
X210076177Y-116376996D01*
X209871154Y-116228038D01*
X209691962Y-116048846D01*
X209543004Y-115843823D01*
X209427953Y-115618022D01*
X209349643Y-115377011D01*
X209310000Y-115126710D01*
X209310000Y-114873290D01*
X209349643Y-114622989D01*
X209427953Y-114381978D01*
X209543004Y-114156177D01*
X209691962Y-113951154D01*
X209871154Y-113771962D01*
X210076177Y-113623004D01*
X210301978Y-113507953D01*
X210542989Y-113429643D01*
X210793290Y-113390000D01*
X211046710Y-113390000D01*
X211297011Y-113429643D01*
G37*
G36*
X138377011Y-113429643D02*
G01*
X138618022Y-113507953D01*
X138843823Y-113623004D01*
X139048846Y-113771962D01*
X139228038Y-113951154D01*
X139376996Y-114156177D01*
X139492047Y-114381978D01*
X139570357Y-114622989D01*
X139610000Y-114873290D01*
X139610000Y-115126710D01*
X139570357Y-115377011D01*
X139492047Y-115618022D01*
X139376996Y-115843823D01*
X139228038Y-116048846D01*
X139048846Y-116228038D01*
X138843823Y-116376996D01*
X138618022Y-116492047D01*
X138377011Y-116570357D01*
X138126710Y-116610000D01*
X137873290Y-116610000D01*
X137622989Y-116570357D01*
X137381978Y-116492047D01*
X137156177Y-116376996D01*
X136951154Y-116228038D01*
X136771962Y-116048846D01*
X136623004Y-115843823D01*
X136507953Y-115618022D01*
X136429643Y-115377011D01*
X136390000Y-115126710D01*
X136390000Y-114873290D01*
X136429643Y-114622989D01*
X136507953Y-114381978D01*
X136623004Y-114156177D01*
X136771962Y-113951154D01*
X136951154Y-113771962D01*
X137156177Y-113623004D01*
X137381978Y-113507953D01*
X137622989Y-113429643D01*
X137873290Y-113390000D01*
X138126710Y-113390000D01*
X138377011Y-113429643D01*
G37*
G36*
X204141289Y-113736545D02*
G01*
X204321260Y-113786794D01*
X204467435Y-113864517D01*
X204486244Y-113874518D01*
X204576293Y-113951156D01*
X204628539Y-113995621D01*
X204741511Y-114144455D01*
X204819887Y-114314078D01*
X204819887Y-114314079D01*
X204857813Y-114486573D01*
X204860011Y-114496573D01*
X204859338Y-114689429D01*
X204859333Y-114689451D01*
X204859333Y-114689453D01*
X204840394Y-114772811D01*
X204817941Y-114871640D01*
X204738382Y-115040710D01*
X204624374Y-115188753D01*
X204481235Y-115308861D01*
X204315644Y-115395429D01*
X204135327Y-115444421D01*
X203948696Y-115453548D01*
X203764458Y-115422387D01*
X203591210Y-115352390D01*
X203437034Y-115246824D01*
X203352703Y-115157020D01*
X203309124Y-115110614D01*
X203213446Y-114950113D01*
X203154467Y-114772814D01*
X203154466Y-114772811D01*
X203134934Y-114586980D01*
X203155763Y-114401291D01*
X203159168Y-114391290D01*
X203215979Y-114224406D01*
X203215979Y-114224405D01*
X203312775Y-114064577D01*
X203441633Y-113929262D01*
X203596542Y-113824775D01*
X203770275Y-113755989D01*
X203954726Y-113726115D01*
X204141289Y-113736545D01*
G37*
G36*
X193641289Y-113736545D02*
G01*
X193821260Y-113786794D01*
X193967435Y-113864517D01*
X193986244Y-113874518D01*
X194076293Y-113951156D01*
X194128539Y-113995621D01*
X194241511Y-114144455D01*
X194319887Y-114314078D01*
X194319887Y-114314079D01*
X194357813Y-114486573D01*
X194360011Y-114496573D01*
X194359338Y-114689429D01*
X194359333Y-114689451D01*
X194359333Y-114689453D01*
X194340394Y-114772811D01*
X194317941Y-114871640D01*
X194238382Y-115040710D01*
X194124374Y-115188753D01*
X193981235Y-115308861D01*
X193815644Y-115395429D01*
X193635327Y-115444421D01*
X193448696Y-115453548D01*
X193264458Y-115422387D01*
X193091210Y-115352390D01*
X192937034Y-115246824D01*
X192852703Y-115157020D01*
X192809124Y-115110614D01*
X192713446Y-114950113D01*
X192654467Y-114772814D01*
X192654466Y-114772811D01*
X192634934Y-114586980D01*
X192655763Y-114401291D01*
X192659168Y-114391290D01*
X192715979Y-114224406D01*
X192715979Y-114224405D01*
X192812775Y-114064577D01*
X192941633Y-113929262D01*
X193096542Y-113824775D01*
X193270275Y-113755989D01*
X193454726Y-113726115D01*
X193641289Y-113736545D01*
G37*
G36*
X197141289Y-113736545D02*
G01*
X197321260Y-113786794D01*
X197467435Y-113864517D01*
X197486244Y-113874518D01*
X197576293Y-113951156D01*
X197628539Y-113995621D01*
X197741511Y-114144455D01*
X197819887Y-114314078D01*
X197819887Y-114314079D01*
X197857813Y-114486573D01*
X197860011Y-114496573D01*
X197859338Y-114689429D01*
X197859333Y-114689451D01*
X197859333Y-114689453D01*
X197840394Y-114772811D01*
X197817941Y-114871640D01*
X197738382Y-115040710D01*
X197624374Y-115188753D01*
X197481235Y-115308861D01*
X197315644Y-115395429D01*
X197135327Y-115444421D01*
X196948696Y-115453548D01*
X196764458Y-115422387D01*
X196591210Y-115352390D01*
X196437034Y-115246824D01*
X196352703Y-115157020D01*
X196309124Y-115110614D01*
X196213446Y-114950113D01*
X196154467Y-114772814D01*
X196154466Y-114772811D01*
X196134934Y-114586980D01*
X196155763Y-114401291D01*
X196159168Y-114391290D01*
X196215979Y-114224406D01*
X196215979Y-114224405D01*
X196312775Y-114064577D01*
X196441633Y-113929262D01*
X196596542Y-113824775D01*
X196770275Y-113755989D01*
X196954726Y-113726115D01*
X197141289Y-113736545D01*
G37*
G36*
X200641289Y-113736545D02*
G01*
X200821260Y-113786794D01*
X200967435Y-113864517D01*
X200986244Y-113874518D01*
X201076293Y-113951156D01*
X201128539Y-113995621D01*
X201241511Y-114144455D01*
X201319887Y-114314078D01*
X201319887Y-114314079D01*
X201357813Y-114486573D01*
X201360011Y-114496573D01*
X201359338Y-114689429D01*
X201359333Y-114689451D01*
X201359333Y-114689453D01*
X201340394Y-114772811D01*
X201317941Y-114871640D01*
X201238382Y-115040710D01*
X201124374Y-115188753D01*
X200981235Y-115308861D01*
X200815644Y-115395429D01*
X200635327Y-115444421D01*
X200448696Y-115453548D01*
X200264458Y-115422387D01*
X200091210Y-115352390D01*
X199937034Y-115246824D01*
X199852703Y-115157020D01*
X199809124Y-115110614D01*
X199713446Y-114950113D01*
X199654467Y-114772814D01*
X199654466Y-114772811D01*
X199634934Y-114586980D01*
X199655763Y-114401291D01*
X199659168Y-114391290D01*
X199715979Y-114224406D01*
X199715979Y-114224405D01*
X199812775Y-114064577D01*
X199941633Y-113929262D01*
X200096542Y-113824775D01*
X200270275Y-113755989D01*
X200454726Y-113726115D01*
X200641289Y-113736545D01*
G37*
G36*
X172611289Y-113726545D02*
G01*
X172791260Y-113776794D01*
X172888803Y-113828659D01*
X172956244Y-113864518D01*
X173058043Y-113951156D01*
X173098539Y-113985621D01*
X173211511Y-114134455D01*
X173289887Y-114304078D01*
X173330011Y-114486573D01*
X173329338Y-114679429D01*
X173287941Y-114861640D01*
X173208382Y-115030710D01*
X173094374Y-115178753D01*
X172951235Y-115298861D01*
X172785644Y-115385429D01*
X172605327Y-115434421D01*
X172418696Y-115443548D01*
X172234458Y-115412387D01*
X172061210Y-115342390D01*
X171907034Y-115236824D01*
X171805514Y-115128716D01*
X171779124Y-115100614D01*
X171683446Y-114940113D01*
X171624467Y-114762814D01*
X171624466Y-114762811D01*
X171604934Y-114576980D01*
X171625763Y-114391291D01*
X171685979Y-114214405D01*
X171782775Y-114054577D01*
X171911633Y-113919262D01*
X172066542Y-113814775D01*
X172240275Y-113745989D01*
X172424726Y-113716115D01*
X172611289Y-113726545D01*
G37*
G36*
X176111289Y-113726545D02*
G01*
X176291260Y-113776794D01*
X176388803Y-113828659D01*
X176456244Y-113864518D01*
X176558043Y-113951156D01*
X176598539Y-113985621D01*
X176711511Y-114134455D01*
X176789887Y-114304078D01*
X176830011Y-114486573D01*
X176829338Y-114679429D01*
X176787941Y-114861640D01*
X176708382Y-115030710D01*
X176594374Y-115178753D01*
X176451235Y-115298861D01*
X176285644Y-115385429D01*
X176105327Y-115434421D01*
X175918696Y-115443548D01*
X175734458Y-115412387D01*
X175561210Y-115342390D01*
X175407034Y-115236824D01*
X175305514Y-115128716D01*
X175279124Y-115100614D01*
X175183446Y-114940113D01*
X175124467Y-114762814D01*
X175124466Y-114762811D01*
X175104934Y-114576980D01*
X175125763Y-114391291D01*
X175185979Y-114214405D01*
X175282775Y-114054577D01*
X175411633Y-113919262D01*
X175566542Y-113814775D01*
X175740275Y-113745989D01*
X175924726Y-113716115D01*
X176111289Y-113726545D01*
G37*
G36*
X169111289Y-113726545D02*
G01*
X169291260Y-113776794D01*
X169388803Y-113828659D01*
X169456244Y-113864518D01*
X169558043Y-113951156D01*
X169598539Y-113985621D01*
X169711511Y-114134455D01*
X169789887Y-114304078D01*
X169830011Y-114486573D01*
X169829338Y-114679429D01*
X169787941Y-114861640D01*
X169708382Y-115030710D01*
X169594374Y-115178753D01*
X169451235Y-115298861D01*
X169285644Y-115385429D01*
X169105327Y-115434421D01*
X168918696Y-115443548D01*
X168734458Y-115412387D01*
X168561210Y-115342390D01*
X168407034Y-115236824D01*
X168305514Y-115128716D01*
X168279124Y-115100614D01*
X168183446Y-114940113D01*
X168124467Y-114762814D01*
X168124466Y-114762811D01*
X168104934Y-114576980D01*
X168125763Y-114391291D01*
X168185979Y-114214405D01*
X168282775Y-114054577D01*
X168411633Y-113919262D01*
X168566542Y-113814775D01*
X168740275Y-113745989D01*
X168924726Y-113716115D01*
X169111289Y-113726545D01*
G37*
G36*
X165611289Y-113726545D02*
G01*
X165791260Y-113776794D01*
X165888803Y-113828659D01*
X165956244Y-113864518D01*
X166058043Y-113951156D01*
X166098539Y-113985621D01*
X166211511Y-114134455D01*
X166289887Y-114304078D01*
X166330011Y-114486573D01*
X166329338Y-114679429D01*
X166287941Y-114861640D01*
X166208382Y-115030710D01*
X166094374Y-115178753D01*
X165951235Y-115298861D01*
X165785644Y-115385429D01*
X165605327Y-115434421D01*
X165418696Y-115443548D01*
X165234458Y-115412387D01*
X165061210Y-115342390D01*
X164907034Y-115236824D01*
X164805514Y-115128716D01*
X164779124Y-115100614D01*
X164683446Y-114940113D01*
X164624467Y-114762814D01*
X164624466Y-114762811D01*
X164604934Y-114576980D01*
X164625763Y-114391291D01*
X164685979Y-114214405D01*
X164782775Y-114054577D01*
X164911633Y-113919262D01*
X165066542Y-113814775D01*
X165240275Y-113745989D01*
X165424726Y-113716115D01*
X165611289Y-113726545D01*
G37*
G36*
X155719998Y-113470245D02*
G01*
X155859452Y-113535867D01*
X155978205Y-113634108D01*
X156066756Y-113755989D01*
X156068796Y-113758797D01*
X156125532Y-113902094D01*
X156137347Y-113995621D01*
X156140000Y-114016625D01*
X156140000Y-114630414D01*
X156101671Y-114831341D01*
X156101478Y-114831692D01*
X156101478Y-114831693D01*
X156027422Y-114966400D01*
X155992999Y-115003056D01*
X155921919Y-115078749D01*
X155815901Y-115146029D01*
X155791789Y-115161331D01*
X155645211Y-115208957D01*
X155491396Y-115218635D01*
X155491393Y-115218635D01*
X155340002Y-115189755D01*
X155200548Y-115124133D01*
X155081795Y-115025892D01*
X154991205Y-114901204D01*
X154980153Y-114873290D01*
X154934468Y-114757905D01*
X154920000Y-114643376D01*
X154920000Y-114029586D01*
X154958329Y-113828659D01*
X155032579Y-113693601D01*
X155138082Y-113581251D01*
X155268211Y-113498669D01*
X155414789Y-113451043D01*
X155568604Y-113441365D01*
X155568607Y-113441365D01*
X155719998Y-113470245D01*
G37*
G36*
X147719998Y-113470245D02*
G01*
X147859452Y-113535867D01*
X147978205Y-113634108D01*
X148066756Y-113755989D01*
X148068796Y-113758797D01*
X148125532Y-113902094D01*
X148137347Y-113995621D01*
X148140000Y-114016625D01*
X148140000Y-114630414D01*
X148101671Y-114831341D01*
X148101478Y-114831692D01*
X148101478Y-114831693D01*
X148027422Y-114966400D01*
X147992999Y-115003056D01*
X147921919Y-115078749D01*
X147815901Y-115146029D01*
X147791789Y-115161331D01*
X147645211Y-115208957D01*
X147491396Y-115218635D01*
X147491393Y-115218635D01*
X147340002Y-115189755D01*
X147200548Y-115124133D01*
X147081795Y-115025892D01*
X146991205Y-114901204D01*
X146980153Y-114873290D01*
X146934468Y-114757905D01*
X146920000Y-114643376D01*
X146920000Y-114029586D01*
X146958329Y-113828659D01*
X147032579Y-113693601D01*
X147138082Y-113581251D01*
X147268211Y-113498669D01*
X147414789Y-113451043D01*
X147568604Y-113441365D01*
X147568607Y-113441365D01*
X147719998Y-113470245D01*
G37*
G36*
X149719998Y-113470245D02*
G01*
X149859452Y-113535867D01*
X149978205Y-113634108D01*
X150066756Y-113755989D01*
X150068796Y-113758797D01*
X150125532Y-113902094D01*
X150137347Y-113995621D01*
X150140000Y-114016625D01*
X150140000Y-114630414D01*
X150101671Y-114831341D01*
X150101478Y-114831692D01*
X150101478Y-114831693D01*
X150027422Y-114966400D01*
X149992999Y-115003056D01*
X149921919Y-115078749D01*
X149815901Y-115146029D01*
X149791789Y-115161331D01*
X149645211Y-115208957D01*
X149491396Y-115218635D01*
X149491393Y-115218635D01*
X149340002Y-115189755D01*
X149200548Y-115124133D01*
X149081795Y-115025892D01*
X148991205Y-114901204D01*
X148980153Y-114873290D01*
X148934468Y-114757905D01*
X148920000Y-114643376D01*
X148920000Y-114029586D01*
X148958329Y-113828659D01*
X149032579Y-113693601D01*
X149138082Y-113581251D01*
X149268211Y-113498669D01*
X149414789Y-113451043D01*
X149568604Y-113441365D01*
X149568607Y-113441365D01*
X149719998Y-113470245D01*
G37*
G36*
X151719998Y-113470245D02*
G01*
X151859452Y-113535867D01*
X151978205Y-113634108D01*
X152066756Y-113755989D01*
X152068796Y-113758797D01*
X152125532Y-113902094D01*
X152137347Y-113995621D01*
X152140000Y-114016625D01*
X152140000Y-114630414D01*
X152101671Y-114831341D01*
X152101478Y-114831692D01*
X152101478Y-114831693D01*
X152027422Y-114966400D01*
X151992999Y-115003056D01*
X151921919Y-115078749D01*
X151815901Y-115146029D01*
X151791789Y-115161331D01*
X151645211Y-115208957D01*
X151491396Y-115218635D01*
X151491393Y-115218635D01*
X151340002Y-115189755D01*
X151200548Y-115124133D01*
X151081795Y-115025892D01*
X150991205Y-114901204D01*
X150980153Y-114873290D01*
X150934468Y-114757905D01*
X150920000Y-114643376D01*
X150920000Y-114029586D01*
X150958329Y-113828659D01*
X151032579Y-113693601D01*
X151138082Y-113581251D01*
X151268211Y-113498669D01*
X151414789Y-113451043D01*
X151568604Y-113441365D01*
X151568607Y-113441365D01*
X151719998Y-113470245D01*
G37*
G36*
X153719998Y-113470245D02*
G01*
X153859452Y-113535867D01*
X153978205Y-113634108D01*
X154066756Y-113755989D01*
X154068796Y-113758797D01*
X154125532Y-113902094D01*
X154137347Y-113995621D01*
X154140000Y-114016625D01*
X154140000Y-114630414D01*
X154101671Y-114831341D01*
X154101478Y-114831692D01*
X154101478Y-114831693D01*
X154027422Y-114966400D01*
X153992999Y-115003056D01*
X153921919Y-115078749D01*
X153815901Y-115146029D01*
X153791789Y-115161331D01*
X153645211Y-115208957D01*
X153491396Y-115218635D01*
X153491393Y-115218635D01*
X153340002Y-115189755D01*
X153200548Y-115124133D01*
X153081795Y-115025892D01*
X152991205Y-114901204D01*
X152980153Y-114873290D01*
X152934468Y-114757905D01*
X152920000Y-114643376D01*
X152920000Y-114029586D01*
X152958329Y-113828659D01*
X153032579Y-113693601D01*
X153138082Y-113581251D01*
X153268211Y-113498669D01*
X153414789Y-113451043D01*
X153568604Y-113441365D01*
X153568607Y-113441365D01*
X153719998Y-113470245D01*
G37*
G36*
X157970875Y-113462679D02*
G01*
X157973671Y-113464410D01*
X157976550Y-113464983D01*
X158001229Y-113481473D01*
X158053716Y-113513971D01*
X158057638Y-113519164D01*
X158062552Y-113522448D01*
X158081256Y-113550440D01*
X158112248Y-113591481D01*
X158114187Y-113599725D01*
X158120017Y-113608450D01*
X158140196Y-113709897D01*
X158140196Y-113710305D01*
X158140441Y-113711347D01*
X158140441Y-114948945D01*
X158122321Y-115045875D01*
X158120590Y-115048671D01*
X158120017Y-115051550D01*
X158103527Y-115076229D01*
X158071029Y-115128716D01*
X158065836Y-115132638D01*
X158062552Y-115137552D01*
X158034560Y-115156256D01*
X157993519Y-115187248D01*
X157985275Y-115189187D01*
X157976550Y-115195017D01*
X157875103Y-115215196D01*
X157874695Y-115215196D01*
X157873653Y-115215441D01*
X157186055Y-115215441D01*
X157089125Y-115197321D01*
X157086329Y-115195590D01*
X157083450Y-115195017D01*
X157058771Y-115178527D01*
X157006284Y-115146029D01*
X157002362Y-115140836D01*
X156997448Y-115137552D01*
X156978744Y-115109560D01*
X156947752Y-115068519D01*
X156945813Y-115060275D01*
X156939983Y-115051550D01*
X156919804Y-114950103D01*
X156919804Y-114949695D01*
X156919559Y-114948653D01*
X156919559Y-113711055D01*
X156937679Y-113614125D01*
X156939410Y-113611329D01*
X156939983Y-113608450D01*
X156956473Y-113583771D01*
X156988971Y-113531284D01*
X156994164Y-113527362D01*
X156997448Y-113522448D01*
X157025440Y-113503744D01*
X157066481Y-113472752D01*
X157074725Y-113470813D01*
X157083450Y-113464983D01*
X157184897Y-113444804D01*
X157185305Y-113444804D01*
X157186347Y-113444559D01*
X157873945Y-113444559D01*
X157970875Y-113462679D01*
G37*
G36*
X194353903Y-111190580D02*
G01*
X194357210Y-111192790D01*
X194359420Y-111196097D01*
X194360441Y-111201231D01*
X194360441Y-112898769D01*
X194359420Y-112903903D01*
X194357210Y-112907210D01*
X194353903Y-112909420D01*
X194348769Y-112910441D01*
X192651231Y-112910441D01*
X192646097Y-112909420D01*
X192642790Y-112907210D01*
X192640580Y-112903903D01*
X192639559Y-112898769D01*
X192639559Y-111201231D01*
X192640580Y-111196097D01*
X192642790Y-111192790D01*
X192646097Y-111190580D01*
X192651231Y-111189559D01*
X194348769Y-111189559D01*
X194353903Y-111190580D01*
G37*
G36*
X197853903Y-111190580D02*
G01*
X197857210Y-111192790D01*
X197859420Y-111196097D01*
X197860441Y-111201231D01*
X197860441Y-112898769D01*
X197859420Y-112903903D01*
X197857210Y-112907210D01*
X197853903Y-112909420D01*
X197848769Y-112910441D01*
X196151231Y-112910441D01*
X196146097Y-112909420D01*
X196142790Y-112907210D01*
X196140580Y-112903903D01*
X196139559Y-112898769D01*
X196139559Y-111201231D01*
X196140580Y-111196097D01*
X196142790Y-111192790D01*
X196146097Y-111190580D01*
X196151231Y-111189559D01*
X197848769Y-111189559D01*
X197853903Y-111190580D01*
G37*
G36*
X201353903Y-111190580D02*
G01*
X201357210Y-111192790D01*
X201359420Y-111196097D01*
X201360441Y-111201231D01*
X201360441Y-112898769D01*
X201359420Y-112903903D01*
X201357210Y-112907210D01*
X201353903Y-112909420D01*
X201348769Y-112910441D01*
X199651231Y-112910441D01*
X199646097Y-112909420D01*
X199642790Y-112907210D01*
X199640580Y-112903903D01*
X199639559Y-112898769D01*
X199639559Y-111201231D01*
X199640580Y-111196097D01*
X199642790Y-111192790D01*
X199646097Y-111190580D01*
X199651231Y-111189559D01*
X201348769Y-111189559D01*
X201353903Y-111190580D01*
G37*
G36*
X204853903Y-111190580D02*
G01*
X204857210Y-111192790D01*
X204859420Y-111196097D01*
X204860441Y-111201231D01*
X204860441Y-112898769D01*
X204859420Y-112903903D01*
X204857210Y-112907210D01*
X204853903Y-112909420D01*
X204848769Y-112910441D01*
X203151231Y-112910441D01*
X203146097Y-112909420D01*
X203142790Y-112907210D01*
X203140580Y-112903903D01*
X203139559Y-112898769D01*
X203139559Y-111201231D01*
X203140580Y-111196097D01*
X203142790Y-111192790D01*
X203146097Y-111190580D01*
X203151231Y-111189559D01*
X204848769Y-111189559D01*
X204853903Y-111190580D01*
G37*
G36*
X176823903Y-111180580D02*
G01*
X176827210Y-111182790D01*
X176829420Y-111186097D01*
X176830441Y-111191231D01*
X176830441Y-112888769D01*
X176829420Y-112893903D01*
X176827210Y-112897210D01*
X176823903Y-112899420D01*
X176818769Y-112900441D01*
X175121231Y-112900441D01*
X175116097Y-112899420D01*
X175112790Y-112897210D01*
X175110580Y-112893903D01*
X175109559Y-112888769D01*
X175109559Y-111191231D01*
X175110580Y-111186097D01*
X175112790Y-111182790D01*
X175116097Y-111180580D01*
X175121231Y-111179559D01*
X176818769Y-111179559D01*
X176823903Y-111180580D01*
G37*
G36*
X173323903Y-111180580D02*
G01*
X173327210Y-111182790D01*
X173329420Y-111186097D01*
X173330441Y-111191231D01*
X173330441Y-112888769D01*
X173329420Y-112893903D01*
X173327210Y-112897210D01*
X173323903Y-112899420D01*
X173318769Y-112900441D01*
X171621231Y-112900441D01*
X171616097Y-112899420D01*
X171612790Y-112897210D01*
X171610580Y-112893903D01*
X171609559Y-112888769D01*
X171609559Y-111191231D01*
X171610580Y-111186097D01*
X171612790Y-111182790D01*
X171616097Y-111180580D01*
X171621231Y-111179559D01*
X173318769Y-111179559D01*
X173323903Y-111180580D01*
G37*
G36*
X169823903Y-111180580D02*
G01*
X169827210Y-111182790D01*
X169829420Y-111186097D01*
X169830441Y-111191231D01*
X169830441Y-112888769D01*
X169829420Y-112893903D01*
X169827210Y-112897210D01*
X169823903Y-112899420D01*
X169818769Y-112900441D01*
X168121231Y-112900441D01*
X168116097Y-112899420D01*
X168112790Y-112897210D01*
X168110580Y-112893903D01*
X168109559Y-112888769D01*
X168109559Y-111191231D01*
X168110580Y-111186097D01*
X168112790Y-111182790D01*
X168116097Y-111180580D01*
X168121231Y-111179559D01*
X169818769Y-111179559D01*
X169823903Y-111180580D01*
G37*
G36*
X166323903Y-111180580D02*
G01*
X166327210Y-111182790D01*
X166329420Y-111186097D01*
X166330441Y-111191231D01*
X166330441Y-112888769D01*
X166329420Y-112893903D01*
X166327210Y-112897210D01*
X166323903Y-112899420D01*
X166318769Y-112900441D01*
X164621231Y-112900441D01*
X164616097Y-112899420D01*
X164612790Y-112897210D01*
X164610580Y-112893903D01*
X164609559Y-112888769D01*
X164609559Y-111191231D01*
X164610580Y-111186097D01*
X164612790Y-111182790D01*
X164616097Y-111180580D01*
X164621231Y-111179559D01*
X166318769Y-111179559D01*
X166323903Y-111180580D01*
G37*
G36*
X203462328Y-108666838D02*
G01*
X203516219Y-108677558D01*
X203591884Y-108728116D01*
X203642442Y-108803781D01*
X203642442Y-108803782D01*
X203660441Y-108894266D01*
X203660441Y-109395734D01*
X203660196Y-109396965D01*
X203642442Y-109486219D01*
X203591884Y-109561884D01*
X203516219Y-109612442D01*
X203476006Y-109620441D01*
X203425734Y-109630441D01*
X202999266Y-109630441D01*
X202948994Y-109620441D01*
X202908781Y-109612442D01*
X202833116Y-109561884D01*
X202782558Y-109486219D01*
X202764804Y-109396965D01*
X202764559Y-109395734D01*
X202764559Y-108894266D01*
X202782558Y-108803782D01*
X202782558Y-108803781D01*
X202833116Y-108728116D01*
X202908781Y-108677558D01*
X202962672Y-108666838D01*
X202999266Y-108659559D01*
X203425734Y-108659559D01*
X203462328Y-108666838D01*
G37*
G36*
X194537328Y-108666838D02*
G01*
X194591219Y-108677558D01*
X194666884Y-108728116D01*
X194717442Y-108803781D01*
X194717442Y-108803782D01*
X194735441Y-108894266D01*
X194735441Y-109395734D01*
X194735196Y-109396965D01*
X194717442Y-109486219D01*
X194666884Y-109561884D01*
X194591219Y-109612442D01*
X194551006Y-109620441D01*
X194500734Y-109630441D01*
X194074266Y-109630441D01*
X194023994Y-109620441D01*
X193983781Y-109612442D01*
X193908116Y-109561884D01*
X193857558Y-109486219D01*
X193839804Y-109396965D01*
X193839559Y-109395734D01*
X193839559Y-108894266D01*
X193857558Y-108803782D01*
X193857558Y-108803781D01*
X193908116Y-108728116D01*
X193983781Y-108677558D01*
X194037672Y-108666838D01*
X194074266Y-108659559D01*
X194500734Y-108659559D01*
X194537328Y-108666838D01*
G37*
G36*
X196462328Y-108666838D02*
G01*
X196516219Y-108677558D01*
X196591884Y-108728116D01*
X196642442Y-108803781D01*
X196642442Y-108803782D01*
X196660441Y-108894266D01*
X196660441Y-109395734D01*
X196660196Y-109396965D01*
X196642442Y-109486219D01*
X196591884Y-109561884D01*
X196516219Y-109612442D01*
X196476006Y-109620441D01*
X196425734Y-109630441D01*
X195999266Y-109630441D01*
X195948994Y-109620441D01*
X195908781Y-109612442D01*
X195833116Y-109561884D01*
X195782558Y-109486219D01*
X195764804Y-109396965D01*
X195764559Y-109395734D01*
X195764559Y-108894266D01*
X195782558Y-108803782D01*
X195782558Y-108803781D01*
X195833116Y-108728116D01*
X195908781Y-108677558D01*
X195962672Y-108666838D01*
X195999266Y-108659559D01*
X196425734Y-108659559D01*
X196462328Y-108666838D01*
G37*
G36*
X198037328Y-108666838D02*
G01*
X198091219Y-108677558D01*
X198166884Y-108728116D01*
X198217442Y-108803781D01*
X198217442Y-108803782D01*
X198235441Y-108894266D01*
X198235441Y-109395734D01*
X198235196Y-109396965D01*
X198217442Y-109486219D01*
X198166884Y-109561884D01*
X198091219Y-109612442D01*
X198051006Y-109620441D01*
X198000734Y-109630441D01*
X197574266Y-109630441D01*
X197523994Y-109620441D01*
X197483781Y-109612442D01*
X197408116Y-109561884D01*
X197357558Y-109486219D01*
X197339804Y-109396965D01*
X197339559Y-109395734D01*
X197339559Y-108894266D01*
X197357558Y-108803782D01*
X197357558Y-108803781D01*
X197408116Y-108728116D01*
X197483781Y-108677558D01*
X197537672Y-108666838D01*
X197574266Y-108659559D01*
X198000734Y-108659559D01*
X198037328Y-108666838D01*
G37*
G36*
X199962328Y-108666838D02*
G01*
X200016219Y-108677558D01*
X200091884Y-108728116D01*
X200142442Y-108803781D01*
X200142442Y-108803782D01*
X200160441Y-108894266D01*
X200160441Y-109395734D01*
X200160196Y-109396965D01*
X200142442Y-109486219D01*
X200091884Y-109561884D01*
X200016219Y-109612442D01*
X199976006Y-109620441D01*
X199925734Y-109630441D01*
X199499266Y-109630441D01*
X199448994Y-109620441D01*
X199408781Y-109612442D01*
X199333116Y-109561884D01*
X199282558Y-109486219D01*
X199264804Y-109396965D01*
X199264559Y-109395734D01*
X199264559Y-108894266D01*
X199282558Y-108803782D01*
X199282558Y-108803781D01*
X199333116Y-108728116D01*
X199408781Y-108677558D01*
X199462672Y-108666838D01*
X199499266Y-108659559D01*
X199925734Y-108659559D01*
X199962328Y-108666838D01*
G37*
G36*
X201537328Y-108666838D02*
G01*
X201591219Y-108677558D01*
X201666884Y-108728116D01*
X201717442Y-108803781D01*
X201717442Y-108803782D01*
X201735441Y-108894266D01*
X201735441Y-109395734D01*
X201735196Y-109396965D01*
X201717442Y-109486219D01*
X201666884Y-109561884D01*
X201591219Y-109612442D01*
X201551006Y-109620441D01*
X201500734Y-109630441D01*
X201074266Y-109630441D01*
X201023994Y-109620441D01*
X200983781Y-109612442D01*
X200908116Y-109561884D01*
X200857558Y-109486219D01*
X200839804Y-109396965D01*
X200839559Y-109395734D01*
X200839559Y-108894266D01*
X200857558Y-108803782D01*
X200857558Y-108803781D01*
X200908116Y-108728116D01*
X200983781Y-108677558D01*
X201037672Y-108666838D01*
X201074266Y-108659559D01*
X201500734Y-108659559D01*
X201537328Y-108666838D01*
G37*
G36*
X205037328Y-108666838D02*
G01*
X205091219Y-108677558D01*
X205166884Y-108728116D01*
X205217442Y-108803781D01*
X205217442Y-108803782D01*
X205235441Y-108894266D01*
X205235441Y-109395734D01*
X205235196Y-109396965D01*
X205217442Y-109486219D01*
X205166884Y-109561884D01*
X205091219Y-109612442D01*
X205051006Y-109620441D01*
X205000734Y-109630441D01*
X204574266Y-109630441D01*
X204523994Y-109620441D01*
X204483781Y-109612442D01*
X204408116Y-109561884D01*
X204357558Y-109486219D01*
X204339804Y-109396965D01*
X204339559Y-109395734D01*
X204339559Y-108894266D01*
X204357558Y-108803782D01*
X204357558Y-108803781D01*
X204408116Y-108728116D01*
X204483781Y-108677558D01*
X204537672Y-108666838D01*
X204574266Y-108659559D01*
X205000734Y-108659559D01*
X205037328Y-108666838D01*
G37*
G36*
X192962328Y-108666838D02*
G01*
X193016219Y-108677558D01*
X193091884Y-108728116D01*
X193142442Y-108803781D01*
X193142442Y-108803782D01*
X193160441Y-108894266D01*
X193160441Y-109395734D01*
X193160196Y-109396965D01*
X193142442Y-109486219D01*
X193091884Y-109561884D01*
X193016219Y-109612442D01*
X192976006Y-109620441D01*
X192925734Y-109630441D01*
X192499266Y-109630441D01*
X192448994Y-109620441D01*
X192408781Y-109612442D01*
X192333116Y-109561884D01*
X192282558Y-109486219D01*
X192264804Y-109396965D01*
X192264559Y-109395734D01*
X192264559Y-108894266D01*
X192282558Y-108803782D01*
X192282558Y-108803781D01*
X192333116Y-108728116D01*
X192408781Y-108677558D01*
X192462672Y-108666838D01*
X192499266Y-108659559D01*
X192925734Y-108659559D01*
X192962328Y-108666838D01*
G37*
G36*
X177007328Y-108656838D02*
G01*
X177061219Y-108667558D01*
X177136884Y-108718116D01*
X177187442Y-108793781D01*
X177187442Y-108793782D01*
X177205441Y-108884266D01*
X177205441Y-109385734D01*
X177205196Y-109386965D01*
X177187442Y-109476219D01*
X177136884Y-109551884D01*
X177061219Y-109602442D01*
X177010946Y-109612442D01*
X176970734Y-109620441D01*
X176544266Y-109620441D01*
X176504054Y-109612442D01*
X176453781Y-109602442D01*
X176378116Y-109551884D01*
X176327558Y-109476219D01*
X176309804Y-109386965D01*
X176309559Y-109385734D01*
X176309559Y-108884266D01*
X176327558Y-108793782D01*
X176327558Y-108793781D01*
X176378116Y-108718116D01*
X176453781Y-108667558D01*
X176507672Y-108656838D01*
X176544266Y-108649559D01*
X176970734Y-108649559D01*
X177007328Y-108656838D01*
G37*
G36*
X175432328Y-108656838D02*
G01*
X175486219Y-108667558D01*
X175561884Y-108718116D01*
X175612442Y-108793781D01*
X175612442Y-108793782D01*
X175630441Y-108884266D01*
X175630441Y-109385734D01*
X175630196Y-109386965D01*
X175612442Y-109476219D01*
X175561884Y-109551884D01*
X175486219Y-109602442D01*
X175435946Y-109612442D01*
X175395734Y-109620441D01*
X174969266Y-109620441D01*
X174929054Y-109612442D01*
X174878781Y-109602442D01*
X174803116Y-109551884D01*
X174752558Y-109476219D01*
X174734804Y-109386965D01*
X174734559Y-109385734D01*
X174734559Y-108884266D01*
X174752558Y-108793782D01*
X174752558Y-108793781D01*
X174803116Y-108718116D01*
X174878781Y-108667558D01*
X174932672Y-108656838D01*
X174969266Y-108649559D01*
X175395734Y-108649559D01*
X175432328Y-108656838D01*
G37*
G36*
X164932328Y-108656838D02*
G01*
X164986219Y-108667558D01*
X165061884Y-108718116D01*
X165112442Y-108793781D01*
X165112442Y-108793782D01*
X165130441Y-108884266D01*
X165130441Y-109385734D01*
X165130196Y-109386965D01*
X165112442Y-109476219D01*
X165061884Y-109551884D01*
X164986219Y-109602442D01*
X164935946Y-109612442D01*
X164895734Y-109620441D01*
X164469266Y-109620441D01*
X164429054Y-109612442D01*
X164378781Y-109602442D01*
X164303116Y-109551884D01*
X164252558Y-109476219D01*
X164234804Y-109386965D01*
X164234559Y-109385734D01*
X164234559Y-108884266D01*
X164252558Y-108793782D01*
X164252558Y-108793781D01*
X164303116Y-108718116D01*
X164378781Y-108667558D01*
X164432672Y-108656838D01*
X164469266Y-108649559D01*
X164895734Y-108649559D01*
X164932328Y-108656838D01*
G37*
G36*
X166507328Y-108656838D02*
G01*
X166561219Y-108667558D01*
X166636884Y-108718116D01*
X166687442Y-108793781D01*
X166687442Y-108793782D01*
X166705441Y-108884266D01*
X166705441Y-109385734D01*
X166705196Y-109386965D01*
X166687442Y-109476219D01*
X166636884Y-109551884D01*
X166561219Y-109602442D01*
X166510946Y-109612442D01*
X166470734Y-109620441D01*
X166044266Y-109620441D01*
X166004054Y-109612442D01*
X165953781Y-109602442D01*
X165878116Y-109551884D01*
X165827558Y-109476219D01*
X165809804Y-109386965D01*
X165809559Y-109385734D01*
X165809559Y-108884266D01*
X165827558Y-108793782D01*
X165827558Y-108793781D01*
X165878116Y-108718116D01*
X165953781Y-108667558D01*
X166007672Y-108656838D01*
X166044266Y-108649559D01*
X166470734Y-108649559D01*
X166507328Y-108656838D01*
G37*
G36*
X168432328Y-108656838D02*
G01*
X168486219Y-108667558D01*
X168561884Y-108718116D01*
X168612442Y-108793781D01*
X168612442Y-108793782D01*
X168630441Y-108884266D01*
X168630441Y-109385734D01*
X168630196Y-109386965D01*
X168612442Y-109476219D01*
X168561884Y-109551884D01*
X168486219Y-109602442D01*
X168435946Y-109612442D01*
X168395734Y-109620441D01*
X167969266Y-109620441D01*
X167929054Y-109612442D01*
X167878781Y-109602442D01*
X167803116Y-109551884D01*
X167752558Y-109476219D01*
X167734804Y-109386965D01*
X167734559Y-109385734D01*
X167734559Y-108884266D01*
X167752558Y-108793782D01*
X167752558Y-108793781D01*
X167803116Y-108718116D01*
X167878781Y-108667558D01*
X167932672Y-108656838D01*
X167969266Y-108649559D01*
X168395734Y-108649559D01*
X168432328Y-108656838D01*
G37*
G36*
X170007328Y-108656838D02*
G01*
X170061219Y-108667558D01*
X170136884Y-108718116D01*
X170187442Y-108793781D01*
X170187442Y-108793782D01*
X170205441Y-108884266D01*
X170205441Y-109385734D01*
X170205196Y-109386965D01*
X170187442Y-109476219D01*
X170136884Y-109551884D01*
X170061219Y-109602442D01*
X170010946Y-109612442D01*
X169970734Y-109620441D01*
X169544266Y-109620441D01*
X169504054Y-109612442D01*
X169453781Y-109602442D01*
X169378116Y-109551884D01*
X169327558Y-109476219D01*
X169309804Y-109386965D01*
X169309559Y-109385734D01*
X169309559Y-108884266D01*
X169327558Y-108793782D01*
X169327558Y-108793781D01*
X169378116Y-108718116D01*
X169453781Y-108667558D01*
X169507672Y-108656838D01*
X169544266Y-108649559D01*
X169970734Y-108649559D01*
X170007328Y-108656838D01*
G37*
G36*
X171932328Y-108656838D02*
G01*
X171986219Y-108667558D01*
X172061884Y-108718116D01*
X172112442Y-108793781D01*
X172112442Y-108793782D01*
X172130441Y-108884266D01*
X172130441Y-109385734D01*
X172130196Y-109386965D01*
X172112442Y-109476219D01*
X172061884Y-109551884D01*
X171986219Y-109602442D01*
X171935946Y-109612442D01*
X171895734Y-109620441D01*
X171469266Y-109620441D01*
X171429054Y-109612442D01*
X171378781Y-109602442D01*
X171303116Y-109551884D01*
X171252558Y-109476219D01*
X171234804Y-109386965D01*
X171234559Y-109385734D01*
X171234559Y-108884266D01*
X171252558Y-108793782D01*
X171252558Y-108793781D01*
X171303116Y-108718116D01*
X171378781Y-108667558D01*
X171432672Y-108656838D01*
X171469266Y-108649559D01*
X171895734Y-108649559D01*
X171932328Y-108656838D01*
G37*
G36*
X173507328Y-108656838D02*
G01*
X173561219Y-108667558D01*
X173636884Y-108718116D01*
X173687442Y-108793781D01*
X173687442Y-108793782D01*
X173705441Y-108884266D01*
X173705441Y-109385734D01*
X173705196Y-109386965D01*
X173687442Y-109476219D01*
X173636884Y-109551884D01*
X173561219Y-109602442D01*
X173510946Y-109612442D01*
X173470734Y-109620441D01*
X173044266Y-109620441D01*
X173004054Y-109612442D01*
X172953781Y-109602442D01*
X172878116Y-109551884D01*
X172827558Y-109476219D01*
X172809804Y-109386965D01*
X172809559Y-109385734D01*
X172809559Y-108884266D01*
X172827558Y-108793782D01*
X172827558Y-108793781D01*
X172878116Y-108718116D01*
X172953781Y-108667558D01*
X173007672Y-108656838D01*
X173044266Y-108649559D01*
X173470734Y-108649559D01*
X173507328Y-108656838D01*
G37*
G36*
X205379794Y-104347101D02*
G01*
X205612893Y-104415706D01*
X205832031Y-104520700D01*
X206031560Y-104659376D01*
X206206356Y-104828174D01*
X206351906Y-105022735D01*
X206464486Y-105238080D01*
X206541184Y-105468644D01*
X206580023Y-105708441D01*
X206580023Y-105708450D01*
X206580032Y-105708506D01*
X206577157Y-105983091D01*
X206577146Y-105983151D01*
X206577146Y-105983153D01*
X206533293Y-106222089D01*
X206451781Y-106451000D01*
X206334721Y-106663931D01*
X206185124Y-106855408D01*
X206006837Y-107020503D01*
X205804443Y-107154973D01*
X205583159Y-107255352D01*
X205348671Y-107319061D01*
X205107013Y-107344460D01*
X204864397Y-107330896D01*
X204627083Y-107278719D01*
X204401158Y-107189269D01*
X204192441Y-107064848D01*
X204006300Y-106908658D01*
X203847525Y-106724716D01*
X203720203Y-106517756D01*
X203627607Y-106293102D01*
X203572121Y-106056534D01*
X203555171Y-105814136D01*
X203577194Y-105572142D01*
X203637621Y-105336797D01*
X203734903Y-105114124D01*
X203866531Y-104909880D01*
X204029122Y-104729303D01*
X204218492Y-104577046D01*
X204429772Y-104457022D01*
X204657519Y-104372324D01*
X204895883Y-104325127D01*
X205138721Y-104316646D01*
X205379794Y-104347101D01*
G37*
G36*
X203163903Y-101950580D02*
G01*
X203167210Y-101952790D01*
X203169420Y-101956097D01*
X203170441Y-101961231D01*
X203170441Y-103558769D01*
X203169420Y-103563903D01*
X203167210Y-103567210D01*
X203163903Y-103569420D01*
X203158769Y-103570441D01*
X201561231Y-103570441D01*
X201556097Y-103569420D01*
X201552790Y-103567210D01*
X201550580Y-103563903D01*
X201549559Y-103558769D01*
X201549559Y-101961231D01*
X201550580Y-101956097D01*
X201552790Y-101952790D01*
X201556097Y-101950580D01*
X201561231Y-101949559D01*
X203158769Y-101949559D01*
X203163903Y-101950580D01*
G37*
G36*
X202278522Y-99449366D02*
G01*
X202456514Y-99450608D01*
X202633436Y-99492105D01*
X202796765Y-99571766D01*
X202938390Y-99685635D01*
X203051265Y-99828048D01*
X203129786Y-99991935D01*
X203170026Y-100169050D01*
X203170026Y-100169055D01*
X203170045Y-100169139D01*
X203167192Y-100373443D01*
X203167171Y-100373524D01*
X203167171Y-100373532D01*
X203122001Y-100549455D01*
X203038935Y-100711084D01*
X202922127Y-100850290D01*
X202777379Y-100960160D01*
X202611888Y-101035230D01*
X202433875Y-101071772D01*
X202255849Y-101068042D01*
X202252195Y-101067965D01*
X202164033Y-101045984D01*
X202075868Y-101024002D01*
X201913668Y-100942069D01*
X201773647Y-100826233D01*
X201662770Y-100682257D01*
X201586547Y-100517296D01*
X201548765Y-100339543D01*
X201551302Y-100157838D01*
X201591439Y-99991935D01*
X201594033Y-99981211D01*
X201634724Y-99899239D01*
X201674833Y-99818439D01*
X201789688Y-99677614D01*
X201932885Y-99565735D01*
X202097314Y-99488362D01*
X202274793Y-99449340D01*
X202274796Y-99449340D01*
X202278522Y-99449366D01*
G37*
G36*
X202278522Y-97449366D02*
G01*
X202456514Y-97450608D01*
X202633436Y-97492105D01*
X202796765Y-97571766D01*
X202938390Y-97685635D01*
X203051265Y-97828048D01*
X203129786Y-97991935D01*
X203170026Y-98169050D01*
X203170026Y-98169055D01*
X203170045Y-98169139D01*
X203167192Y-98373443D01*
X203167171Y-98373524D01*
X203167171Y-98373532D01*
X203122001Y-98549455D01*
X203038935Y-98711084D01*
X202922127Y-98850290D01*
X202777379Y-98960160D01*
X202611888Y-99035230D01*
X202433875Y-99071772D01*
X202255849Y-99068042D01*
X202252195Y-99067965D01*
X202164033Y-99045984D01*
X202075868Y-99024002D01*
X201913668Y-98942069D01*
X201773647Y-98826233D01*
X201662770Y-98682257D01*
X201586547Y-98517296D01*
X201548765Y-98339543D01*
X201551302Y-98157838D01*
X201591439Y-97991935D01*
X201594033Y-97981211D01*
X201664808Y-97838635D01*
X201674833Y-97818439D01*
X201789688Y-97677614D01*
X201932885Y-97565735D01*
X202097314Y-97488362D01*
X202274793Y-97449340D01*
X202274796Y-97449340D01*
X202278522Y-97449366D01*
G37*
G36*
X137339998Y-96090245D02*
G01*
X137479452Y-96155867D01*
X137598205Y-96254108D01*
X137688795Y-96378795D01*
X137688796Y-96378797D01*
X137745532Y-96522094D01*
X137760000Y-96636623D01*
X137760000Y-97250414D01*
X137721671Y-97451341D01*
X137721478Y-97451692D01*
X137721478Y-97451693D01*
X137647422Y-97586400D01*
X137612999Y-97623056D01*
X137541919Y-97698749D01*
X137439253Y-97763902D01*
X137411789Y-97781331D01*
X137265211Y-97828957D01*
X137111396Y-97838635D01*
X137111393Y-97838635D01*
X136960002Y-97809755D01*
X136820548Y-97744133D01*
X136701795Y-97645892D01*
X136611205Y-97521204D01*
X136598202Y-97488362D01*
X136554468Y-97377905D01*
X136540000Y-97263376D01*
X136540000Y-96649586D01*
X136578329Y-96448659D01*
X136652579Y-96313601D01*
X136758082Y-96201251D01*
X136888211Y-96118669D01*
X137034789Y-96071043D01*
X137188604Y-96061365D01*
X137188607Y-96061365D01*
X137339998Y-96090245D01*
G37*
G36*
X139339998Y-96090245D02*
G01*
X139479452Y-96155867D01*
X139598205Y-96254108D01*
X139688795Y-96378795D01*
X139688796Y-96378797D01*
X139745532Y-96522094D01*
X139760000Y-96636623D01*
X139760000Y-97250414D01*
X139721671Y-97451341D01*
X139721478Y-97451692D01*
X139721478Y-97451693D01*
X139647422Y-97586400D01*
X139612999Y-97623056D01*
X139541919Y-97698749D01*
X139439253Y-97763902D01*
X139411789Y-97781331D01*
X139265211Y-97828957D01*
X139111396Y-97838635D01*
X139111393Y-97838635D01*
X138960002Y-97809755D01*
X138820548Y-97744133D01*
X138701795Y-97645892D01*
X138611205Y-97521204D01*
X138598202Y-97488362D01*
X138554468Y-97377905D01*
X138540000Y-97263376D01*
X138540000Y-96649586D01*
X138578329Y-96448659D01*
X138652579Y-96313601D01*
X138758082Y-96201251D01*
X138888211Y-96118669D01*
X139034789Y-96071043D01*
X139188604Y-96061365D01*
X139188607Y-96061365D01*
X139339998Y-96090245D01*
G37*
G36*
X141339998Y-96090245D02*
G01*
X141479452Y-96155867D01*
X141598205Y-96254108D01*
X141688795Y-96378795D01*
X141688796Y-96378797D01*
X141745532Y-96522094D01*
X141760000Y-96636623D01*
X141760000Y-97250414D01*
X141721671Y-97451341D01*
X141721478Y-97451692D01*
X141721478Y-97451693D01*
X141647422Y-97586400D01*
X141612999Y-97623056D01*
X141541919Y-97698749D01*
X141439253Y-97763902D01*
X141411789Y-97781331D01*
X141265211Y-97828957D01*
X141111396Y-97838635D01*
X141111393Y-97838635D01*
X140960002Y-97809755D01*
X140820548Y-97744133D01*
X140701795Y-97645892D01*
X140611205Y-97521204D01*
X140598202Y-97488362D01*
X140554468Y-97377905D01*
X140540000Y-97263376D01*
X140540000Y-96649586D01*
X140578329Y-96448659D01*
X140652579Y-96313601D01*
X140758082Y-96201251D01*
X140888211Y-96118669D01*
X141034789Y-96071043D01*
X141188604Y-96061365D01*
X141188607Y-96061365D01*
X141339998Y-96090245D01*
G37*
G36*
X143590875Y-96082679D02*
G01*
X143593671Y-96084410D01*
X143596550Y-96084983D01*
X143621229Y-96101473D01*
X143673716Y-96133971D01*
X143677638Y-96139164D01*
X143682552Y-96142448D01*
X143701256Y-96170440D01*
X143732248Y-96211481D01*
X143734187Y-96219725D01*
X143740017Y-96228450D01*
X143760196Y-96329897D01*
X143760196Y-96330305D01*
X143760441Y-96331347D01*
X143760441Y-97568945D01*
X143742321Y-97665875D01*
X143740590Y-97668671D01*
X143740017Y-97671550D01*
X143723527Y-97696229D01*
X143691029Y-97748716D01*
X143685836Y-97752638D01*
X143682552Y-97757552D01*
X143654560Y-97776256D01*
X143613519Y-97807248D01*
X143605275Y-97809187D01*
X143596550Y-97815017D01*
X143495103Y-97835196D01*
X143494695Y-97835196D01*
X143493653Y-97835441D01*
X142806055Y-97835441D01*
X142709125Y-97817321D01*
X142706329Y-97815590D01*
X142703450Y-97815017D01*
X142678771Y-97798527D01*
X142626284Y-97766029D01*
X142622362Y-97760836D01*
X142617448Y-97757552D01*
X142598744Y-97729560D01*
X142567752Y-97688519D01*
X142565813Y-97680275D01*
X142559983Y-97671550D01*
X142539804Y-97570103D01*
X142539804Y-97569695D01*
X142539559Y-97568653D01*
X142539559Y-96331055D01*
X142557679Y-96234125D01*
X142559410Y-96231329D01*
X142559983Y-96228450D01*
X142576473Y-96203771D01*
X142608971Y-96151284D01*
X142614164Y-96147362D01*
X142617448Y-96142448D01*
X142645440Y-96123744D01*
X142686481Y-96092752D01*
X142694725Y-96090813D01*
X142703450Y-96084983D01*
X142804897Y-96064804D01*
X142805305Y-96064804D01*
X142806347Y-96064559D01*
X143493945Y-96064559D01*
X143590875Y-96082679D01*
G37*
G36*
X193633903Y-95750580D02*
G01*
X193637210Y-95752790D01*
X193639420Y-95756097D01*
X193640441Y-95761231D01*
X193640441Y-97758769D01*
X193639420Y-97763903D01*
X193637210Y-97767210D01*
X193633903Y-97769420D01*
X193628769Y-97770441D01*
X191631231Y-97770441D01*
X191626097Y-97769420D01*
X191622790Y-97767210D01*
X191620580Y-97763903D01*
X191619559Y-97758769D01*
X191619559Y-95761231D01*
X191620580Y-95756097D01*
X191622790Y-95752790D01*
X191626097Y-95750580D01*
X191631231Y-95749559D01*
X193628769Y-95749559D01*
X193633903Y-95750580D01*
G37*
G36*
X202278522Y-94949366D02*
G01*
X202456514Y-94950608D01*
X202633436Y-94992105D01*
X202796765Y-95071766D01*
X202938390Y-95185635D01*
X203051265Y-95328048D01*
X203129786Y-95491935D01*
X203170026Y-95669050D01*
X203170026Y-95669055D01*
X203170045Y-95669139D01*
X203167192Y-95873443D01*
X203167171Y-95873524D01*
X203167171Y-95873532D01*
X203122001Y-96049455D01*
X203038935Y-96211084D01*
X202922127Y-96350290D01*
X202777379Y-96460160D01*
X202611888Y-96535230D01*
X202433875Y-96571772D01*
X202255849Y-96568042D01*
X202252195Y-96567965D01*
X202164033Y-96545984D01*
X202075868Y-96524002D01*
X201913668Y-96442069D01*
X201773647Y-96326233D01*
X201662770Y-96182257D01*
X201586547Y-96017296D01*
X201548765Y-95839543D01*
X201551302Y-95657838D01*
X201591439Y-95491935D01*
X201594033Y-95481211D01*
X201634724Y-95399239D01*
X201674833Y-95318439D01*
X201789688Y-95177614D01*
X201932885Y-95065735D01*
X202097314Y-94988362D01*
X202274793Y-94949340D01*
X202274796Y-94949340D01*
X202278522Y-94949366D01*
G37*
G36*
X190887328Y-94486838D02*
G01*
X190941219Y-94497558D01*
X191016884Y-94548116D01*
X191067442Y-94623781D01*
X191067442Y-94623782D01*
X191085441Y-94714266D01*
X191085441Y-95140734D01*
X191085196Y-95141965D01*
X191067442Y-95231219D01*
X191016884Y-95306884D01*
X190941219Y-95357442D01*
X190887328Y-95368162D01*
X190850734Y-95375441D01*
X190349266Y-95375441D01*
X190312672Y-95368162D01*
X190258781Y-95357442D01*
X190183116Y-95306884D01*
X190132558Y-95231219D01*
X190114804Y-95141965D01*
X190114559Y-95140734D01*
X190114559Y-94714266D01*
X190132558Y-94623782D01*
X190132558Y-94623781D01*
X190183116Y-94548116D01*
X190258781Y-94497558D01*
X190312672Y-94486838D01*
X190349266Y-94479559D01*
X190850734Y-94479559D01*
X190887328Y-94486838D01*
G37*
G36*
X189437328Y-94486838D02*
G01*
X189491219Y-94497558D01*
X189566884Y-94548116D01*
X189617442Y-94623781D01*
X189617442Y-94623782D01*
X189635441Y-94714266D01*
X189635441Y-95140734D01*
X189635196Y-95141965D01*
X189617442Y-95231219D01*
X189566884Y-95306884D01*
X189491219Y-95357442D01*
X189437328Y-95368162D01*
X189400734Y-95375441D01*
X188899266Y-95375441D01*
X188862672Y-95368162D01*
X188808781Y-95357442D01*
X188733116Y-95306884D01*
X188682558Y-95231219D01*
X188664804Y-95141965D01*
X188664559Y-95140734D01*
X188664559Y-94714266D01*
X188682558Y-94623782D01*
X188682558Y-94623781D01*
X188733116Y-94548116D01*
X188808781Y-94497558D01*
X188862672Y-94486838D01*
X188899266Y-94479559D01*
X189400734Y-94479559D01*
X189437328Y-94486838D01*
G37*
G36*
X187977328Y-94486838D02*
G01*
X188031219Y-94497558D01*
X188106884Y-94548116D01*
X188157442Y-94623781D01*
X188157442Y-94623782D01*
X188175441Y-94714266D01*
X188175441Y-95140734D01*
X188175196Y-95141965D01*
X188157442Y-95231219D01*
X188106884Y-95306884D01*
X188031219Y-95357442D01*
X187977328Y-95368162D01*
X187940734Y-95375441D01*
X187439266Y-95375441D01*
X187402672Y-95368162D01*
X187348781Y-95357442D01*
X187273116Y-95306884D01*
X187222558Y-95231219D01*
X187204804Y-95141965D01*
X187204559Y-95140734D01*
X187204559Y-94714266D01*
X187222558Y-94623782D01*
X187222558Y-94623781D01*
X187273116Y-94548116D01*
X187348781Y-94497558D01*
X187402672Y-94486838D01*
X187439266Y-94479559D01*
X187940734Y-94479559D01*
X187977328Y-94486838D01*
G37*
G36*
X205379794Y-91207101D02*
G01*
X205612893Y-91275706D01*
X205832031Y-91380700D01*
X206031560Y-91519376D01*
X206206356Y-91688174D01*
X206351906Y-91882735D01*
X206464486Y-92098080D01*
X206541184Y-92328644D01*
X206580023Y-92568441D01*
X206580023Y-92568450D01*
X206580032Y-92568506D01*
X206577157Y-92843091D01*
X206577146Y-92843151D01*
X206577146Y-92843153D01*
X206533293Y-93082089D01*
X206451781Y-93311000D01*
X206334721Y-93523931D01*
X206185124Y-93715408D01*
X206006837Y-93880503D01*
X205804443Y-94014973D01*
X205583159Y-94115352D01*
X205348671Y-94179061D01*
X205107013Y-94204460D01*
X204864397Y-94190896D01*
X204627083Y-94138719D01*
X204401158Y-94049269D01*
X204192441Y-93924848D01*
X204006300Y-93768658D01*
X203847525Y-93584716D01*
X203720203Y-93377756D01*
X203627607Y-93153102D01*
X203572121Y-92916534D01*
X203555171Y-92674136D01*
X203577194Y-92432142D01*
X203637621Y-92196797D01*
X203734903Y-91974124D01*
X203866531Y-91769880D01*
X204029122Y-91589303D01*
X204218492Y-91437046D01*
X204429772Y-91317022D01*
X204657519Y-91232324D01*
X204895883Y-91185127D01*
X205138721Y-91176646D01*
X205379794Y-91207101D01*
G37*
G36*
X190887328Y-92911838D02*
G01*
X190941219Y-92922558D01*
X191016884Y-92973116D01*
X191067442Y-93048781D01*
X191067442Y-93048782D01*
X191085441Y-93139266D01*
X191085441Y-93565734D01*
X191085196Y-93566965D01*
X191067442Y-93656219D01*
X191016884Y-93731884D01*
X190941219Y-93782442D01*
X190887328Y-93793162D01*
X190850734Y-93800441D01*
X190349266Y-93800441D01*
X190312672Y-93793162D01*
X190258781Y-93782442D01*
X190183116Y-93731884D01*
X190132558Y-93656219D01*
X190114804Y-93566965D01*
X190114559Y-93565734D01*
X190114559Y-93139266D01*
X190132558Y-93048782D01*
X190132558Y-93048781D01*
X190183116Y-92973116D01*
X190258781Y-92922558D01*
X190312672Y-92911838D01*
X190349266Y-92904559D01*
X190850734Y-92904559D01*
X190887328Y-92911838D01*
G37*
G36*
X189437328Y-92911838D02*
G01*
X189491219Y-92922558D01*
X189566884Y-92973116D01*
X189617442Y-93048781D01*
X189617442Y-93048782D01*
X189635441Y-93139266D01*
X189635441Y-93565734D01*
X189635196Y-93566965D01*
X189617442Y-93656219D01*
X189566884Y-93731884D01*
X189491219Y-93782442D01*
X189437328Y-93793162D01*
X189400734Y-93800441D01*
X188899266Y-93800441D01*
X188862672Y-93793162D01*
X188808781Y-93782442D01*
X188733116Y-93731884D01*
X188682558Y-93656219D01*
X188664804Y-93566965D01*
X188664559Y-93565734D01*
X188664559Y-93139266D01*
X188682558Y-93048782D01*
X188682558Y-93048781D01*
X188733116Y-92973116D01*
X188808781Y-92922558D01*
X188862672Y-92911838D01*
X188899266Y-92904559D01*
X189400734Y-92904559D01*
X189437328Y-92911838D01*
G37*
G36*
X187977328Y-92911838D02*
G01*
X188031219Y-92922558D01*
X188106884Y-92973116D01*
X188157442Y-93048781D01*
X188157442Y-93048782D01*
X188175441Y-93139266D01*
X188175441Y-93565734D01*
X188175196Y-93566965D01*
X188157442Y-93656219D01*
X188106884Y-93731884D01*
X188031219Y-93782442D01*
X187977328Y-93793162D01*
X187940734Y-93800441D01*
X187439266Y-93800441D01*
X187402672Y-93793162D01*
X187348781Y-93782442D01*
X187273116Y-93731884D01*
X187222558Y-93656219D01*
X187204804Y-93566965D01*
X187204559Y-93565734D01*
X187204559Y-93139266D01*
X187222558Y-93048782D01*
X187222558Y-93048781D01*
X187273116Y-92973116D01*
X187348781Y-92922558D01*
X187402672Y-92911838D01*
X187439266Y-92904559D01*
X187940734Y-92904559D01*
X187977328Y-92911838D01*
G37*
G36*
X141339998Y-91260245D02*
G01*
X141479452Y-91325867D01*
X141598205Y-91424108D01*
X141688795Y-91548795D01*
X141688796Y-91548797D01*
X141745532Y-91692094D01*
X141755358Y-91769879D01*
X141760000Y-91806625D01*
X141760000Y-92420414D01*
X141721671Y-92621341D01*
X141721478Y-92621692D01*
X141721478Y-92621693D01*
X141647422Y-92756400D01*
X141612999Y-92793056D01*
X141541919Y-92868749D01*
X141435901Y-92936029D01*
X141411789Y-92951331D01*
X141265211Y-92998957D01*
X141111396Y-93008635D01*
X141111393Y-93008635D01*
X140960002Y-92979755D01*
X140820548Y-92914133D01*
X140701795Y-92815892D01*
X140611205Y-92691204D01*
X140601176Y-92665874D01*
X140554468Y-92547905D01*
X140540000Y-92433376D01*
X140540000Y-91819586D01*
X140578329Y-91618659D01*
X140652579Y-91483601D01*
X140758082Y-91371251D01*
X140888211Y-91288669D01*
X141034789Y-91241043D01*
X141188604Y-91231365D01*
X141188607Y-91231365D01*
X141339998Y-91260245D01*
G37*
G36*
X137339998Y-91260245D02*
G01*
X137479452Y-91325867D01*
X137598205Y-91424108D01*
X137688795Y-91548795D01*
X137688796Y-91548797D01*
X137745532Y-91692094D01*
X137755358Y-91769879D01*
X137760000Y-91806625D01*
X137760000Y-92420414D01*
X137721671Y-92621341D01*
X137721478Y-92621692D01*
X137721478Y-92621693D01*
X137647422Y-92756400D01*
X137612999Y-92793056D01*
X137541919Y-92868749D01*
X137435901Y-92936029D01*
X137411789Y-92951331D01*
X137265211Y-92998957D01*
X137111396Y-93008635D01*
X137111393Y-93008635D01*
X136960002Y-92979755D01*
X136820548Y-92914133D01*
X136701795Y-92815892D01*
X136611205Y-92691204D01*
X136601176Y-92665874D01*
X136554468Y-92547905D01*
X136540000Y-92433376D01*
X136540000Y-91819586D01*
X136578329Y-91618659D01*
X136652579Y-91483601D01*
X136758082Y-91371251D01*
X136888211Y-91288669D01*
X137034789Y-91241043D01*
X137188604Y-91231365D01*
X137188607Y-91231365D01*
X137339998Y-91260245D01*
G37*
G36*
X139339998Y-91260245D02*
G01*
X139479452Y-91325867D01*
X139598205Y-91424108D01*
X139688795Y-91548795D01*
X139688796Y-91548797D01*
X139745532Y-91692094D01*
X139755358Y-91769879D01*
X139760000Y-91806625D01*
X139760000Y-92420414D01*
X139721671Y-92621341D01*
X139721478Y-92621692D01*
X139721478Y-92621693D01*
X139647422Y-92756400D01*
X139612999Y-92793056D01*
X139541919Y-92868749D01*
X139435901Y-92936029D01*
X139411789Y-92951331D01*
X139265211Y-92998957D01*
X139111396Y-93008635D01*
X139111393Y-93008635D01*
X138960002Y-92979755D01*
X138820548Y-92914133D01*
X138701795Y-92815892D01*
X138611205Y-92691204D01*
X138601176Y-92665874D01*
X138554468Y-92547905D01*
X138540000Y-92433376D01*
X138540000Y-91819586D01*
X138578329Y-91618659D01*
X138652579Y-91483601D01*
X138758082Y-91371251D01*
X138888211Y-91288669D01*
X139034789Y-91241043D01*
X139188604Y-91231365D01*
X139188607Y-91231365D01*
X139339998Y-91260245D01*
G37*
G36*
X143590875Y-91252679D02*
G01*
X143593671Y-91254410D01*
X143596550Y-91254983D01*
X143621229Y-91271473D01*
X143673716Y-91303971D01*
X143677638Y-91309164D01*
X143682552Y-91312448D01*
X143701256Y-91340440D01*
X143732248Y-91381481D01*
X143734187Y-91389725D01*
X143740017Y-91398450D01*
X143760196Y-91499897D01*
X143760196Y-91500305D01*
X143760441Y-91501347D01*
X143760441Y-92738945D01*
X143742321Y-92835875D01*
X143740590Y-92838671D01*
X143740017Y-92841550D01*
X143723527Y-92866229D01*
X143691029Y-92918716D01*
X143685836Y-92922638D01*
X143682552Y-92927552D01*
X143654560Y-92946256D01*
X143613519Y-92977248D01*
X143605275Y-92979187D01*
X143596550Y-92985017D01*
X143495103Y-93005196D01*
X143494695Y-93005196D01*
X143493653Y-93005441D01*
X142806055Y-93005441D01*
X142709125Y-92987321D01*
X142706329Y-92985590D01*
X142703450Y-92985017D01*
X142678771Y-92968527D01*
X142626284Y-92936029D01*
X142622362Y-92930836D01*
X142617448Y-92927552D01*
X142598744Y-92899560D01*
X142567752Y-92858519D01*
X142565813Y-92850275D01*
X142559983Y-92841550D01*
X142539804Y-92740103D01*
X142539804Y-92739695D01*
X142539559Y-92738653D01*
X142539559Y-91501055D01*
X142557679Y-91404125D01*
X142559410Y-91401329D01*
X142559983Y-91398450D01*
X142576473Y-91373771D01*
X142608971Y-91321284D01*
X142614164Y-91317362D01*
X142617448Y-91312448D01*
X142645440Y-91293744D01*
X142686481Y-91262752D01*
X142694725Y-91260813D01*
X142703450Y-91254983D01*
X142804897Y-91234804D01*
X142805305Y-91234804D01*
X142806347Y-91234559D01*
X143493945Y-91234559D01*
X143590875Y-91252679D01*
G37*
G36*
X192736085Y-90750672D02*
G01*
X192930112Y-90790501D01*
X193112705Y-90867257D01*
X193276913Y-90978015D01*
X193416480Y-91118560D01*
X193526093Y-91283540D01*
X193601571Y-91466665D01*
X193640026Y-91660877D01*
X193640026Y-91660883D01*
X193640042Y-91660964D01*
X193636883Y-91887199D01*
X193636864Y-91887282D01*
X193636864Y-91887288D01*
X193593003Y-92080347D01*
X193512439Y-92261296D01*
X193398266Y-92423147D01*
X193254826Y-92559743D01*
X193087591Y-92665874D01*
X192902923Y-92737502D01*
X192707861Y-92771896D01*
X192509832Y-92767748D01*
X192316387Y-92725216D01*
X192134877Y-92645916D01*
X191972232Y-92532875D01*
X191834638Y-92390393D01*
X191727342Y-92223901D01*
X191654429Y-92039743D01*
X191618672Y-91844923D01*
X191621438Y-91646872D01*
X191662620Y-91453126D01*
X191740646Y-91271076D01*
X191852553Y-91107641D01*
X191994066Y-90969061D01*
X192159807Y-90860603D01*
X192343453Y-90786406D01*
X192489378Y-90758570D01*
X192538018Y-90749291D01*
X192538019Y-90749291D01*
X192736085Y-90750672D01*
G37*
G36*
X156397328Y-90286838D02*
G01*
X156451219Y-90297558D01*
X156526884Y-90348116D01*
X156577442Y-90423781D01*
X156577442Y-90423782D01*
X156595441Y-90514266D01*
X156595441Y-90940734D01*
X156595196Y-90941965D01*
X156577442Y-91031219D01*
X156526884Y-91106884D01*
X156451219Y-91157442D01*
X156397328Y-91168162D01*
X156360734Y-91175441D01*
X155859266Y-91175441D01*
X155822672Y-91168162D01*
X155768781Y-91157442D01*
X155693116Y-91106884D01*
X155642558Y-91031219D01*
X155624804Y-90941965D01*
X155624559Y-90940734D01*
X155624559Y-90514266D01*
X155642558Y-90423782D01*
X155642558Y-90423781D01*
X155693116Y-90348116D01*
X155768781Y-90297558D01*
X155822672Y-90286838D01*
X155859266Y-90279559D01*
X156360734Y-90279559D01*
X156397328Y-90286838D01*
G37*
G36*
X162837328Y-88856838D02*
G01*
X162891219Y-88867558D01*
X162966884Y-88918116D01*
X163017442Y-88993781D01*
X163017442Y-88993782D01*
X163035441Y-89084266D01*
X163035441Y-89510734D01*
X163035196Y-89511965D01*
X163017442Y-89601219D01*
X162966884Y-89676884D01*
X162891219Y-89727442D01*
X162837328Y-89738162D01*
X162800734Y-89745441D01*
X162299266Y-89745441D01*
X162262672Y-89738162D01*
X162208781Y-89727442D01*
X162133116Y-89676884D01*
X162082558Y-89601219D01*
X162064804Y-89511965D01*
X162064559Y-89510734D01*
X162064559Y-89084266D01*
X162082558Y-88993782D01*
X162082558Y-88993781D01*
X162133116Y-88918116D01*
X162208781Y-88867558D01*
X162262672Y-88856838D01*
X162299266Y-88849559D01*
X162800734Y-88849559D01*
X162837328Y-88856838D01*
G37*
G36*
X156397328Y-88711838D02*
G01*
X156451219Y-88722558D01*
X156526884Y-88773116D01*
X156577442Y-88848781D01*
X156577442Y-88848782D01*
X156595441Y-88939266D01*
X156595441Y-89365734D01*
X156595196Y-89366965D01*
X156577442Y-89456219D01*
X156526884Y-89531884D01*
X156451219Y-89582442D01*
X156397328Y-89593162D01*
X156360734Y-89600441D01*
X155859266Y-89600441D01*
X155822672Y-89593162D01*
X155768781Y-89582442D01*
X155693116Y-89531884D01*
X155642558Y-89456219D01*
X155624804Y-89366965D01*
X155624559Y-89365734D01*
X155624559Y-88939266D01*
X155642558Y-88848782D01*
X155642558Y-88848781D01*
X155693116Y-88773116D01*
X155768781Y-88722558D01*
X155822672Y-88711838D01*
X155859266Y-88704559D01*
X156360734Y-88704559D01*
X156397328Y-88711838D01*
G37*
G36*
X137339998Y-86440245D02*
G01*
X137479452Y-86505867D01*
X137598205Y-86604108D01*
X137654322Y-86681347D01*
X137688796Y-86728797D01*
X137745532Y-86872094D01*
X137760000Y-86986623D01*
X137760000Y-87600414D01*
X137721671Y-87801341D01*
X137721478Y-87801692D01*
X137721478Y-87801693D01*
X137647422Y-87936400D01*
X137612999Y-87973056D01*
X137541919Y-88048749D01*
X137435901Y-88116029D01*
X137411789Y-88131331D01*
X137265211Y-88178957D01*
X137111396Y-88188635D01*
X137111393Y-88188635D01*
X136960002Y-88159755D01*
X136820548Y-88094133D01*
X136701795Y-87995892D01*
X136611205Y-87871204D01*
X136611204Y-87871202D01*
X136554468Y-87727905D01*
X136540000Y-87613376D01*
X136540000Y-86999586D01*
X136578329Y-86798659D01*
X136652579Y-86663601D01*
X136758082Y-86551251D01*
X136888211Y-86468669D01*
X137034789Y-86421043D01*
X137188604Y-86411365D01*
X137188607Y-86411365D01*
X137339998Y-86440245D01*
G37*
G36*
X141339998Y-86440245D02*
G01*
X141479452Y-86505867D01*
X141598205Y-86604108D01*
X141654322Y-86681347D01*
X141688796Y-86728797D01*
X141745532Y-86872094D01*
X141760000Y-86986623D01*
X141760000Y-87600414D01*
X141721671Y-87801341D01*
X141721478Y-87801692D01*
X141721478Y-87801693D01*
X141647422Y-87936400D01*
X141612999Y-87973056D01*
X141541919Y-88048749D01*
X141435901Y-88116029D01*
X141411789Y-88131331D01*
X141265211Y-88178957D01*
X141111396Y-88188635D01*
X141111393Y-88188635D01*
X140960002Y-88159755D01*
X140820548Y-88094133D01*
X140701795Y-87995892D01*
X140611205Y-87871204D01*
X140611204Y-87871202D01*
X140554468Y-87727905D01*
X140540000Y-87613376D01*
X140540000Y-86999586D01*
X140578329Y-86798659D01*
X140652579Y-86663601D01*
X140758082Y-86551251D01*
X140888211Y-86468669D01*
X141034789Y-86421043D01*
X141188604Y-86411365D01*
X141188607Y-86411365D01*
X141339998Y-86440245D01*
G37*
G36*
X139339998Y-86440245D02*
G01*
X139479452Y-86505867D01*
X139598205Y-86604108D01*
X139654322Y-86681347D01*
X139688796Y-86728797D01*
X139745532Y-86872094D01*
X139760000Y-86986623D01*
X139760000Y-87600414D01*
X139721671Y-87801341D01*
X139721478Y-87801692D01*
X139721478Y-87801693D01*
X139647422Y-87936400D01*
X139612999Y-87973056D01*
X139541919Y-88048749D01*
X139435901Y-88116029D01*
X139411789Y-88131331D01*
X139265211Y-88178957D01*
X139111396Y-88188635D01*
X139111393Y-88188635D01*
X138960002Y-88159755D01*
X138820548Y-88094133D01*
X138701795Y-87995892D01*
X138611205Y-87871204D01*
X138611204Y-87871202D01*
X138554468Y-87727905D01*
X138540000Y-87613376D01*
X138540000Y-86999586D01*
X138578329Y-86798659D01*
X138652579Y-86663601D01*
X138758082Y-86551251D01*
X138888211Y-86468669D01*
X139034789Y-86421043D01*
X139188604Y-86411365D01*
X139188607Y-86411365D01*
X139339998Y-86440245D01*
G37*
G36*
X143590875Y-86432679D02*
G01*
X143593671Y-86434410D01*
X143596550Y-86434983D01*
X143621229Y-86451473D01*
X143673716Y-86483971D01*
X143677638Y-86489164D01*
X143682552Y-86492448D01*
X143701256Y-86520440D01*
X143732248Y-86561481D01*
X143734187Y-86569725D01*
X143740017Y-86578450D01*
X143760196Y-86679897D01*
X143760196Y-86680305D01*
X143760441Y-86681347D01*
X143760441Y-87918945D01*
X143742321Y-88015875D01*
X143740590Y-88018671D01*
X143740017Y-88021550D01*
X143723527Y-88046229D01*
X143691029Y-88098716D01*
X143685836Y-88102638D01*
X143682552Y-88107552D01*
X143654560Y-88126256D01*
X143613519Y-88157248D01*
X143605275Y-88159187D01*
X143596550Y-88165017D01*
X143495103Y-88185196D01*
X143494695Y-88185196D01*
X143493653Y-88185441D01*
X142806055Y-88185441D01*
X142709125Y-88167321D01*
X142706329Y-88165590D01*
X142703450Y-88165017D01*
X142678771Y-88148527D01*
X142626284Y-88116029D01*
X142622362Y-88110836D01*
X142617448Y-88107552D01*
X142598744Y-88079560D01*
X142567752Y-88038519D01*
X142565813Y-88030275D01*
X142559983Y-88021550D01*
X142539804Y-87920103D01*
X142539804Y-87919695D01*
X142539559Y-87918653D01*
X142539559Y-86681055D01*
X142557679Y-86584125D01*
X142559410Y-86581329D01*
X142559983Y-86578450D01*
X142576473Y-86553771D01*
X142608971Y-86501284D01*
X142614164Y-86497362D01*
X142617448Y-86492448D01*
X142645440Y-86473744D01*
X142686481Y-86442752D01*
X142694725Y-86440813D01*
X142703450Y-86434983D01*
X142804897Y-86414804D01*
X142805305Y-86414804D01*
X142806347Y-86414559D01*
X143493945Y-86414559D01*
X143590875Y-86432679D01*
G37*
G36*
X162837328Y-87281838D02*
G01*
X162891219Y-87292558D01*
X162966884Y-87343116D01*
X163017442Y-87418781D01*
X163017442Y-87418782D01*
X163035441Y-87509266D01*
X163035441Y-87935734D01*
X163035196Y-87936965D01*
X163017442Y-88026219D01*
X162966884Y-88101884D01*
X162891219Y-88152442D01*
X162837328Y-88163162D01*
X162800734Y-88170441D01*
X162299266Y-88170441D01*
X162262672Y-88163162D01*
X162208781Y-88152442D01*
X162133116Y-88101884D01*
X162082558Y-88026219D01*
X162064804Y-87936965D01*
X162064559Y-87935734D01*
X162064559Y-87509266D01*
X162082558Y-87418782D01*
X162082558Y-87418781D01*
X162133116Y-87343116D01*
X162208781Y-87292558D01*
X162262672Y-87281838D01*
X162299266Y-87274559D01*
X162800734Y-87274559D01*
X162837328Y-87281838D01*
G37*
G36*
X210303903Y-84690580D02*
G01*
X210307210Y-84692790D01*
X210309420Y-84696097D01*
X210310441Y-84701231D01*
X210310441Y-87298769D01*
X210309420Y-87303903D01*
X210307210Y-87307210D01*
X210303903Y-87309420D01*
X210298769Y-87310441D01*
X207701231Y-87310441D01*
X207696097Y-87309420D01*
X207692790Y-87307210D01*
X207690580Y-87303903D01*
X207689559Y-87298769D01*
X207689559Y-84701231D01*
X207690580Y-84696097D01*
X207692790Y-84692790D01*
X207696097Y-84690580D01*
X207701231Y-84689559D01*
X210298769Y-84689559D01*
X210303903Y-84690580D01*
G37*
G36*
X198276085Y-83600672D02*
G01*
X198470112Y-83640501D01*
X198652705Y-83717257D01*
X198816913Y-83828015D01*
X198956480Y-83968560D01*
X199066093Y-84133540D01*
X199141571Y-84316665D01*
X199180026Y-84510877D01*
X199180026Y-84510883D01*
X199180042Y-84510964D01*
X199176883Y-84737199D01*
X199176864Y-84737282D01*
X199176864Y-84737288D01*
X199133003Y-84930347D01*
X199052439Y-85111296D01*
X198938266Y-85273147D01*
X198794826Y-85409743D01*
X198627591Y-85515874D01*
X198442923Y-85587502D01*
X198247861Y-85621896D01*
X198049832Y-85617748D01*
X197856387Y-85575216D01*
X197674877Y-85495916D01*
X197512232Y-85382875D01*
X197374638Y-85240393D01*
X197267342Y-85073901D01*
X197194429Y-84889743D01*
X197158672Y-84694923D01*
X197161438Y-84496872D01*
X197202620Y-84303126D01*
X197280646Y-84121076D01*
X197392553Y-83957641D01*
X197534066Y-83819061D01*
X197699807Y-83710603D01*
X197883453Y-83636406D01*
X198029378Y-83608570D01*
X198078018Y-83599291D01*
X198078019Y-83599291D01*
X198276085Y-83600672D01*
G37*
G36*
X189975875Y-82992679D02*
G01*
X189978672Y-82994411D01*
X189981549Y-82994983D01*
X190006223Y-83011470D01*
X190058715Y-83043971D01*
X190062636Y-83049163D01*
X190067552Y-83052448D01*
X190086261Y-83080448D01*
X190117248Y-83121482D01*
X190119187Y-83129726D01*
X190125017Y-83138451D01*
X190145196Y-83239898D01*
X190145196Y-83240306D01*
X190145441Y-83241348D01*
X190145441Y-83978944D01*
X190127321Y-84075875D01*
X190125589Y-84078672D01*
X190125017Y-84081549D01*
X190108530Y-84106223D01*
X190076029Y-84158715D01*
X190070837Y-84162636D01*
X190067552Y-84167552D01*
X190039552Y-84186261D01*
X189998518Y-84217248D01*
X189990274Y-84219187D01*
X189981549Y-84225017D01*
X189880102Y-84245196D01*
X189879694Y-84245196D01*
X189878652Y-84245441D01*
X188641056Y-84245441D01*
X188544125Y-84227321D01*
X188541328Y-84225589D01*
X188538451Y-84225017D01*
X188513777Y-84208530D01*
X188461285Y-84176029D01*
X188457364Y-84170837D01*
X188452448Y-84167552D01*
X188433739Y-84139552D01*
X188402752Y-84098518D01*
X188400813Y-84090274D01*
X188394983Y-84081549D01*
X188374804Y-83980102D01*
X188374804Y-83979694D01*
X188374559Y-83978652D01*
X188374559Y-83241056D01*
X188392679Y-83144125D01*
X188394411Y-83141328D01*
X188394983Y-83138451D01*
X188411470Y-83113777D01*
X188443971Y-83061285D01*
X188449163Y-83057364D01*
X188452448Y-83052448D01*
X188480448Y-83033739D01*
X188521482Y-83002752D01*
X188529726Y-83000813D01*
X188538451Y-82994983D01*
X188639898Y-82974804D01*
X188640306Y-82974804D01*
X188641348Y-82974559D01*
X189878944Y-82974559D01*
X189975875Y-82992679D01*
G37*
G36*
X192225875Y-82992679D02*
G01*
X192228672Y-82994411D01*
X192231549Y-82994983D01*
X192256223Y-83011470D01*
X192308715Y-83043971D01*
X192312636Y-83049163D01*
X192317552Y-83052448D01*
X192336261Y-83080448D01*
X192367248Y-83121482D01*
X192369187Y-83129726D01*
X192375017Y-83138451D01*
X192395196Y-83239898D01*
X192395196Y-83240306D01*
X192395441Y-83241348D01*
X192395441Y-83978944D01*
X192377321Y-84075875D01*
X192375589Y-84078672D01*
X192375017Y-84081549D01*
X192358530Y-84106223D01*
X192326029Y-84158715D01*
X192320837Y-84162636D01*
X192317552Y-84167552D01*
X192289552Y-84186261D01*
X192248518Y-84217248D01*
X192240274Y-84219187D01*
X192231549Y-84225017D01*
X192130102Y-84245196D01*
X192129694Y-84245196D01*
X192128652Y-84245441D01*
X190891056Y-84245441D01*
X190794125Y-84227321D01*
X190791328Y-84225589D01*
X190788451Y-84225017D01*
X190763777Y-84208530D01*
X190711285Y-84176029D01*
X190707364Y-84170837D01*
X190702448Y-84167552D01*
X190683739Y-84139552D01*
X190652752Y-84098518D01*
X190650813Y-84090274D01*
X190644983Y-84081549D01*
X190624804Y-83980102D01*
X190624804Y-83979694D01*
X190624559Y-83978652D01*
X190624559Y-83241056D01*
X190642679Y-83144125D01*
X190644411Y-83141328D01*
X190644983Y-83138451D01*
X190661470Y-83113777D01*
X190693971Y-83061285D01*
X190699163Y-83057364D01*
X190702448Y-83052448D01*
X190730448Y-83033739D01*
X190771482Y-83002752D01*
X190779726Y-83000813D01*
X190788451Y-82994983D01*
X190889898Y-82974804D01*
X190890306Y-82974804D01*
X190891348Y-82974559D01*
X192128944Y-82974559D01*
X192225875Y-82992679D01*
G37*
G36*
X137339998Y-81580245D02*
G01*
X137479452Y-81645867D01*
X137598205Y-81744108D01*
X137688795Y-81868795D01*
X137688796Y-81868797D01*
X137745532Y-82012094D01*
X137760000Y-82126623D01*
X137760000Y-82740414D01*
X137721671Y-82941341D01*
X137721478Y-82941692D01*
X137721478Y-82941693D01*
X137647422Y-83076400D01*
X137612999Y-83113056D01*
X137541919Y-83188749D01*
X137435901Y-83256029D01*
X137411789Y-83271331D01*
X137265211Y-83318957D01*
X137111396Y-83328635D01*
X137111393Y-83328635D01*
X136960002Y-83299755D01*
X136820548Y-83234133D01*
X136701795Y-83135892D01*
X136611205Y-83011204D01*
X136611204Y-83011202D01*
X136554468Y-82867905D01*
X136540000Y-82753376D01*
X136540000Y-82139586D01*
X136578329Y-81938659D01*
X136652579Y-81803601D01*
X136758082Y-81691251D01*
X136888211Y-81608669D01*
X137034789Y-81561043D01*
X137188604Y-81551365D01*
X137188607Y-81551365D01*
X137339998Y-81580245D01*
G37*
G36*
X139590875Y-81572679D02*
G01*
X139593671Y-81574410D01*
X139596550Y-81574983D01*
X139621229Y-81591473D01*
X139673716Y-81623971D01*
X139677638Y-81629164D01*
X139682552Y-81632448D01*
X139701256Y-81660440D01*
X139732248Y-81701481D01*
X139734187Y-81709725D01*
X139740017Y-81718450D01*
X139760196Y-81819897D01*
X139760196Y-81820305D01*
X139760441Y-81821347D01*
X139760441Y-83058945D01*
X139742321Y-83155875D01*
X139740590Y-83158671D01*
X139740017Y-83161550D01*
X139723527Y-83186229D01*
X139691029Y-83238716D01*
X139685836Y-83242638D01*
X139682552Y-83247552D01*
X139654560Y-83266256D01*
X139613519Y-83297248D01*
X139605275Y-83299187D01*
X139596550Y-83305017D01*
X139495103Y-83325196D01*
X139494695Y-83325196D01*
X139493653Y-83325441D01*
X138806055Y-83325441D01*
X138709125Y-83307321D01*
X138706329Y-83305590D01*
X138703450Y-83305017D01*
X138678771Y-83288527D01*
X138626284Y-83256029D01*
X138622362Y-83250836D01*
X138617448Y-83247552D01*
X138598744Y-83219560D01*
X138567752Y-83178519D01*
X138565813Y-83170275D01*
X138559983Y-83161550D01*
X138539804Y-83060103D01*
X138539804Y-83059695D01*
X138539559Y-83058653D01*
X138539559Y-81821055D01*
X138557679Y-81724125D01*
X138559410Y-81721329D01*
X138559983Y-81718450D01*
X138576473Y-81693771D01*
X138608971Y-81641284D01*
X138614164Y-81637362D01*
X138617448Y-81632448D01*
X138645440Y-81613744D01*
X138686481Y-81582752D01*
X138694725Y-81580813D01*
X138703450Y-81574983D01*
X138804897Y-81554804D01*
X138805305Y-81554804D01*
X138806347Y-81554559D01*
X139493945Y-81554559D01*
X139590875Y-81572679D01*
G37*
G36*
X209340348Y-79729804D02*
G01*
X209555744Y-79808202D01*
X209754254Y-79922812D01*
X209929848Y-80070152D01*
X210077188Y-80245746D01*
X210191798Y-80444256D01*
X210270196Y-80659652D01*
X210309999Y-80885388D01*
X210309999Y-81114612D01*
X210270196Y-81340348D01*
X210191798Y-81555744D01*
X210077188Y-81754254D01*
X209929848Y-81929848D01*
X209754254Y-82077188D01*
X209555744Y-82191798D01*
X209340348Y-82270196D01*
X209114612Y-82309999D01*
X208885388Y-82309999D01*
X208659652Y-82270196D01*
X208444256Y-82191798D01*
X208245746Y-82077188D01*
X208070152Y-81929848D01*
X207922812Y-81754254D01*
X207808202Y-81555744D01*
X207729804Y-81340348D01*
X207690001Y-81114612D01*
X207690001Y-80885388D01*
X207729804Y-80659652D01*
X207808202Y-80444256D01*
X207922812Y-80245746D01*
X208070152Y-80070152D01*
X208245746Y-79922812D01*
X208444256Y-79808202D01*
X208659652Y-79729804D01*
X208885388Y-79690001D01*
X209114612Y-79690001D01*
X209340348Y-79729804D01*
G37*
G36*
X181717328Y-81019338D02*
G01*
X181771219Y-81030058D01*
X181846884Y-81080616D01*
X181897442Y-81156281D01*
X181897442Y-81156282D01*
X181915441Y-81246766D01*
X181915441Y-81673234D01*
X181915196Y-81674465D01*
X181897442Y-81763719D01*
X181846884Y-81839384D01*
X181771219Y-81889942D01*
X181717328Y-81900662D01*
X181680734Y-81907941D01*
X181179266Y-81907941D01*
X181142672Y-81900662D01*
X181088781Y-81889942D01*
X181013116Y-81839384D01*
X180962558Y-81763719D01*
X180944804Y-81674465D01*
X180944559Y-81673234D01*
X180944559Y-81246766D01*
X180962558Y-81156282D01*
X180962558Y-81156281D01*
X181013116Y-81080616D01*
X181088781Y-81030058D01*
X181142672Y-81019338D01*
X181179266Y-81012059D01*
X181680734Y-81012059D01*
X181717328Y-81019338D01*
G37*
G36*
X189975875Y-80192679D02*
G01*
X189978672Y-80194411D01*
X189981549Y-80194983D01*
X190006223Y-80211470D01*
X190058715Y-80243971D01*
X190062636Y-80249163D01*
X190067552Y-80252448D01*
X190086261Y-80280448D01*
X190117248Y-80321482D01*
X190119187Y-80329726D01*
X190125017Y-80338451D01*
X190145196Y-80439898D01*
X190145196Y-80440306D01*
X190145441Y-80441348D01*
X190145441Y-81178944D01*
X190127321Y-81275875D01*
X190125589Y-81278672D01*
X190125017Y-81281549D01*
X190108530Y-81306223D01*
X190076029Y-81358715D01*
X190070837Y-81362636D01*
X190067552Y-81367552D01*
X190039552Y-81386261D01*
X189998518Y-81417248D01*
X189990274Y-81419187D01*
X189981549Y-81425017D01*
X189880102Y-81445196D01*
X189879694Y-81445196D01*
X189878652Y-81445441D01*
X188641056Y-81445441D01*
X188544125Y-81427321D01*
X188541328Y-81425589D01*
X188538451Y-81425017D01*
X188513777Y-81408530D01*
X188461285Y-81376029D01*
X188457364Y-81370837D01*
X188452448Y-81367552D01*
X188433739Y-81339552D01*
X188402752Y-81298518D01*
X188400813Y-81290274D01*
X188394983Y-81281549D01*
X188374804Y-81180102D01*
X188374804Y-81179694D01*
X188374559Y-81178652D01*
X188374559Y-80441056D01*
X188392679Y-80344125D01*
X188394411Y-80341328D01*
X188394983Y-80338451D01*
X188411470Y-80313777D01*
X188443971Y-80261285D01*
X188449163Y-80257364D01*
X188452448Y-80252448D01*
X188480448Y-80233739D01*
X188521482Y-80202752D01*
X188529726Y-80200813D01*
X188538451Y-80194983D01*
X188639898Y-80174804D01*
X188640306Y-80174804D01*
X188641348Y-80174559D01*
X189878944Y-80174559D01*
X189975875Y-80192679D01*
G37*
G36*
X192225875Y-80192679D02*
G01*
X192228672Y-80194411D01*
X192231549Y-80194983D01*
X192256223Y-80211470D01*
X192308715Y-80243971D01*
X192312636Y-80249163D01*
X192317552Y-80252448D01*
X192336261Y-80280448D01*
X192367248Y-80321482D01*
X192369187Y-80329726D01*
X192375017Y-80338451D01*
X192395196Y-80439898D01*
X192395196Y-80440306D01*
X192395441Y-80441348D01*
X192395441Y-81178944D01*
X192377321Y-81275875D01*
X192375589Y-81278672D01*
X192375017Y-81281549D01*
X192358530Y-81306223D01*
X192326029Y-81358715D01*
X192320837Y-81362636D01*
X192317552Y-81367552D01*
X192289552Y-81386261D01*
X192248518Y-81417248D01*
X192240274Y-81419187D01*
X192231549Y-81425017D01*
X192130102Y-81445196D01*
X192129694Y-81445196D01*
X192128652Y-81445441D01*
X190891056Y-81445441D01*
X190794125Y-81427321D01*
X190791328Y-81425589D01*
X190788451Y-81425017D01*
X190763777Y-81408530D01*
X190711285Y-81376029D01*
X190707364Y-81370837D01*
X190702448Y-81367552D01*
X190683739Y-81339552D01*
X190652752Y-81298518D01*
X190650813Y-81290274D01*
X190644983Y-81281549D01*
X190624804Y-81180102D01*
X190624804Y-81179694D01*
X190624559Y-81178652D01*
X190624559Y-80441056D01*
X190642679Y-80344125D01*
X190644411Y-80341328D01*
X190644983Y-80338451D01*
X190661470Y-80313777D01*
X190693971Y-80261285D01*
X190699163Y-80257364D01*
X190702448Y-80252448D01*
X190730448Y-80233739D01*
X190771482Y-80202752D01*
X190779726Y-80200813D01*
X190788451Y-80194983D01*
X190889898Y-80174804D01*
X190890306Y-80174804D01*
X190891348Y-80174559D01*
X192128944Y-80174559D01*
X192225875Y-80192679D01*
G37*
G36*
X199173903Y-78600580D02*
G01*
X199177210Y-78602790D01*
X199179420Y-78606097D01*
X199180441Y-78611231D01*
X199180441Y-80608769D01*
X199179420Y-80613903D01*
X199177210Y-80617210D01*
X199173903Y-80619420D01*
X199168769Y-80620441D01*
X197171231Y-80620441D01*
X197166097Y-80619420D01*
X197162790Y-80617210D01*
X197160580Y-80613903D01*
X197159559Y-80608769D01*
X197159559Y-78611231D01*
X197160580Y-78606097D01*
X197162790Y-78602790D01*
X197166097Y-78600580D01*
X197171231Y-78599559D01*
X199168769Y-78599559D01*
X199173903Y-78600580D01*
G37*
G36*
X181717328Y-79444338D02*
G01*
X181771219Y-79455058D01*
X181846884Y-79505616D01*
X181897442Y-79581281D01*
X181897442Y-79581282D01*
X181915441Y-79671766D01*
X181915441Y-80098234D01*
X181915196Y-80099465D01*
X181897442Y-80188719D01*
X181846884Y-80264384D01*
X181771219Y-80314942D01*
X181717328Y-80325662D01*
X181680734Y-80332941D01*
X181179266Y-80332941D01*
X181142672Y-80325662D01*
X181088781Y-80314942D01*
X181013116Y-80264384D01*
X180962558Y-80188719D01*
X180944804Y-80099465D01*
X180944559Y-80098234D01*
X180944559Y-79671766D01*
X180962558Y-79581282D01*
X180962558Y-79581281D01*
X181013116Y-79505616D01*
X181088781Y-79455058D01*
X181142672Y-79444338D01*
X181179266Y-79437059D01*
X181680734Y-79437059D01*
X181717328Y-79444338D01*
G37*
G36*
X154672183Y-73737563D02*
G01*
X154687701Y-73736587D01*
X154740892Y-73747893D01*
X154798061Y-73756488D01*
X154812256Y-73763062D01*
X154824380Y-73765639D01*
X154875292Y-73792255D01*
X154930622Y-73817880D01*
X154940025Y-73826098D01*
X154948213Y-73830378D01*
X154992324Y-73871801D01*
X155040624Y-73914010D01*
X155045639Y-73921867D01*
X155050070Y-73926028D01*
X155082971Y-73980354D01*
X155119224Y-74037150D01*
X155120946Y-74043057D01*
X155122455Y-74045549D01*
X155140260Y-74109322D01*
X155160104Y-74177401D01*
X155159795Y-74201034D01*
X155158439Y-74330592D01*
X155158083Y-74331770D01*
X155158029Y-74335927D01*
X155136889Y-74401969D01*
X155118069Y-74464302D01*
X155115782Y-74467905D01*
X155113492Y-74475060D01*
X155076544Y-74529734D01*
X155043199Y-74582277D01*
X155037675Y-74587251D01*
X155031695Y-74596100D01*
X154983348Y-74636168D01*
X154939356Y-74675778D01*
X154929870Y-74680487D01*
X154919214Y-74689318D01*
X154864486Y-74712944D01*
X154814203Y-74737905D01*
X154800699Y-74740481D01*
X154785091Y-74747219D01*
X154729046Y-74754150D01*
X154676941Y-74764090D01*
X154660105Y-74762676D01*
X154640109Y-74765149D01*
X154587470Y-74756576D01*
X154537702Y-74752397D01*
X154518922Y-74745413D01*
X154495921Y-74741667D01*
X154450631Y-74720016D01*
X154406734Y-74703691D01*
X154387980Y-74690065D01*
X154364120Y-74678659D01*
X154329062Y-74647259D01*
X154293687Y-74621557D01*
X154277341Y-74600933D01*
X154255300Y-74581192D01*
X154232119Y-74543878D01*
X154206894Y-74512052D01*
X154195481Y-74484902D01*
X154178210Y-74457101D01*
X154167274Y-74417802D01*
X154152745Y-74383238D01*
X154148662Y-74350913D01*
X154139047Y-74316361D01*
X154139540Y-74278707D01*
X154135233Y-74244611D01*
X154140449Y-74209287D01*
X154140960Y-74170286D01*
X154151082Y-74137280D01*
X154155646Y-74106375D01*
X154171439Y-74070903D01*
X154183793Y-74030620D01*
X154201045Y-74004406D01*
X154212478Y-73978727D01*
X154239218Y-73946404D01*
X154264105Y-73908589D01*
X154285628Y-73890304D01*
X154301547Y-73871061D01*
X154338551Y-73845342D01*
X154375439Y-73814004D01*
X154398357Y-73803776D01*
X154416288Y-73791314D01*
X154461786Y-73775470D01*
X154508844Y-73754469D01*
X154530589Y-73751510D01*
X154548248Y-73745360D01*
X154599439Y-73742140D01*
X154653597Y-73734769D01*
X154672183Y-73737563D01*
G37*
G36*
X150272183Y-73737563D02*
G01*
X150287701Y-73736587D01*
X150340892Y-73747893D01*
X150398061Y-73756488D01*
X150412256Y-73763062D01*
X150424380Y-73765639D01*
X150475292Y-73792255D01*
X150530622Y-73817880D01*
X150540025Y-73826098D01*
X150548213Y-73830378D01*
X150592324Y-73871801D01*
X150640624Y-73914010D01*
X150645639Y-73921867D01*
X150650070Y-73926028D01*
X150682971Y-73980354D01*
X150719224Y-74037150D01*
X150720946Y-74043057D01*
X150722455Y-74045549D01*
X150740260Y-74109322D01*
X150760104Y-74177401D01*
X150759795Y-74201034D01*
X150758439Y-74330592D01*
X150758083Y-74331770D01*
X150758029Y-74335927D01*
X150736889Y-74401969D01*
X150718069Y-74464302D01*
X150715782Y-74467905D01*
X150713492Y-74475060D01*
X150676544Y-74529734D01*
X150643199Y-74582277D01*
X150637675Y-74587251D01*
X150631695Y-74596100D01*
X150583348Y-74636168D01*
X150539356Y-74675778D01*
X150529870Y-74680487D01*
X150519214Y-74689318D01*
X150464486Y-74712944D01*
X150414203Y-74737905D01*
X150400699Y-74740481D01*
X150385091Y-74747219D01*
X150329046Y-74754150D01*
X150276941Y-74764090D01*
X150260105Y-74762676D01*
X150240109Y-74765149D01*
X150187470Y-74756576D01*
X150137702Y-74752397D01*
X150118922Y-74745413D01*
X150095921Y-74741667D01*
X150050631Y-74720016D01*
X150006734Y-74703691D01*
X149987980Y-74690065D01*
X149964120Y-74678659D01*
X149929062Y-74647259D01*
X149893687Y-74621557D01*
X149877341Y-74600933D01*
X149855300Y-74581192D01*
X149832119Y-74543878D01*
X149806894Y-74512052D01*
X149795481Y-74484902D01*
X149778210Y-74457101D01*
X149767274Y-74417802D01*
X149752745Y-74383238D01*
X149748662Y-74350913D01*
X149739047Y-74316361D01*
X149739540Y-74278707D01*
X149735233Y-74244611D01*
X149740449Y-74209287D01*
X149740960Y-74170286D01*
X149751082Y-74137280D01*
X149755646Y-74106375D01*
X149771439Y-74070903D01*
X149783793Y-74030620D01*
X149801045Y-74004406D01*
X149812478Y-73978727D01*
X149839218Y-73946404D01*
X149864105Y-73908589D01*
X149885628Y-73890304D01*
X149901547Y-73871061D01*
X149938551Y-73845342D01*
X149975439Y-73814004D01*
X149998357Y-73803776D01*
X150016288Y-73791314D01*
X150061786Y-73775470D01*
X150108844Y-73754469D01*
X150130589Y-73751510D01*
X150148248Y-73745360D01*
X150199439Y-73742140D01*
X150253597Y-73734769D01*
X150272183Y-73737563D01*
G37*
G36*
X211297011Y-71429643D02*
G01*
X211538022Y-71507953D01*
X211763823Y-71623004D01*
X211968846Y-71771962D01*
X212148038Y-71951154D01*
X212296996Y-72156177D01*
X212412047Y-72381978D01*
X212490357Y-72622989D01*
X212530000Y-72873290D01*
X212530000Y-73126710D01*
X212490357Y-73377011D01*
X212412047Y-73618022D01*
X212296996Y-73843823D01*
X212148038Y-74048846D01*
X211968846Y-74228038D01*
X211763823Y-74376996D01*
X211538022Y-74492047D01*
X211297011Y-74570357D01*
X211046710Y-74610000D01*
X210793290Y-74610000D01*
X210542989Y-74570357D01*
X210301978Y-74492047D01*
X210076177Y-74376996D01*
X209871154Y-74228038D01*
X209691962Y-74048846D01*
X209543004Y-73843823D01*
X209427953Y-73618022D01*
X209349643Y-73377011D01*
X209310000Y-73126710D01*
X209310000Y-72873290D01*
X209349643Y-72622989D01*
X209427953Y-72381978D01*
X209543004Y-72156177D01*
X209691962Y-71951154D01*
X209871154Y-71771962D01*
X210076177Y-71623004D01*
X210301978Y-71507953D01*
X210542989Y-71429643D01*
X210793290Y-71390000D01*
X211046710Y-71390000D01*
X211297011Y-71429643D01*
G37*
G36*
X138377011Y-71429643D02*
G01*
X138618022Y-71507953D01*
X138843823Y-71623004D01*
X139048846Y-71771962D01*
X139228038Y-71951154D01*
X139376996Y-72156177D01*
X139492047Y-72381978D01*
X139570357Y-72622989D01*
X139610000Y-72873290D01*
X139610000Y-73126710D01*
X139570357Y-73377011D01*
X139492047Y-73618022D01*
X139376996Y-73843823D01*
X139228038Y-74048846D01*
X139048846Y-74228038D01*
X138843823Y-74376996D01*
X138618022Y-74492047D01*
X138377011Y-74570357D01*
X138126710Y-74610000D01*
X137873290Y-74610000D01*
X137622989Y-74570357D01*
X137381978Y-74492047D01*
X137156177Y-74376996D01*
X136951154Y-74228038D01*
X136771962Y-74048846D01*
X136623004Y-73843823D01*
X136507953Y-73618022D01*
X136429643Y-73377011D01*
X136390000Y-73126710D01*
X136390000Y-72873290D01*
X136429643Y-72622989D01*
X136507953Y-72381978D01*
X136623004Y-72156177D01*
X136771962Y-71951154D01*
X136951154Y-71771962D01*
X137156177Y-71623004D01*
X137381978Y-71507953D01*
X137622989Y-71429643D01*
X137873290Y-71390000D01*
X138126710Y-71390000D01*
X138377011Y-71429643D01*
G37*
G36*
X155183903Y-71780580D02*
G01*
X155187210Y-71782790D01*
X155189420Y-71786097D01*
X155190441Y-71791231D01*
X155190441Y-73288769D01*
X155189420Y-73293903D01*
X155187210Y-73297210D01*
X155183903Y-73299420D01*
X155178769Y-73300441D01*
X154481231Y-73300441D01*
X154476097Y-73299420D01*
X154472790Y-73297210D01*
X154470580Y-73293903D01*
X154469559Y-73288769D01*
X154469559Y-71791231D01*
X154470580Y-71786097D01*
X154472790Y-71782790D01*
X154476097Y-71780580D01*
X154481231Y-71779559D01*
X155178769Y-71779559D01*
X155183903Y-71780580D01*
G37*
G36*
X153683903Y-71780580D02*
G01*
X153687210Y-71782790D01*
X153689420Y-71786097D01*
X153690441Y-71791231D01*
X153690441Y-73288769D01*
X153689420Y-73293903D01*
X153687210Y-73297210D01*
X153683903Y-73299420D01*
X153678769Y-73300441D01*
X152981231Y-73300441D01*
X152976097Y-73299420D01*
X152972790Y-73297210D01*
X152970580Y-73293903D01*
X152969559Y-73288769D01*
X152969559Y-71791231D01*
X152970580Y-71786097D01*
X152972790Y-71782790D01*
X152976097Y-71780580D01*
X152981231Y-71779559D01*
X153678769Y-71779559D01*
X153683903Y-71780580D01*
G37*
G36*
X150683903Y-71780580D02*
G01*
X150687210Y-71782790D01*
X150689420Y-71786097D01*
X150690441Y-71791231D01*
X150690441Y-73288769D01*
X150689420Y-73293903D01*
X150687210Y-73297210D01*
X150683903Y-73299420D01*
X150678769Y-73300441D01*
X149981231Y-73300441D01*
X149976097Y-73299420D01*
X149972790Y-73297210D01*
X149970580Y-73293903D01*
X149969559Y-73288769D01*
X149969559Y-71791231D01*
X149970580Y-71786097D01*
X149972790Y-71782790D01*
X149976097Y-71780580D01*
X149981231Y-71779559D01*
X150678769Y-71779559D01*
X150683903Y-71780580D01*
G37*
G36*
X179953903Y-71670580D02*
G01*
X179957210Y-71672790D01*
X179959420Y-71676097D01*
X179960441Y-71681231D01*
X179960441Y-73178769D01*
X179959420Y-73183903D01*
X179957210Y-73187210D01*
X179953903Y-73189420D01*
X179948769Y-73190441D01*
X179251231Y-73190441D01*
X179246097Y-73189420D01*
X179242790Y-73187210D01*
X179240580Y-73183903D01*
X179239559Y-73178769D01*
X179239559Y-71681231D01*
X179240580Y-71676097D01*
X179242790Y-71672790D01*
X179246097Y-71670580D01*
X179251231Y-71669559D01*
X179948769Y-71669559D01*
X179953903Y-71670580D01*
G37*
G36*
X178453903Y-71670580D02*
G01*
X178457210Y-71672790D01*
X178459420Y-71676097D01*
X178460441Y-71681231D01*
X178460441Y-73178769D01*
X178459420Y-73183903D01*
X178457210Y-73187210D01*
X178453903Y-73189420D01*
X178448769Y-73190441D01*
X177751231Y-73190441D01*
X177746097Y-73189420D01*
X177742790Y-73187210D01*
X177740580Y-73183903D01*
X177739559Y-73178769D01*
X177739559Y-71681231D01*
X177740580Y-71676097D01*
X177742790Y-71672790D01*
X177746097Y-71670580D01*
X177751231Y-71669559D01*
X178448769Y-71669559D01*
X178453903Y-71670580D01*
G37*
G36*
X175453903Y-71670580D02*
G01*
X175457210Y-71672790D01*
X175459420Y-71676097D01*
X175460441Y-71681231D01*
X175460441Y-73178769D01*
X175459420Y-73183903D01*
X175457210Y-73187210D01*
X175453903Y-73189420D01*
X175448769Y-73190441D01*
X174751231Y-73190441D01*
X174746097Y-73189420D01*
X174742790Y-73187210D01*
X174740580Y-73183903D01*
X174739559Y-73178769D01*
X174739559Y-71681231D01*
X174740580Y-71676097D01*
X174742790Y-71672790D01*
X174746097Y-71670580D01*
X174751231Y-71669559D01*
X175448769Y-71669559D01*
X175453903Y-71670580D01*
G37*
G36*
X165119998Y-71100245D02*
G01*
X165259452Y-71165867D01*
X165378205Y-71264108D01*
X165459569Y-71376097D01*
X165468796Y-71388797D01*
X165525532Y-71532094D01*
X165540000Y-71646623D01*
X165540000Y-72260414D01*
X165501671Y-72461341D01*
X165501478Y-72461692D01*
X165501478Y-72461693D01*
X165427422Y-72596400D01*
X165402451Y-72622991D01*
X165321919Y-72708749D01*
X165215901Y-72776029D01*
X165191789Y-72791331D01*
X165045211Y-72838957D01*
X164891396Y-72848635D01*
X164891393Y-72848635D01*
X164740002Y-72819755D01*
X164600548Y-72754133D01*
X164481795Y-72655892D01*
X164391205Y-72531204D01*
X164391204Y-72531202D01*
X164334468Y-72387905D01*
X164320000Y-72273376D01*
X164320000Y-71659586D01*
X164358329Y-71458659D01*
X164432579Y-71323601D01*
X164538082Y-71211251D01*
X164668211Y-71128669D01*
X164715004Y-71113465D01*
X164814789Y-71081043D01*
X164968604Y-71071365D01*
X164968607Y-71071365D01*
X165119998Y-71100245D01*
G37*
G36*
X163119998Y-71100245D02*
G01*
X163259452Y-71165867D01*
X163378205Y-71264108D01*
X163459569Y-71376097D01*
X163468796Y-71388797D01*
X163525532Y-71532094D01*
X163540000Y-71646623D01*
X163540000Y-72260414D01*
X163501671Y-72461341D01*
X163501478Y-72461692D01*
X163501478Y-72461693D01*
X163427422Y-72596400D01*
X163402451Y-72622991D01*
X163321919Y-72708749D01*
X163215901Y-72776029D01*
X163191789Y-72791331D01*
X163045211Y-72838957D01*
X162891396Y-72848635D01*
X162891393Y-72848635D01*
X162740002Y-72819755D01*
X162600548Y-72754133D01*
X162481795Y-72655892D01*
X162391205Y-72531204D01*
X162391204Y-72531202D01*
X162334468Y-72387905D01*
X162320000Y-72273376D01*
X162320000Y-71659586D01*
X162358329Y-71458659D01*
X162432579Y-71323601D01*
X162538082Y-71211251D01*
X162668211Y-71128669D01*
X162715004Y-71113465D01*
X162814789Y-71081043D01*
X162968604Y-71071365D01*
X162968607Y-71071365D01*
X163119998Y-71100245D01*
G37*
G36*
X167119998Y-71100245D02*
G01*
X167259452Y-71165867D01*
X167378205Y-71264108D01*
X167459569Y-71376097D01*
X167468796Y-71388797D01*
X167525532Y-71532094D01*
X167540000Y-71646623D01*
X167540000Y-72260414D01*
X167501671Y-72461341D01*
X167501478Y-72461692D01*
X167501478Y-72461693D01*
X167427422Y-72596400D01*
X167402451Y-72622991D01*
X167321919Y-72708749D01*
X167215901Y-72776029D01*
X167191789Y-72791331D01*
X167045211Y-72838957D01*
X166891396Y-72848635D01*
X166891393Y-72848635D01*
X166740002Y-72819755D01*
X166600548Y-72754133D01*
X166481795Y-72655892D01*
X166391205Y-72531204D01*
X166391204Y-72531202D01*
X166334468Y-72387905D01*
X166320000Y-72273376D01*
X166320000Y-71659586D01*
X166358329Y-71458659D01*
X166432579Y-71323601D01*
X166538082Y-71211251D01*
X166668211Y-71128669D01*
X166715004Y-71113465D01*
X166814789Y-71081043D01*
X166968604Y-71071365D01*
X166968607Y-71071365D01*
X167119998Y-71100245D01*
G37*
G36*
X169370875Y-71092679D02*
G01*
X169373671Y-71094410D01*
X169376550Y-71094983D01*
X169401229Y-71111473D01*
X169453716Y-71143971D01*
X169457638Y-71149164D01*
X169462552Y-71152448D01*
X169481256Y-71180440D01*
X169512248Y-71221481D01*
X169514187Y-71229725D01*
X169520017Y-71238450D01*
X169540196Y-71339897D01*
X169540196Y-71340305D01*
X169540441Y-71341347D01*
X169540441Y-72578945D01*
X169522321Y-72675875D01*
X169520590Y-72678671D01*
X169520017Y-72681550D01*
X169503527Y-72706229D01*
X169471029Y-72758716D01*
X169465836Y-72762638D01*
X169462552Y-72767552D01*
X169434560Y-72786256D01*
X169393519Y-72817248D01*
X169385275Y-72819187D01*
X169376550Y-72825017D01*
X169275103Y-72845196D01*
X169274695Y-72845196D01*
X169273653Y-72845441D01*
X168586055Y-72845441D01*
X168489125Y-72827321D01*
X168486329Y-72825590D01*
X168483450Y-72825017D01*
X168458771Y-72808527D01*
X168406284Y-72776029D01*
X168402362Y-72770836D01*
X168397448Y-72767552D01*
X168378744Y-72739560D01*
X168347752Y-72698519D01*
X168345813Y-72690275D01*
X168339983Y-72681550D01*
X168319804Y-72580103D01*
X168319804Y-72579695D01*
X168319559Y-72578653D01*
X168319559Y-71341055D01*
X168337679Y-71244125D01*
X168339410Y-71241329D01*
X168339983Y-71238450D01*
X168356473Y-71213771D01*
X168388971Y-71161284D01*
X168394164Y-71157362D01*
X168397448Y-71152448D01*
X168425440Y-71133744D01*
X168466481Y-71102752D01*
X168474725Y-71100813D01*
X168483450Y-71094983D01*
X168584897Y-71074804D01*
X168585305Y-71074804D01*
X168586347Y-71074559D01*
X169273945Y-71074559D01*
X169370875Y-71092679D01*
G37*
G36*
X149433903Y-71480580D02*
G01*
X149437210Y-71482790D01*
X149439420Y-71486097D01*
X149440441Y-71491231D01*
X149440441Y-72288769D01*
X149439420Y-72293903D01*
X149437210Y-72297210D01*
X149433903Y-72299420D01*
X149428769Y-72300441D01*
X148431231Y-72300441D01*
X148426097Y-72299420D01*
X148422790Y-72297210D01*
X148420580Y-72293903D01*
X148419559Y-72288769D01*
X148419559Y-71491231D01*
X148420580Y-71486097D01*
X148422790Y-71482790D01*
X148426097Y-71480580D01*
X148431231Y-71479559D01*
X149428769Y-71479559D01*
X149433903Y-71480580D01*
G37*
G36*
X156733903Y-71480580D02*
G01*
X156737210Y-71482790D01*
X156739420Y-71486097D01*
X156740441Y-71491231D01*
X156740441Y-72288769D01*
X156739420Y-72293903D01*
X156737210Y-72297210D01*
X156733903Y-72299420D01*
X156728769Y-72300441D01*
X155731231Y-72300441D01*
X155726097Y-72299420D01*
X155722790Y-72297210D01*
X155720580Y-72293903D01*
X155719559Y-72288769D01*
X155719559Y-71491231D01*
X155720580Y-71486097D01*
X155722790Y-71482790D01*
X155726097Y-71480580D01*
X155731231Y-71479559D01*
X156728769Y-71479559D01*
X156733903Y-71480580D01*
G37*
G36*
X174203903Y-71370580D02*
G01*
X174207210Y-71372790D01*
X174209420Y-71376097D01*
X174210441Y-71381231D01*
X174210441Y-72178769D01*
X174209420Y-72183903D01*
X174207210Y-72187210D01*
X174203903Y-72189420D01*
X174198769Y-72190441D01*
X173201231Y-72190441D01*
X173196097Y-72189420D01*
X173192790Y-72187210D01*
X173190580Y-72183903D01*
X173189559Y-72178769D01*
X173189559Y-71381231D01*
X173190580Y-71376097D01*
X173192790Y-71372790D01*
X173196097Y-71370580D01*
X173201231Y-71369559D01*
X174198769Y-71369559D01*
X174203903Y-71370580D01*
G37*
G36*
X181503903Y-71370580D02*
G01*
X181507210Y-71372790D01*
X181509420Y-71376097D01*
X181510441Y-71381231D01*
X181510441Y-72178769D01*
X181509420Y-72183903D01*
X181507210Y-72187210D01*
X181503903Y-72189420D01*
X181498769Y-72190441D01*
X180501231Y-72190441D01*
X180496097Y-72189420D01*
X180492790Y-72187210D01*
X180490580Y-72183903D01*
X180489559Y-72178769D01*
X180489559Y-71381231D01*
X180490580Y-71376097D01*
X180492790Y-71372790D01*
X180496097Y-71370580D01*
X180501231Y-71369559D01*
X181498769Y-71369559D01*
X181503903Y-71370580D01*
G37*
G36*
X199569997Y-70140245D02*
G01*
X199709451Y-70205867D01*
X199828205Y-70304108D01*
X199901633Y-70405174D01*
X199918796Y-70428797D01*
X199975532Y-70572094D01*
X199987387Y-70665940D01*
X199990000Y-70686625D01*
X199990000Y-71300414D01*
X199951671Y-71501341D01*
X199951478Y-71501692D01*
X199951478Y-71501693D01*
X199913264Y-71571203D01*
X199877422Y-71636399D01*
X199771919Y-71748749D01*
X199665902Y-71816029D01*
X199641790Y-71831331D01*
X199495212Y-71878957D01*
X199341397Y-71888635D01*
X199341394Y-71888635D01*
X199190003Y-71859755D01*
X199050549Y-71794133D01*
X198931796Y-71695892D01*
X198841205Y-71571205D01*
X198841204Y-71571203D01*
X198784468Y-71427906D01*
X198770000Y-71313377D01*
X198770000Y-70699587D01*
X198808329Y-70498660D01*
X198808522Y-70498309D01*
X198808522Y-70498308D01*
X198867931Y-70390245D01*
X198882578Y-70363602D01*
X198988081Y-70251251D01*
X199118210Y-70168669D01*
X199264788Y-70121043D01*
X199418603Y-70111365D01*
X199418606Y-70111365D01*
X199569997Y-70140245D01*
G37*
G36*
X197820875Y-70132679D02*
G01*
X197823671Y-70134410D01*
X197826550Y-70134983D01*
X197851229Y-70151473D01*
X197903716Y-70183971D01*
X197907638Y-70189164D01*
X197912552Y-70192448D01*
X197931256Y-70220440D01*
X197962248Y-70261481D01*
X197964187Y-70269725D01*
X197970017Y-70278450D01*
X197990196Y-70379897D01*
X197990196Y-70380305D01*
X197990441Y-70381347D01*
X197990441Y-71618945D01*
X197972321Y-71715875D01*
X197970590Y-71718671D01*
X197970017Y-71721550D01*
X197953527Y-71746229D01*
X197921029Y-71798716D01*
X197915836Y-71802638D01*
X197912552Y-71807552D01*
X197884560Y-71826256D01*
X197843519Y-71857248D01*
X197835275Y-71859187D01*
X197826550Y-71865017D01*
X197725103Y-71885196D01*
X197724695Y-71885196D01*
X197723653Y-71885441D01*
X197036055Y-71885441D01*
X196939125Y-71867321D01*
X196936329Y-71865590D01*
X196933450Y-71865017D01*
X196908771Y-71848527D01*
X196856284Y-71816029D01*
X196852362Y-71810836D01*
X196847448Y-71807552D01*
X196828744Y-71779559D01*
X196797752Y-71738519D01*
X196795813Y-71730275D01*
X196789983Y-71721550D01*
X196769804Y-71620103D01*
X196769804Y-71619695D01*
X196769559Y-71618653D01*
X196769559Y-70381055D01*
X196787679Y-70284125D01*
X196789410Y-70281329D01*
X196789983Y-70278450D01*
X196806473Y-70253771D01*
X196838971Y-70201284D01*
X196844164Y-70197362D01*
X196847448Y-70192448D01*
X196875440Y-70173744D01*
X196916481Y-70142752D01*
X196924725Y-70140813D01*
X196933450Y-70134983D01*
X197034897Y-70114804D01*
X197035305Y-70114804D01*
X197036347Y-70114559D01*
X197723945Y-70114559D01*
X197820875Y-70132679D01*
G37*
G36*
X154132671Y-70322712D02*
G01*
X154185437Y-70326911D01*
X154200580Y-70332922D01*
X154213544Y-70334871D01*
X154261849Y-70357242D01*
X154314002Y-70377944D01*
X154324170Y-70386105D01*
X154333110Y-70390245D01*
X154375671Y-70427438D01*
X154421879Y-70464524D01*
X154427367Y-70472615D01*
X154432328Y-70476950D01*
X154464541Y-70527417D01*
X154499528Y-70578996D01*
X154501437Y-70585222D01*
X154503222Y-70588018D01*
X154520997Y-70649001D01*
X154540085Y-70711240D01*
X154540057Y-70714392D01*
X154540073Y-70714445D01*
X154540025Y-70718096D01*
X154538815Y-70856779D01*
X154518425Y-70919346D01*
X154498051Y-70982996D01*
X154497340Y-70984048D01*
X154495956Y-70988295D01*
X154459034Y-71040733D01*
X154424276Y-71092167D01*
X154420777Y-71095067D01*
X154416321Y-71101395D01*
X154367925Y-71138867D01*
X154322818Y-71176249D01*
X154315648Y-71179344D01*
X154306950Y-71186079D01*
X154252609Y-71206559D01*
X154201847Y-71228473D01*
X154190854Y-71229832D01*
X154177514Y-71234860D01*
X154122706Y-71238260D01*
X154071078Y-71244645D01*
X154056931Y-71242341D01*
X154039456Y-71243425D01*
X153989163Y-71231304D01*
X153941030Y-71223465D01*
X153925162Y-71215880D01*
X153904982Y-71211016D01*
X153863218Y-71186267D01*
X153822145Y-71166633D01*
X153806625Y-71152732D01*
X153785983Y-71140500D01*
X153755498Y-71106939D01*
X153723997Y-71078724D01*
X153711290Y-71058270D01*
X153692979Y-71038111D01*
X153675071Y-70999968D01*
X153654465Y-70966799D01*
X153647141Y-70940480D01*
X153634193Y-70912901D01*
X153628742Y-70874360D01*
X153619140Y-70839853D01*
X153619540Y-70809294D01*
X153614823Y-70775940D01*
X153620438Y-70740684D01*
X153620865Y-70708103D01*
X153630774Y-70675794D01*
X153636580Y-70639339D01*
X153650896Y-70610182D01*
X153659500Y-70582126D01*
X153679859Y-70551191D01*
X153697543Y-70515174D01*
X153717585Y-70493869D01*
X153731936Y-70472063D01*
X153762620Y-70445995D01*
X153792320Y-70414423D01*
X153814936Y-70401549D01*
X153832358Y-70386748D01*
X153872080Y-70369021D01*
X153912531Y-70345995D01*
X153934769Y-70341044D01*
X153952683Y-70333050D01*
X153998993Y-70326747D01*
X154047550Y-70315938D01*
X154067029Y-70317488D01*
X154083246Y-70315281D01*
X154132671Y-70322712D01*
G37*
G36*
X151132671Y-70322712D02*
G01*
X151185437Y-70326911D01*
X151200580Y-70332922D01*
X151213544Y-70334871D01*
X151261849Y-70357242D01*
X151314002Y-70377944D01*
X151324170Y-70386105D01*
X151333110Y-70390245D01*
X151375671Y-70427438D01*
X151421879Y-70464524D01*
X151427367Y-70472615D01*
X151432328Y-70476950D01*
X151464541Y-70527417D01*
X151499528Y-70578996D01*
X151501437Y-70585222D01*
X151503222Y-70588018D01*
X151520997Y-70649001D01*
X151540085Y-70711240D01*
X151540057Y-70714392D01*
X151540073Y-70714445D01*
X151540025Y-70718096D01*
X151538815Y-70856779D01*
X151518425Y-70919346D01*
X151498051Y-70982996D01*
X151497340Y-70984048D01*
X151495956Y-70988295D01*
X151459034Y-71040733D01*
X151424276Y-71092167D01*
X151420777Y-71095067D01*
X151416321Y-71101395D01*
X151367925Y-71138867D01*
X151322818Y-71176249D01*
X151315648Y-71179344D01*
X151306950Y-71186079D01*
X151252609Y-71206559D01*
X151201847Y-71228473D01*
X151190854Y-71229832D01*
X151177514Y-71234860D01*
X151122706Y-71238260D01*
X151071078Y-71244645D01*
X151056931Y-71242341D01*
X151039456Y-71243425D01*
X150989163Y-71231304D01*
X150941030Y-71223465D01*
X150925162Y-71215880D01*
X150904982Y-71211016D01*
X150863218Y-71186267D01*
X150822145Y-71166633D01*
X150806625Y-71152732D01*
X150785983Y-71140500D01*
X150755498Y-71106939D01*
X150723997Y-71078724D01*
X150711290Y-71058270D01*
X150692979Y-71038111D01*
X150675071Y-70999968D01*
X150654465Y-70966799D01*
X150647141Y-70940480D01*
X150634193Y-70912901D01*
X150628742Y-70874360D01*
X150619140Y-70839853D01*
X150619540Y-70809294D01*
X150614823Y-70775940D01*
X150620438Y-70740684D01*
X150620865Y-70708103D01*
X150630774Y-70675794D01*
X150636580Y-70639339D01*
X150650896Y-70610182D01*
X150659500Y-70582126D01*
X150679859Y-70551191D01*
X150697543Y-70515174D01*
X150717585Y-70493869D01*
X150731936Y-70472063D01*
X150762620Y-70445995D01*
X150792320Y-70414423D01*
X150814936Y-70401549D01*
X150832358Y-70386748D01*
X150872080Y-70369021D01*
X150912531Y-70345995D01*
X150934769Y-70341044D01*
X150952683Y-70333050D01*
X150998993Y-70326747D01*
X151047550Y-70315938D01*
X151067029Y-70317488D01*
X151083246Y-70315281D01*
X151132671Y-70322712D01*
G37*
G36*
X175902671Y-70212712D02*
G01*
X175955437Y-70216911D01*
X175970580Y-70222922D01*
X175983544Y-70224871D01*
X176031849Y-70247242D01*
X176084002Y-70267944D01*
X176094170Y-70276105D01*
X176103110Y-70280245D01*
X176145671Y-70317438D01*
X176191879Y-70354524D01*
X176197367Y-70362615D01*
X176202328Y-70366950D01*
X176234541Y-70417417D01*
X176269528Y-70468996D01*
X176271437Y-70475222D01*
X176273222Y-70478018D01*
X176290997Y-70539001D01*
X176310085Y-70601240D01*
X176310057Y-70604392D01*
X176310073Y-70604445D01*
X176310025Y-70608096D01*
X176308815Y-70746779D01*
X176288425Y-70809346D01*
X176268051Y-70872996D01*
X176267340Y-70874048D01*
X176265956Y-70878295D01*
X176229034Y-70930733D01*
X176194276Y-70982167D01*
X176190777Y-70985067D01*
X176186321Y-70991395D01*
X176137925Y-71028867D01*
X176092818Y-71066249D01*
X176085648Y-71069344D01*
X176076950Y-71076079D01*
X176022609Y-71096559D01*
X175971847Y-71118473D01*
X175960854Y-71119832D01*
X175947514Y-71124860D01*
X175892706Y-71128260D01*
X175841078Y-71134645D01*
X175826931Y-71132341D01*
X175809456Y-71133425D01*
X175759163Y-71121304D01*
X175711030Y-71113465D01*
X175695162Y-71105880D01*
X175674982Y-71101016D01*
X175633218Y-71076267D01*
X175592145Y-71056633D01*
X175576625Y-71042732D01*
X175555983Y-71030500D01*
X175525498Y-70996939D01*
X175493997Y-70968724D01*
X175481290Y-70948270D01*
X175462979Y-70928111D01*
X175445071Y-70889968D01*
X175424465Y-70856799D01*
X175417141Y-70830480D01*
X175404193Y-70802901D01*
X175398742Y-70764360D01*
X175389140Y-70729853D01*
X175389540Y-70699294D01*
X175384823Y-70665940D01*
X175390438Y-70630684D01*
X175390865Y-70598103D01*
X175400774Y-70565794D01*
X175406580Y-70529339D01*
X175420896Y-70500182D01*
X175429500Y-70472126D01*
X175449859Y-70441191D01*
X175467543Y-70405174D01*
X175487585Y-70383869D01*
X175501936Y-70362063D01*
X175532620Y-70335995D01*
X175562320Y-70304423D01*
X175584936Y-70291549D01*
X175602358Y-70276748D01*
X175642080Y-70259021D01*
X175682531Y-70235995D01*
X175704769Y-70231044D01*
X175722683Y-70223050D01*
X175768993Y-70216747D01*
X175817550Y-70205938D01*
X175837029Y-70207488D01*
X175853246Y-70205281D01*
X175902671Y-70212712D01*
G37*
G36*
X178902671Y-70212712D02*
G01*
X178955437Y-70216911D01*
X178970580Y-70222922D01*
X178983544Y-70224871D01*
X179031849Y-70247242D01*
X179084002Y-70267944D01*
X179094170Y-70276105D01*
X179103110Y-70280245D01*
X179145671Y-70317438D01*
X179191879Y-70354524D01*
X179197367Y-70362615D01*
X179202328Y-70366950D01*
X179234541Y-70417417D01*
X179269528Y-70468996D01*
X179271437Y-70475222D01*
X179273222Y-70478018D01*
X179290997Y-70539001D01*
X179310085Y-70601240D01*
X179310057Y-70604392D01*
X179310073Y-70604445D01*
X179310025Y-70608096D01*
X179308815Y-70746779D01*
X179288425Y-70809346D01*
X179268051Y-70872996D01*
X179267340Y-70874048D01*
X179265956Y-70878295D01*
X179229034Y-70930733D01*
X179194276Y-70982167D01*
X179190777Y-70985067D01*
X179186321Y-70991395D01*
X179137925Y-71028867D01*
X179092818Y-71066249D01*
X179085648Y-71069344D01*
X179076950Y-71076079D01*
X179022609Y-71096559D01*
X178971847Y-71118473D01*
X178960854Y-71119832D01*
X178947514Y-71124860D01*
X178892706Y-71128260D01*
X178841078Y-71134645D01*
X178826931Y-71132341D01*
X178809456Y-71133425D01*
X178759163Y-71121304D01*
X178711030Y-71113465D01*
X178695162Y-71105880D01*
X178674982Y-71101016D01*
X178633218Y-71076267D01*
X178592145Y-71056633D01*
X178576625Y-71042732D01*
X178555983Y-71030500D01*
X178525498Y-70996939D01*
X178493997Y-70968724D01*
X178481290Y-70948270D01*
X178462979Y-70928111D01*
X178445071Y-70889968D01*
X178424465Y-70856799D01*
X178417141Y-70830480D01*
X178404193Y-70802901D01*
X178398742Y-70764360D01*
X178389140Y-70729853D01*
X178389540Y-70699294D01*
X178384823Y-70665940D01*
X178390438Y-70630684D01*
X178390865Y-70598103D01*
X178400774Y-70565794D01*
X178406580Y-70529339D01*
X178420896Y-70500182D01*
X178429500Y-70472126D01*
X178449859Y-70441191D01*
X178467543Y-70405174D01*
X178487585Y-70383869D01*
X178501936Y-70362063D01*
X178532620Y-70335995D01*
X178562320Y-70304423D01*
X178584936Y-70291549D01*
X178602358Y-70276748D01*
X178642080Y-70259021D01*
X178682531Y-70235995D01*
X178704769Y-70231044D01*
X178722683Y-70223050D01*
X178768993Y-70216747D01*
X178817550Y-70205938D01*
X178837029Y-70207488D01*
X178853246Y-70205281D01*
X178902671Y-70212712D01*
G37*
G36*
X156733903Y-69270580D02*
G01*
X156737210Y-69272790D01*
X156739420Y-69276097D01*
X156740441Y-69281231D01*
X156740441Y-70078769D01*
X156739420Y-70083903D01*
X156737210Y-70087210D01*
X156733903Y-70089420D01*
X156728769Y-70090441D01*
X155731231Y-70090441D01*
X155726097Y-70089420D01*
X155722790Y-70087210D01*
X155720580Y-70083903D01*
X155719559Y-70078769D01*
X155719559Y-69281231D01*
X155720580Y-69276097D01*
X155722790Y-69272790D01*
X155726097Y-69270580D01*
X155731231Y-69269559D01*
X156728769Y-69269559D01*
X156733903Y-69270580D01*
G37*
G36*
X149433903Y-69270580D02*
G01*
X149437210Y-69272790D01*
X149439420Y-69276097D01*
X149440441Y-69281231D01*
X149440441Y-70078769D01*
X149439420Y-70083903D01*
X149437210Y-70087210D01*
X149433903Y-70089420D01*
X149428769Y-70090441D01*
X148431231Y-70090441D01*
X148426097Y-70089420D01*
X148422790Y-70087210D01*
X148420580Y-70083903D01*
X148419559Y-70078769D01*
X148419559Y-69281231D01*
X148420580Y-69276097D01*
X148422790Y-69272790D01*
X148426097Y-69270580D01*
X148431231Y-69269559D01*
X149428769Y-69269559D01*
X149433903Y-69270580D01*
G37*
G36*
X174203903Y-69160580D02*
G01*
X174207210Y-69162790D01*
X174209420Y-69166097D01*
X174210441Y-69171231D01*
X174210441Y-69968769D01*
X174209420Y-69973903D01*
X174207210Y-69977210D01*
X174203903Y-69979420D01*
X174198769Y-69980441D01*
X173201231Y-69980441D01*
X173196097Y-69979420D01*
X173192790Y-69977210D01*
X173190580Y-69973903D01*
X173189559Y-69968769D01*
X173189559Y-69171231D01*
X173190580Y-69166097D01*
X173192790Y-69162790D01*
X173196097Y-69160580D01*
X173201231Y-69159559D01*
X174198769Y-69159559D01*
X174203903Y-69160580D01*
G37*
G36*
X181503903Y-69160580D02*
G01*
X181507210Y-69162790D01*
X181509420Y-69166097D01*
X181510441Y-69171231D01*
X181510441Y-69968769D01*
X181509420Y-69973903D01*
X181507210Y-69977210D01*
X181503903Y-69979420D01*
X181498769Y-69980441D01*
X180501231Y-69980441D01*
X180496097Y-69979420D01*
X180492790Y-69977210D01*
X180490580Y-69973903D01*
X180489559Y-69968769D01*
X180489559Y-69171231D01*
X180490580Y-69166097D01*
X180492790Y-69162790D01*
X180496097Y-69160580D01*
X180501231Y-69159559D01*
X181498769Y-69159559D01*
X181503903Y-69160580D01*
G37*
M02*
