G04 #@! TF.GenerationSoftware,KiCad,Pcbnew,5.99.0-unknown-a5c7d45~86~ubuntu18.04.1*
G04 #@! TF.CreationDate,2020-01-09T21:59:45+01:00*
G04 #@! TF.ProjectId,v1,76312e6b-6963-4616-945f-706362585858,rev?*
G04 #@! TF.SameCoordinates,Original*
G04 #@! TF.FileFunction,Paste,Top*
G04 #@! TF.FilePolarity,Positive*
%FSLAX46Y46*%
G04 Gerber Fmt 4.6, Leading zero omitted, Abs format (unit mm)*
G04 Created by KiCad (PCBNEW 5.99.0-unknown-a5c7d45~86~ubuntu18.04.1) date 2020-01-09 21:59:45*
%MOMM*%
%LPD*%
G04 APERTURE LIST*
%ADD10R,0.250000X0.675000*%
%ADD11R,0.675000X0.250000*%
%ADD12R,1.300000X1.600000*%
%ADD13R,1.000000X0.600000*%
%ADD14R,0.350000X0.650000*%
%ADD15R,1.400000X1.390000*%
%ADD16R,4.860000X3.360000*%
%ADD17R,0.700000X0.450000*%
%ADD18R,5.400000X2.900000*%
%ADD19R,4.200000X1.500000*%
%ADD20R,2.000000X1.700000*%
%ADD21R,0.500000X2.000000*%
G04 APERTURE END LIST*
G36*
X181554000Y-85720000D02*
G01*
X178474000Y-85720000D01*
X178474000Y-83600000D01*
X181554000Y-83600000D01*
X181554000Y-85720000D01*
G37*
G36*
X167229962Y-75871651D02*
G01*
X167300930Y-75919070D01*
X167348349Y-75990038D01*
X167365000Y-76073750D01*
X167365000Y-76586250D01*
X167348349Y-76669962D01*
X167300930Y-76740930D01*
X167229962Y-76788349D01*
X167146250Y-76805000D01*
X166708750Y-76805000D01*
X166625038Y-76788349D01*
X166554070Y-76740930D01*
X166506651Y-76669962D01*
X166490000Y-76586250D01*
X166490000Y-76073750D01*
X166506651Y-75990038D01*
X166554070Y-75919070D01*
X166625038Y-75871651D01*
X166708750Y-75855000D01*
X167146250Y-75855000D01*
X167229962Y-75871651D01*
G37*
G36*
X165654962Y-75871651D02*
G01*
X165725930Y-75919070D01*
X165773349Y-75990038D01*
X165790000Y-76073750D01*
X165790000Y-76586250D01*
X165773349Y-76669962D01*
X165725930Y-76740930D01*
X165654962Y-76788349D01*
X165571250Y-76805000D01*
X165133750Y-76805000D01*
X165050038Y-76788349D01*
X164979070Y-76740930D01*
X164931651Y-76669962D01*
X164915000Y-76586250D01*
X164915000Y-76073750D01*
X164931651Y-75990038D01*
X164979070Y-75919070D01*
X165050038Y-75871651D01*
X165133750Y-75855000D01*
X165571250Y-75855000D01*
X165654962Y-75871651D01*
G37*
D10*
X143500000Y-106932500D03*
X143000000Y-106932500D03*
X142500000Y-106932500D03*
X142000000Y-106932500D03*
X142000000Y-104407500D03*
X142500000Y-104407500D03*
X143000000Y-104407500D03*
X143500000Y-104407500D03*
D11*
X141737500Y-106170000D03*
X141737500Y-105670000D03*
X141737500Y-105170000D03*
X143762500Y-106170000D03*
X143762500Y-105170000D03*
X143762500Y-105670000D03*
G36*
X146139962Y-106141651D02*
G01*
X146210930Y-106189070D01*
X146258349Y-106260038D01*
X146275000Y-106343750D01*
X146275000Y-106781250D01*
X146258349Y-106864962D01*
X146210930Y-106935930D01*
X146139962Y-106983349D01*
X146056250Y-107000000D01*
X145543750Y-107000000D01*
X145460038Y-106983349D01*
X145389070Y-106935930D01*
X145341651Y-106864962D01*
X145325000Y-106781250D01*
X145325000Y-106343750D01*
X145341651Y-106260038D01*
X145389070Y-106189070D01*
X145460038Y-106141651D01*
X145543750Y-106125000D01*
X146056250Y-106125000D01*
X146139962Y-106141651D01*
G37*
G36*
X146139962Y-107716651D02*
G01*
X146210930Y-107764070D01*
X146258349Y-107835038D01*
X146275000Y-107918750D01*
X146275000Y-108356250D01*
X146258349Y-108439962D01*
X146210930Y-108510930D01*
X146139962Y-108558349D01*
X146056250Y-108575000D01*
X145543750Y-108575000D01*
X145460038Y-108558349D01*
X145389070Y-108510930D01*
X145341651Y-108439962D01*
X145325000Y-108356250D01*
X145325000Y-107918750D01*
X145341651Y-107835038D01*
X145389070Y-107764070D01*
X145460038Y-107716651D01*
X145543750Y-107700000D01*
X146056250Y-107700000D01*
X146139962Y-107716651D01*
G37*
G36*
X146109962Y-104186651D02*
G01*
X146180930Y-104234070D01*
X146228349Y-104305038D01*
X146245000Y-104388750D01*
X146245000Y-104826250D01*
X146228349Y-104909962D01*
X146180930Y-104980930D01*
X146109962Y-105028349D01*
X146026250Y-105045000D01*
X145513750Y-105045000D01*
X145430038Y-105028349D01*
X145359070Y-104980930D01*
X145311651Y-104909962D01*
X145295000Y-104826250D01*
X145295000Y-104388750D01*
X145311651Y-104305038D01*
X145359070Y-104234070D01*
X145430038Y-104186651D01*
X145513750Y-104170000D01*
X146026250Y-104170000D01*
X146109962Y-104186651D01*
G37*
G36*
X146109962Y-102611651D02*
G01*
X146180930Y-102659070D01*
X146228349Y-102730038D01*
X146245000Y-102813750D01*
X146245000Y-103251250D01*
X146228349Y-103334962D01*
X146180930Y-103405930D01*
X146109962Y-103453349D01*
X146026250Y-103470000D01*
X145513750Y-103470000D01*
X145430038Y-103453349D01*
X145359070Y-103405930D01*
X145311651Y-103334962D01*
X145295000Y-103251250D01*
X145295000Y-102813750D01*
X145311651Y-102730038D01*
X145359070Y-102659070D01*
X145430038Y-102611651D01*
X145513750Y-102595000D01*
X146026250Y-102595000D01*
X146109962Y-102611651D01*
G37*
G36*
X140504962Y-107961651D02*
G01*
X140575930Y-108009070D01*
X140623349Y-108080038D01*
X140640000Y-108163750D01*
X140640000Y-108676250D01*
X140623349Y-108759962D01*
X140575930Y-108830930D01*
X140504962Y-108878349D01*
X140421250Y-108895000D01*
X139983750Y-108895000D01*
X139900038Y-108878349D01*
X139829070Y-108830930D01*
X139781651Y-108759962D01*
X139765000Y-108676250D01*
X139765000Y-108163750D01*
X139781651Y-108080038D01*
X139829070Y-108009070D01*
X139900038Y-107961651D01*
X139983750Y-107945000D01*
X140421250Y-107945000D01*
X140504962Y-107961651D01*
G37*
G36*
X142079962Y-107961651D02*
G01*
X142150930Y-108009070D01*
X142198349Y-108080038D01*
X142215000Y-108163750D01*
X142215000Y-108676250D01*
X142198349Y-108759962D01*
X142150930Y-108830930D01*
X142079962Y-108878349D01*
X141996250Y-108895000D01*
X141558750Y-108895000D01*
X141475038Y-108878349D01*
X141404070Y-108830930D01*
X141356651Y-108759962D01*
X141340000Y-108676250D01*
X141340000Y-108163750D01*
X141356651Y-108080038D01*
X141404070Y-108009070D01*
X141475038Y-107961651D01*
X141558750Y-107945000D01*
X141996250Y-107945000D01*
X142079962Y-107961651D01*
G37*
G36*
X140619962Y-105836651D02*
G01*
X140690930Y-105884070D01*
X140738349Y-105955038D01*
X140755000Y-106038750D01*
X140755000Y-106476250D01*
X140738349Y-106559962D01*
X140690930Y-106630930D01*
X140619962Y-106678349D01*
X140536250Y-106695000D01*
X140023750Y-106695000D01*
X139940038Y-106678349D01*
X139869070Y-106630930D01*
X139821651Y-106559962D01*
X139805000Y-106476250D01*
X139805000Y-106038750D01*
X139821651Y-105955038D01*
X139869070Y-105884070D01*
X139940038Y-105836651D01*
X140023750Y-105820000D01*
X140536250Y-105820000D01*
X140619962Y-105836651D01*
G37*
G36*
X140619962Y-104261651D02*
G01*
X140690930Y-104309070D01*
X140738349Y-104380038D01*
X140755000Y-104463750D01*
X140755000Y-104901250D01*
X140738349Y-104984962D01*
X140690930Y-105055930D01*
X140619962Y-105103349D01*
X140536250Y-105120000D01*
X140023750Y-105120000D01*
X139940038Y-105103349D01*
X139869070Y-105055930D01*
X139821651Y-104984962D01*
X139805000Y-104901250D01*
X139805000Y-104463750D01*
X139821651Y-104380038D01*
X139869070Y-104309070D01*
X139940038Y-104261651D01*
X140023750Y-104245000D01*
X140536250Y-104245000D01*
X140619962Y-104261651D01*
G37*
G36*
X159874962Y-100521651D02*
G01*
X159945930Y-100569070D01*
X159993349Y-100640038D01*
X160010000Y-100723750D01*
X160010000Y-101236250D01*
X159993349Y-101319962D01*
X159945930Y-101390930D01*
X159874962Y-101438349D01*
X159791250Y-101455000D01*
X159353750Y-101455000D01*
X159270038Y-101438349D01*
X159199070Y-101390930D01*
X159151651Y-101319962D01*
X159135000Y-101236250D01*
X159135000Y-100723750D01*
X159151651Y-100640038D01*
X159199070Y-100569070D01*
X159270038Y-100521651D01*
X159353750Y-100505000D01*
X159791250Y-100505000D01*
X159874962Y-100521651D01*
G37*
G36*
X161449962Y-100521651D02*
G01*
X161520930Y-100569070D01*
X161568349Y-100640038D01*
X161585000Y-100723750D01*
X161585000Y-101236250D01*
X161568349Y-101319962D01*
X161520930Y-101390930D01*
X161449962Y-101438349D01*
X161366250Y-101455000D01*
X160928750Y-101455000D01*
X160845038Y-101438349D01*
X160774070Y-101390930D01*
X160726651Y-101319962D01*
X160710000Y-101236250D01*
X160710000Y-100723750D01*
X160726651Y-100640038D01*
X160774070Y-100569070D01*
X160845038Y-100521651D01*
X160928750Y-100505000D01*
X161366250Y-100505000D01*
X161449962Y-100521651D01*
G37*
G36*
X155603701Y-85025709D02*
G01*
X155628033Y-85041967D01*
X155644291Y-85066299D01*
X155650000Y-85095000D01*
X155650000Y-86495000D01*
X155644291Y-86523701D01*
X155628033Y-86548033D01*
X155603701Y-86564291D01*
X155575000Y-86570000D01*
X155425000Y-86570000D01*
X155396299Y-86564291D01*
X155371967Y-86548033D01*
X155355709Y-86523701D01*
X155350000Y-86495000D01*
X155350000Y-85095000D01*
X155355709Y-85066299D01*
X155371967Y-85041967D01*
X155396299Y-85025709D01*
X155425000Y-85020000D01*
X155575000Y-85020000D01*
X155603701Y-85025709D01*
G37*
G36*
X156103701Y-85025709D02*
G01*
X156128033Y-85041967D01*
X156144291Y-85066299D01*
X156150000Y-85095000D01*
X156150000Y-86495000D01*
X156144291Y-86523701D01*
X156128033Y-86548033D01*
X156103701Y-86564291D01*
X156075000Y-86570000D01*
X155925000Y-86570000D01*
X155896299Y-86564291D01*
X155871967Y-86548033D01*
X155855709Y-86523701D01*
X155850000Y-86495000D01*
X155850000Y-85095000D01*
X155855709Y-85066299D01*
X155871967Y-85041967D01*
X155896299Y-85025709D01*
X155925000Y-85020000D01*
X156075000Y-85020000D01*
X156103701Y-85025709D01*
G37*
G36*
X156603701Y-85025709D02*
G01*
X156628033Y-85041967D01*
X156644291Y-85066299D01*
X156650000Y-85095000D01*
X156650000Y-86495000D01*
X156644291Y-86523701D01*
X156628033Y-86548033D01*
X156603701Y-86564291D01*
X156575000Y-86570000D01*
X156425000Y-86570000D01*
X156396299Y-86564291D01*
X156371967Y-86548033D01*
X156355709Y-86523701D01*
X156350000Y-86495000D01*
X156350000Y-85095000D01*
X156355709Y-85066299D01*
X156371967Y-85041967D01*
X156396299Y-85025709D01*
X156425000Y-85020000D01*
X156575000Y-85020000D01*
X156603701Y-85025709D01*
G37*
G36*
X157103701Y-85025709D02*
G01*
X157128033Y-85041967D01*
X157144291Y-85066299D01*
X157150000Y-85095000D01*
X157150000Y-86495000D01*
X157144291Y-86523701D01*
X157128033Y-86548033D01*
X157103701Y-86564291D01*
X157075000Y-86570000D01*
X156925000Y-86570000D01*
X156896299Y-86564291D01*
X156871967Y-86548033D01*
X156855709Y-86523701D01*
X156850000Y-86495000D01*
X156850000Y-85095000D01*
X156855709Y-85066299D01*
X156871967Y-85041967D01*
X156896299Y-85025709D01*
X156925000Y-85020000D01*
X157075000Y-85020000D01*
X157103701Y-85025709D01*
G37*
G36*
X157603701Y-85025709D02*
G01*
X157628033Y-85041967D01*
X157644291Y-85066299D01*
X157650000Y-85095000D01*
X157650000Y-86495000D01*
X157644291Y-86523701D01*
X157628033Y-86548033D01*
X157603701Y-86564291D01*
X157575000Y-86570000D01*
X157425000Y-86570000D01*
X157396299Y-86564291D01*
X157371967Y-86548033D01*
X157355709Y-86523701D01*
X157350000Y-86495000D01*
X157350000Y-85095000D01*
X157355709Y-85066299D01*
X157371967Y-85041967D01*
X157396299Y-85025709D01*
X157425000Y-85020000D01*
X157575000Y-85020000D01*
X157603701Y-85025709D01*
G37*
G36*
X158103701Y-85025709D02*
G01*
X158128033Y-85041967D01*
X158144291Y-85066299D01*
X158150000Y-85095000D01*
X158150000Y-86495000D01*
X158144291Y-86523701D01*
X158128033Y-86548033D01*
X158103701Y-86564291D01*
X158075000Y-86570000D01*
X157925000Y-86570000D01*
X157896299Y-86564291D01*
X157871967Y-86548033D01*
X157855709Y-86523701D01*
X157850000Y-86495000D01*
X157850000Y-85095000D01*
X157855709Y-85066299D01*
X157871967Y-85041967D01*
X157896299Y-85025709D01*
X157925000Y-85020000D01*
X158075000Y-85020000D01*
X158103701Y-85025709D01*
G37*
G36*
X158603701Y-85025709D02*
G01*
X158628033Y-85041967D01*
X158644291Y-85066299D01*
X158650000Y-85095000D01*
X158650000Y-86495000D01*
X158644291Y-86523701D01*
X158628033Y-86548033D01*
X158603701Y-86564291D01*
X158575000Y-86570000D01*
X158425000Y-86570000D01*
X158396299Y-86564291D01*
X158371967Y-86548033D01*
X158355709Y-86523701D01*
X158350000Y-86495000D01*
X158350000Y-85095000D01*
X158355709Y-85066299D01*
X158371967Y-85041967D01*
X158396299Y-85025709D01*
X158425000Y-85020000D01*
X158575000Y-85020000D01*
X158603701Y-85025709D01*
G37*
G36*
X159103701Y-85025709D02*
G01*
X159128033Y-85041967D01*
X159144291Y-85066299D01*
X159150000Y-85095000D01*
X159150000Y-86495000D01*
X159144291Y-86523701D01*
X159128033Y-86548033D01*
X159103701Y-86564291D01*
X159075000Y-86570000D01*
X158925000Y-86570000D01*
X158896299Y-86564291D01*
X158871967Y-86548033D01*
X158855709Y-86523701D01*
X158850000Y-86495000D01*
X158850000Y-85095000D01*
X158855709Y-85066299D01*
X158871967Y-85041967D01*
X158896299Y-85025709D01*
X158925000Y-85020000D01*
X159075000Y-85020000D01*
X159103701Y-85025709D01*
G37*
G36*
X159603701Y-85025709D02*
G01*
X159628033Y-85041967D01*
X159644291Y-85066299D01*
X159650000Y-85095000D01*
X159650000Y-86495000D01*
X159644291Y-86523701D01*
X159628033Y-86548033D01*
X159603701Y-86564291D01*
X159575000Y-86570000D01*
X159425000Y-86570000D01*
X159396299Y-86564291D01*
X159371967Y-86548033D01*
X159355709Y-86523701D01*
X159350000Y-86495000D01*
X159350000Y-85095000D01*
X159355709Y-85066299D01*
X159371967Y-85041967D01*
X159396299Y-85025709D01*
X159425000Y-85020000D01*
X159575000Y-85020000D01*
X159603701Y-85025709D01*
G37*
G36*
X160103701Y-85025709D02*
G01*
X160128033Y-85041967D01*
X160144291Y-85066299D01*
X160150000Y-85095000D01*
X160150000Y-86495000D01*
X160144291Y-86523701D01*
X160128033Y-86548033D01*
X160103701Y-86564291D01*
X160075000Y-86570000D01*
X159925000Y-86570000D01*
X159896299Y-86564291D01*
X159871967Y-86548033D01*
X159855709Y-86523701D01*
X159850000Y-86495000D01*
X159850000Y-85095000D01*
X159855709Y-85066299D01*
X159871967Y-85041967D01*
X159896299Y-85025709D01*
X159925000Y-85020000D01*
X160075000Y-85020000D01*
X160103701Y-85025709D01*
G37*
G36*
X160603701Y-85025709D02*
G01*
X160628033Y-85041967D01*
X160644291Y-85066299D01*
X160650000Y-85095000D01*
X160650000Y-86495000D01*
X160644291Y-86523701D01*
X160628033Y-86548033D01*
X160603701Y-86564291D01*
X160575000Y-86570000D01*
X160425000Y-86570000D01*
X160396299Y-86564291D01*
X160371967Y-86548033D01*
X160355709Y-86523701D01*
X160350000Y-86495000D01*
X160350000Y-85095000D01*
X160355709Y-85066299D01*
X160371967Y-85041967D01*
X160396299Y-85025709D01*
X160425000Y-85020000D01*
X160575000Y-85020000D01*
X160603701Y-85025709D01*
G37*
G36*
X161103701Y-85025709D02*
G01*
X161128033Y-85041967D01*
X161144291Y-85066299D01*
X161150000Y-85095000D01*
X161150000Y-86495000D01*
X161144291Y-86523701D01*
X161128033Y-86548033D01*
X161103701Y-86564291D01*
X161075000Y-86570000D01*
X160925000Y-86570000D01*
X160896299Y-86564291D01*
X160871967Y-86548033D01*
X160855709Y-86523701D01*
X160850000Y-86495000D01*
X160850000Y-85095000D01*
X160855709Y-85066299D01*
X160871967Y-85041967D01*
X160896299Y-85025709D01*
X160925000Y-85020000D01*
X161075000Y-85020000D01*
X161103701Y-85025709D01*
G37*
G36*
X161603701Y-85025709D02*
G01*
X161628033Y-85041967D01*
X161644291Y-85066299D01*
X161650000Y-85095000D01*
X161650000Y-86495000D01*
X161644291Y-86523701D01*
X161628033Y-86548033D01*
X161603701Y-86564291D01*
X161575000Y-86570000D01*
X161425000Y-86570000D01*
X161396299Y-86564291D01*
X161371967Y-86548033D01*
X161355709Y-86523701D01*
X161350000Y-86495000D01*
X161350000Y-85095000D01*
X161355709Y-85066299D01*
X161371967Y-85041967D01*
X161396299Y-85025709D01*
X161425000Y-85020000D01*
X161575000Y-85020000D01*
X161603701Y-85025709D01*
G37*
G36*
X162103701Y-85025709D02*
G01*
X162128033Y-85041967D01*
X162144291Y-85066299D01*
X162150000Y-85095000D01*
X162150000Y-86495000D01*
X162144291Y-86523701D01*
X162128033Y-86548033D01*
X162103701Y-86564291D01*
X162075000Y-86570000D01*
X161925000Y-86570000D01*
X161896299Y-86564291D01*
X161871967Y-86548033D01*
X161855709Y-86523701D01*
X161850000Y-86495000D01*
X161850000Y-85095000D01*
X161855709Y-85066299D01*
X161871967Y-85041967D01*
X161896299Y-85025709D01*
X161925000Y-85020000D01*
X162075000Y-85020000D01*
X162103701Y-85025709D01*
G37*
G36*
X162603701Y-85025709D02*
G01*
X162628033Y-85041967D01*
X162644291Y-85066299D01*
X162650000Y-85095000D01*
X162650000Y-86495000D01*
X162644291Y-86523701D01*
X162628033Y-86548033D01*
X162603701Y-86564291D01*
X162575000Y-86570000D01*
X162425000Y-86570000D01*
X162396299Y-86564291D01*
X162371967Y-86548033D01*
X162355709Y-86523701D01*
X162350000Y-86495000D01*
X162350000Y-85095000D01*
X162355709Y-85066299D01*
X162371967Y-85041967D01*
X162396299Y-85025709D01*
X162425000Y-85020000D01*
X162575000Y-85020000D01*
X162603701Y-85025709D01*
G37*
G36*
X163103701Y-85025709D02*
G01*
X163128033Y-85041967D01*
X163144291Y-85066299D01*
X163150000Y-85095000D01*
X163150000Y-86495000D01*
X163144291Y-86523701D01*
X163128033Y-86548033D01*
X163103701Y-86564291D01*
X163075000Y-86570000D01*
X162925000Y-86570000D01*
X162896299Y-86564291D01*
X162871967Y-86548033D01*
X162855709Y-86523701D01*
X162850000Y-86495000D01*
X162850000Y-85095000D01*
X162855709Y-85066299D01*
X162871967Y-85041967D01*
X162896299Y-85025709D01*
X162925000Y-85020000D01*
X163075000Y-85020000D01*
X163103701Y-85025709D01*
G37*
G36*
X165653701Y-87575709D02*
G01*
X165678033Y-87591967D01*
X165694291Y-87616299D01*
X165700000Y-87645000D01*
X165700000Y-87795000D01*
X165694291Y-87823701D01*
X165678033Y-87848033D01*
X165653701Y-87864291D01*
X165625000Y-87870000D01*
X164225000Y-87870000D01*
X164196299Y-87864291D01*
X164171967Y-87848033D01*
X164155709Y-87823701D01*
X164150000Y-87795000D01*
X164150000Y-87645000D01*
X164155709Y-87616299D01*
X164171967Y-87591967D01*
X164196299Y-87575709D01*
X164225000Y-87570000D01*
X165625000Y-87570000D01*
X165653701Y-87575709D01*
G37*
G36*
X165653701Y-88075709D02*
G01*
X165678033Y-88091967D01*
X165694291Y-88116299D01*
X165700000Y-88145000D01*
X165700000Y-88295000D01*
X165694291Y-88323701D01*
X165678033Y-88348033D01*
X165653701Y-88364291D01*
X165625000Y-88370000D01*
X164225000Y-88370000D01*
X164196299Y-88364291D01*
X164171967Y-88348033D01*
X164155709Y-88323701D01*
X164150000Y-88295000D01*
X164150000Y-88145000D01*
X164155709Y-88116299D01*
X164171967Y-88091967D01*
X164196299Y-88075709D01*
X164225000Y-88070000D01*
X165625000Y-88070000D01*
X165653701Y-88075709D01*
G37*
G36*
X165653701Y-88575709D02*
G01*
X165678033Y-88591967D01*
X165694291Y-88616299D01*
X165700000Y-88645000D01*
X165700000Y-88795000D01*
X165694291Y-88823701D01*
X165678033Y-88848033D01*
X165653701Y-88864291D01*
X165625000Y-88870000D01*
X164225000Y-88870000D01*
X164196299Y-88864291D01*
X164171967Y-88848033D01*
X164155709Y-88823701D01*
X164150000Y-88795000D01*
X164150000Y-88645000D01*
X164155709Y-88616299D01*
X164171967Y-88591967D01*
X164196299Y-88575709D01*
X164225000Y-88570000D01*
X165625000Y-88570000D01*
X165653701Y-88575709D01*
G37*
G36*
X165653701Y-89075709D02*
G01*
X165678033Y-89091967D01*
X165694291Y-89116299D01*
X165700000Y-89145000D01*
X165700000Y-89295000D01*
X165694291Y-89323701D01*
X165678033Y-89348033D01*
X165653701Y-89364291D01*
X165625000Y-89370000D01*
X164225000Y-89370000D01*
X164196299Y-89364291D01*
X164171967Y-89348033D01*
X164155709Y-89323701D01*
X164150000Y-89295000D01*
X164150000Y-89145000D01*
X164155709Y-89116299D01*
X164171967Y-89091967D01*
X164196299Y-89075709D01*
X164225000Y-89070000D01*
X165625000Y-89070000D01*
X165653701Y-89075709D01*
G37*
G36*
X165653701Y-89575709D02*
G01*
X165678033Y-89591967D01*
X165694291Y-89616299D01*
X165700000Y-89645000D01*
X165700000Y-89795000D01*
X165694291Y-89823701D01*
X165678033Y-89848033D01*
X165653701Y-89864291D01*
X165625000Y-89870000D01*
X164225000Y-89870000D01*
X164196299Y-89864291D01*
X164171967Y-89848033D01*
X164155709Y-89823701D01*
X164150000Y-89795000D01*
X164150000Y-89645000D01*
X164155709Y-89616299D01*
X164171967Y-89591967D01*
X164196299Y-89575709D01*
X164225000Y-89570000D01*
X165625000Y-89570000D01*
X165653701Y-89575709D01*
G37*
G36*
X165653701Y-90075709D02*
G01*
X165678033Y-90091967D01*
X165694291Y-90116299D01*
X165700000Y-90145000D01*
X165700000Y-90295000D01*
X165694291Y-90323701D01*
X165678033Y-90348033D01*
X165653701Y-90364291D01*
X165625000Y-90370000D01*
X164225000Y-90370000D01*
X164196299Y-90364291D01*
X164171967Y-90348033D01*
X164155709Y-90323701D01*
X164150000Y-90295000D01*
X164150000Y-90145000D01*
X164155709Y-90116299D01*
X164171967Y-90091967D01*
X164196299Y-90075709D01*
X164225000Y-90070000D01*
X165625000Y-90070000D01*
X165653701Y-90075709D01*
G37*
G36*
X165653701Y-90575709D02*
G01*
X165678033Y-90591967D01*
X165694291Y-90616299D01*
X165700000Y-90645000D01*
X165700000Y-90795000D01*
X165694291Y-90823701D01*
X165678033Y-90848033D01*
X165653701Y-90864291D01*
X165625000Y-90870000D01*
X164225000Y-90870000D01*
X164196299Y-90864291D01*
X164171967Y-90848033D01*
X164155709Y-90823701D01*
X164150000Y-90795000D01*
X164150000Y-90645000D01*
X164155709Y-90616299D01*
X164171967Y-90591967D01*
X164196299Y-90575709D01*
X164225000Y-90570000D01*
X165625000Y-90570000D01*
X165653701Y-90575709D01*
G37*
G36*
X165653701Y-91075709D02*
G01*
X165678033Y-91091967D01*
X165694291Y-91116299D01*
X165700000Y-91145000D01*
X165700000Y-91295000D01*
X165694291Y-91323701D01*
X165678033Y-91348033D01*
X165653701Y-91364291D01*
X165625000Y-91370000D01*
X164225000Y-91370000D01*
X164196299Y-91364291D01*
X164171967Y-91348033D01*
X164155709Y-91323701D01*
X164150000Y-91295000D01*
X164150000Y-91145000D01*
X164155709Y-91116299D01*
X164171967Y-91091967D01*
X164196299Y-91075709D01*
X164225000Y-91070000D01*
X165625000Y-91070000D01*
X165653701Y-91075709D01*
G37*
G36*
X165653701Y-91575709D02*
G01*
X165678033Y-91591967D01*
X165694291Y-91616299D01*
X165700000Y-91645000D01*
X165700000Y-91795000D01*
X165694291Y-91823701D01*
X165678033Y-91848033D01*
X165653701Y-91864291D01*
X165625000Y-91870000D01*
X164225000Y-91870000D01*
X164196299Y-91864291D01*
X164171967Y-91848033D01*
X164155709Y-91823701D01*
X164150000Y-91795000D01*
X164150000Y-91645000D01*
X164155709Y-91616299D01*
X164171967Y-91591967D01*
X164196299Y-91575709D01*
X164225000Y-91570000D01*
X165625000Y-91570000D01*
X165653701Y-91575709D01*
G37*
G36*
X165653701Y-92075709D02*
G01*
X165678033Y-92091967D01*
X165694291Y-92116299D01*
X165700000Y-92145000D01*
X165700000Y-92295000D01*
X165694291Y-92323701D01*
X165678033Y-92348033D01*
X165653701Y-92364291D01*
X165625000Y-92370000D01*
X164225000Y-92370000D01*
X164196299Y-92364291D01*
X164171967Y-92348033D01*
X164155709Y-92323701D01*
X164150000Y-92295000D01*
X164150000Y-92145000D01*
X164155709Y-92116299D01*
X164171967Y-92091967D01*
X164196299Y-92075709D01*
X164225000Y-92070000D01*
X165625000Y-92070000D01*
X165653701Y-92075709D01*
G37*
G36*
X165653701Y-92575709D02*
G01*
X165678033Y-92591967D01*
X165694291Y-92616299D01*
X165700000Y-92645000D01*
X165700000Y-92795000D01*
X165694291Y-92823701D01*
X165678033Y-92848033D01*
X165653701Y-92864291D01*
X165625000Y-92870000D01*
X164225000Y-92870000D01*
X164196299Y-92864291D01*
X164171967Y-92848033D01*
X164155709Y-92823701D01*
X164150000Y-92795000D01*
X164150000Y-92645000D01*
X164155709Y-92616299D01*
X164171967Y-92591967D01*
X164196299Y-92575709D01*
X164225000Y-92570000D01*
X165625000Y-92570000D01*
X165653701Y-92575709D01*
G37*
G36*
X165653701Y-93075709D02*
G01*
X165678033Y-93091967D01*
X165694291Y-93116299D01*
X165700000Y-93145000D01*
X165700000Y-93295000D01*
X165694291Y-93323701D01*
X165678033Y-93348033D01*
X165653701Y-93364291D01*
X165625000Y-93370000D01*
X164225000Y-93370000D01*
X164196299Y-93364291D01*
X164171967Y-93348033D01*
X164155709Y-93323701D01*
X164150000Y-93295000D01*
X164150000Y-93145000D01*
X164155709Y-93116299D01*
X164171967Y-93091967D01*
X164196299Y-93075709D01*
X164225000Y-93070000D01*
X165625000Y-93070000D01*
X165653701Y-93075709D01*
G37*
G36*
X165653701Y-93575709D02*
G01*
X165678033Y-93591967D01*
X165694291Y-93616299D01*
X165700000Y-93645000D01*
X165700000Y-93795000D01*
X165694291Y-93823701D01*
X165678033Y-93848033D01*
X165653701Y-93864291D01*
X165625000Y-93870000D01*
X164225000Y-93870000D01*
X164196299Y-93864291D01*
X164171967Y-93848033D01*
X164155709Y-93823701D01*
X164150000Y-93795000D01*
X164150000Y-93645000D01*
X164155709Y-93616299D01*
X164171967Y-93591967D01*
X164196299Y-93575709D01*
X164225000Y-93570000D01*
X165625000Y-93570000D01*
X165653701Y-93575709D01*
G37*
G36*
X165653701Y-94075709D02*
G01*
X165678033Y-94091967D01*
X165694291Y-94116299D01*
X165700000Y-94145000D01*
X165700000Y-94295000D01*
X165694291Y-94323701D01*
X165678033Y-94348033D01*
X165653701Y-94364291D01*
X165625000Y-94370000D01*
X164225000Y-94370000D01*
X164196299Y-94364291D01*
X164171967Y-94348033D01*
X164155709Y-94323701D01*
X164150000Y-94295000D01*
X164150000Y-94145000D01*
X164155709Y-94116299D01*
X164171967Y-94091967D01*
X164196299Y-94075709D01*
X164225000Y-94070000D01*
X165625000Y-94070000D01*
X165653701Y-94075709D01*
G37*
G36*
X165653701Y-94575709D02*
G01*
X165678033Y-94591967D01*
X165694291Y-94616299D01*
X165700000Y-94645000D01*
X165700000Y-94795000D01*
X165694291Y-94823701D01*
X165678033Y-94848033D01*
X165653701Y-94864291D01*
X165625000Y-94870000D01*
X164225000Y-94870000D01*
X164196299Y-94864291D01*
X164171967Y-94848033D01*
X164155709Y-94823701D01*
X164150000Y-94795000D01*
X164150000Y-94645000D01*
X164155709Y-94616299D01*
X164171967Y-94591967D01*
X164196299Y-94575709D01*
X164225000Y-94570000D01*
X165625000Y-94570000D01*
X165653701Y-94575709D01*
G37*
G36*
X165653701Y-95075709D02*
G01*
X165678033Y-95091967D01*
X165694291Y-95116299D01*
X165700000Y-95145000D01*
X165700000Y-95295000D01*
X165694291Y-95323701D01*
X165678033Y-95348033D01*
X165653701Y-95364291D01*
X165625000Y-95370000D01*
X164225000Y-95370000D01*
X164196299Y-95364291D01*
X164171967Y-95348033D01*
X164155709Y-95323701D01*
X164150000Y-95295000D01*
X164150000Y-95145000D01*
X164155709Y-95116299D01*
X164171967Y-95091967D01*
X164196299Y-95075709D01*
X164225000Y-95070000D01*
X165625000Y-95070000D01*
X165653701Y-95075709D01*
G37*
G36*
X163103701Y-96375709D02*
G01*
X163128033Y-96391967D01*
X163144291Y-96416299D01*
X163150000Y-96445000D01*
X163150000Y-97845000D01*
X163144291Y-97873701D01*
X163128033Y-97898033D01*
X163103701Y-97914291D01*
X163075000Y-97920000D01*
X162925000Y-97920000D01*
X162896299Y-97914291D01*
X162871967Y-97898033D01*
X162855709Y-97873701D01*
X162850000Y-97845000D01*
X162850000Y-96445000D01*
X162855709Y-96416299D01*
X162871967Y-96391967D01*
X162896299Y-96375709D01*
X162925000Y-96370000D01*
X163075000Y-96370000D01*
X163103701Y-96375709D01*
G37*
G36*
X162603701Y-96375709D02*
G01*
X162628033Y-96391967D01*
X162644291Y-96416299D01*
X162650000Y-96445000D01*
X162650000Y-97845000D01*
X162644291Y-97873701D01*
X162628033Y-97898033D01*
X162603701Y-97914291D01*
X162575000Y-97920000D01*
X162425000Y-97920000D01*
X162396299Y-97914291D01*
X162371967Y-97898033D01*
X162355709Y-97873701D01*
X162350000Y-97845000D01*
X162350000Y-96445000D01*
X162355709Y-96416299D01*
X162371967Y-96391967D01*
X162396299Y-96375709D01*
X162425000Y-96370000D01*
X162575000Y-96370000D01*
X162603701Y-96375709D01*
G37*
G36*
X162103701Y-96375709D02*
G01*
X162128033Y-96391967D01*
X162144291Y-96416299D01*
X162150000Y-96445000D01*
X162150000Y-97845000D01*
X162144291Y-97873701D01*
X162128033Y-97898033D01*
X162103701Y-97914291D01*
X162075000Y-97920000D01*
X161925000Y-97920000D01*
X161896299Y-97914291D01*
X161871967Y-97898033D01*
X161855709Y-97873701D01*
X161850000Y-97845000D01*
X161850000Y-96445000D01*
X161855709Y-96416299D01*
X161871967Y-96391967D01*
X161896299Y-96375709D01*
X161925000Y-96370000D01*
X162075000Y-96370000D01*
X162103701Y-96375709D01*
G37*
G36*
X161603701Y-96375709D02*
G01*
X161628033Y-96391967D01*
X161644291Y-96416299D01*
X161650000Y-96445000D01*
X161650000Y-97845000D01*
X161644291Y-97873701D01*
X161628033Y-97898033D01*
X161603701Y-97914291D01*
X161575000Y-97920000D01*
X161425000Y-97920000D01*
X161396299Y-97914291D01*
X161371967Y-97898033D01*
X161355709Y-97873701D01*
X161350000Y-97845000D01*
X161350000Y-96445000D01*
X161355709Y-96416299D01*
X161371967Y-96391967D01*
X161396299Y-96375709D01*
X161425000Y-96370000D01*
X161575000Y-96370000D01*
X161603701Y-96375709D01*
G37*
G36*
X161103701Y-96375709D02*
G01*
X161128033Y-96391967D01*
X161144291Y-96416299D01*
X161150000Y-96445000D01*
X161150000Y-97845000D01*
X161144291Y-97873701D01*
X161128033Y-97898033D01*
X161103701Y-97914291D01*
X161075000Y-97920000D01*
X160925000Y-97920000D01*
X160896299Y-97914291D01*
X160871967Y-97898033D01*
X160855709Y-97873701D01*
X160850000Y-97845000D01*
X160850000Y-96445000D01*
X160855709Y-96416299D01*
X160871967Y-96391967D01*
X160896299Y-96375709D01*
X160925000Y-96370000D01*
X161075000Y-96370000D01*
X161103701Y-96375709D01*
G37*
G36*
X160603701Y-96375709D02*
G01*
X160628033Y-96391967D01*
X160644291Y-96416299D01*
X160650000Y-96445000D01*
X160650000Y-97845000D01*
X160644291Y-97873701D01*
X160628033Y-97898033D01*
X160603701Y-97914291D01*
X160575000Y-97920000D01*
X160425000Y-97920000D01*
X160396299Y-97914291D01*
X160371967Y-97898033D01*
X160355709Y-97873701D01*
X160350000Y-97845000D01*
X160350000Y-96445000D01*
X160355709Y-96416299D01*
X160371967Y-96391967D01*
X160396299Y-96375709D01*
X160425000Y-96370000D01*
X160575000Y-96370000D01*
X160603701Y-96375709D01*
G37*
G36*
X160103701Y-96375709D02*
G01*
X160128033Y-96391967D01*
X160144291Y-96416299D01*
X160150000Y-96445000D01*
X160150000Y-97845000D01*
X160144291Y-97873701D01*
X160128033Y-97898033D01*
X160103701Y-97914291D01*
X160075000Y-97920000D01*
X159925000Y-97920000D01*
X159896299Y-97914291D01*
X159871967Y-97898033D01*
X159855709Y-97873701D01*
X159850000Y-97845000D01*
X159850000Y-96445000D01*
X159855709Y-96416299D01*
X159871967Y-96391967D01*
X159896299Y-96375709D01*
X159925000Y-96370000D01*
X160075000Y-96370000D01*
X160103701Y-96375709D01*
G37*
G36*
X159603701Y-96375709D02*
G01*
X159628033Y-96391967D01*
X159644291Y-96416299D01*
X159650000Y-96445000D01*
X159650000Y-97845000D01*
X159644291Y-97873701D01*
X159628033Y-97898033D01*
X159603701Y-97914291D01*
X159575000Y-97920000D01*
X159425000Y-97920000D01*
X159396299Y-97914291D01*
X159371967Y-97898033D01*
X159355709Y-97873701D01*
X159350000Y-97845000D01*
X159350000Y-96445000D01*
X159355709Y-96416299D01*
X159371967Y-96391967D01*
X159396299Y-96375709D01*
X159425000Y-96370000D01*
X159575000Y-96370000D01*
X159603701Y-96375709D01*
G37*
G36*
X159103701Y-96375709D02*
G01*
X159128033Y-96391967D01*
X159144291Y-96416299D01*
X159150000Y-96445000D01*
X159150000Y-97845000D01*
X159144291Y-97873701D01*
X159128033Y-97898033D01*
X159103701Y-97914291D01*
X159075000Y-97920000D01*
X158925000Y-97920000D01*
X158896299Y-97914291D01*
X158871967Y-97898033D01*
X158855709Y-97873701D01*
X158850000Y-97845000D01*
X158850000Y-96445000D01*
X158855709Y-96416299D01*
X158871967Y-96391967D01*
X158896299Y-96375709D01*
X158925000Y-96370000D01*
X159075000Y-96370000D01*
X159103701Y-96375709D01*
G37*
G36*
X158603701Y-96375709D02*
G01*
X158628033Y-96391967D01*
X158644291Y-96416299D01*
X158650000Y-96445000D01*
X158650000Y-97845000D01*
X158644291Y-97873701D01*
X158628033Y-97898033D01*
X158603701Y-97914291D01*
X158575000Y-97920000D01*
X158425000Y-97920000D01*
X158396299Y-97914291D01*
X158371967Y-97898033D01*
X158355709Y-97873701D01*
X158350000Y-97845000D01*
X158350000Y-96445000D01*
X158355709Y-96416299D01*
X158371967Y-96391967D01*
X158396299Y-96375709D01*
X158425000Y-96370000D01*
X158575000Y-96370000D01*
X158603701Y-96375709D01*
G37*
G36*
X158103701Y-96375709D02*
G01*
X158128033Y-96391967D01*
X158144291Y-96416299D01*
X158150000Y-96445000D01*
X158150000Y-97845000D01*
X158144291Y-97873701D01*
X158128033Y-97898033D01*
X158103701Y-97914291D01*
X158075000Y-97920000D01*
X157925000Y-97920000D01*
X157896299Y-97914291D01*
X157871967Y-97898033D01*
X157855709Y-97873701D01*
X157850000Y-97845000D01*
X157850000Y-96445000D01*
X157855709Y-96416299D01*
X157871967Y-96391967D01*
X157896299Y-96375709D01*
X157925000Y-96370000D01*
X158075000Y-96370000D01*
X158103701Y-96375709D01*
G37*
G36*
X157603701Y-96375709D02*
G01*
X157628033Y-96391967D01*
X157644291Y-96416299D01*
X157650000Y-96445000D01*
X157650000Y-97845000D01*
X157644291Y-97873701D01*
X157628033Y-97898033D01*
X157603701Y-97914291D01*
X157575000Y-97920000D01*
X157425000Y-97920000D01*
X157396299Y-97914291D01*
X157371967Y-97898033D01*
X157355709Y-97873701D01*
X157350000Y-97845000D01*
X157350000Y-96445000D01*
X157355709Y-96416299D01*
X157371967Y-96391967D01*
X157396299Y-96375709D01*
X157425000Y-96370000D01*
X157575000Y-96370000D01*
X157603701Y-96375709D01*
G37*
G36*
X157103701Y-96375709D02*
G01*
X157128033Y-96391967D01*
X157144291Y-96416299D01*
X157150000Y-96445000D01*
X157150000Y-97845000D01*
X157144291Y-97873701D01*
X157128033Y-97898033D01*
X157103701Y-97914291D01*
X157075000Y-97920000D01*
X156925000Y-97920000D01*
X156896299Y-97914291D01*
X156871967Y-97898033D01*
X156855709Y-97873701D01*
X156850000Y-97845000D01*
X156850000Y-96445000D01*
X156855709Y-96416299D01*
X156871967Y-96391967D01*
X156896299Y-96375709D01*
X156925000Y-96370000D01*
X157075000Y-96370000D01*
X157103701Y-96375709D01*
G37*
G36*
X156603701Y-96375709D02*
G01*
X156628033Y-96391967D01*
X156644291Y-96416299D01*
X156650000Y-96445000D01*
X156650000Y-97845000D01*
X156644291Y-97873701D01*
X156628033Y-97898033D01*
X156603701Y-97914291D01*
X156575000Y-97920000D01*
X156425000Y-97920000D01*
X156396299Y-97914291D01*
X156371967Y-97898033D01*
X156355709Y-97873701D01*
X156350000Y-97845000D01*
X156350000Y-96445000D01*
X156355709Y-96416299D01*
X156371967Y-96391967D01*
X156396299Y-96375709D01*
X156425000Y-96370000D01*
X156575000Y-96370000D01*
X156603701Y-96375709D01*
G37*
G36*
X156103701Y-96375709D02*
G01*
X156128033Y-96391967D01*
X156144291Y-96416299D01*
X156150000Y-96445000D01*
X156150000Y-97845000D01*
X156144291Y-97873701D01*
X156128033Y-97898033D01*
X156103701Y-97914291D01*
X156075000Y-97920000D01*
X155925000Y-97920000D01*
X155896299Y-97914291D01*
X155871967Y-97898033D01*
X155855709Y-97873701D01*
X155850000Y-97845000D01*
X155850000Y-96445000D01*
X155855709Y-96416299D01*
X155871967Y-96391967D01*
X155896299Y-96375709D01*
X155925000Y-96370000D01*
X156075000Y-96370000D01*
X156103701Y-96375709D01*
G37*
G36*
X155603701Y-96375709D02*
G01*
X155628033Y-96391967D01*
X155644291Y-96416299D01*
X155650000Y-96445000D01*
X155650000Y-97845000D01*
X155644291Y-97873701D01*
X155628033Y-97898033D01*
X155603701Y-97914291D01*
X155575000Y-97920000D01*
X155425000Y-97920000D01*
X155396299Y-97914291D01*
X155371967Y-97898033D01*
X155355709Y-97873701D01*
X155350000Y-97845000D01*
X155350000Y-96445000D01*
X155355709Y-96416299D01*
X155371967Y-96391967D01*
X155396299Y-96375709D01*
X155425000Y-96370000D01*
X155575000Y-96370000D01*
X155603701Y-96375709D01*
G37*
G36*
X154303701Y-95075709D02*
G01*
X154328033Y-95091967D01*
X154344291Y-95116299D01*
X154350000Y-95145000D01*
X154350000Y-95295000D01*
X154344291Y-95323701D01*
X154328033Y-95348033D01*
X154303701Y-95364291D01*
X154275000Y-95370000D01*
X152875000Y-95370000D01*
X152846299Y-95364291D01*
X152821967Y-95348033D01*
X152805709Y-95323701D01*
X152800000Y-95295000D01*
X152800000Y-95145000D01*
X152805709Y-95116299D01*
X152821967Y-95091967D01*
X152846299Y-95075709D01*
X152875000Y-95070000D01*
X154275000Y-95070000D01*
X154303701Y-95075709D01*
G37*
G36*
X154303701Y-94575709D02*
G01*
X154328033Y-94591967D01*
X154344291Y-94616299D01*
X154350000Y-94645000D01*
X154350000Y-94795000D01*
X154344291Y-94823701D01*
X154328033Y-94848033D01*
X154303701Y-94864291D01*
X154275000Y-94870000D01*
X152875000Y-94870000D01*
X152846299Y-94864291D01*
X152821967Y-94848033D01*
X152805709Y-94823701D01*
X152800000Y-94795000D01*
X152800000Y-94645000D01*
X152805709Y-94616299D01*
X152821967Y-94591967D01*
X152846299Y-94575709D01*
X152875000Y-94570000D01*
X154275000Y-94570000D01*
X154303701Y-94575709D01*
G37*
G36*
X154303701Y-94075709D02*
G01*
X154328033Y-94091967D01*
X154344291Y-94116299D01*
X154350000Y-94145000D01*
X154350000Y-94295000D01*
X154344291Y-94323701D01*
X154328033Y-94348033D01*
X154303701Y-94364291D01*
X154275000Y-94370000D01*
X152875000Y-94370000D01*
X152846299Y-94364291D01*
X152821967Y-94348033D01*
X152805709Y-94323701D01*
X152800000Y-94295000D01*
X152800000Y-94145000D01*
X152805709Y-94116299D01*
X152821967Y-94091967D01*
X152846299Y-94075709D01*
X152875000Y-94070000D01*
X154275000Y-94070000D01*
X154303701Y-94075709D01*
G37*
G36*
X154303701Y-93575709D02*
G01*
X154328033Y-93591967D01*
X154344291Y-93616299D01*
X154350000Y-93645000D01*
X154350000Y-93795000D01*
X154344291Y-93823701D01*
X154328033Y-93848033D01*
X154303701Y-93864291D01*
X154275000Y-93870000D01*
X152875000Y-93870000D01*
X152846299Y-93864291D01*
X152821967Y-93848033D01*
X152805709Y-93823701D01*
X152800000Y-93795000D01*
X152800000Y-93645000D01*
X152805709Y-93616299D01*
X152821967Y-93591967D01*
X152846299Y-93575709D01*
X152875000Y-93570000D01*
X154275000Y-93570000D01*
X154303701Y-93575709D01*
G37*
G36*
X154303701Y-93075709D02*
G01*
X154328033Y-93091967D01*
X154344291Y-93116299D01*
X154350000Y-93145000D01*
X154350000Y-93295000D01*
X154344291Y-93323701D01*
X154328033Y-93348033D01*
X154303701Y-93364291D01*
X154275000Y-93370000D01*
X152875000Y-93370000D01*
X152846299Y-93364291D01*
X152821967Y-93348033D01*
X152805709Y-93323701D01*
X152800000Y-93295000D01*
X152800000Y-93145000D01*
X152805709Y-93116299D01*
X152821967Y-93091967D01*
X152846299Y-93075709D01*
X152875000Y-93070000D01*
X154275000Y-93070000D01*
X154303701Y-93075709D01*
G37*
G36*
X154303701Y-92575709D02*
G01*
X154328033Y-92591967D01*
X154344291Y-92616299D01*
X154350000Y-92645000D01*
X154350000Y-92795000D01*
X154344291Y-92823701D01*
X154328033Y-92848033D01*
X154303701Y-92864291D01*
X154275000Y-92870000D01*
X152875000Y-92870000D01*
X152846299Y-92864291D01*
X152821967Y-92848033D01*
X152805709Y-92823701D01*
X152800000Y-92795000D01*
X152800000Y-92645000D01*
X152805709Y-92616299D01*
X152821967Y-92591967D01*
X152846299Y-92575709D01*
X152875000Y-92570000D01*
X154275000Y-92570000D01*
X154303701Y-92575709D01*
G37*
G36*
X154303701Y-92075709D02*
G01*
X154328033Y-92091967D01*
X154344291Y-92116299D01*
X154350000Y-92145000D01*
X154350000Y-92295000D01*
X154344291Y-92323701D01*
X154328033Y-92348033D01*
X154303701Y-92364291D01*
X154275000Y-92370000D01*
X152875000Y-92370000D01*
X152846299Y-92364291D01*
X152821967Y-92348033D01*
X152805709Y-92323701D01*
X152800000Y-92295000D01*
X152800000Y-92145000D01*
X152805709Y-92116299D01*
X152821967Y-92091967D01*
X152846299Y-92075709D01*
X152875000Y-92070000D01*
X154275000Y-92070000D01*
X154303701Y-92075709D01*
G37*
G36*
X154303701Y-91575709D02*
G01*
X154328033Y-91591967D01*
X154344291Y-91616299D01*
X154350000Y-91645000D01*
X154350000Y-91795000D01*
X154344291Y-91823701D01*
X154328033Y-91848033D01*
X154303701Y-91864291D01*
X154275000Y-91870000D01*
X152875000Y-91870000D01*
X152846299Y-91864291D01*
X152821967Y-91848033D01*
X152805709Y-91823701D01*
X152800000Y-91795000D01*
X152800000Y-91645000D01*
X152805709Y-91616299D01*
X152821967Y-91591967D01*
X152846299Y-91575709D01*
X152875000Y-91570000D01*
X154275000Y-91570000D01*
X154303701Y-91575709D01*
G37*
G36*
X154303701Y-91075709D02*
G01*
X154328033Y-91091967D01*
X154344291Y-91116299D01*
X154350000Y-91145000D01*
X154350000Y-91295000D01*
X154344291Y-91323701D01*
X154328033Y-91348033D01*
X154303701Y-91364291D01*
X154275000Y-91370000D01*
X152875000Y-91370000D01*
X152846299Y-91364291D01*
X152821967Y-91348033D01*
X152805709Y-91323701D01*
X152800000Y-91295000D01*
X152800000Y-91145000D01*
X152805709Y-91116299D01*
X152821967Y-91091967D01*
X152846299Y-91075709D01*
X152875000Y-91070000D01*
X154275000Y-91070000D01*
X154303701Y-91075709D01*
G37*
G36*
X154303701Y-90575709D02*
G01*
X154328033Y-90591967D01*
X154344291Y-90616299D01*
X154350000Y-90645000D01*
X154350000Y-90795000D01*
X154344291Y-90823701D01*
X154328033Y-90848033D01*
X154303701Y-90864291D01*
X154275000Y-90870000D01*
X152875000Y-90870000D01*
X152846299Y-90864291D01*
X152821967Y-90848033D01*
X152805709Y-90823701D01*
X152800000Y-90795000D01*
X152800000Y-90645000D01*
X152805709Y-90616299D01*
X152821967Y-90591967D01*
X152846299Y-90575709D01*
X152875000Y-90570000D01*
X154275000Y-90570000D01*
X154303701Y-90575709D01*
G37*
G36*
X154303701Y-90075709D02*
G01*
X154328033Y-90091967D01*
X154344291Y-90116299D01*
X154350000Y-90145000D01*
X154350000Y-90295000D01*
X154344291Y-90323701D01*
X154328033Y-90348033D01*
X154303701Y-90364291D01*
X154275000Y-90370000D01*
X152875000Y-90370000D01*
X152846299Y-90364291D01*
X152821967Y-90348033D01*
X152805709Y-90323701D01*
X152800000Y-90295000D01*
X152800000Y-90145000D01*
X152805709Y-90116299D01*
X152821967Y-90091967D01*
X152846299Y-90075709D01*
X152875000Y-90070000D01*
X154275000Y-90070000D01*
X154303701Y-90075709D01*
G37*
G36*
X154303701Y-89575709D02*
G01*
X154328033Y-89591967D01*
X154344291Y-89616299D01*
X154350000Y-89645000D01*
X154350000Y-89795000D01*
X154344291Y-89823701D01*
X154328033Y-89848033D01*
X154303701Y-89864291D01*
X154275000Y-89870000D01*
X152875000Y-89870000D01*
X152846299Y-89864291D01*
X152821967Y-89848033D01*
X152805709Y-89823701D01*
X152800000Y-89795000D01*
X152800000Y-89645000D01*
X152805709Y-89616299D01*
X152821967Y-89591967D01*
X152846299Y-89575709D01*
X152875000Y-89570000D01*
X154275000Y-89570000D01*
X154303701Y-89575709D01*
G37*
G36*
X154303701Y-89075709D02*
G01*
X154328033Y-89091967D01*
X154344291Y-89116299D01*
X154350000Y-89145000D01*
X154350000Y-89295000D01*
X154344291Y-89323701D01*
X154328033Y-89348033D01*
X154303701Y-89364291D01*
X154275000Y-89370000D01*
X152875000Y-89370000D01*
X152846299Y-89364291D01*
X152821967Y-89348033D01*
X152805709Y-89323701D01*
X152800000Y-89295000D01*
X152800000Y-89145000D01*
X152805709Y-89116299D01*
X152821967Y-89091967D01*
X152846299Y-89075709D01*
X152875000Y-89070000D01*
X154275000Y-89070000D01*
X154303701Y-89075709D01*
G37*
G36*
X154303701Y-88575709D02*
G01*
X154328033Y-88591967D01*
X154344291Y-88616299D01*
X154350000Y-88645000D01*
X154350000Y-88795000D01*
X154344291Y-88823701D01*
X154328033Y-88848033D01*
X154303701Y-88864291D01*
X154275000Y-88870000D01*
X152875000Y-88870000D01*
X152846299Y-88864291D01*
X152821967Y-88848033D01*
X152805709Y-88823701D01*
X152800000Y-88795000D01*
X152800000Y-88645000D01*
X152805709Y-88616299D01*
X152821967Y-88591967D01*
X152846299Y-88575709D01*
X152875000Y-88570000D01*
X154275000Y-88570000D01*
X154303701Y-88575709D01*
G37*
G36*
X154303701Y-88075709D02*
G01*
X154328033Y-88091967D01*
X154344291Y-88116299D01*
X154350000Y-88145000D01*
X154350000Y-88295000D01*
X154344291Y-88323701D01*
X154328033Y-88348033D01*
X154303701Y-88364291D01*
X154275000Y-88370000D01*
X152875000Y-88370000D01*
X152846299Y-88364291D01*
X152821967Y-88348033D01*
X152805709Y-88323701D01*
X152800000Y-88295000D01*
X152800000Y-88145000D01*
X152805709Y-88116299D01*
X152821967Y-88091967D01*
X152846299Y-88075709D01*
X152875000Y-88070000D01*
X154275000Y-88070000D01*
X154303701Y-88075709D01*
G37*
G36*
X154303701Y-87575709D02*
G01*
X154328033Y-87591967D01*
X154344291Y-87616299D01*
X154350000Y-87645000D01*
X154350000Y-87795000D01*
X154344291Y-87823701D01*
X154328033Y-87848033D01*
X154303701Y-87864291D01*
X154275000Y-87870000D01*
X152875000Y-87870000D01*
X152846299Y-87864291D01*
X152821967Y-87848033D01*
X152805709Y-87823701D01*
X152800000Y-87795000D01*
X152800000Y-87645000D01*
X152805709Y-87616299D01*
X152821967Y-87591967D01*
X152846299Y-87575709D01*
X152875000Y-87570000D01*
X154275000Y-87570000D01*
X154303701Y-87575709D01*
G37*
D12*
X150300000Y-88050000D03*
X150300000Y-91350000D03*
X148300000Y-91350000D03*
X148300000Y-88050000D03*
D13*
X165470000Y-81647500D03*
X165470000Y-80872500D03*
X166670000Y-80872500D03*
X166670000Y-81647500D03*
D14*
X165095000Y-79710000D03*
X165745000Y-79710000D03*
X166395000Y-79710000D03*
X167045000Y-79710000D03*
X167045000Y-82810000D03*
X166395000Y-82810000D03*
X165745000Y-82810000D03*
X165095000Y-82810000D03*
D15*
X183996000Y-85580000D03*
X183996000Y-83740000D03*
D16*
X180014000Y-84660000D03*
G36*
X172322835Y-105634515D02*
G01*
X172363388Y-105661612D01*
X172390485Y-105702165D01*
X172400000Y-105750000D01*
X172400000Y-106000000D01*
X172390485Y-106047835D01*
X172363388Y-106088388D01*
X172322835Y-106115485D01*
X172275000Y-106125000D01*
X170900000Y-106125000D01*
X170852165Y-106115485D01*
X170811612Y-106088388D01*
X170784515Y-106047835D01*
X170775000Y-106000000D01*
X170775000Y-105750000D01*
X170784515Y-105702165D01*
X170811612Y-105661612D01*
X170852165Y-105634515D01*
X170900000Y-105625000D01*
X172275000Y-105625000D01*
X172322835Y-105634515D01*
G37*
G36*
X172322835Y-104984515D02*
G01*
X172363388Y-105011612D01*
X172390485Y-105052165D01*
X172400000Y-105100000D01*
X172400000Y-105350000D01*
X172390485Y-105397835D01*
X172363388Y-105438388D01*
X172322835Y-105465485D01*
X172275000Y-105475000D01*
X170900000Y-105475000D01*
X170852165Y-105465485D01*
X170811612Y-105438388D01*
X170784515Y-105397835D01*
X170775000Y-105350000D01*
X170775000Y-105100000D01*
X170784515Y-105052165D01*
X170811612Y-105011612D01*
X170852165Y-104984515D01*
X170900000Y-104975000D01*
X172275000Y-104975000D01*
X172322835Y-104984515D01*
G37*
G36*
X172322835Y-104334515D02*
G01*
X172363388Y-104361612D01*
X172390485Y-104402165D01*
X172400000Y-104450000D01*
X172400000Y-104700000D01*
X172390485Y-104747835D01*
X172363388Y-104788388D01*
X172322835Y-104815485D01*
X172275000Y-104825000D01*
X170900000Y-104825000D01*
X170852165Y-104815485D01*
X170811612Y-104788388D01*
X170784515Y-104747835D01*
X170775000Y-104700000D01*
X170775000Y-104450000D01*
X170784515Y-104402165D01*
X170811612Y-104361612D01*
X170852165Y-104334515D01*
X170900000Y-104325000D01*
X172275000Y-104325000D01*
X172322835Y-104334515D01*
G37*
G36*
X172322835Y-103684515D02*
G01*
X172363388Y-103711612D01*
X172390485Y-103752165D01*
X172400000Y-103800000D01*
X172400000Y-104050000D01*
X172390485Y-104097835D01*
X172363388Y-104138388D01*
X172322835Y-104165485D01*
X172275000Y-104175000D01*
X170900000Y-104175000D01*
X170852165Y-104165485D01*
X170811612Y-104138388D01*
X170784515Y-104097835D01*
X170775000Y-104050000D01*
X170775000Y-103800000D01*
X170784515Y-103752165D01*
X170811612Y-103711612D01*
X170852165Y-103684515D01*
X170900000Y-103675000D01*
X172275000Y-103675000D01*
X172322835Y-103684515D01*
G37*
G36*
X176547835Y-103684515D02*
G01*
X176588388Y-103711612D01*
X176615485Y-103752165D01*
X176625000Y-103800000D01*
X176625000Y-104050000D01*
X176615485Y-104097835D01*
X176588388Y-104138388D01*
X176547835Y-104165485D01*
X176500000Y-104175000D01*
X175125000Y-104175000D01*
X175077165Y-104165485D01*
X175036612Y-104138388D01*
X175009515Y-104097835D01*
X175000000Y-104050000D01*
X175000000Y-103800000D01*
X175009515Y-103752165D01*
X175036612Y-103711612D01*
X175077165Y-103684515D01*
X175125000Y-103675000D01*
X176500000Y-103675000D01*
X176547835Y-103684515D01*
G37*
G36*
X176547835Y-104334515D02*
G01*
X176588388Y-104361612D01*
X176615485Y-104402165D01*
X176625000Y-104450000D01*
X176625000Y-104700000D01*
X176615485Y-104747835D01*
X176588388Y-104788388D01*
X176547835Y-104815485D01*
X176500000Y-104825000D01*
X175125000Y-104825000D01*
X175077165Y-104815485D01*
X175036612Y-104788388D01*
X175009515Y-104747835D01*
X175000000Y-104700000D01*
X175000000Y-104450000D01*
X175009515Y-104402165D01*
X175036612Y-104361612D01*
X175077165Y-104334515D01*
X175125000Y-104325000D01*
X176500000Y-104325000D01*
X176547835Y-104334515D01*
G37*
G36*
X176547835Y-104984515D02*
G01*
X176588388Y-105011612D01*
X176615485Y-105052165D01*
X176625000Y-105100000D01*
X176625000Y-105350000D01*
X176615485Y-105397835D01*
X176588388Y-105438388D01*
X176547835Y-105465485D01*
X176500000Y-105475000D01*
X175125000Y-105475000D01*
X175077165Y-105465485D01*
X175036612Y-105438388D01*
X175009515Y-105397835D01*
X175000000Y-105350000D01*
X175000000Y-105100000D01*
X175009515Y-105052165D01*
X175036612Y-105011612D01*
X175077165Y-104984515D01*
X175125000Y-104975000D01*
X176500000Y-104975000D01*
X176547835Y-104984515D01*
G37*
G36*
X176547835Y-105634515D02*
G01*
X176588388Y-105661612D01*
X176615485Y-105702165D01*
X176625000Y-105750000D01*
X176625000Y-106000000D01*
X176615485Y-106047835D01*
X176588388Y-106088388D01*
X176547835Y-106115485D01*
X176500000Y-106125000D01*
X175125000Y-106125000D01*
X175077165Y-106115485D01*
X175036612Y-106088388D01*
X175009515Y-106047835D01*
X175000000Y-106000000D01*
X175000000Y-105750000D01*
X175009515Y-105702165D01*
X175036612Y-105661612D01*
X175077165Y-105634515D01*
X175125000Y-105625000D01*
X176500000Y-105625000D01*
X176547835Y-105634515D01*
G37*
G36*
X161229962Y-81326651D02*
G01*
X161300930Y-81374070D01*
X161348349Y-81445038D01*
X161365000Y-81528750D01*
X161365000Y-81966250D01*
X161348349Y-82049962D01*
X161300930Y-82120930D01*
X161229962Y-82168349D01*
X161146250Y-82185000D01*
X160633750Y-82185000D01*
X160550038Y-82168349D01*
X160479070Y-82120930D01*
X160431651Y-82049962D01*
X160415000Y-81966250D01*
X160415000Y-81528750D01*
X160431651Y-81445038D01*
X160479070Y-81374070D01*
X160550038Y-81326651D01*
X160633750Y-81310000D01*
X161146250Y-81310000D01*
X161229962Y-81326651D01*
G37*
G36*
X161229962Y-79751651D02*
G01*
X161300930Y-79799070D01*
X161348349Y-79870038D01*
X161365000Y-79953750D01*
X161365000Y-80391250D01*
X161348349Y-80474962D01*
X161300930Y-80545930D01*
X161229962Y-80593349D01*
X161146250Y-80610000D01*
X160633750Y-80610000D01*
X160550038Y-80593349D01*
X160479070Y-80545930D01*
X160431651Y-80474962D01*
X160415000Y-80391250D01*
X160415000Y-79953750D01*
X160431651Y-79870038D01*
X160479070Y-79799070D01*
X160550038Y-79751651D01*
X160633750Y-79735000D01*
X161146250Y-79735000D01*
X161229962Y-79751651D01*
G37*
G36*
X162699962Y-81326651D02*
G01*
X162770930Y-81374070D01*
X162818349Y-81445038D01*
X162835000Y-81528750D01*
X162835000Y-81966250D01*
X162818349Y-82049962D01*
X162770930Y-82120930D01*
X162699962Y-82168349D01*
X162616250Y-82185000D01*
X162103750Y-82185000D01*
X162020038Y-82168349D01*
X161949070Y-82120930D01*
X161901651Y-82049962D01*
X161885000Y-81966250D01*
X161885000Y-81528750D01*
X161901651Y-81445038D01*
X161949070Y-81374070D01*
X162020038Y-81326651D01*
X162103750Y-81310000D01*
X162616250Y-81310000D01*
X162699962Y-81326651D01*
G37*
G36*
X162699962Y-79751651D02*
G01*
X162770930Y-79799070D01*
X162818349Y-79870038D01*
X162835000Y-79953750D01*
X162835000Y-80391250D01*
X162818349Y-80474962D01*
X162770930Y-80545930D01*
X162699962Y-80593349D01*
X162616250Y-80610000D01*
X162103750Y-80610000D01*
X162020038Y-80593349D01*
X161949070Y-80545930D01*
X161901651Y-80474962D01*
X161885000Y-80391250D01*
X161885000Y-79953750D01*
X161901651Y-79870038D01*
X161949070Y-79799070D01*
X162020038Y-79751651D01*
X162103750Y-79735000D01*
X162616250Y-79735000D01*
X162699962Y-79751651D01*
G37*
G36*
X155319962Y-80491651D02*
G01*
X155390930Y-80539070D01*
X155438349Y-80610038D01*
X155455000Y-80693750D01*
X155455000Y-81206250D01*
X155438349Y-81289962D01*
X155390930Y-81360930D01*
X155319962Y-81408349D01*
X155236250Y-81425000D01*
X154798750Y-81425000D01*
X154715038Y-81408349D01*
X154644070Y-81360930D01*
X154596651Y-81289962D01*
X154580000Y-81206250D01*
X154580000Y-80693750D01*
X154596651Y-80610038D01*
X154644070Y-80539070D01*
X154715038Y-80491651D01*
X154798750Y-80475000D01*
X155236250Y-80475000D01*
X155319962Y-80491651D01*
G37*
G36*
X153744962Y-80491651D02*
G01*
X153815930Y-80539070D01*
X153863349Y-80610038D01*
X153880000Y-80693750D01*
X153880000Y-81206250D01*
X153863349Y-81289962D01*
X153815930Y-81360930D01*
X153744962Y-81408349D01*
X153661250Y-81425000D01*
X153223750Y-81425000D01*
X153140038Y-81408349D01*
X153069070Y-81360930D01*
X153021651Y-81289962D01*
X153005000Y-81206250D01*
X153005000Y-80693750D01*
X153021651Y-80610038D01*
X153069070Y-80539070D01*
X153140038Y-80491651D01*
X153223750Y-80475000D01*
X153661250Y-80475000D01*
X153744962Y-80491651D01*
G37*
G36*
X155319962Y-79031651D02*
G01*
X155390930Y-79079070D01*
X155438349Y-79150038D01*
X155455000Y-79233750D01*
X155455000Y-79746250D01*
X155438349Y-79829962D01*
X155390930Y-79900930D01*
X155319962Y-79948349D01*
X155236250Y-79965000D01*
X154798750Y-79965000D01*
X154715038Y-79948349D01*
X154644070Y-79900930D01*
X154596651Y-79829962D01*
X154580000Y-79746250D01*
X154580000Y-79233750D01*
X154596651Y-79150038D01*
X154644070Y-79079070D01*
X154715038Y-79031651D01*
X154798750Y-79015000D01*
X155236250Y-79015000D01*
X155319962Y-79031651D01*
G37*
G36*
X153744962Y-79031651D02*
G01*
X153815930Y-79079070D01*
X153863349Y-79150038D01*
X153880000Y-79233750D01*
X153880000Y-79746250D01*
X153863349Y-79829962D01*
X153815930Y-79900930D01*
X153744962Y-79948349D01*
X153661250Y-79965000D01*
X153223750Y-79965000D01*
X153140038Y-79948349D01*
X153069070Y-79900930D01*
X153021651Y-79829962D01*
X153005000Y-79746250D01*
X153005000Y-79233750D01*
X153021651Y-79150038D01*
X153069070Y-79079070D01*
X153140038Y-79031651D01*
X153223750Y-79015000D01*
X153661250Y-79015000D01*
X153744962Y-79031651D01*
G37*
G36*
X175529962Y-78731651D02*
G01*
X175600930Y-78779070D01*
X175648349Y-78850038D01*
X175665000Y-78933750D01*
X175665000Y-79371250D01*
X175648349Y-79454962D01*
X175600930Y-79525930D01*
X175529962Y-79573349D01*
X175446250Y-79590000D01*
X174933750Y-79590000D01*
X174850038Y-79573349D01*
X174779070Y-79525930D01*
X174731651Y-79454962D01*
X174715000Y-79371250D01*
X174715000Y-78933750D01*
X174731651Y-78850038D01*
X174779070Y-78779070D01*
X174850038Y-78731651D01*
X174933750Y-78715000D01*
X175446250Y-78715000D01*
X175529962Y-78731651D01*
G37*
G36*
X175529962Y-80306651D02*
G01*
X175600930Y-80354070D01*
X175648349Y-80425038D01*
X175665000Y-80508750D01*
X175665000Y-80946250D01*
X175648349Y-81029962D01*
X175600930Y-81100930D01*
X175529962Y-81148349D01*
X175446250Y-81165000D01*
X174933750Y-81165000D01*
X174850038Y-81148349D01*
X174779070Y-81100930D01*
X174731651Y-81029962D01*
X174715000Y-80946250D01*
X174715000Y-80508750D01*
X174731651Y-80425038D01*
X174779070Y-80354070D01*
X174850038Y-80306651D01*
X174933750Y-80290000D01*
X175446250Y-80290000D01*
X175529962Y-80306651D01*
G37*
G36*
X174069962Y-80306651D02*
G01*
X174140930Y-80354070D01*
X174188349Y-80425038D01*
X174205000Y-80508750D01*
X174205000Y-80946250D01*
X174188349Y-81029962D01*
X174140930Y-81100930D01*
X174069962Y-81148349D01*
X173986250Y-81165000D01*
X173473750Y-81165000D01*
X173390038Y-81148349D01*
X173319070Y-81100930D01*
X173271651Y-81029962D01*
X173255000Y-80946250D01*
X173255000Y-80508750D01*
X173271651Y-80425038D01*
X173319070Y-80354070D01*
X173390038Y-80306651D01*
X173473750Y-80290000D01*
X173986250Y-80290000D01*
X174069962Y-80306651D01*
G37*
G36*
X174069962Y-78731651D02*
G01*
X174140930Y-78779070D01*
X174188349Y-78850038D01*
X174205000Y-78933750D01*
X174205000Y-79371250D01*
X174188349Y-79454962D01*
X174140930Y-79525930D01*
X174069962Y-79573349D01*
X173986250Y-79590000D01*
X173473750Y-79590000D01*
X173390038Y-79573349D01*
X173319070Y-79525930D01*
X173271651Y-79454962D01*
X173255000Y-79371250D01*
X173255000Y-78933750D01*
X173271651Y-78850038D01*
X173319070Y-78779070D01*
X173390038Y-78731651D01*
X173473750Y-78715000D01*
X173986250Y-78715000D01*
X174069962Y-78731651D01*
G37*
G36*
X184899962Y-69871651D02*
G01*
X184970930Y-69919070D01*
X185018349Y-69990038D01*
X185035000Y-70073750D01*
X185035000Y-70511250D01*
X185018349Y-70594962D01*
X184970930Y-70665930D01*
X184899962Y-70713349D01*
X184816250Y-70730000D01*
X184303750Y-70730000D01*
X184220038Y-70713349D01*
X184149070Y-70665930D01*
X184101651Y-70594962D01*
X184085000Y-70511250D01*
X184085000Y-70073750D01*
X184101651Y-69990038D01*
X184149070Y-69919070D01*
X184220038Y-69871651D01*
X184303750Y-69855000D01*
X184816250Y-69855000D01*
X184899962Y-69871651D01*
G37*
G36*
X184899962Y-71446651D02*
G01*
X184970930Y-71494070D01*
X185018349Y-71565038D01*
X185035000Y-71648750D01*
X185035000Y-72086250D01*
X185018349Y-72169962D01*
X184970930Y-72240930D01*
X184899962Y-72288349D01*
X184816250Y-72305000D01*
X184303750Y-72305000D01*
X184220038Y-72288349D01*
X184149070Y-72240930D01*
X184101651Y-72169962D01*
X184085000Y-72086250D01*
X184085000Y-71648750D01*
X184101651Y-71565038D01*
X184149070Y-71494070D01*
X184220038Y-71446651D01*
X184303750Y-71430000D01*
X184816250Y-71430000D01*
X184899962Y-71446651D01*
G37*
G36*
X186359962Y-71446651D02*
G01*
X186430930Y-71494070D01*
X186478349Y-71565038D01*
X186495000Y-71648750D01*
X186495000Y-72086250D01*
X186478349Y-72169962D01*
X186430930Y-72240930D01*
X186359962Y-72288349D01*
X186276250Y-72305000D01*
X185763750Y-72305000D01*
X185680038Y-72288349D01*
X185609070Y-72240930D01*
X185561651Y-72169962D01*
X185545000Y-72086250D01*
X185545000Y-71648750D01*
X185561651Y-71565038D01*
X185609070Y-71494070D01*
X185680038Y-71446651D01*
X185763750Y-71430000D01*
X186276250Y-71430000D01*
X186359962Y-71446651D01*
G37*
G36*
X186359962Y-69871651D02*
G01*
X186430930Y-69919070D01*
X186478349Y-69990038D01*
X186495000Y-70073750D01*
X186495000Y-70511250D01*
X186478349Y-70594962D01*
X186430930Y-70665930D01*
X186359962Y-70713349D01*
X186276250Y-70730000D01*
X185763750Y-70730000D01*
X185680038Y-70713349D01*
X185609070Y-70665930D01*
X185561651Y-70594962D01*
X185545000Y-70511250D01*
X185545000Y-70073750D01*
X185561651Y-69990038D01*
X185609070Y-69919070D01*
X185680038Y-69871651D01*
X185763750Y-69855000D01*
X186276250Y-69855000D01*
X186359962Y-69871651D01*
G37*
G36*
X177834962Y-77131651D02*
G01*
X177905930Y-77179070D01*
X177953349Y-77250038D01*
X177970000Y-77333750D01*
X177970000Y-77846250D01*
X177953349Y-77929962D01*
X177905930Y-78000930D01*
X177834962Y-78048349D01*
X177751250Y-78065000D01*
X177313750Y-78065000D01*
X177230038Y-78048349D01*
X177159070Y-78000930D01*
X177111651Y-77929962D01*
X177095000Y-77846250D01*
X177095000Y-77333750D01*
X177111651Y-77250038D01*
X177159070Y-77179070D01*
X177230038Y-77131651D01*
X177313750Y-77115000D01*
X177751250Y-77115000D01*
X177834962Y-77131651D01*
G37*
G36*
X179409962Y-77131651D02*
G01*
X179480930Y-77179070D01*
X179528349Y-77250038D01*
X179545000Y-77333750D01*
X179545000Y-77846250D01*
X179528349Y-77929962D01*
X179480930Y-78000930D01*
X179409962Y-78048349D01*
X179326250Y-78065000D01*
X178888750Y-78065000D01*
X178805038Y-78048349D01*
X178734070Y-78000930D01*
X178686651Y-77929962D01*
X178670000Y-77846250D01*
X178670000Y-77333750D01*
X178686651Y-77250038D01*
X178734070Y-77179070D01*
X178805038Y-77131651D01*
X178888750Y-77115000D01*
X179326250Y-77115000D01*
X179409962Y-77131651D01*
G37*
G36*
X178129962Y-105564151D02*
G01*
X178200930Y-105611570D01*
X178248349Y-105682538D01*
X178265000Y-105766250D01*
X178265000Y-106203750D01*
X178248349Y-106287462D01*
X178200930Y-106358430D01*
X178129962Y-106405849D01*
X178046250Y-106422500D01*
X177533750Y-106422500D01*
X177450038Y-106405849D01*
X177379070Y-106358430D01*
X177331651Y-106287462D01*
X177315000Y-106203750D01*
X177315000Y-105766250D01*
X177331651Y-105682538D01*
X177379070Y-105611570D01*
X177450038Y-105564151D01*
X177533750Y-105547500D01*
X178046250Y-105547500D01*
X178129962Y-105564151D01*
G37*
G36*
X178129962Y-107139151D02*
G01*
X178200930Y-107186570D01*
X178248349Y-107257538D01*
X178265000Y-107341250D01*
X178265000Y-107778750D01*
X178248349Y-107862462D01*
X178200930Y-107933430D01*
X178129962Y-107980849D01*
X178046250Y-107997500D01*
X177533750Y-107997500D01*
X177450038Y-107980849D01*
X177379070Y-107933430D01*
X177331651Y-107862462D01*
X177315000Y-107778750D01*
X177315000Y-107341250D01*
X177331651Y-107257538D01*
X177379070Y-107186570D01*
X177450038Y-107139151D01*
X177533750Y-107122500D01*
X178046250Y-107122500D01*
X178129962Y-107139151D01*
G37*
G36*
X179589962Y-107139151D02*
G01*
X179660930Y-107186570D01*
X179708349Y-107257538D01*
X179725000Y-107341250D01*
X179725000Y-107778750D01*
X179708349Y-107862462D01*
X179660930Y-107933430D01*
X179589962Y-107980849D01*
X179506250Y-107997500D01*
X178993750Y-107997500D01*
X178910038Y-107980849D01*
X178839070Y-107933430D01*
X178791651Y-107862462D01*
X178775000Y-107778750D01*
X178775000Y-107341250D01*
X178791651Y-107257538D01*
X178839070Y-107186570D01*
X178910038Y-107139151D01*
X178993750Y-107122500D01*
X179506250Y-107122500D01*
X179589962Y-107139151D01*
G37*
G36*
X179589962Y-105564151D02*
G01*
X179660930Y-105611570D01*
X179708349Y-105682538D01*
X179725000Y-105766250D01*
X179725000Y-106203750D01*
X179708349Y-106287462D01*
X179660930Y-106358430D01*
X179589962Y-106405849D01*
X179506250Y-106422500D01*
X178993750Y-106422500D01*
X178910038Y-106405849D01*
X178839070Y-106358430D01*
X178791651Y-106287462D01*
X178775000Y-106203750D01*
X178775000Y-105766250D01*
X178791651Y-105682538D01*
X178839070Y-105611570D01*
X178910038Y-105564151D01*
X178993750Y-105547500D01*
X179506250Y-105547500D01*
X179589962Y-105564151D01*
G37*
G36*
X186054962Y-75731651D02*
G01*
X186125930Y-75779070D01*
X186173349Y-75850038D01*
X186190000Y-75933750D01*
X186190000Y-76446250D01*
X186173349Y-76529962D01*
X186125930Y-76600930D01*
X186054962Y-76648349D01*
X185971250Y-76665000D01*
X185533750Y-76665000D01*
X185450038Y-76648349D01*
X185379070Y-76600930D01*
X185331651Y-76529962D01*
X185315000Y-76446250D01*
X185315000Y-75933750D01*
X185331651Y-75850038D01*
X185379070Y-75779070D01*
X185450038Y-75731651D01*
X185533750Y-75715000D01*
X185971250Y-75715000D01*
X186054962Y-75731651D01*
G37*
G36*
X187629962Y-75731651D02*
G01*
X187700930Y-75779070D01*
X187748349Y-75850038D01*
X187765000Y-75933750D01*
X187765000Y-76446250D01*
X187748349Y-76529962D01*
X187700930Y-76600930D01*
X187629962Y-76648349D01*
X187546250Y-76665000D01*
X187108750Y-76665000D01*
X187025038Y-76648349D01*
X186954070Y-76600930D01*
X186906651Y-76529962D01*
X186890000Y-76446250D01*
X186890000Y-75933750D01*
X186906651Y-75850038D01*
X186954070Y-75779070D01*
X187025038Y-75731651D01*
X187108750Y-75715000D01*
X187546250Y-75715000D01*
X187629962Y-75731651D01*
G37*
D17*
X172000000Y-76000000D03*
X174000000Y-75350000D03*
X174000000Y-76650000D03*
D18*
X180320000Y-98950000D03*
X180320000Y-89050000D03*
D19*
X167357500Y-102640000D03*
X167357500Y-99040000D03*
D20*
X148000000Y-71400000D03*
X148000000Y-76850000D03*
X156900000Y-71400000D03*
X156900000Y-76850000D03*
D21*
X150850000Y-76950000D03*
X151650000Y-76950000D03*
X152450000Y-76950000D03*
X153250000Y-76950000D03*
X154050000Y-76950000D03*
G36*
X161229962Y-78366651D02*
G01*
X161300930Y-78414070D01*
X161348349Y-78485038D01*
X161365000Y-78568750D01*
X161365000Y-79006250D01*
X161348349Y-79089962D01*
X161300930Y-79160930D01*
X161229962Y-79208349D01*
X161146250Y-79225000D01*
X160633750Y-79225000D01*
X160550038Y-79208349D01*
X160479070Y-79160930D01*
X160431651Y-79089962D01*
X160415000Y-79006250D01*
X160415000Y-78568750D01*
X160431651Y-78485038D01*
X160479070Y-78414070D01*
X160550038Y-78366651D01*
X160633750Y-78350000D01*
X161146250Y-78350000D01*
X161229962Y-78366651D01*
G37*
G36*
X161229962Y-76791651D02*
G01*
X161300930Y-76839070D01*
X161348349Y-76910038D01*
X161365000Y-76993750D01*
X161365000Y-77431250D01*
X161348349Y-77514962D01*
X161300930Y-77585930D01*
X161229962Y-77633349D01*
X161146250Y-77650000D01*
X160633750Y-77650000D01*
X160550038Y-77633349D01*
X160479070Y-77585930D01*
X160431651Y-77514962D01*
X160415000Y-77431250D01*
X160415000Y-76993750D01*
X160431651Y-76910038D01*
X160479070Y-76839070D01*
X160550038Y-76791651D01*
X160633750Y-76775000D01*
X161146250Y-76775000D01*
X161229962Y-76791651D01*
G37*
G36*
X162699962Y-78366651D02*
G01*
X162770930Y-78414070D01*
X162818349Y-78485038D01*
X162835000Y-78568750D01*
X162835000Y-79006250D01*
X162818349Y-79089962D01*
X162770930Y-79160930D01*
X162699962Y-79208349D01*
X162616250Y-79225000D01*
X162103750Y-79225000D01*
X162020038Y-79208349D01*
X161949070Y-79160930D01*
X161901651Y-79089962D01*
X161885000Y-79006250D01*
X161885000Y-78568750D01*
X161901651Y-78485038D01*
X161949070Y-78414070D01*
X162020038Y-78366651D01*
X162103750Y-78350000D01*
X162616250Y-78350000D01*
X162699962Y-78366651D01*
G37*
G36*
X162699962Y-76791651D02*
G01*
X162770930Y-76839070D01*
X162818349Y-76910038D01*
X162835000Y-76993750D01*
X162835000Y-77431250D01*
X162818349Y-77514962D01*
X162770930Y-77585930D01*
X162699962Y-77633349D01*
X162616250Y-77650000D01*
X162103750Y-77650000D01*
X162020038Y-77633349D01*
X161949070Y-77585930D01*
X161901651Y-77514962D01*
X161885000Y-77431250D01*
X161885000Y-76993750D01*
X161901651Y-76910038D01*
X161949070Y-76839070D01*
X162020038Y-76791651D01*
X162103750Y-76775000D01*
X162616250Y-76775000D01*
X162699962Y-76791651D01*
G37*
G36*
X155214962Y-98731651D02*
G01*
X155285930Y-98779070D01*
X155333349Y-98850038D01*
X155350000Y-98933750D01*
X155350000Y-99446250D01*
X155333349Y-99529962D01*
X155285930Y-99600930D01*
X155214962Y-99648349D01*
X155131250Y-99665000D01*
X154693750Y-99665000D01*
X154610038Y-99648349D01*
X154539070Y-99600930D01*
X154491651Y-99529962D01*
X154475000Y-99446250D01*
X154475000Y-98933750D01*
X154491651Y-98850038D01*
X154539070Y-98779070D01*
X154610038Y-98731651D01*
X154693750Y-98715000D01*
X155131250Y-98715000D01*
X155214962Y-98731651D01*
G37*
G36*
X156789962Y-98731651D02*
G01*
X156860930Y-98779070D01*
X156908349Y-98850038D01*
X156925000Y-98933750D01*
X156925000Y-99446250D01*
X156908349Y-99529962D01*
X156860930Y-99600930D01*
X156789962Y-99648349D01*
X156706250Y-99665000D01*
X156268750Y-99665000D01*
X156185038Y-99648349D01*
X156114070Y-99600930D01*
X156066651Y-99529962D01*
X156050000Y-99446250D01*
X156050000Y-98933750D01*
X156066651Y-98850038D01*
X156114070Y-98779070D01*
X156185038Y-98731651D01*
X156268750Y-98715000D01*
X156706250Y-98715000D01*
X156789962Y-98731651D01*
G37*
G36*
X152979962Y-84091651D02*
G01*
X153050930Y-84139070D01*
X153098349Y-84210038D01*
X153115000Y-84293750D01*
X153115000Y-84731250D01*
X153098349Y-84814962D01*
X153050930Y-84885930D01*
X152979962Y-84933349D01*
X152896250Y-84950000D01*
X152383750Y-84950000D01*
X152300038Y-84933349D01*
X152229070Y-84885930D01*
X152181651Y-84814962D01*
X152165000Y-84731250D01*
X152165000Y-84293750D01*
X152181651Y-84210038D01*
X152229070Y-84139070D01*
X152300038Y-84091651D01*
X152383750Y-84075000D01*
X152896250Y-84075000D01*
X152979962Y-84091651D01*
G37*
G36*
X152979962Y-85666651D02*
G01*
X153050930Y-85714070D01*
X153098349Y-85785038D01*
X153115000Y-85868750D01*
X153115000Y-86306250D01*
X153098349Y-86389962D01*
X153050930Y-86460930D01*
X152979962Y-86508349D01*
X152896250Y-86525000D01*
X152383750Y-86525000D01*
X152300038Y-86508349D01*
X152229070Y-86460930D01*
X152181651Y-86389962D01*
X152165000Y-86306250D01*
X152165000Y-85868750D01*
X152181651Y-85785038D01*
X152229070Y-85714070D01*
X152300038Y-85666651D01*
X152383750Y-85650000D01*
X152896250Y-85650000D01*
X152979962Y-85666651D01*
G37*
G36*
X156649962Y-83201651D02*
G01*
X156720930Y-83249070D01*
X156768349Y-83320038D01*
X156785000Y-83403750D01*
X156785000Y-83916250D01*
X156768349Y-83999962D01*
X156720930Y-84070930D01*
X156649962Y-84118349D01*
X156566250Y-84135000D01*
X156128750Y-84135000D01*
X156045038Y-84118349D01*
X155974070Y-84070930D01*
X155926651Y-83999962D01*
X155910000Y-83916250D01*
X155910000Y-83403750D01*
X155926651Y-83320038D01*
X155974070Y-83249070D01*
X156045038Y-83201651D01*
X156128750Y-83185000D01*
X156566250Y-83185000D01*
X156649962Y-83201651D01*
G37*
G36*
X155074962Y-83201651D02*
G01*
X155145930Y-83249070D01*
X155193349Y-83320038D01*
X155210000Y-83403750D01*
X155210000Y-83916250D01*
X155193349Y-83999962D01*
X155145930Y-84070930D01*
X155074962Y-84118349D01*
X154991250Y-84135000D01*
X154553750Y-84135000D01*
X154470038Y-84118349D01*
X154399070Y-84070930D01*
X154351651Y-83999962D01*
X154335000Y-83916250D01*
X154335000Y-83403750D01*
X154351651Y-83320038D01*
X154399070Y-83249070D01*
X154470038Y-83201651D01*
X154553750Y-83185000D01*
X154991250Y-83185000D01*
X155074962Y-83201651D01*
G37*
G36*
X161444962Y-99021651D02*
G01*
X161515930Y-99069070D01*
X161563349Y-99140038D01*
X161580000Y-99223750D01*
X161580000Y-99736250D01*
X161563349Y-99819962D01*
X161515930Y-99890930D01*
X161444962Y-99938349D01*
X161361250Y-99955000D01*
X160923750Y-99955000D01*
X160840038Y-99938349D01*
X160769070Y-99890930D01*
X160721651Y-99819962D01*
X160705000Y-99736250D01*
X160705000Y-99223750D01*
X160721651Y-99140038D01*
X160769070Y-99069070D01*
X160840038Y-99021651D01*
X160923750Y-99005000D01*
X161361250Y-99005000D01*
X161444962Y-99021651D01*
G37*
G36*
X163019962Y-99021651D02*
G01*
X163090930Y-99069070D01*
X163138349Y-99140038D01*
X163155000Y-99223750D01*
X163155000Y-99736250D01*
X163138349Y-99819962D01*
X163090930Y-99890930D01*
X163019962Y-99938349D01*
X162936250Y-99955000D01*
X162498750Y-99955000D01*
X162415038Y-99938349D01*
X162344070Y-99890930D01*
X162296651Y-99819962D01*
X162280000Y-99736250D01*
X162280000Y-99223750D01*
X162296651Y-99140038D01*
X162344070Y-99069070D01*
X162415038Y-99021651D01*
X162498750Y-99005000D01*
X162936250Y-99005000D01*
X163019962Y-99021651D01*
G37*
G36*
X151879962Y-94446651D02*
G01*
X151950930Y-94494070D01*
X151998349Y-94565038D01*
X152015000Y-94648750D01*
X152015000Y-95086250D01*
X151998349Y-95169962D01*
X151950930Y-95240930D01*
X151879962Y-95288349D01*
X151796250Y-95305000D01*
X151283750Y-95305000D01*
X151200038Y-95288349D01*
X151129070Y-95240930D01*
X151081651Y-95169962D01*
X151065000Y-95086250D01*
X151065000Y-94648750D01*
X151081651Y-94565038D01*
X151129070Y-94494070D01*
X151200038Y-94446651D01*
X151283750Y-94430000D01*
X151796250Y-94430000D01*
X151879962Y-94446651D01*
G37*
G36*
X151879962Y-92871651D02*
G01*
X151950930Y-92919070D01*
X151998349Y-92990038D01*
X152015000Y-93073750D01*
X152015000Y-93511250D01*
X151998349Y-93594962D01*
X151950930Y-93665930D01*
X151879962Y-93713349D01*
X151796250Y-93730000D01*
X151283750Y-93730000D01*
X151200038Y-93713349D01*
X151129070Y-93665930D01*
X151081651Y-93594962D01*
X151065000Y-93511250D01*
X151065000Y-93073750D01*
X151081651Y-92990038D01*
X151129070Y-92919070D01*
X151200038Y-92871651D01*
X151283750Y-92855000D01*
X151796250Y-92855000D01*
X151879962Y-92871651D01*
G37*
G36*
X167239962Y-84351651D02*
G01*
X167310930Y-84399070D01*
X167358349Y-84470038D01*
X167375000Y-84553750D01*
X167375000Y-85066250D01*
X167358349Y-85149962D01*
X167310930Y-85220930D01*
X167239962Y-85268349D01*
X167156250Y-85285000D01*
X166718750Y-85285000D01*
X166635038Y-85268349D01*
X166564070Y-85220930D01*
X166516651Y-85149962D01*
X166500000Y-85066250D01*
X166500000Y-84553750D01*
X166516651Y-84470038D01*
X166564070Y-84399070D01*
X166635038Y-84351651D01*
X166718750Y-84335000D01*
X167156250Y-84335000D01*
X167239962Y-84351651D01*
G37*
G36*
X165664962Y-84351651D02*
G01*
X165735930Y-84399070D01*
X165783349Y-84470038D01*
X165800000Y-84553750D01*
X165800000Y-85066250D01*
X165783349Y-85149962D01*
X165735930Y-85220930D01*
X165664962Y-85268349D01*
X165581250Y-85285000D01*
X165143750Y-85285000D01*
X165060038Y-85268349D01*
X164989070Y-85220930D01*
X164941651Y-85149962D01*
X164925000Y-85066250D01*
X164925000Y-84553750D01*
X164941651Y-84470038D01*
X164989070Y-84399070D01*
X165060038Y-84351651D01*
X165143750Y-84335000D01*
X165581250Y-84335000D01*
X165664962Y-84351651D01*
G37*
G36*
X165664962Y-77361651D02*
G01*
X165735930Y-77409070D01*
X165783349Y-77480038D01*
X165800000Y-77563750D01*
X165800000Y-78076250D01*
X165783349Y-78159962D01*
X165735930Y-78230930D01*
X165664962Y-78278349D01*
X165581250Y-78295000D01*
X165143750Y-78295000D01*
X165060038Y-78278349D01*
X164989070Y-78230930D01*
X164941651Y-78159962D01*
X164925000Y-78076250D01*
X164925000Y-77563750D01*
X164941651Y-77480038D01*
X164989070Y-77409070D01*
X165060038Y-77361651D01*
X165143750Y-77345000D01*
X165581250Y-77345000D01*
X165664962Y-77361651D01*
G37*
G36*
X167239962Y-77361651D02*
G01*
X167310930Y-77409070D01*
X167358349Y-77480038D01*
X167375000Y-77563750D01*
X167375000Y-78076250D01*
X167358349Y-78159962D01*
X167310930Y-78230930D01*
X167239962Y-78278349D01*
X167156250Y-78295000D01*
X166718750Y-78295000D01*
X166635038Y-78278349D01*
X166564070Y-78230930D01*
X166516651Y-78159962D01*
X166500000Y-78076250D01*
X166500000Y-77563750D01*
X166516651Y-77480038D01*
X166564070Y-77409070D01*
X166635038Y-77361651D01*
X166718750Y-77345000D01*
X167156250Y-77345000D01*
X167239962Y-77361651D01*
G37*
G36*
X167779962Y-89166651D02*
G01*
X167850930Y-89214070D01*
X167898349Y-89285038D01*
X167915000Y-89368750D01*
X167915000Y-89806250D01*
X167898349Y-89889962D01*
X167850930Y-89960930D01*
X167779962Y-90008349D01*
X167696250Y-90025000D01*
X167183750Y-90025000D01*
X167100038Y-90008349D01*
X167029070Y-89960930D01*
X166981651Y-89889962D01*
X166965000Y-89806250D01*
X166965000Y-89368750D01*
X166981651Y-89285038D01*
X167029070Y-89214070D01*
X167100038Y-89166651D01*
X167183750Y-89150000D01*
X167696250Y-89150000D01*
X167779962Y-89166651D01*
G37*
G36*
X167779962Y-87591651D02*
G01*
X167850930Y-87639070D01*
X167898349Y-87710038D01*
X167915000Y-87793750D01*
X167915000Y-88231250D01*
X167898349Y-88314962D01*
X167850930Y-88385930D01*
X167779962Y-88433349D01*
X167696250Y-88450000D01*
X167183750Y-88450000D01*
X167100038Y-88433349D01*
X167029070Y-88385930D01*
X166981651Y-88314962D01*
X166965000Y-88231250D01*
X166965000Y-87793750D01*
X166981651Y-87710038D01*
X167029070Y-87639070D01*
X167100038Y-87591651D01*
X167183750Y-87575000D01*
X167696250Y-87575000D01*
X167779962Y-87591651D01*
G37*
G36*
X148814962Y-85601651D02*
G01*
X148885930Y-85649070D01*
X148933349Y-85720038D01*
X148950000Y-85803750D01*
X148950000Y-86316250D01*
X148933349Y-86399962D01*
X148885930Y-86470930D01*
X148814962Y-86518349D01*
X148731250Y-86535000D01*
X148293750Y-86535000D01*
X148210038Y-86518349D01*
X148139070Y-86470930D01*
X148091651Y-86399962D01*
X148075000Y-86316250D01*
X148075000Y-85803750D01*
X148091651Y-85720038D01*
X148139070Y-85649070D01*
X148210038Y-85601651D01*
X148293750Y-85585000D01*
X148731250Y-85585000D01*
X148814962Y-85601651D01*
G37*
G36*
X150389962Y-85601651D02*
G01*
X150460930Y-85649070D01*
X150508349Y-85720038D01*
X150525000Y-85803750D01*
X150525000Y-86316250D01*
X150508349Y-86399962D01*
X150460930Y-86470930D01*
X150389962Y-86518349D01*
X150306250Y-86535000D01*
X149868750Y-86535000D01*
X149785038Y-86518349D01*
X149714070Y-86470930D01*
X149666651Y-86399962D01*
X149650000Y-86316250D01*
X149650000Y-85803750D01*
X149666651Y-85720038D01*
X149714070Y-85649070D01*
X149785038Y-85601651D01*
X149868750Y-85585000D01*
X150306250Y-85585000D01*
X150389962Y-85601651D01*
G37*
G36*
X150419962Y-92871651D02*
G01*
X150490930Y-92919070D01*
X150538349Y-92990038D01*
X150555000Y-93073750D01*
X150555000Y-93586250D01*
X150538349Y-93669962D01*
X150490930Y-93740930D01*
X150419962Y-93788349D01*
X150336250Y-93805000D01*
X149898750Y-93805000D01*
X149815038Y-93788349D01*
X149744070Y-93740930D01*
X149696651Y-93669962D01*
X149680000Y-93586250D01*
X149680000Y-93073750D01*
X149696651Y-92990038D01*
X149744070Y-92919070D01*
X149815038Y-92871651D01*
X149898750Y-92855000D01*
X150336250Y-92855000D01*
X150419962Y-92871651D01*
G37*
G36*
X148844962Y-92871651D02*
G01*
X148915930Y-92919070D01*
X148963349Y-92990038D01*
X148980000Y-93073750D01*
X148980000Y-93586250D01*
X148963349Y-93669962D01*
X148915930Y-93740930D01*
X148844962Y-93788349D01*
X148761250Y-93805000D01*
X148323750Y-93805000D01*
X148240038Y-93788349D01*
X148169070Y-93740930D01*
X148121651Y-93669962D01*
X148105000Y-93586250D01*
X148105000Y-93073750D01*
X148121651Y-92990038D01*
X148169070Y-92919070D01*
X148240038Y-92871651D01*
X148323750Y-92855000D01*
X148761250Y-92855000D01*
X148844962Y-92871651D01*
G37*
G36*
X183439962Y-69871651D02*
G01*
X183510930Y-69919070D01*
X183558349Y-69990038D01*
X183575000Y-70073750D01*
X183575000Y-70511250D01*
X183558349Y-70594962D01*
X183510930Y-70665930D01*
X183439962Y-70713349D01*
X183356250Y-70730000D01*
X182843750Y-70730000D01*
X182760038Y-70713349D01*
X182689070Y-70665930D01*
X182641651Y-70594962D01*
X182625000Y-70511250D01*
X182625000Y-70073750D01*
X182641651Y-69990038D01*
X182689070Y-69919070D01*
X182760038Y-69871651D01*
X182843750Y-69855000D01*
X183356250Y-69855000D01*
X183439962Y-69871651D01*
G37*
G36*
X183439962Y-71446651D02*
G01*
X183510930Y-71494070D01*
X183558349Y-71565038D01*
X183575000Y-71648750D01*
X183575000Y-72086250D01*
X183558349Y-72169962D01*
X183510930Y-72240930D01*
X183439962Y-72288349D01*
X183356250Y-72305000D01*
X182843750Y-72305000D01*
X182760038Y-72288349D01*
X182689070Y-72240930D01*
X182641651Y-72169962D01*
X182625000Y-72086250D01*
X182625000Y-71648750D01*
X182641651Y-71565038D01*
X182689070Y-71494070D01*
X182760038Y-71446651D01*
X182843750Y-71430000D01*
X183356250Y-71430000D01*
X183439962Y-71446651D01*
G37*
G36*
X172423171Y-93544030D02*
G01*
X172504277Y-93598223D01*
X172558470Y-93679329D01*
X172577500Y-93774999D01*
X172577500Y-95625001D01*
X172558470Y-95720671D01*
X172504277Y-95801777D01*
X172423171Y-95855970D01*
X172327501Y-95875000D01*
X171502499Y-95875000D01*
X171406829Y-95855970D01*
X171325723Y-95801777D01*
X171271530Y-95720671D01*
X171252500Y-95625001D01*
X171252500Y-93774999D01*
X171271530Y-93679329D01*
X171325723Y-93598223D01*
X171406829Y-93544030D01*
X171502499Y-93525000D01*
X172327501Y-93525000D01*
X172423171Y-93544030D01*
G37*
G36*
X169347908Y-93544062D02*
G01*
X169429152Y-93598348D01*
X169483438Y-93679592D01*
X169502500Y-93775425D01*
X169502500Y-95624575D01*
X169483438Y-95720408D01*
X169429152Y-95801652D01*
X169347908Y-95855938D01*
X169252075Y-95875000D01*
X168427925Y-95875000D01*
X168332092Y-95855938D01*
X168250848Y-95801652D01*
X168196562Y-95720408D01*
X168177500Y-95624575D01*
X168177500Y-93775425D01*
X168196562Y-93679592D01*
X168250848Y-93598348D01*
X168332092Y-93544062D01*
X168427925Y-93525000D01*
X169252075Y-93525000D01*
X169347908Y-93544062D01*
G37*
G36*
X179379962Y-80296651D02*
G01*
X179450930Y-80344070D01*
X179498349Y-80415038D01*
X179515000Y-80498750D01*
X179515000Y-80936250D01*
X179498349Y-81019962D01*
X179450930Y-81090930D01*
X179379962Y-81138349D01*
X179296250Y-81155000D01*
X178783750Y-81155000D01*
X178700038Y-81138349D01*
X178629070Y-81090930D01*
X178581651Y-81019962D01*
X178565000Y-80936250D01*
X178565000Y-80498750D01*
X178581651Y-80415038D01*
X178629070Y-80344070D01*
X178700038Y-80296651D01*
X178783750Y-80280000D01*
X179296250Y-80280000D01*
X179379962Y-80296651D01*
G37*
G36*
X179379962Y-78721651D02*
G01*
X179450930Y-78769070D01*
X179498349Y-78840038D01*
X179515000Y-78923750D01*
X179515000Y-79361250D01*
X179498349Y-79444962D01*
X179450930Y-79515930D01*
X179379962Y-79563349D01*
X179296250Y-79580000D01*
X178783750Y-79580000D01*
X178700038Y-79563349D01*
X178629070Y-79515930D01*
X178581651Y-79444962D01*
X178565000Y-79361250D01*
X178565000Y-78923750D01*
X178581651Y-78840038D01*
X178629070Y-78769070D01*
X178700038Y-78721651D01*
X178783750Y-78705000D01*
X179296250Y-78705000D01*
X179379962Y-78721651D01*
G37*
G36*
X177929962Y-80296651D02*
G01*
X178000930Y-80344070D01*
X178048349Y-80415038D01*
X178065000Y-80498750D01*
X178065000Y-80936250D01*
X178048349Y-81019962D01*
X178000930Y-81090930D01*
X177929962Y-81138349D01*
X177846250Y-81155000D01*
X177333750Y-81155000D01*
X177250038Y-81138349D01*
X177179070Y-81090930D01*
X177131651Y-81019962D01*
X177115000Y-80936250D01*
X177115000Y-80498750D01*
X177131651Y-80415038D01*
X177179070Y-80344070D01*
X177250038Y-80296651D01*
X177333750Y-80280000D01*
X177846250Y-80280000D01*
X177929962Y-80296651D01*
G37*
G36*
X177929962Y-78721651D02*
G01*
X178000930Y-78769070D01*
X178048349Y-78840038D01*
X178065000Y-78923750D01*
X178065000Y-79361250D01*
X178048349Y-79444962D01*
X178000930Y-79515930D01*
X177929962Y-79563349D01*
X177846250Y-79580000D01*
X177333750Y-79580000D01*
X177250038Y-79563349D01*
X177179070Y-79515930D01*
X177131651Y-79444962D01*
X177115000Y-79361250D01*
X177115000Y-78923750D01*
X177131651Y-78840038D01*
X177179070Y-78769070D01*
X177250038Y-78721651D01*
X177333750Y-78705000D01*
X177846250Y-78705000D01*
X177929962Y-78721651D01*
G37*
G36*
X169699962Y-104191651D02*
G01*
X169770930Y-104239070D01*
X169818349Y-104310038D01*
X169835000Y-104393750D01*
X169835000Y-104831250D01*
X169818349Y-104914962D01*
X169770930Y-104985930D01*
X169699962Y-105033349D01*
X169616250Y-105050000D01*
X169103750Y-105050000D01*
X169020038Y-105033349D01*
X168949070Y-104985930D01*
X168901651Y-104914962D01*
X168885000Y-104831250D01*
X168885000Y-104393750D01*
X168901651Y-104310038D01*
X168949070Y-104239070D01*
X169020038Y-104191651D01*
X169103750Y-104175000D01*
X169616250Y-104175000D01*
X169699962Y-104191651D01*
G37*
G36*
X169699962Y-105766651D02*
G01*
X169770930Y-105814070D01*
X169818349Y-105885038D01*
X169835000Y-105968750D01*
X169835000Y-106406250D01*
X169818349Y-106489962D01*
X169770930Y-106560930D01*
X169699962Y-106608349D01*
X169616250Y-106625000D01*
X169103750Y-106625000D01*
X169020038Y-106608349D01*
X168949070Y-106560930D01*
X168901651Y-106489962D01*
X168885000Y-106406250D01*
X168885000Y-105968750D01*
X168901651Y-105885038D01*
X168949070Y-105814070D01*
X169020038Y-105766651D01*
X169103750Y-105750000D01*
X169616250Y-105750000D01*
X169699962Y-105766651D01*
G37*
G36*
X171437462Y-96701651D02*
G01*
X171508430Y-96749070D01*
X171555849Y-96820038D01*
X171572500Y-96903750D01*
X171572500Y-97416250D01*
X171555849Y-97499962D01*
X171508430Y-97570930D01*
X171437462Y-97618349D01*
X171353750Y-97635000D01*
X170916250Y-97635000D01*
X170832538Y-97618349D01*
X170761570Y-97570930D01*
X170714151Y-97499962D01*
X170697500Y-97416250D01*
X170697500Y-96903750D01*
X170714151Y-96820038D01*
X170761570Y-96749070D01*
X170832538Y-96701651D01*
X170916250Y-96685000D01*
X171353750Y-96685000D01*
X171437462Y-96701651D01*
G37*
G36*
X169862462Y-96701651D02*
G01*
X169933430Y-96749070D01*
X169980849Y-96820038D01*
X169997500Y-96903750D01*
X169997500Y-97416250D01*
X169980849Y-97499962D01*
X169933430Y-97570930D01*
X169862462Y-97618349D01*
X169778750Y-97635000D01*
X169341250Y-97635000D01*
X169257538Y-97618349D01*
X169186570Y-97570930D01*
X169139151Y-97499962D01*
X169122500Y-97416250D01*
X169122500Y-96903750D01*
X169139151Y-96820038D01*
X169186570Y-96749070D01*
X169257538Y-96701651D01*
X169341250Y-96685000D01*
X169778750Y-96685000D01*
X169862462Y-96701651D01*
G37*
G36*
X189980671Y-83004030D02*
G01*
X190061777Y-83058223D01*
X190115970Y-83139329D01*
X190135000Y-83235000D01*
X190135000Y-83985000D01*
X190115970Y-84080671D01*
X190061777Y-84161777D01*
X189980671Y-84215970D01*
X189885000Y-84235000D01*
X188635000Y-84235000D01*
X188539329Y-84215970D01*
X188458223Y-84161777D01*
X188404030Y-84080671D01*
X188385000Y-83985000D01*
X188385000Y-83235000D01*
X188404030Y-83139329D01*
X188458223Y-83058223D01*
X188539329Y-83004030D01*
X188635000Y-82985000D01*
X189885000Y-82985000D01*
X189980671Y-83004030D01*
G37*
G36*
X189980671Y-80204030D02*
G01*
X190061777Y-80258223D01*
X190115970Y-80339329D01*
X190135000Y-80435000D01*
X190135000Y-81185000D01*
X190115970Y-81280671D01*
X190061777Y-81361777D01*
X189980671Y-81415970D01*
X189885000Y-81435000D01*
X188635000Y-81435000D01*
X188539329Y-81415970D01*
X188458223Y-81361777D01*
X188404030Y-81280671D01*
X188385000Y-81185000D01*
X188385000Y-80435000D01*
X188404030Y-80339329D01*
X188458223Y-80258223D01*
X188539329Y-80204030D01*
X188635000Y-80185000D01*
X189885000Y-80185000D01*
X189980671Y-80204030D01*
G37*
G36*
X173077462Y-107051651D02*
G01*
X173148430Y-107099070D01*
X173195849Y-107170038D01*
X173212500Y-107253750D01*
X173212500Y-107766250D01*
X173195849Y-107849962D01*
X173148430Y-107920930D01*
X173077462Y-107968349D01*
X172993750Y-107985000D01*
X172556250Y-107985000D01*
X172472538Y-107968349D01*
X172401570Y-107920930D01*
X172354151Y-107849962D01*
X172337500Y-107766250D01*
X172337500Y-107253750D01*
X172354151Y-107170038D01*
X172401570Y-107099070D01*
X172472538Y-107051651D01*
X172556250Y-107035000D01*
X172993750Y-107035000D01*
X173077462Y-107051651D01*
G37*
G36*
X174652462Y-107051651D02*
G01*
X174723430Y-107099070D01*
X174770849Y-107170038D01*
X174787500Y-107253750D01*
X174787500Y-107766250D01*
X174770849Y-107849962D01*
X174723430Y-107920930D01*
X174652462Y-107968349D01*
X174568750Y-107985000D01*
X174131250Y-107985000D01*
X174047538Y-107968349D01*
X173976570Y-107920930D01*
X173929151Y-107849962D01*
X173912500Y-107766250D01*
X173912500Y-107253750D01*
X173929151Y-107170038D01*
X173976570Y-107099070D01*
X174047538Y-107051651D01*
X174131250Y-107035000D01*
X174568750Y-107035000D01*
X174652462Y-107051651D01*
G37*
G36*
X192220671Y-83004030D02*
G01*
X192301777Y-83058223D01*
X192355970Y-83139329D01*
X192375000Y-83235000D01*
X192375000Y-83985000D01*
X192355970Y-84080671D01*
X192301777Y-84161777D01*
X192220671Y-84215970D01*
X192125000Y-84235000D01*
X190875000Y-84235000D01*
X190779329Y-84215970D01*
X190698223Y-84161777D01*
X190644030Y-84080671D01*
X190625000Y-83985000D01*
X190625000Y-83235000D01*
X190644030Y-83139329D01*
X190698223Y-83058223D01*
X190779329Y-83004030D01*
X190875000Y-82985000D01*
X192125000Y-82985000D01*
X192220671Y-83004030D01*
G37*
G36*
X192220671Y-80204030D02*
G01*
X192301777Y-80258223D01*
X192355970Y-80339329D01*
X192375000Y-80435000D01*
X192375000Y-81185000D01*
X192355970Y-81280671D01*
X192301777Y-81361777D01*
X192220671Y-81415970D01*
X192125000Y-81435000D01*
X190875000Y-81435000D01*
X190779329Y-81415970D01*
X190698223Y-81361777D01*
X190644030Y-81280671D01*
X190625000Y-81185000D01*
X190625000Y-80435000D01*
X190644030Y-80339329D01*
X190698223Y-80258223D01*
X190779329Y-80204030D01*
X190875000Y-80185000D01*
X192125000Y-80185000D01*
X192220671Y-80204030D01*
G37*
G36*
X173294962Y-101851651D02*
G01*
X173365930Y-101899070D01*
X173413349Y-101970038D01*
X173430000Y-102053750D01*
X173430000Y-102566250D01*
X173413349Y-102649962D01*
X173365930Y-102720930D01*
X173294962Y-102768349D01*
X173211250Y-102785000D01*
X172773750Y-102785000D01*
X172690038Y-102768349D01*
X172619070Y-102720930D01*
X172571651Y-102649962D01*
X172555000Y-102566250D01*
X172555000Y-102053750D01*
X172571651Y-101970038D01*
X172619070Y-101899070D01*
X172690038Y-101851651D01*
X172773750Y-101835000D01*
X173211250Y-101835000D01*
X173294962Y-101851651D01*
G37*
G36*
X174869962Y-101851651D02*
G01*
X174940930Y-101899070D01*
X174988349Y-101970038D01*
X175005000Y-102053750D01*
X175005000Y-102566250D01*
X174988349Y-102649962D01*
X174940930Y-102720930D01*
X174869962Y-102768349D01*
X174786250Y-102785000D01*
X174348750Y-102785000D01*
X174265038Y-102768349D01*
X174194070Y-102720930D01*
X174146651Y-102649962D01*
X174130000Y-102566250D01*
X174130000Y-102053750D01*
X174146651Y-101970038D01*
X174194070Y-101899070D01*
X174265038Y-101851651D01*
X174348750Y-101835000D01*
X174786250Y-101835000D01*
X174869962Y-101851651D01*
G37*
G36*
X189889962Y-76961651D02*
G01*
X189960930Y-77009070D01*
X190008349Y-77080038D01*
X190025000Y-77163750D01*
X190025000Y-77601250D01*
X190008349Y-77684962D01*
X189960930Y-77755930D01*
X189889962Y-77803349D01*
X189806250Y-77820000D01*
X189293750Y-77820000D01*
X189210038Y-77803349D01*
X189139070Y-77755930D01*
X189091651Y-77684962D01*
X189075000Y-77601250D01*
X189075000Y-77163750D01*
X189091651Y-77080038D01*
X189139070Y-77009070D01*
X189210038Y-76961651D01*
X189293750Y-76945000D01*
X189806250Y-76945000D01*
X189889962Y-76961651D01*
G37*
G36*
X189889962Y-78536651D02*
G01*
X189960930Y-78584070D01*
X190008349Y-78655038D01*
X190025000Y-78738750D01*
X190025000Y-79176250D01*
X190008349Y-79259962D01*
X189960930Y-79330930D01*
X189889962Y-79378349D01*
X189806250Y-79395000D01*
X189293750Y-79395000D01*
X189210038Y-79378349D01*
X189139070Y-79330930D01*
X189091651Y-79259962D01*
X189075000Y-79176250D01*
X189075000Y-78738750D01*
X189091651Y-78655038D01*
X189139070Y-78584070D01*
X189210038Y-78536651D01*
X189293750Y-78520000D01*
X189806250Y-78520000D01*
X189889962Y-78536651D01*
G37*
M02*
