G04 #@! TF.GenerationSoftware,KiCad,Pcbnew,5.99.0-unknown-a5c7d45~86~ubuntu18.04.1*
G04 #@! TF.CreationDate,2020-01-09T21:59:45+01:00*
G04 #@! TF.ProjectId,v1,76312e6b-6963-4616-945f-706362585858,rev?*
G04 #@! TF.SameCoordinates,Original*
G04 #@! TF.FileFunction,Copper,L2,Inr*
G04 #@! TF.FilePolarity,Positive*
%FSLAX46Y46*%
G04 Gerber Fmt 4.6, Leading zero omitted, Abs format (unit mm)*
G04 Created by KiCad (PCBNEW 5.99.0-unknown-a5c7d45~86~ubuntu18.04.1) date 2020-01-09 21:59:45*
%MOMM*%
%LPD*%
G04 APERTURE LIST*
%ADD10O,1.200000X1.750000*%
%ADD11O,1.700000X1.700000*%
%ADD12R,1.700000X1.700000*%
%ADD13C,1.600000*%
%ADD14R,1.600000X1.600000*%
%ADD15C,3.000000*%
%ADD16C,2.600000*%
%ADD17R,2.600000X2.600000*%
%ADD18C,2.000000*%
%ADD19R,2.000000X2.000000*%
%ADD20C,0.600000*%
%ADD21C,0.300000*%
%ADD22C,0.200000*%
%ADD23C,0.400000*%
%ADD24C,0.254000*%
G04 APERTURE END LIST*
D10*
X147530000Y-114330000D03*
X149530000Y-114330000D03*
X151530000Y-114330000D03*
X153530000Y-114330000D03*
X155530000Y-114330000D03*
G04 #@! TA.AperFunction,ViaPad*
G36*
X157975671Y-113474030D02*
G01*
X158056777Y-113528223D01*
X158110970Y-113609329D01*
X158130000Y-113704999D01*
X158130000Y-114955001D01*
X158110970Y-115050671D01*
X158056777Y-115131777D01*
X157975671Y-115185970D01*
X157880001Y-115205000D01*
X157179999Y-115205000D01*
X157084329Y-115185970D01*
X157003223Y-115131777D01*
X156949030Y-115050671D01*
X156930000Y-114955001D01*
X156930000Y-113704999D01*
X156949030Y-113609329D01*
X157003223Y-113528223D01*
X157084329Y-113474030D01*
X157179999Y-113455000D01*
X157880001Y-113455000D01*
X157975671Y-113474030D01*
G37*
G04 #@! TD.AperFunction*
X137150000Y-87300000D03*
X139150000Y-87300000D03*
X141150000Y-87300000D03*
G04 #@! TA.AperFunction,ViaPad*
G36*
X143595671Y-86444030D02*
G01*
X143676777Y-86498223D01*
X143730970Y-86579329D01*
X143750000Y-86674999D01*
X143750000Y-87925001D01*
X143730970Y-88020671D01*
X143676777Y-88101777D01*
X143595671Y-88155970D01*
X143500001Y-88175000D01*
X142799999Y-88175000D01*
X142704329Y-88155970D01*
X142623223Y-88101777D01*
X142569030Y-88020671D01*
X142550000Y-87925001D01*
X142550000Y-86674999D01*
X142569030Y-86579329D01*
X142623223Y-86498223D01*
X142704329Y-86444030D01*
X142799999Y-86425000D01*
X143500001Y-86425000D01*
X143595671Y-86444030D01*
G37*
G04 #@! TD.AperFunction*
X137150000Y-92120000D03*
X139150000Y-92120000D03*
X141150000Y-92120000D03*
G04 #@! TA.AperFunction,ViaPad*
G36*
X143595671Y-91264030D02*
G01*
X143676777Y-91318223D01*
X143730970Y-91399329D01*
X143750000Y-91494999D01*
X143750000Y-92745001D01*
X143730970Y-92840671D01*
X143676777Y-92921777D01*
X143595671Y-92975970D01*
X143500001Y-92995000D01*
X142799999Y-92995000D01*
X142704329Y-92975970D01*
X142623223Y-92921777D01*
X142569030Y-92840671D01*
X142550000Y-92745001D01*
X142550000Y-91494999D01*
X142569030Y-91399329D01*
X142623223Y-91318223D01*
X142704329Y-91264030D01*
X142799999Y-91245000D01*
X143500001Y-91245000D01*
X143595671Y-91264030D01*
G37*
G04 #@! TD.AperFunction*
X137150000Y-96950000D03*
X139150000Y-96950000D03*
X141150000Y-96950000D03*
G04 #@! TA.AperFunction,ViaPad*
G36*
X143595671Y-96094030D02*
G01*
X143676777Y-96148223D01*
X143730970Y-96229329D01*
X143750000Y-96324999D01*
X143750000Y-97575001D01*
X143730970Y-97670671D01*
X143676777Y-97751777D01*
X143595671Y-97805970D01*
X143500001Y-97825000D01*
X142799999Y-97825000D01*
X142704329Y-97805970D01*
X142623223Y-97751777D01*
X142569030Y-97670671D01*
X142550000Y-97575001D01*
X142550000Y-96324999D01*
X142569030Y-96229329D01*
X142623223Y-96148223D01*
X142704329Y-96094030D01*
X142799999Y-96075000D01*
X143500001Y-96075000D01*
X143595671Y-96094030D01*
G37*
G04 #@! TD.AperFunction*
X162930000Y-71960000D03*
X164930000Y-71960000D03*
X166930000Y-71960000D03*
G04 #@! TA.AperFunction,ViaPad*
G36*
X169375671Y-71104030D02*
G01*
X169456777Y-71158223D01*
X169510970Y-71239329D01*
X169530000Y-71334999D01*
X169530000Y-72585001D01*
X169510970Y-72680671D01*
X169456777Y-72761777D01*
X169375671Y-72815970D01*
X169280001Y-72835000D01*
X168579999Y-72835000D01*
X168484329Y-72815970D01*
X168403223Y-72761777D01*
X168349030Y-72680671D01*
X168330000Y-72585001D01*
X168330000Y-71334999D01*
X168349030Y-71239329D01*
X168403223Y-71158223D01*
X168484329Y-71104030D01*
X168579999Y-71085000D01*
X169280001Y-71085000D01*
X169375671Y-71104030D01*
G37*
G04 #@! TD.AperFunction*
D11*
X204000000Y-117130000D03*
X204000000Y-114590000D03*
D12*
X204000000Y-112050000D03*
D11*
X200500000Y-117130000D03*
X200500000Y-114590000D03*
D12*
X200500000Y-112050000D03*
D11*
X197000000Y-117130000D03*
X197000000Y-114590000D03*
D12*
X197000000Y-112050000D03*
D11*
X193500000Y-117130000D03*
X193500000Y-114590000D03*
D12*
X193500000Y-112050000D03*
D11*
X175970000Y-117120000D03*
X175970000Y-114580000D03*
D12*
X175970000Y-112040000D03*
D11*
X172470000Y-117120000D03*
X172470000Y-114580000D03*
D12*
X172470000Y-112040000D03*
D11*
X168970000Y-117120000D03*
X168970000Y-114580000D03*
D12*
X168970000Y-112040000D03*
D11*
X165470000Y-117120000D03*
X165470000Y-114580000D03*
D12*
X165470000Y-112040000D03*
D10*
X137150000Y-82440000D03*
G04 #@! TA.AperFunction,ViaPad*
G36*
X139595671Y-81584030D02*
G01*
X139676777Y-81638223D01*
X139730970Y-81719329D01*
X139750000Y-81814999D01*
X139750000Y-83065001D01*
X139730970Y-83160671D01*
X139676777Y-83241777D01*
X139595671Y-83295970D01*
X139500001Y-83315000D01*
X138799999Y-83315000D01*
X138704329Y-83295970D01*
X138623223Y-83241777D01*
X138569030Y-83160671D01*
X138550000Y-83065001D01*
X138550000Y-81814999D01*
X138569030Y-81719329D01*
X138623223Y-81638223D01*
X138704329Y-81584030D01*
X138799999Y-81565000D01*
X139500001Y-81565000D01*
X139595671Y-81584030D01*
G37*
G04 #@! TD.AperFunction*
D13*
X202360000Y-95760000D03*
X202360000Y-98260000D03*
X202360000Y-100260000D03*
D14*
X202360000Y-102760000D03*
D15*
X205070000Y-105830000D03*
X205070000Y-92690000D03*
D10*
X199380000Y-71000000D03*
G04 #@! TA.AperFunction,ViaPad*
G36*
X197825671Y-70144030D02*
G01*
X197906777Y-70198223D01*
X197960970Y-70279329D01*
X197980000Y-70374999D01*
X197980000Y-71625001D01*
X197960970Y-71720671D01*
X197906777Y-71801777D01*
X197825671Y-71855970D01*
X197730001Y-71875000D01*
X197029999Y-71875000D01*
X196934329Y-71855970D01*
X196853223Y-71801777D01*
X196799030Y-71720671D01*
X196780000Y-71625001D01*
X196780000Y-70374999D01*
X196799030Y-70279329D01*
X196853223Y-70198223D01*
X196934329Y-70144030D01*
X197029999Y-70125000D01*
X197730001Y-70125000D01*
X197825671Y-70144030D01*
G37*
G04 #@! TD.AperFunction*
D16*
X209000000Y-81000000D03*
D17*
X209000000Y-86000000D03*
D18*
X192630000Y-91760000D03*
D19*
X192630000Y-96760000D03*
D18*
X198170000Y-84610000D03*
D19*
X198170000Y-79610000D03*
D20*
X170400000Y-75100000D03*
X167470000Y-90720000D03*
X166000000Y-85940000D03*
X157790000Y-78970000D03*
X170570000Y-80910000D03*
X156170000Y-79910000D03*
X156140000Y-80740000D03*
X162720000Y-102210000D03*
X178500000Y-93000000D03*
X180000000Y-93000000D03*
X181500000Y-93000001D03*
X148920000Y-98840000D03*
X153060000Y-98730000D03*
X151970000Y-97640000D03*
X150850000Y-78990000D03*
X188330734Y-79714868D03*
X163670000Y-86980000D03*
X166390000Y-89060000D03*
X159690000Y-106140000D03*
X208700000Y-89250000D03*
X211750000Y-91700000D03*
X206900000Y-96200000D03*
X211150000Y-97550000D03*
X207700000Y-101200000D03*
X211900000Y-106300000D03*
X212850000Y-110000000D03*
X210300000Y-111250000D03*
X207050000Y-114900000D03*
X172300000Y-73200000D03*
X177950000Y-75350000D03*
X181300000Y-74950000D03*
X139850000Y-76300000D03*
X142200000Y-76800000D03*
X139550000Y-78350000D03*
X173100000Y-104150000D03*
X167993750Y-97353750D03*
X185000000Y-97000000D03*
X185000000Y-98000000D03*
X185000000Y-99000000D03*
X187000000Y-97000000D03*
X187000000Y-99000000D03*
X189000000Y-97000000D03*
X189000000Y-99000000D03*
X191000000Y-97000000D03*
X191000000Y-99000000D03*
X195000000Y-97000000D03*
X195000000Y-99000000D03*
X197000000Y-97000000D03*
X197000000Y-99000000D03*
X199000000Y-97000000D03*
X199000000Y-98000000D03*
X199000000Y-99000000D03*
X178000000Y-104000000D03*
X178000000Y-103000000D03*
X178000000Y-102000000D03*
X179000000Y-102000000D03*
X180000000Y-102000000D03*
X181000000Y-102000000D03*
X182000000Y-102000000D03*
X179000000Y-103000000D03*
X180000000Y-103000000D03*
X181000000Y-103000000D03*
X182000000Y-103000000D03*
X179000000Y-104000000D03*
X180000000Y-104000000D03*
X181000000Y-104000000D03*
X182000000Y-104000000D03*
X199000000Y-104000000D03*
X197000000Y-104000000D03*
X195000000Y-104000000D03*
X193000000Y-104000000D03*
X191000000Y-104000000D03*
X189000000Y-104000000D03*
X187000000Y-104000000D03*
X185000000Y-104000000D03*
X185000000Y-102000000D03*
X187000000Y-102000000D03*
X189000000Y-102000000D03*
X191000000Y-102000000D03*
X193000000Y-102000000D03*
X195000000Y-102000000D03*
X197000000Y-102000000D03*
X199000000Y-102000000D03*
X186000000Y-83000000D03*
X187000000Y-83000000D03*
X186000000Y-84000000D03*
X187000000Y-84000000D03*
X186000000Y-85000000D03*
X187000000Y-85000000D03*
X188000000Y-85000000D03*
X189000000Y-85000000D03*
X190000000Y-85000000D03*
X191000000Y-85000000D03*
X192000000Y-85000000D03*
X193000000Y-85000000D03*
X186000000Y-86000000D03*
X187000000Y-86000000D03*
X188000000Y-86000000D03*
X189000000Y-86000000D03*
X190000000Y-86000000D03*
X191000000Y-86000000D03*
X192000000Y-86000000D03*
X193000000Y-86000000D03*
X194000000Y-85000000D03*
X195000000Y-85000000D03*
X196000000Y-85000000D03*
X194000000Y-86000000D03*
X195000000Y-86000000D03*
X196000000Y-86000000D03*
X206000000Y-84000000D03*
X205000000Y-84000000D03*
X206000000Y-85000000D03*
X205000000Y-85000000D03*
X206000000Y-86000000D03*
X205000000Y-86000000D03*
X204000000Y-86000000D03*
X204000000Y-87000000D03*
X205000000Y-87000000D03*
X206000000Y-88000000D03*
X205000000Y-88000000D03*
X203000000Y-88000000D03*
X206000000Y-87000000D03*
X204000000Y-88000000D03*
X206000000Y-89000000D03*
X204000000Y-89000000D03*
X205000000Y-89000000D03*
X203000000Y-89000000D03*
X200000000Y-92000000D03*
X200000000Y-91000000D03*
X200000000Y-90000000D03*
X199000000Y-89000000D03*
X200000000Y-89000000D03*
X200000000Y-88000000D03*
X199000000Y-88000000D03*
X201000000Y-88000000D03*
X202000000Y-88000000D03*
X202000000Y-89000000D03*
X201000000Y-89000000D03*
X189000000Y-88000000D03*
X191000000Y-88000000D03*
X193000000Y-88000000D03*
X195000000Y-88000000D03*
X197000000Y-88000000D03*
X186000000Y-74000000D03*
X184000000Y-74000000D03*
X184000000Y-75000000D03*
X184000000Y-76000000D03*
X184000000Y-77000000D03*
X185000000Y-74000000D03*
X185000000Y-75000000D03*
X186000000Y-75000000D03*
X172000000Y-92000000D03*
X171000000Y-101000000D03*
X172000000Y-101000000D03*
X173000000Y-101000000D03*
X180320000Y-81950000D03*
X204500000Y-75000000D03*
X181870000Y-70610000D03*
X168870000Y-88840000D03*
X172700000Y-89330000D03*
X167310000Y-86370000D03*
X173185000Y-89815000D03*
X167940000Y-86370000D03*
X168560000Y-86370000D03*
X165590000Y-78850000D03*
X166500000Y-78840000D03*
X171000000Y-102000000D03*
X146890000Y-91060000D03*
X146880000Y-86940000D03*
X151410000Y-84040000D03*
X155560000Y-84460000D03*
X151450000Y-86410000D03*
X152470000Y-70730000D03*
X145560000Y-69910000D03*
X167260000Y-83590000D03*
X185320000Y-82340000D03*
X191070000Y-79120000D03*
X192190000Y-79120000D03*
X193270000Y-79120000D03*
X187990000Y-82130000D03*
X151190000Y-72520000D03*
X165330000Y-75290000D03*
X166890000Y-75250000D03*
X182160000Y-80690000D03*
X176350000Y-75450000D03*
X170670000Y-76350000D03*
X169740000Y-78570000D03*
X171460000Y-78560000D03*
X169740000Y-82960000D03*
X169720000Y-84730000D03*
X163350000Y-90710000D03*
X164470000Y-82890000D03*
X206690000Y-117300000D03*
X160087935Y-84186478D03*
X158410728Y-82509272D03*
X159236650Y-83335193D03*
X155061930Y-90619990D03*
X157485020Y-90680608D03*
X155950000Y-95600000D03*
X162533298Y-90589300D03*
X151600000Y-87740000D03*
X152079813Y-88588356D03*
X151790000Y-91900000D03*
X151911647Y-91109291D03*
X156372645Y-92842980D03*
X151530000Y-96245000D03*
X163290000Y-91720000D03*
X155360000Y-92540000D03*
X151672878Y-100287122D03*
X160430000Y-110290000D03*
X159690000Y-107580000D03*
X157090000Y-111810000D03*
X146930000Y-104650000D03*
X147040000Y-105840000D03*
X155990000Y-94460000D03*
X157110000Y-94490000D03*
X143960000Y-110330000D03*
X144440000Y-107980000D03*
X144490000Y-102820000D03*
X139560000Y-103510000D03*
X167040000Y-93800000D03*
X166890000Y-96070000D03*
X161480000Y-117160000D03*
X206690000Y-117300000D03*
X153070000Y-97100000D03*
X153610000Y-97870000D03*
X152890000Y-96320000D03*
X157910000Y-94160010D03*
X162500000Y-92470000D03*
X158270000Y-95650000D03*
X159110000Y-94830000D03*
X159810000Y-94240000D03*
X160750000Y-94380000D03*
X161140000Y-95350000D03*
X158400000Y-88090000D03*
X166060000Y-105370000D03*
X162720000Y-100790000D03*
X163220000Y-94680000D03*
X159150000Y-91970000D03*
X160490000Y-87840000D03*
X160710000Y-89070000D03*
X154940000Y-88990000D03*
X141080000Y-107270000D03*
X144390000Y-104490000D03*
X149140000Y-104080000D03*
X161160000Y-87210000D03*
X157880000Y-89100000D03*
X157170000Y-87330000D03*
X173050000Y-87220000D03*
X173050000Y-85030000D03*
X172090000Y-82230000D03*
X175370000Y-82230000D03*
X159210000Y-72570000D03*
D21*
X165630000Y-93510000D02*
X165630000Y-88940000D01*
X165630000Y-88940000D02*
X163969999Y-87279999D01*
X163969999Y-87279999D02*
X163670000Y-86980000D01*
X165630000Y-93510000D02*
X167993750Y-95873750D01*
X167993750Y-95873750D02*
X167993750Y-97353750D01*
D22*
X164470000Y-82890000D02*
X164089272Y-82509272D01*
X167260000Y-83590000D02*
X160946545Y-83590000D01*
X159660914Y-83335193D02*
X159236650Y-83335193D01*
X160946545Y-83590000D02*
X160691738Y-83335193D01*
X160691738Y-83335193D02*
X159660914Y-83335193D01*
X164089272Y-82509272D02*
X158834992Y-82509272D01*
X158834992Y-82509272D02*
X158410728Y-82509272D01*
X155530000Y-113255000D02*
X155290000Y-113015000D01*
X155530000Y-114330000D02*
X155530000Y-113255000D01*
X155290000Y-113015000D02*
X155290000Y-96070000D01*
X155290000Y-96070000D02*
X154310000Y-95090000D01*
X154310000Y-91371920D02*
X155061930Y-90619990D01*
X154310000Y-95090000D02*
X154310000Y-91371920D01*
D23*
X143150000Y-92120000D02*
X143150000Y-87300000D01*
D21*
X156940000Y-93510000D02*
X155990000Y-94460000D01*
X157280000Y-93510000D02*
X156940000Y-93510000D01*
X157280000Y-93510000D02*
X165630000Y-93510000D01*
D23*
X151530000Y-114330000D02*
X151530000Y-105330000D01*
X151530000Y-105330000D02*
X143150000Y-96950000D01*
D22*
X161160000Y-87210000D02*
X160230000Y-86280000D01*
X160230000Y-86280000D02*
X154070000Y-86280000D01*
X154070000Y-86280000D02*
X153270000Y-87080000D01*
X153270000Y-87080000D02*
X149090000Y-87080000D01*
X149090000Y-87080000D02*
X145160000Y-91010000D01*
X145160000Y-91010000D02*
X145160000Y-93430000D01*
X145160000Y-93430000D02*
X144840000Y-93750000D01*
X141150000Y-92395000D02*
X141150000Y-92120000D01*
X142505000Y-93750000D02*
X141150000Y-92395000D01*
X144840000Y-93750000D02*
X142505000Y-93750000D01*
D21*
X156289999Y-94160001D02*
X156289999Y-94150001D01*
X155990000Y-94460000D02*
X156289999Y-94160001D01*
X156289999Y-94150001D02*
X158490000Y-91950000D01*
X158490000Y-91950000D02*
X158490000Y-89710000D01*
X158490000Y-89710000D02*
X157880000Y-89100000D01*
G36*
X175473768Y-69647429D02*
G01*
X175275835Y-69743966D01*
X175101357Y-69878333D01*
X174957462Y-70045037D01*
X174850025Y-70237272D01*
X174783437Y-70447184D01*
X174760418Y-70666197D01*
X174781908Y-70885365D01*
X174847029Y-71095736D01*
X174953120Y-71288716D01*
X175095849Y-71456422D01*
X175269384Y-71592002D01*
X175466638Y-71689919D01*
X175679551Y-71746174D01*
X175899427Y-71758467D01*
X176117284Y-71726297D01*
X176324222Y-71650977D01*
X176511789Y-71535585D01*
X176672323Y-71384834D01*
X176799265Y-71204883D01*
X176887429Y-71003082D01*
X176933262Y-70787458D01*
X176934055Y-70560108D01*
X176889729Y-70344169D01*
X176802975Y-70141757D01*
X176677294Y-69960924D01*
X176517817Y-69809056D01*
X176331060Y-69692358D01*
X176174141Y-69634000D01*
X178526070Y-69634000D01*
X178473768Y-69647429D01*
X178275835Y-69743966D01*
X178101357Y-69878333D01*
X177957462Y-70045037D01*
X177850025Y-70237272D01*
X177783437Y-70447184D01*
X177760418Y-70666197D01*
X177781908Y-70885365D01*
X177847029Y-71095736D01*
X177953120Y-71288716D01*
X178095849Y-71456422D01*
X178269384Y-71592002D01*
X178466638Y-71689919D01*
X178679551Y-71746174D01*
X178899427Y-71758467D01*
X179117284Y-71726297D01*
X179324222Y-71650977D01*
X179511789Y-71535585D01*
X179672323Y-71384834D01*
X179799265Y-71204883D01*
X179832854Y-71128000D01*
X196140776Y-71128000D01*
X196140776Y-71635976D01*
X196217691Y-71989549D01*
X196357618Y-72207279D01*
X196549730Y-72373745D01*
X196780958Y-72479343D01*
X197023558Y-72514224D01*
X197252000Y-72514224D01*
X197252000Y-71128000D01*
X196140776Y-71128000D01*
X179832854Y-71128000D01*
X179887429Y-71003082D01*
X179933262Y-70787458D01*
X179934055Y-70560108D01*
X179889729Y-70344169D01*
X179802975Y-70141757D01*
X179677294Y-69960924D01*
X179517817Y-69809056D01*
X179331060Y-69692358D01*
X179174141Y-69634000D01*
X196554492Y-69634000D01*
X196447721Y-69702618D01*
X196281255Y-69894730D01*
X196175657Y-70125958D01*
X196140776Y-70368558D01*
X196140776Y-70872000D01*
X197508000Y-70872000D01*
X197508000Y-72514224D01*
X197740976Y-72514224D01*
X198094549Y-72437309D01*
X198312279Y-72297382D01*
X198470483Y-72114805D01*
X198482309Y-72129860D01*
X198660155Y-72284186D01*
X198863974Y-72402099D01*
X199086414Y-72479343D01*
X199319446Y-72513131D01*
X199554663Y-72502244D01*
X199783578Y-72447075D01*
X199997931Y-72349615D01*
X200189988Y-72213380D01*
X200352818Y-72043285D01*
X200480546Y-71845468D01*
X200569728Y-71624179D01*
X200614000Y-71318840D01*
X200614000Y-70666189D01*
X200597247Y-70490595D01*
X200530961Y-70264648D01*
X200423146Y-70055312D01*
X200277692Y-69870140D01*
X200099846Y-69715814D01*
X199958425Y-69634000D01*
X210934842Y-69634000D01*
X210951839Y-69637520D01*
X210967832Y-69638414D01*
X211333711Y-69656629D01*
X211664129Y-69706304D01*
X211987962Y-69788547D01*
X212302050Y-69902555D01*
X212603241Y-70047186D01*
X212888592Y-70221022D01*
X213155270Y-70422344D01*
X213400615Y-70649139D01*
X213622230Y-70899190D01*
X213817918Y-71170021D01*
X213985740Y-71458946D01*
X214124040Y-71763120D01*
X214231435Y-72079498D01*
X214306880Y-72404993D01*
X214350055Y-72739711D01*
X214361622Y-73034065D01*
X214366000Y-73057921D01*
X214366001Y-114934837D01*
X214362480Y-114951838D01*
X214361586Y-114967832D01*
X214343371Y-115333709D01*
X214293695Y-115664132D01*
X214211453Y-115987962D01*
X214097445Y-116302049D01*
X213952814Y-116603242D01*
X213778974Y-116888597D01*
X213577666Y-117155258D01*
X213350854Y-117400621D01*
X213100816Y-117622225D01*
X212829968Y-117817926D01*
X212541058Y-117985738D01*
X212236880Y-118124040D01*
X211920505Y-118231434D01*
X211595007Y-118306880D01*
X211260287Y-118350056D01*
X210965934Y-118361622D01*
X210942078Y-118366000D01*
X204825240Y-118366000D01*
X204864877Y-118342512D01*
X205056807Y-118179455D01*
X205218521Y-117986391D01*
X205345393Y-117768840D01*
X205433796Y-117533022D01*
X205486508Y-117258000D01*
X202502668Y-117258000D01*
X202590096Y-117609970D01*
X202691123Y-117840662D01*
X202829575Y-118051033D01*
X203001493Y-118235071D01*
X203173673Y-118366000D01*
X201325240Y-118366000D01*
X201364877Y-118342512D01*
X201556807Y-118179455D01*
X201718521Y-117986391D01*
X201845393Y-117768840D01*
X201933796Y-117533022D01*
X201986508Y-117258000D01*
X199002668Y-117258000D01*
X199090096Y-117609970D01*
X199191123Y-117840662D01*
X199329575Y-118051033D01*
X199501493Y-118235071D01*
X199673673Y-118366000D01*
X197825240Y-118366000D01*
X197864877Y-118342512D01*
X198056807Y-118179455D01*
X198218521Y-117986391D01*
X198345393Y-117768840D01*
X198433796Y-117533022D01*
X198486508Y-117258000D01*
X195502668Y-117258000D01*
X195590096Y-117609970D01*
X195691123Y-117840662D01*
X195829575Y-118051033D01*
X196001493Y-118235071D01*
X196173673Y-118366000D01*
X194325240Y-118366000D01*
X194364877Y-118342512D01*
X194556807Y-118179455D01*
X194718521Y-117986391D01*
X194845393Y-117768840D01*
X194933796Y-117533022D01*
X194986508Y-117258000D01*
X192002668Y-117258000D01*
X192090096Y-117609970D01*
X192191123Y-117840662D01*
X192329575Y-118051033D01*
X192501493Y-118235071D01*
X192673673Y-118366000D01*
X176778365Y-118366000D01*
X176834877Y-118332512D01*
X177026807Y-118169455D01*
X177188521Y-117976391D01*
X177315393Y-117758840D01*
X177403796Y-117523022D01*
X177456508Y-117248000D01*
X174472668Y-117248000D01*
X174560096Y-117599970D01*
X174661123Y-117830662D01*
X174799575Y-118041033D01*
X174971493Y-118225071D01*
X175156824Y-118366000D01*
X173278365Y-118366000D01*
X173334877Y-118332512D01*
X173526807Y-118169455D01*
X173688521Y-117976391D01*
X173815393Y-117758840D01*
X173903796Y-117523022D01*
X173956508Y-117248000D01*
X170972668Y-117248000D01*
X171060096Y-117599970D01*
X171161123Y-117830662D01*
X171299575Y-118041033D01*
X171471493Y-118225071D01*
X171656824Y-118366000D01*
X169778365Y-118366000D01*
X169834877Y-118332512D01*
X170026807Y-118169455D01*
X170188521Y-117976391D01*
X170315393Y-117758840D01*
X170403796Y-117523022D01*
X170456508Y-117248000D01*
X167472668Y-117248000D01*
X167560096Y-117599970D01*
X167661123Y-117830662D01*
X167799575Y-118041033D01*
X167971493Y-118225071D01*
X168156824Y-118366000D01*
X166278365Y-118366000D01*
X166334877Y-118332512D01*
X166526807Y-118169455D01*
X166688521Y-117976391D01*
X166815393Y-117758840D01*
X166903796Y-117523022D01*
X166956508Y-117248000D01*
X163972668Y-117248000D01*
X164060096Y-117599970D01*
X164161123Y-117830662D01*
X164299575Y-118041033D01*
X164471493Y-118225071D01*
X164656824Y-118366000D01*
X138065158Y-118366000D01*
X138048161Y-118362480D01*
X138032168Y-118361586D01*
X137666291Y-118343371D01*
X137335868Y-118293695D01*
X137012038Y-118211453D01*
X136697951Y-118097445D01*
X136396758Y-117952814D01*
X136111403Y-117778974D01*
X135844742Y-117577666D01*
X135599379Y-117350854D01*
X135377775Y-117100816D01*
X135182074Y-116829968D01*
X135014262Y-116541058D01*
X134875960Y-116236880D01*
X134768566Y-115920505D01*
X134693120Y-115595007D01*
X134649944Y-115260287D01*
X134644782Y-115128898D01*
X135764496Y-115128898D01*
X135802672Y-115431098D01*
X135881510Y-115725321D01*
X135999547Y-116006122D01*
X136154602Y-116268307D01*
X136343805Y-116507021D01*
X136563655Y-116717849D01*
X136810083Y-116896890D01*
X137078530Y-117040830D01*
X137364028Y-117147006D01*
X137661294Y-117213452D01*
X137964828Y-117238941D01*
X138269012Y-117223000D01*
X138568220Y-117165923D01*
X138856911Y-117068767D01*
X138991412Y-117002000D01*
X191997193Y-117002000D01*
X194983565Y-117002000D01*
X195497193Y-117002000D01*
X198483565Y-117002000D01*
X198997193Y-117002000D01*
X201983565Y-117002000D01*
X202497193Y-117002000D01*
X205483565Y-117002000D01*
X205441922Y-116757094D01*
X205358477Y-116519476D01*
X205236188Y-116299315D01*
X205078554Y-116102907D01*
X204890080Y-115935866D01*
X204767913Y-115859971D01*
X204864877Y-115802512D01*
X205056807Y-115639455D01*
X205218521Y-115446391D01*
X205345393Y-115228840D01*
X205382859Y-115128898D01*
X208684496Y-115128898D01*
X208722672Y-115431098D01*
X208801510Y-115725321D01*
X208919547Y-116006122D01*
X209074602Y-116268307D01*
X209263805Y-116507021D01*
X209483655Y-116717849D01*
X209730083Y-116896890D01*
X209998530Y-117040830D01*
X210284028Y-117147006D01*
X210581294Y-117213452D01*
X210884828Y-117238941D01*
X211189012Y-117223000D01*
X211488220Y-117165923D01*
X211776911Y-117068767D01*
X212049747Y-116933330D01*
X212301678Y-116762119D01*
X212528041Y-116558300D01*
X212724649Y-116325646D01*
X212887863Y-116068463D01*
X213014663Y-115791507D01*
X213102702Y-115499906D01*
X213150456Y-115198399D01*
X213154122Y-114848356D01*
X213112692Y-114545916D01*
X213030780Y-114252534D01*
X212909808Y-113972984D01*
X212752015Y-113712438D01*
X212560323Y-113475718D01*
X212338277Y-113267204D01*
X212089988Y-113090753D01*
X211820049Y-112949633D01*
X211533454Y-112846452D01*
X211235509Y-112783121D01*
X210931724Y-112760813D01*
X210627723Y-112779939D01*
X210329131Y-112840147D01*
X210041472Y-112940319D01*
X209770070Y-113078606D01*
X209519946Y-113252446D01*
X209295729Y-113458624D01*
X209101568Y-113693324D01*
X208941057Y-113952203D01*
X208817163Y-114230471D01*
X208732183Y-114522979D01*
X208687685Y-114824313D01*
X208684496Y-115128898D01*
X205382859Y-115128898D01*
X205433796Y-114993022D01*
X205481318Y-114745082D01*
X205484240Y-114465974D01*
X205441922Y-114217094D01*
X205358477Y-113979476D01*
X205236188Y-113759315D01*
X205078554Y-113562907D01*
X205011093Y-113503117D01*
X205167512Y-113461205D01*
X205343165Y-113313815D01*
X205454956Y-113120186D01*
X205491837Y-112911024D01*
X205491837Y-111183412D01*
X205411205Y-110882489D01*
X205263815Y-110706835D01*
X205070186Y-110595044D01*
X204861024Y-110558163D01*
X203133412Y-110558163D01*
X202832489Y-110638795D01*
X202656835Y-110786185D01*
X202545044Y-110979814D01*
X202508163Y-111188976D01*
X202508163Y-112916588D01*
X202588795Y-113217512D01*
X202736185Y-113393165D01*
X202929814Y-113504956D01*
X202977090Y-113513292D01*
X202849120Y-113644656D01*
X202706293Y-113852083D01*
X202600457Y-114080609D01*
X202534639Y-114323699D01*
X202510720Y-114574404D01*
X202529384Y-114825554D01*
X202590097Y-115069970D01*
X202691123Y-115300662D01*
X202829575Y-115511033D01*
X203001493Y-115695071D01*
X203201960Y-115847510D01*
X203224239Y-115859133D01*
X203024854Y-116004261D01*
X202849120Y-116184656D01*
X202706293Y-116392083D01*
X202600457Y-116620609D01*
X202497193Y-117002000D01*
X201983565Y-117002000D01*
X201941922Y-116757094D01*
X201858477Y-116519476D01*
X201736188Y-116299315D01*
X201578554Y-116102907D01*
X201390080Y-115935866D01*
X201267913Y-115859971D01*
X201364877Y-115802512D01*
X201556807Y-115639455D01*
X201718521Y-115446391D01*
X201845393Y-115228840D01*
X201933796Y-114993022D01*
X201981318Y-114745082D01*
X201984240Y-114465974D01*
X201941922Y-114217094D01*
X201858477Y-113979476D01*
X201736188Y-113759315D01*
X201578554Y-113562907D01*
X201511093Y-113503117D01*
X201667512Y-113461205D01*
X201843165Y-113313815D01*
X201954956Y-113120186D01*
X201991837Y-112911024D01*
X201991837Y-111183412D01*
X201911205Y-110882489D01*
X201763815Y-110706835D01*
X201570186Y-110595044D01*
X201361024Y-110558163D01*
X199633412Y-110558163D01*
X199332489Y-110638795D01*
X199156835Y-110786185D01*
X199045044Y-110979814D01*
X199008163Y-111188976D01*
X199008163Y-112916588D01*
X199088795Y-113217512D01*
X199236185Y-113393165D01*
X199429814Y-113504956D01*
X199477090Y-113513292D01*
X199349120Y-113644656D01*
X199206293Y-113852083D01*
X199100457Y-114080609D01*
X199034639Y-114323699D01*
X199010720Y-114574404D01*
X199029384Y-114825554D01*
X199090097Y-115069970D01*
X199191123Y-115300662D01*
X199329575Y-115511033D01*
X199501493Y-115695071D01*
X199701960Y-115847510D01*
X199724239Y-115859133D01*
X199524854Y-116004261D01*
X199349120Y-116184656D01*
X199206293Y-116392083D01*
X199100457Y-116620609D01*
X198997193Y-117002000D01*
X198483565Y-117002000D01*
X198441922Y-116757094D01*
X198358477Y-116519476D01*
X198236188Y-116299315D01*
X198078554Y-116102907D01*
X197890080Y-115935866D01*
X197767913Y-115859971D01*
X197864877Y-115802512D01*
X198056807Y-115639455D01*
X198218521Y-115446391D01*
X198345393Y-115228840D01*
X198433796Y-114993022D01*
X198481318Y-114745082D01*
X198484240Y-114465974D01*
X198441922Y-114217094D01*
X198358477Y-113979476D01*
X198236188Y-113759315D01*
X198078554Y-113562907D01*
X198011093Y-113503117D01*
X198167512Y-113461205D01*
X198343165Y-113313815D01*
X198454956Y-113120186D01*
X198491837Y-112911024D01*
X198491837Y-111183412D01*
X198411205Y-110882489D01*
X198263815Y-110706835D01*
X198070186Y-110595044D01*
X197861024Y-110558163D01*
X196133412Y-110558163D01*
X195832489Y-110638795D01*
X195656835Y-110786185D01*
X195545044Y-110979814D01*
X195508163Y-111188976D01*
X195508163Y-112916588D01*
X195588795Y-113217512D01*
X195736185Y-113393165D01*
X195929814Y-113504956D01*
X195977090Y-113513292D01*
X195849120Y-113644656D01*
X195706293Y-113852083D01*
X195600457Y-114080609D01*
X195534639Y-114323699D01*
X195510720Y-114574404D01*
X195529384Y-114825554D01*
X195590097Y-115069970D01*
X195691123Y-115300662D01*
X195829575Y-115511033D01*
X196001493Y-115695071D01*
X196201960Y-115847510D01*
X196224239Y-115859133D01*
X196024854Y-116004261D01*
X195849120Y-116184656D01*
X195706293Y-116392083D01*
X195600457Y-116620609D01*
X195497193Y-117002000D01*
X194983565Y-117002000D01*
X194941922Y-116757094D01*
X194858477Y-116519476D01*
X194736188Y-116299315D01*
X194578554Y-116102907D01*
X194390080Y-115935866D01*
X194267913Y-115859971D01*
X194364877Y-115802512D01*
X194556807Y-115639455D01*
X194718521Y-115446391D01*
X194845393Y-115228840D01*
X194933796Y-114993022D01*
X194981318Y-114745082D01*
X194984240Y-114465974D01*
X194941922Y-114217094D01*
X194858477Y-113979476D01*
X194736188Y-113759315D01*
X194578554Y-113562907D01*
X194511093Y-113503117D01*
X194667512Y-113461205D01*
X194843165Y-113313815D01*
X194954956Y-113120186D01*
X194991837Y-112911024D01*
X194991837Y-111183412D01*
X194911205Y-110882489D01*
X194763815Y-110706835D01*
X194570186Y-110595044D01*
X194361024Y-110558163D01*
X192633412Y-110558163D01*
X192332489Y-110638795D01*
X192156835Y-110786185D01*
X192045044Y-110979814D01*
X192008163Y-111188976D01*
X192008163Y-112916588D01*
X192088795Y-113217512D01*
X192236185Y-113393165D01*
X192429814Y-113504956D01*
X192477090Y-113513292D01*
X192349120Y-113644656D01*
X192206293Y-113852083D01*
X192100457Y-114080609D01*
X192034639Y-114323699D01*
X192010720Y-114574404D01*
X192029384Y-114825554D01*
X192090097Y-115069970D01*
X192191123Y-115300662D01*
X192329575Y-115511033D01*
X192501493Y-115695071D01*
X192701960Y-115847510D01*
X192724239Y-115859133D01*
X192524854Y-116004261D01*
X192349120Y-116184656D01*
X192206293Y-116392083D01*
X192100457Y-116620609D01*
X191997193Y-117002000D01*
X138991412Y-117002000D01*
X139011557Y-116992000D01*
X163967193Y-116992000D01*
X166953565Y-116992000D01*
X167467193Y-116992000D01*
X170453565Y-116992000D01*
X170967193Y-116992000D01*
X173953565Y-116992000D01*
X174467193Y-116992000D01*
X177453565Y-116992000D01*
X177411922Y-116747094D01*
X177328477Y-116509476D01*
X177206188Y-116289315D01*
X177048554Y-116092907D01*
X176860080Y-115925866D01*
X176737913Y-115849971D01*
X176834877Y-115792512D01*
X177026807Y-115629455D01*
X177188521Y-115436391D01*
X177315393Y-115218840D01*
X177403796Y-114983022D01*
X177451318Y-114735082D01*
X177454240Y-114455974D01*
X177411922Y-114207094D01*
X177328477Y-113969476D01*
X177206188Y-113749315D01*
X177048554Y-113552907D01*
X176981093Y-113493117D01*
X177137512Y-113451205D01*
X177313165Y-113303815D01*
X177424956Y-113110186D01*
X177461837Y-112901024D01*
X177461837Y-111173412D01*
X177381205Y-110872489D01*
X177233815Y-110696835D01*
X177040186Y-110585044D01*
X176831024Y-110548163D01*
X175103412Y-110548163D01*
X174802489Y-110628795D01*
X174626835Y-110776185D01*
X174515044Y-110969814D01*
X174478163Y-111178976D01*
X174478163Y-112906588D01*
X174558795Y-113207512D01*
X174706185Y-113383165D01*
X174899814Y-113494956D01*
X174947090Y-113503292D01*
X174819120Y-113634656D01*
X174676293Y-113842083D01*
X174570457Y-114070609D01*
X174504639Y-114313699D01*
X174480720Y-114564404D01*
X174499384Y-114815554D01*
X174560097Y-115059970D01*
X174661123Y-115290662D01*
X174799575Y-115501033D01*
X174971493Y-115685071D01*
X175171960Y-115837510D01*
X175194239Y-115849133D01*
X174994854Y-115994261D01*
X174819120Y-116174656D01*
X174676293Y-116382083D01*
X174570457Y-116610609D01*
X174467193Y-116992000D01*
X173953565Y-116992000D01*
X173911922Y-116747094D01*
X173828477Y-116509476D01*
X173706188Y-116289315D01*
X173548554Y-116092907D01*
X173360080Y-115925866D01*
X173237913Y-115849971D01*
X173334877Y-115792512D01*
X173526807Y-115629455D01*
X173688521Y-115436391D01*
X173815393Y-115218840D01*
X173903796Y-114983022D01*
X173951318Y-114735082D01*
X173954240Y-114455974D01*
X173911922Y-114207094D01*
X173828477Y-113969476D01*
X173706188Y-113749315D01*
X173548554Y-113552907D01*
X173481093Y-113493117D01*
X173637512Y-113451205D01*
X173813165Y-113303815D01*
X173924956Y-113110186D01*
X173961837Y-112901024D01*
X173961837Y-111173412D01*
X173881205Y-110872489D01*
X173733815Y-110696835D01*
X173540186Y-110585044D01*
X173331024Y-110548163D01*
X171603412Y-110548163D01*
X171302489Y-110628795D01*
X171126835Y-110776185D01*
X171015044Y-110969814D01*
X170978163Y-111178976D01*
X170978163Y-112906588D01*
X171058795Y-113207512D01*
X171206185Y-113383165D01*
X171399814Y-113494956D01*
X171447090Y-113503292D01*
X171319120Y-113634656D01*
X171176293Y-113842083D01*
X171070457Y-114070609D01*
X171004639Y-114313699D01*
X170980720Y-114564404D01*
X170999384Y-114815554D01*
X171060097Y-115059970D01*
X171161123Y-115290662D01*
X171299575Y-115501033D01*
X171471493Y-115685071D01*
X171671960Y-115837510D01*
X171694239Y-115849133D01*
X171494854Y-115994261D01*
X171319120Y-116174656D01*
X171176293Y-116382083D01*
X171070457Y-116610609D01*
X170967193Y-116992000D01*
X170453565Y-116992000D01*
X170411922Y-116747094D01*
X170328477Y-116509476D01*
X170206188Y-116289315D01*
X170048554Y-116092907D01*
X169860080Y-115925866D01*
X169737913Y-115849971D01*
X169834877Y-115792512D01*
X170026807Y-115629455D01*
X170188521Y-115436391D01*
X170315393Y-115218840D01*
X170403796Y-114983022D01*
X170451318Y-114735082D01*
X170454240Y-114455974D01*
X170411922Y-114207094D01*
X170328477Y-113969476D01*
X170206188Y-113749315D01*
X170048554Y-113552907D01*
X169981093Y-113493117D01*
X170137512Y-113451205D01*
X170313165Y-113303815D01*
X170424956Y-113110186D01*
X170461837Y-112901024D01*
X170461837Y-111173412D01*
X170381205Y-110872489D01*
X170233815Y-110696835D01*
X170040186Y-110585044D01*
X169831024Y-110548163D01*
X168103412Y-110548163D01*
X167802489Y-110628795D01*
X167626835Y-110776185D01*
X167515044Y-110969814D01*
X167478163Y-111178976D01*
X167478163Y-112906588D01*
X167558795Y-113207512D01*
X167706185Y-113383165D01*
X167899814Y-113494956D01*
X167947090Y-113503292D01*
X167819120Y-113634656D01*
X167676293Y-113842083D01*
X167570457Y-114070609D01*
X167504639Y-114313699D01*
X167480720Y-114564404D01*
X167499384Y-114815554D01*
X167560097Y-115059970D01*
X167661123Y-115290662D01*
X167799575Y-115501033D01*
X167971493Y-115685071D01*
X168171960Y-115837510D01*
X168194239Y-115849133D01*
X167994854Y-115994261D01*
X167819120Y-116174656D01*
X167676293Y-116382083D01*
X167570457Y-116610609D01*
X167467193Y-116992000D01*
X166953565Y-116992000D01*
X166911922Y-116747094D01*
X166828477Y-116509476D01*
X166706188Y-116289315D01*
X166548554Y-116092907D01*
X166360080Y-115925866D01*
X166237913Y-115849971D01*
X166334877Y-115792512D01*
X166526807Y-115629455D01*
X166688521Y-115436391D01*
X166815393Y-115218840D01*
X166903796Y-114983022D01*
X166951318Y-114735082D01*
X166954240Y-114455974D01*
X166911922Y-114207094D01*
X166828477Y-113969476D01*
X166706188Y-113749315D01*
X166548554Y-113552907D01*
X166481093Y-113493117D01*
X166637512Y-113451205D01*
X166813165Y-113303815D01*
X166924956Y-113110186D01*
X166961837Y-112901024D01*
X166961837Y-111173412D01*
X166881205Y-110872489D01*
X166733815Y-110696835D01*
X166540186Y-110585044D01*
X166331024Y-110548163D01*
X164603412Y-110548163D01*
X164302489Y-110628795D01*
X164126835Y-110776185D01*
X164015044Y-110969814D01*
X163978163Y-111178976D01*
X163978163Y-112906588D01*
X164058795Y-113207512D01*
X164206185Y-113383165D01*
X164399814Y-113494956D01*
X164447090Y-113503292D01*
X164319120Y-113634656D01*
X164176293Y-113842083D01*
X164070457Y-114070609D01*
X164004639Y-114313699D01*
X163980720Y-114564404D01*
X163999384Y-114815554D01*
X164060097Y-115059970D01*
X164161123Y-115290662D01*
X164299575Y-115501033D01*
X164471493Y-115685071D01*
X164671960Y-115837510D01*
X164694239Y-115849133D01*
X164494854Y-115994261D01*
X164319120Y-116174656D01*
X164176293Y-116382083D01*
X164070457Y-116610609D01*
X163967193Y-116992000D01*
X139011557Y-116992000D01*
X139129747Y-116933330D01*
X139381678Y-116762119D01*
X139608041Y-116558300D01*
X139804649Y-116325646D01*
X139967863Y-116068463D01*
X140094663Y-115791507D01*
X140182702Y-115499906D01*
X140230456Y-115198399D01*
X140234122Y-114848356D01*
X140192692Y-114545916D01*
X140110780Y-114252534D01*
X140006328Y-114011159D01*
X146296000Y-114011159D01*
X146296000Y-114663810D01*
X146312753Y-114839404D01*
X146379038Y-115065351D01*
X146486854Y-115274688D01*
X146632308Y-115459860D01*
X146810154Y-115614186D01*
X147013973Y-115732099D01*
X147236413Y-115809343D01*
X147469445Y-115843131D01*
X147704662Y-115832244D01*
X147933577Y-115777075D01*
X148147929Y-115679615D01*
X148339988Y-115543380D01*
X148502818Y-115373285D01*
X148530557Y-115330325D01*
X148632308Y-115459860D01*
X148810154Y-115614186D01*
X149013973Y-115732099D01*
X149236413Y-115809343D01*
X149469445Y-115843131D01*
X149704662Y-115832244D01*
X149933577Y-115777075D01*
X150147929Y-115679615D01*
X150339988Y-115543380D01*
X150502818Y-115373285D01*
X150530557Y-115330325D01*
X150632308Y-115459860D01*
X150810154Y-115614186D01*
X151013973Y-115732099D01*
X151236415Y-115809344D01*
X151402000Y-115833346D01*
X151402001Y-114457999D01*
X151402000Y-114457999D01*
X151402000Y-114202001D01*
X151657999Y-114202001D01*
X151658000Y-114202001D01*
X151657999Y-115843489D01*
X151933577Y-115777075D01*
X152147929Y-115679615D01*
X152339988Y-115543380D01*
X152502818Y-115373285D01*
X152530557Y-115330325D01*
X152632308Y-115459860D01*
X152810154Y-115614186D01*
X153013973Y-115732099D01*
X153236413Y-115809343D01*
X153469445Y-115843131D01*
X153704662Y-115832244D01*
X153933577Y-115777075D01*
X154147929Y-115679615D01*
X154339988Y-115543380D01*
X154502818Y-115373285D01*
X154530557Y-115330325D01*
X154632308Y-115459860D01*
X154810154Y-115614186D01*
X155013973Y-115732099D01*
X155236413Y-115809343D01*
X155469445Y-115843131D01*
X155704662Y-115832244D01*
X155933577Y-115777075D01*
X156147929Y-115679615D01*
X156339988Y-115543380D01*
X156442631Y-115436157D01*
X156507618Y-115537279D01*
X156699730Y-115703745D01*
X156930958Y-115809343D01*
X157173558Y-115844224D01*
X157890976Y-115844224D01*
X158244549Y-115767309D01*
X158462279Y-115627382D01*
X158628745Y-115435270D01*
X158734343Y-115204042D01*
X158769224Y-114961442D01*
X158769224Y-113694024D01*
X158692309Y-113340451D01*
X158552382Y-113122721D01*
X158360270Y-112956255D01*
X158129042Y-112850657D01*
X157886442Y-112815776D01*
X157169024Y-112815776D01*
X156815451Y-112892691D01*
X156597721Y-113032618D01*
X156439517Y-113215195D01*
X156427692Y-113200140D01*
X156249846Y-113045814D01*
X156239025Y-113039554D01*
X156236776Y-113025355D01*
X156210222Y-112973240D01*
X156192149Y-112917618D01*
X156157775Y-112870306D01*
X156131220Y-112818188D01*
X156024000Y-112710969D01*
X156024000Y-107429693D01*
X203651326Y-107429693D01*
X203873768Y-107603486D01*
X204132231Y-107752710D01*
X204408948Y-107864511D01*
X204698530Y-107936711D01*
X204995343Y-107967908D01*
X205293609Y-107957492D01*
X205587522Y-107905667D01*
X205871363Y-107813441D01*
X206139606Y-107682611D01*
X206499106Y-107440125D01*
X205070000Y-106011019D01*
X203651326Y-107429693D01*
X156024000Y-107429693D01*
X156024000Y-105830000D01*
X202930789Y-105830000D01*
X202951608Y-106127721D01*
X203013658Y-106419646D01*
X203115734Y-106700095D01*
X203255846Y-106963609D01*
X203466052Y-107252929D01*
X204888981Y-105830000D01*
X205251019Y-105830000D01*
X206667322Y-107246303D01*
X206800658Y-107087396D01*
X206958811Y-106834299D01*
X207080200Y-106561653D01*
X207162464Y-106274767D01*
X207204000Y-105979224D01*
X207204000Y-105680776D01*
X207162464Y-105385233D01*
X207080200Y-105098347D01*
X206958811Y-104825701D01*
X206800658Y-104572604D01*
X206667322Y-104413697D01*
X205251019Y-105830000D01*
X204888981Y-105830000D01*
X203466052Y-104407071D01*
X203255846Y-104696391D01*
X203115734Y-104959905D01*
X203013658Y-105240354D01*
X202951608Y-105532279D01*
X202930789Y-105830000D01*
X156024000Y-105830000D01*
X156024000Y-100780127D01*
X161777279Y-100780127D01*
X161809352Y-101034008D01*
X161908516Y-101269910D01*
X162067466Y-101470456D01*
X162274491Y-101620869D01*
X162514340Y-101710068D01*
X162769341Y-101731480D01*
X163020706Y-101683530D01*
X163249917Y-101569749D01*
X163440086Y-101398520D01*
X163577203Y-101182458D01*
X163651360Y-100936838D01*
X163654231Y-100662699D01*
X163585234Y-100415580D01*
X163452672Y-100196694D01*
X163266130Y-100021520D01*
X163039353Y-99902963D01*
X162789047Y-99849759D01*
X162533653Y-99865827D01*
X162291990Y-99949984D01*
X162081860Y-100096028D01*
X161918745Y-100293200D01*
X161814661Y-100526975D01*
X161777279Y-100780127D01*
X156024000Y-100780127D01*
X156024000Y-96536776D01*
X156250706Y-96493530D01*
X156479917Y-96379749D01*
X156670086Y-96208520D01*
X156807203Y-95992458D01*
X156881360Y-95746838D01*
X156884231Y-95472699D01*
X156862388Y-95394466D01*
X156904340Y-95410068D01*
X157159341Y-95431480D01*
X157363850Y-95392468D01*
X157327279Y-95640127D01*
X157359352Y-95894008D01*
X157458516Y-96129910D01*
X157617466Y-96330456D01*
X157824491Y-96480869D01*
X158064340Y-96570068D01*
X158319341Y-96591480D01*
X158570706Y-96543530D01*
X158799917Y-96429749D01*
X158990086Y-96258520D01*
X159127203Y-96042458D01*
X159201360Y-95796838D01*
X159201710Y-95763398D01*
X159410706Y-95723530D01*
X159639917Y-95609749D01*
X159830086Y-95438520D01*
X159967203Y-95222458D01*
X159986923Y-95157143D01*
X160110706Y-95133530D01*
X160162593Y-95107773D01*
X160224905Y-95153045D01*
X160197279Y-95340127D01*
X160229352Y-95594008D01*
X160328516Y-95829910D01*
X160487466Y-96030456D01*
X160694491Y-96180869D01*
X160934340Y-96270068D01*
X161189341Y-96291480D01*
X161440706Y-96243530D01*
X161669917Y-96129749D01*
X161860086Y-95958520D01*
X161997203Y-95742458D01*
X162071360Y-95496838D01*
X162074231Y-95222699D01*
X162005234Y-94975580D01*
X161872672Y-94756694D01*
X161686130Y-94581520D01*
X161667751Y-94571912D01*
X161681360Y-94526838D01*
X161683798Y-94294000D01*
X165305259Y-94294000D01*
X167209750Y-96198493D01*
X167209751Y-96836091D01*
X167192495Y-96856950D01*
X167088411Y-97090725D01*
X167051029Y-97343877D01*
X167083102Y-97597758D01*
X167182266Y-97833660D01*
X167341216Y-98034206D01*
X167548241Y-98184619D01*
X167788090Y-98273818D01*
X168043091Y-98295230D01*
X168294456Y-98247280D01*
X168523667Y-98133499D01*
X168713836Y-97962270D01*
X168850953Y-97746208D01*
X168925110Y-97500588D01*
X168927981Y-97226449D01*
X168858984Y-96979330D01*
X168777750Y-96845196D01*
X168777750Y-95920293D01*
X168786206Y-95848846D01*
X168767243Y-95745014D01*
X168751549Y-95640624D01*
X168746109Y-95629295D01*
X168742935Y-95611920D01*
X168720467Y-95575895D01*
X168649499Y-95428103D01*
X168584329Y-95357604D01*
X168580988Y-95352245D01*
X168559665Y-95330923D01*
X168489471Y-95254988D01*
X168475774Y-95247032D01*
X168219730Y-94990988D01*
X173366000Y-94990988D01*
X173366000Y-105013546D01*
X173419619Y-105260028D01*
X173519875Y-105416030D01*
X173656533Y-105534445D01*
X173821017Y-105609561D01*
X173990988Y-105634000D01*
X199513546Y-105634000D01*
X199760028Y-105580381D01*
X199916030Y-105480125D01*
X200034445Y-105343467D01*
X200109561Y-105178983D01*
X200134000Y-105009012D01*
X200134000Y-104230307D01*
X203651326Y-104230307D01*
X205070000Y-105648981D01*
X206499106Y-104219875D01*
X206139606Y-103977389D01*
X205871363Y-103846559D01*
X205587522Y-103754333D01*
X205293609Y-103702508D01*
X204995343Y-103692092D01*
X204698530Y-103723289D01*
X204408948Y-103795489D01*
X204132231Y-103907290D01*
X203873768Y-104056514D01*
X203651326Y-104230307D01*
X200134000Y-104230307D01*
X200134000Y-101948976D01*
X200918163Y-101948976D01*
X200918163Y-103576588D01*
X200998795Y-103877512D01*
X201146185Y-104053165D01*
X201339814Y-104164956D01*
X201548976Y-104201837D01*
X203176588Y-104201837D01*
X203477512Y-104121205D01*
X203653165Y-103973815D01*
X203764956Y-103780186D01*
X203801837Y-103571024D01*
X203801837Y-101943412D01*
X203721205Y-101642489D01*
X203573815Y-101466835D01*
X203380186Y-101355044D01*
X203302260Y-101341303D01*
X203377864Y-101277864D01*
X203539150Y-101085651D01*
X203664609Y-100868349D01*
X203750429Y-100632564D01*
X203794000Y-100385459D01*
X203794000Y-100134541D01*
X203750429Y-99887436D01*
X203664609Y-99651651D01*
X203539150Y-99434349D01*
X203392854Y-99260000D01*
X203539150Y-99085651D01*
X203664609Y-98868349D01*
X203750429Y-98632564D01*
X203794000Y-98385459D01*
X203794000Y-98134541D01*
X203750429Y-97887436D01*
X203664609Y-97651651D01*
X203539150Y-97434349D01*
X203377864Y-97242136D01*
X203185651Y-97080850D01*
X203062935Y-97010000D01*
X203294998Y-96876018D01*
X202360000Y-95941019D01*
X201425002Y-96876018D01*
X201657065Y-97010000D01*
X201534349Y-97080850D01*
X201342136Y-97242136D01*
X201180850Y-97434349D01*
X201055391Y-97651651D01*
X200969571Y-97887436D01*
X200926000Y-98134541D01*
X200926000Y-98385459D01*
X200969571Y-98632564D01*
X201055391Y-98868349D01*
X201180850Y-99085651D01*
X201327146Y-99260000D01*
X201180850Y-99434349D01*
X201055391Y-99651651D01*
X200969571Y-99887436D01*
X200926000Y-100134541D01*
X200926000Y-100385459D01*
X200969571Y-100632564D01*
X201055391Y-100868349D01*
X201180850Y-101085651D01*
X201342136Y-101277864D01*
X201427255Y-101349287D01*
X201242489Y-101398795D01*
X201066835Y-101546185D01*
X200955044Y-101739814D01*
X200918163Y-101948976D01*
X200134000Y-101948976D01*
X200134000Y-95634541D01*
X200926000Y-95634541D01*
X200926000Y-95885459D01*
X200969571Y-96132564D01*
X201055391Y-96368350D01*
X201243982Y-96694998D01*
X202178981Y-95760000D01*
X202541019Y-95760000D01*
X203476018Y-96694998D01*
X203664609Y-96368350D01*
X203750429Y-96132564D01*
X203794000Y-95885459D01*
X203794000Y-95634541D01*
X203750429Y-95387436D01*
X203664609Y-95151650D01*
X203476018Y-94825002D01*
X202541019Y-95760000D01*
X202178981Y-95760000D01*
X201243982Y-94825002D01*
X201055391Y-95151650D01*
X200969571Y-95387436D01*
X200926000Y-95634541D01*
X200134000Y-95634541D01*
X200134000Y-94986454D01*
X200080381Y-94739972D01*
X200018693Y-94643982D01*
X201425002Y-94643982D01*
X202360000Y-95578981D01*
X203294998Y-94643982D01*
X202968350Y-94455391D01*
X202732564Y-94369571D01*
X202485459Y-94326000D01*
X202234541Y-94326000D01*
X201987436Y-94369571D01*
X201751650Y-94455391D01*
X201425002Y-94643982D01*
X200018693Y-94643982D01*
X199980125Y-94583970D01*
X199843467Y-94465555D01*
X199678983Y-94390439D01*
X199509012Y-94366000D01*
X173986454Y-94366000D01*
X173739972Y-94419619D01*
X173583970Y-94519875D01*
X173465555Y-94656533D01*
X173390439Y-94821017D01*
X173366000Y-94990988D01*
X168219730Y-94990988D01*
X167518435Y-94289693D01*
X203651326Y-94289693D01*
X203873768Y-94463486D01*
X204132231Y-94612710D01*
X204408948Y-94724511D01*
X204698530Y-94796711D01*
X204995343Y-94827908D01*
X205293609Y-94817492D01*
X205587522Y-94765667D01*
X205871363Y-94673441D01*
X206139606Y-94542611D01*
X206499106Y-94300125D01*
X205070000Y-92871019D01*
X203651326Y-94289693D01*
X167518435Y-94289693D01*
X166414000Y-93185259D01*
X166414000Y-93019459D01*
X191551560Y-93019459D01*
X191906235Y-93230887D01*
X192150711Y-93327682D01*
X192407520Y-93384145D01*
X192670052Y-93398822D01*
X192931554Y-93371338D01*
X193185297Y-93302397D01*
X193424754Y-93193775D01*
X193699930Y-93010949D01*
X192630000Y-91941019D01*
X191551560Y-93019459D01*
X166414000Y-93019459D01*
X166414000Y-91742834D01*
X190990778Y-91742834D01*
X191009120Y-92005135D01*
X191069163Y-92261130D01*
X191169362Y-92504232D01*
X191373282Y-92835699D01*
X192448981Y-91760000D01*
X192811019Y-91760000D01*
X193873509Y-92822489D01*
X193977021Y-92690000D01*
X202930789Y-92690000D01*
X202951608Y-92987721D01*
X203013658Y-93279646D01*
X203115734Y-93560095D01*
X203255846Y-93823609D01*
X203466052Y-94112929D01*
X204888981Y-92690000D01*
X205251019Y-92690000D01*
X206667322Y-94106303D01*
X206800658Y-93947396D01*
X206958811Y-93694299D01*
X207080200Y-93421653D01*
X207162464Y-93134767D01*
X207204000Y-92839224D01*
X207204000Y-92540776D01*
X207162464Y-92245233D01*
X207080200Y-91958347D01*
X206958811Y-91685701D01*
X206800658Y-91432604D01*
X206667322Y-91273697D01*
X205251019Y-92690000D01*
X204888981Y-92690000D01*
X203466052Y-91267071D01*
X203255846Y-91556391D01*
X203115734Y-91819905D01*
X203013658Y-92100354D01*
X202951608Y-92392279D01*
X202930789Y-92690000D01*
X193977021Y-92690000D01*
X193998577Y-92662410D01*
X194125250Y-92431992D01*
X194213454Y-92184286D01*
X194261040Y-91925010D01*
X194264138Y-91629185D01*
X194221992Y-91368970D01*
X194138994Y-91119470D01*
X194123749Y-91090307D01*
X203651326Y-91090307D01*
X205070000Y-92508981D01*
X206499106Y-91079875D01*
X206139606Y-90837389D01*
X205871363Y-90706559D01*
X205587522Y-90614333D01*
X205293609Y-90562508D01*
X204995343Y-90552092D01*
X204698530Y-90583289D01*
X204408948Y-90655489D01*
X204132231Y-90767290D01*
X203873768Y-90916514D01*
X203651326Y-91090307D01*
X194123749Y-91090307D01*
X194017175Y-90886450D01*
X193874838Y-90696181D01*
X192811019Y-91760000D01*
X192448981Y-91760000D01*
X191376927Y-90687946D01*
X191185269Y-90985342D01*
X191080000Y-91226292D01*
X191014608Y-91480973D01*
X190990778Y-91742834D01*
X166414000Y-91742834D01*
X166414000Y-90710127D01*
X166527279Y-90710127D01*
X166559352Y-90964008D01*
X166658516Y-91199910D01*
X166817466Y-91400456D01*
X167024491Y-91550869D01*
X167264340Y-91640068D01*
X167519341Y-91661480D01*
X167770706Y-91613530D01*
X167999917Y-91499749D01*
X168190086Y-91328520D01*
X168327203Y-91112458D01*
X168401360Y-90866838D01*
X168404231Y-90592699D01*
X168335234Y-90345580D01*
X168202672Y-90126694D01*
X168016130Y-89951520D01*
X167789353Y-89832963D01*
X167539047Y-89779759D01*
X167283653Y-89795827D01*
X167041990Y-89879984D01*
X166831860Y-90026028D01*
X166668745Y-90223200D01*
X166564661Y-90456975D01*
X166527279Y-90710127D01*
X166414000Y-90710127D01*
X166414000Y-89999352D01*
X166439341Y-90001480D01*
X166690706Y-89953530D01*
X166919917Y-89839749D01*
X167110086Y-89668520D01*
X167247203Y-89452458D01*
X167287156Y-89320127D01*
X171757279Y-89320127D01*
X171789352Y-89574008D01*
X171888516Y-89809910D01*
X172047466Y-90010456D01*
X172254491Y-90160869D01*
X172328785Y-90188499D01*
X172373516Y-90294910D01*
X172532466Y-90495456D01*
X172739491Y-90645869D01*
X172979340Y-90735068D01*
X173234341Y-90756480D01*
X173485706Y-90708530D01*
X173714917Y-90594749D01*
X173801167Y-90517089D01*
X191568108Y-90517089D01*
X192630000Y-91578981D01*
X193697194Y-90511786D01*
X193454606Y-90343183D01*
X193217477Y-90229571D01*
X192965233Y-90155331D01*
X192704364Y-90122375D01*
X192441582Y-90131552D01*
X192183648Y-90182625D01*
X191937197Y-90274278D01*
X191708570Y-90404157D01*
X191568108Y-90517089D01*
X173801167Y-90517089D01*
X173905086Y-90423520D01*
X174042203Y-90207458D01*
X174116360Y-89961838D01*
X174119231Y-89687699D01*
X174050234Y-89440580D01*
X173917672Y-89221694D01*
X173731130Y-89046520D01*
X173566611Y-88960511D01*
X173565234Y-88955580D01*
X173432672Y-88736694D01*
X173246130Y-88561520D01*
X173019353Y-88442963D01*
X172769047Y-88389759D01*
X172513653Y-88405827D01*
X172271990Y-88489984D01*
X172061860Y-88636028D01*
X171898745Y-88833200D01*
X171794661Y-89066975D01*
X171757279Y-89320127D01*
X167287156Y-89320127D01*
X167321360Y-89206838D01*
X167324231Y-88932699D01*
X167255234Y-88685580D01*
X167122672Y-88466694D01*
X166936130Y-88291520D01*
X166709353Y-88172963D01*
X166459047Y-88119759D01*
X166203653Y-88135827D01*
X166004071Y-88205330D01*
X165115330Y-87316588D01*
X207058163Y-87316588D01*
X207138795Y-87617512D01*
X207286185Y-87793165D01*
X207479814Y-87904956D01*
X207688976Y-87941837D01*
X208872000Y-87941837D01*
X209127999Y-87941837D01*
X210316588Y-87941837D01*
X210617512Y-87861205D01*
X210793165Y-87713815D01*
X210904956Y-87520186D01*
X210941837Y-87311024D01*
X210941837Y-86128000D01*
X209128000Y-86127999D01*
X209127999Y-87941837D01*
X208872000Y-87941837D01*
X208872001Y-86128000D01*
X207058163Y-86127999D01*
X207058163Y-87316588D01*
X165115330Y-87316588D01*
X164585944Y-86787202D01*
X164535234Y-86605580D01*
X164402672Y-86386694D01*
X164374381Y-86360127D01*
X166367279Y-86360127D01*
X166399352Y-86614008D01*
X166498516Y-86849910D01*
X166657466Y-87050456D01*
X166864491Y-87200869D01*
X167104340Y-87290068D01*
X167359341Y-87311480D01*
X167610706Y-87263530D01*
X167633096Y-87252416D01*
X167734340Y-87290068D01*
X167989341Y-87311480D01*
X168240706Y-87263530D01*
X168258814Y-87254541D01*
X168354340Y-87290068D01*
X168609341Y-87311480D01*
X168860706Y-87263530D01*
X169089917Y-87149749D01*
X169280086Y-86978520D01*
X169417203Y-86762458D01*
X169491360Y-86516838D01*
X169494231Y-86242699D01*
X169425234Y-85995580D01*
X169348853Y-85869459D01*
X197091560Y-85869459D01*
X197446235Y-86080887D01*
X197690711Y-86177682D01*
X197947520Y-86234145D01*
X198210052Y-86248822D01*
X198471554Y-86221338D01*
X198725297Y-86152397D01*
X198964754Y-86043775D01*
X199239930Y-85860949D01*
X198170000Y-84791019D01*
X197091560Y-85869459D01*
X169348853Y-85869459D01*
X169292672Y-85776694D01*
X169106130Y-85601520D01*
X168879353Y-85482963D01*
X168629047Y-85429759D01*
X168373654Y-85445827D01*
X168262415Y-85484564D01*
X168259352Y-85482963D01*
X168009047Y-85429759D01*
X167753653Y-85445827D01*
X167636414Y-85486655D01*
X167629353Y-85482963D01*
X167379047Y-85429759D01*
X167123653Y-85445827D01*
X166881990Y-85529984D01*
X166671860Y-85676028D01*
X166508745Y-85873200D01*
X166404661Y-86106975D01*
X166367279Y-86360127D01*
X164374381Y-86360127D01*
X164216130Y-86211520D01*
X163989353Y-86092963D01*
X163739047Y-86039759D01*
X163483653Y-86055827D01*
X163241990Y-86139984D01*
X163031860Y-86286028D01*
X162868745Y-86483200D01*
X162764661Y-86716975D01*
X162727279Y-86970127D01*
X162759352Y-87224008D01*
X162858516Y-87459910D01*
X163017466Y-87660456D01*
X163224491Y-87810869D01*
X163464341Y-87900068D01*
X163482884Y-87901625D01*
X164846001Y-89264743D01*
X164846000Y-92726000D01*
X163398402Y-92726000D01*
X163422682Y-92645582D01*
X163590706Y-92613530D01*
X163819917Y-92499749D01*
X164010086Y-92328520D01*
X164147203Y-92112458D01*
X164221360Y-91866838D01*
X164224231Y-91592699D01*
X164155234Y-91345580D01*
X164105270Y-91263079D01*
X164207203Y-91102458D01*
X164281360Y-90856838D01*
X164284231Y-90582699D01*
X164215234Y-90335580D01*
X164082672Y-90116694D01*
X163896130Y-89941520D01*
X163669353Y-89822963D01*
X163419047Y-89769759D01*
X163163654Y-89785827D01*
X163072928Y-89817422D01*
X162852651Y-89702263D01*
X162602345Y-89649059D01*
X162346951Y-89665127D01*
X162105288Y-89749284D01*
X161895158Y-89895328D01*
X161732043Y-90092500D01*
X161627959Y-90326275D01*
X161590577Y-90579427D01*
X161622650Y-90833308D01*
X161721814Y-91069210D01*
X161880764Y-91269756D01*
X162087789Y-91420169D01*
X162327638Y-91509368D01*
X162376321Y-91513456D01*
X162372084Y-91542151D01*
X162313654Y-91545827D01*
X162071990Y-91629984D01*
X161861860Y-91776028D01*
X161698745Y-91973200D01*
X161594661Y-92206975D01*
X161557279Y-92460127D01*
X161589352Y-92714008D01*
X161594393Y-92726000D01*
X158822743Y-92726000D01*
X159011458Y-92537285D01*
X159067961Y-92492743D01*
X159127982Y-92405899D01*
X159190690Y-92320998D01*
X159194853Y-92309144D01*
X159204895Y-92294615D01*
X159214484Y-92253244D01*
X159268804Y-92098566D01*
X159272574Y-92002628D01*
X159274000Y-91996472D01*
X159274000Y-91966310D01*
X159278058Y-91862998D01*
X159274000Y-91847692D01*
X159274000Y-89756543D01*
X159282456Y-89685096D01*
X159263493Y-89581264D01*
X159247799Y-89476874D01*
X159242359Y-89465545D01*
X159239185Y-89448170D01*
X159216717Y-89412145D01*
X159145749Y-89264353D01*
X159080579Y-89193853D01*
X159077236Y-89188493D01*
X159055922Y-89167180D01*
X158985722Y-89091237D01*
X158972024Y-89083281D01*
X158795944Y-88907202D01*
X158745234Y-88725580D01*
X158612672Y-88506694D01*
X158426130Y-88331520D01*
X158199353Y-88212963D01*
X157949047Y-88159759D01*
X157693653Y-88175827D01*
X157451990Y-88259984D01*
X157241860Y-88406028D01*
X157078745Y-88603200D01*
X156974661Y-88836975D01*
X156937279Y-89090127D01*
X156969352Y-89344008D01*
X157068516Y-89579910D01*
X157227466Y-89780456D01*
X157228188Y-89780981D01*
X157057010Y-89840592D01*
X156846880Y-89986636D01*
X156683765Y-90183808D01*
X156579681Y-90417583D01*
X156542299Y-90670735D01*
X156574372Y-90924616D01*
X156673536Y-91160518D01*
X156832486Y-91361064D01*
X157039511Y-91511477D01*
X157279360Y-91600676D01*
X157534361Y-91622088D01*
X157706000Y-91589346D01*
X157706000Y-91625258D01*
X155791038Y-93540221D01*
X155561990Y-93619984D01*
X155351860Y-93766028D01*
X155188745Y-93963200D01*
X155084661Y-94196975D01*
X155047279Y-94450127D01*
X155079352Y-94704008D01*
X155164428Y-94906395D01*
X155044000Y-94785968D01*
X155044000Y-93419033D01*
X155154340Y-93460068D01*
X155409341Y-93481480D01*
X155660706Y-93433530D01*
X155889917Y-93319749D01*
X156080086Y-93148520D01*
X156217203Y-92932458D01*
X156291360Y-92686838D01*
X156294231Y-92412699D01*
X156225234Y-92165580D01*
X156092672Y-91946694D01*
X155906130Y-91771520D01*
X155679353Y-91652963D01*
X155429047Y-91599759D01*
X155173653Y-91615827D01*
X155066976Y-91652976D01*
X155169611Y-91550342D01*
X155362636Y-91513520D01*
X155591847Y-91399739D01*
X155782016Y-91228510D01*
X155919133Y-91012448D01*
X155993290Y-90766828D01*
X155996161Y-90492689D01*
X155927164Y-90245570D01*
X155794602Y-90026684D01*
X155608060Y-89851510D01*
X155381283Y-89732953D01*
X155130977Y-89679749D01*
X154875583Y-89695817D01*
X154633920Y-89779974D01*
X154423790Y-89926018D01*
X154260675Y-90123190D01*
X154156591Y-90356965D01*
X154134011Y-90509876D01*
X153750821Y-90893067D01*
X153750815Y-90893074D01*
X153708781Y-90935108D01*
X153682228Y-90987221D01*
X153647851Y-91034538D01*
X153629776Y-91090165D01*
X153603225Y-91142275D01*
X153594076Y-91200037D01*
X153576001Y-91255666D01*
X153576001Y-91324075D01*
X153576000Y-95148272D01*
X153576001Y-95148278D01*
X153576001Y-95206253D01*
X153594074Y-95261875D01*
X153603224Y-95319645D01*
X153629777Y-95371757D01*
X153647851Y-95427382D01*
X153682225Y-95474696D01*
X153708780Y-95526811D01*
X153748326Y-95566357D01*
X153748330Y-95566362D01*
X154556001Y-96374034D01*
X154556000Y-113073272D01*
X154556001Y-113073278D01*
X154556001Y-113131253D01*
X154574074Y-113186875D01*
X154583224Y-113244645D01*
X154588168Y-113254348D01*
X154557183Y-113286716D01*
X154529444Y-113329676D01*
X154427692Y-113200140D01*
X154249846Y-113045814D01*
X154046027Y-112927901D01*
X153823587Y-112850657D01*
X153590555Y-112816869D01*
X153355338Y-112827756D01*
X153126423Y-112882925D01*
X152912070Y-112980385D01*
X152720013Y-113116620D01*
X152557183Y-113286715D01*
X152529444Y-113329676D01*
X152427692Y-113200140D01*
X152249846Y-113045814D01*
X152046027Y-112927901D01*
X151823585Y-112850656D01*
X151658000Y-112826654D01*
X151657999Y-114202001D01*
X151402000Y-114202001D01*
X151402001Y-112816511D01*
X151126423Y-112882925D01*
X150912070Y-112980385D01*
X150720013Y-113116620D01*
X150557183Y-113286715D01*
X150529444Y-113329676D01*
X150427692Y-113200140D01*
X150249846Y-113045814D01*
X150046027Y-112927901D01*
X149823587Y-112850657D01*
X149590555Y-112816869D01*
X149355338Y-112827756D01*
X149126423Y-112882925D01*
X148912070Y-112980385D01*
X148720013Y-113116620D01*
X148557183Y-113286715D01*
X148529444Y-113329676D01*
X148427692Y-113200140D01*
X148249846Y-113045814D01*
X148046027Y-112927901D01*
X147823587Y-112850657D01*
X147590555Y-112816869D01*
X147355338Y-112827756D01*
X147126423Y-112882925D01*
X146912070Y-112980385D01*
X146720013Y-113116620D01*
X146557183Y-113286715D01*
X146429455Y-113484531D01*
X146340272Y-113705820D01*
X146296000Y-114011159D01*
X140006328Y-114011159D01*
X139989808Y-113972984D01*
X139832015Y-113712438D01*
X139640323Y-113475718D01*
X139418277Y-113267204D01*
X139169988Y-113090753D01*
X138900049Y-112949633D01*
X138613454Y-112846452D01*
X138315509Y-112783121D01*
X138011724Y-112760813D01*
X137707723Y-112779939D01*
X137409131Y-112840147D01*
X137121472Y-112940319D01*
X136850070Y-113078606D01*
X136599946Y-113252446D01*
X136375729Y-113458624D01*
X136181568Y-113693324D01*
X136021057Y-113952203D01*
X135897163Y-114230471D01*
X135812183Y-114522979D01*
X135767685Y-114824313D01*
X135764496Y-115128898D01*
X134644782Y-115128898D01*
X134638378Y-114965934D01*
X134634000Y-114942078D01*
X134634000Y-110320127D01*
X143017279Y-110320127D01*
X143049352Y-110574008D01*
X143148516Y-110809910D01*
X143307466Y-111010456D01*
X143514491Y-111160869D01*
X143754340Y-111250068D01*
X144009341Y-111271480D01*
X144260706Y-111223530D01*
X144489917Y-111109749D01*
X144680086Y-110938520D01*
X144817203Y-110722458D01*
X144891360Y-110476838D01*
X144894231Y-110202699D01*
X144825234Y-109955580D01*
X144692672Y-109736694D01*
X144506130Y-109561520D01*
X144279353Y-109442963D01*
X144029047Y-109389759D01*
X143773653Y-109405827D01*
X143531990Y-109489984D01*
X143321860Y-109636028D01*
X143158745Y-109833200D01*
X143054661Y-110066975D01*
X143017279Y-110320127D01*
X134634000Y-110320127D01*
X134634000Y-107970127D01*
X143497279Y-107970127D01*
X143529352Y-108224008D01*
X143628516Y-108459910D01*
X143787466Y-108660456D01*
X143994491Y-108810869D01*
X144234340Y-108900068D01*
X144489341Y-108921480D01*
X144740706Y-108873530D01*
X144969917Y-108759749D01*
X145160086Y-108588520D01*
X145297203Y-108372458D01*
X145371360Y-108126838D01*
X145374231Y-107852699D01*
X145305234Y-107605580D01*
X145172672Y-107386694D01*
X144986130Y-107211520D01*
X144759353Y-107092963D01*
X144509047Y-107039759D01*
X144253653Y-107055827D01*
X144011990Y-107139984D01*
X143801860Y-107286028D01*
X143638745Y-107483200D01*
X143534661Y-107716975D01*
X143497279Y-107970127D01*
X134634000Y-107970127D01*
X134634000Y-104640127D01*
X145987279Y-104640127D01*
X146019352Y-104894008D01*
X146118516Y-105129910D01*
X146263678Y-105313060D01*
X146238745Y-105343200D01*
X146134661Y-105576975D01*
X146097279Y-105830127D01*
X146129352Y-106084008D01*
X146228516Y-106319910D01*
X146387466Y-106520456D01*
X146594491Y-106670869D01*
X146834340Y-106760068D01*
X147089341Y-106781480D01*
X147340706Y-106733530D01*
X147569917Y-106619749D01*
X147760086Y-106448520D01*
X147897203Y-106232458D01*
X147971360Y-105986838D01*
X147974231Y-105712699D01*
X147905234Y-105465580D01*
X147772672Y-105246694D01*
X147700564Y-105178980D01*
X147787203Y-105042458D01*
X147861360Y-104796838D01*
X147864231Y-104522699D01*
X147795234Y-104275580D01*
X147670808Y-104070127D01*
X148197279Y-104070127D01*
X148229352Y-104324008D01*
X148328516Y-104559910D01*
X148487466Y-104760456D01*
X148694491Y-104910869D01*
X148934340Y-105000068D01*
X149189341Y-105021480D01*
X149440706Y-104973530D01*
X149669917Y-104859749D01*
X149860086Y-104688520D01*
X149997203Y-104472458D01*
X150071360Y-104226838D01*
X150074231Y-103952699D01*
X150005234Y-103705580D01*
X149872672Y-103486694D01*
X149686130Y-103311520D01*
X149459353Y-103192963D01*
X149209047Y-103139759D01*
X148953653Y-103155827D01*
X148711990Y-103239984D01*
X148501860Y-103386028D01*
X148338745Y-103583200D01*
X148234661Y-103816975D01*
X148197279Y-104070127D01*
X147670808Y-104070127D01*
X147662672Y-104056694D01*
X147476130Y-103881520D01*
X147249353Y-103762963D01*
X146999047Y-103709759D01*
X146743653Y-103725827D01*
X146501990Y-103809984D01*
X146291860Y-103956028D01*
X146128745Y-104153200D01*
X146024661Y-104386975D01*
X145987279Y-104640127D01*
X134634000Y-104640127D01*
X134634000Y-103500127D01*
X138617279Y-103500127D01*
X138649352Y-103754008D01*
X138748516Y-103989910D01*
X138907466Y-104190456D01*
X139114491Y-104340869D01*
X139354340Y-104430068D01*
X139609341Y-104451480D01*
X139860706Y-104403530D01*
X140089917Y-104289749D01*
X140280086Y-104118520D01*
X140417203Y-103902458D01*
X140491360Y-103656838D01*
X140494231Y-103382699D01*
X140425234Y-103135580D01*
X140292672Y-102916694D01*
X140179190Y-102810127D01*
X143547279Y-102810127D01*
X143579352Y-103064008D01*
X143678516Y-103299910D01*
X143837466Y-103500456D01*
X144044491Y-103650869D01*
X144284340Y-103740068D01*
X144539341Y-103761480D01*
X144790706Y-103713530D01*
X145019917Y-103599749D01*
X145210086Y-103428520D01*
X145347203Y-103212458D01*
X145421360Y-102966838D01*
X145424231Y-102692699D01*
X145355234Y-102445580D01*
X145222672Y-102226694D01*
X145036130Y-102051520D01*
X144809353Y-101932963D01*
X144559047Y-101879759D01*
X144303653Y-101895827D01*
X144061990Y-101979984D01*
X143851860Y-102126028D01*
X143688745Y-102323200D01*
X143584661Y-102556975D01*
X143547279Y-102810127D01*
X140179190Y-102810127D01*
X140106130Y-102741520D01*
X139879353Y-102622963D01*
X139629047Y-102569759D01*
X139373653Y-102585827D01*
X139131990Y-102669984D01*
X138921860Y-102816028D01*
X138758745Y-103013200D01*
X138654661Y-103246975D01*
X138617279Y-103500127D01*
X134634000Y-103500127D01*
X134634000Y-100277249D01*
X150730157Y-100277249D01*
X150762230Y-100531130D01*
X150861394Y-100767032D01*
X151020344Y-100967578D01*
X151227369Y-101117991D01*
X151467218Y-101207190D01*
X151722219Y-101228602D01*
X151973584Y-101180652D01*
X152202795Y-101066871D01*
X152392964Y-100895642D01*
X152530081Y-100679580D01*
X152604238Y-100433960D01*
X152607109Y-100159821D01*
X152538112Y-99912702D01*
X152405550Y-99693816D01*
X152219008Y-99518642D01*
X151992231Y-99400085D01*
X151741925Y-99346881D01*
X151486531Y-99362949D01*
X151244868Y-99447106D01*
X151034738Y-99593150D01*
X150871623Y-99790322D01*
X150767539Y-100024097D01*
X150730157Y-100277249D01*
X134634000Y-100277249D01*
X134634000Y-96631159D01*
X135916000Y-96631159D01*
X135916000Y-97283810D01*
X135932753Y-97459404D01*
X135999038Y-97685351D01*
X136106854Y-97894688D01*
X136252308Y-98079860D01*
X136430154Y-98234186D01*
X136633973Y-98352099D01*
X136856413Y-98429343D01*
X137089445Y-98463131D01*
X137324662Y-98452244D01*
X137553577Y-98397075D01*
X137767929Y-98299615D01*
X137959988Y-98163380D01*
X138122818Y-97993285D01*
X138150557Y-97950325D01*
X138252308Y-98079860D01*
X138430154Y-98234186D01*
X138633973Y-98352099D01*
X138856413Y-98429343D01*
X139089445Y-98463131D01*
X139324662Y-98452244D01*
X139553577Y-98397075D01*
X139767929Y-98299615D01*
X139959988Y-98163380D01*
X140122818Y-97993285D01*
X140150557Y-97950325D01*
X140252308Y-98079860D01*
X140430154Y-98234186D01*
X140633973Y-98352099D01*
X140856413Y-98429343D01*
X141089445Y-98463131D01*
X141324662Y-98452244D01*
X141553577Y-98397075D01*
X141767929Y-98299615D01*
X141959988Y-98163380D01*
X142062631Y-98056157D01*
X142127618Y-98157279D01*
X142319730Y-98323745D01*
X142550958Y-98429343D01*
X142793558Y-98464224D01*
X143022000Y-98464224D01*
X143277999Y-98464224D01*
X143510976Y-98464224D01*
X143864549Y-98387309D01*
X144082279Y-98247382D01*
X144248745Y-98055270D01*
X144354343Y-97824042D01*
X144389224Y-97581442D01*
X144389224Y-97078000D01*
X143278000Y-97077999D01*
X143277999Y-98464224D01*
X143022000Y-98464224D01*
X143022001Y-97077999D01*
X143022000Y-97077999D01*
X143022000Y-96822000D01*
X143277999Y-96822000D01*
X144389224Y-96822001D01*
X144389224Y-96314024D01*
X144388377Y-96310127D01*
X151947279Y-96310127D01*
X151979352Y-96564008D01*
X152078516Y-96799910D01*
X152155746Y-96897350D01*
X152127279Y-97090127D01*
X152159352Y-97344008D01*
X152258516Y-97579910D01*
X152417466Y-97780456D01*
X152624491Y-97930869D01*
X152678766Y-97951054D01*
X152699352Y-98114008D01*
X152798516Y-98349910D01*
X152957466Y-98550456D01*
X153164491Y-98700869D01*
X153404340Y-98790068D01*
X153659341Y-98811480D01*
X153910706Y-98763530D01*
X154139917Y-98649749D01*
X154330086Y-98478520D01*
X154467203Y-98262458D01*
X154541360Y-98016838D01*
X154544231Y-97742699D01*
X154475234Y-97495580D01*
X154342672Y-97276694D01*
X154156130Y-97101520D01*
X154003716Y-97021840D01*
X154004231Y-96972699D01*
X153935234Y-96725580D01*
X153807113Y-96514027D01*
X153821360Y-96466838D01*
X153824231Y-96192699D01*
X153755234Y-95945580D01*
X153622672Y-95726694D01*
X153436130Y-95551520D01*
X153209353Y-95432963D01*
X152959047Y-95379759D01*
X152703653Y-95395827D01*
X152461990Y-95479984D01*
X152251860Y-95626028D01*
X152088745Y-95823200D01*
X151984661Y-96056975D01*
X151947279Y-96310127D01*
X144388377Y-96310127D01*
X144312309Y-95960451D01*
X144172382Y-95742721D01*
X143980270Y-95576255D01*
X143749042Y-95470657D01*
X143506442Y-95435776D01*
X143278000Y-95435776D01*
X143277999Y-96822000D01*
X143022000Y-96822000D01*
X143022001Y-95435776D01*
X142789024Y-95435776D01*
X142435451Y-95512691D01*
X142217721Y-95652618D01*
X142059517Y-95835195D01*
X142047692Y-95820140D01*
X141869846Y-95665814D01*
X141666027Y-95547901D01*
X141443587Y-95470657D01*
X141210555Y-95436869D01*
X140975338Y-95447756D01*
X140746423Y-95502925D01*
X140532070Y-95600385D01*
X140340013Y-95736620D01*
X140177183Y-95906715D01*
X140149444Y-95949676D01*
X140047692Y-95820140D01*
X139869846Y-95665814D01*
X139666027Y-95547901D01*
X139443587Y-95470657D01*
X139210555Y-95436869D01*
X138975338Y-95447756D01*
X138746423Y-95502925D01*
X138532070Y-95600385D01*
X138340013Y-95736620D01*
X138177183Y-95906715D01*
X138149444Y-95949676D01*
X138047692Y-95820140D01*
X137869846Y-95665814D01*
X137666027Y-95547901D01*
X137443587Y-95470657D01*
X137210555Y-95436869D01*
X136975338Y-95447756D01*
X136746423Y-95502925D01*
X136532070Y-95600385D01*
X136340013Y-95736620D01*
X136177183Y-95906715D01*
X136049455Y-96104531D01*
X135960272Y-96325820D01*
X135916000Y-96631159D01*
X134634000Y-96631159D01*
X134634000Y-91801159D01*
X135916000Y-91801159D01*
X135916000Y-92453810D01*
X135932753Y-92629404D01*
X135999038Y-92855351D01*
X136106854Y-93064688D01*
X136252308Y-93249860D01*
X136430154Y-93404186D01*
X136633973Y-93522099D01*
X136856413Y-93599343D01*
X137089445Y-93633131D01*
X137324662Y-93622244D01*
X137553577Y-93567075D01*
X137767929Y-93469615D01*
X137959988Y-93333380D01*
X138122818Y-93163285D01*
X138150557Y-93120325D01*
X138252308Y-93249860D01*
X138430154Y-93404186D01*
X138633973Y-93522099D01*
X138856413Y-93599343D01*
X139089445Y-93633131D01*
X139324662Y-93622244D01*
X139553577Y-93567075D01*
X139767929Y-93469615D01*
X139959988Y-93333380D01*
X140122818Y-93163285D01*
X140150557Y-93120325D01*
X140252308Y-93249860D01*
X140430154Y-93404186D01*
X140633973Y-93522099D01*
X140856413Y-93599343D01*
X141089445Y-93633131D01*
X141324663Y-93622244D01*
X141336387Y-93619419D01*
X142026146Y-94309179D01*
X142026153Y-94309185D01*
X142068188Y-94351220D01*
X142120303Y-94377775D01*
X142167617Y-94412149D01*
X142223242Y-94430223D01*
X142275354Y-94456776D01*
X142333124Y-94465926D01*
X142388746Y-94483999D01*
X142446721Y-94483999D01*
X142446727Y-94484000D01*
X144898273Y-94484000D01*
X144898279Y-94483999D01*
X144956254Y-94483999D01*
X145011877Y-94465926D01*
X145069645Y-94456776D01*
X145121760Y-94430222D01*
X145177382Y-94412149D01*
X145224694Y-94377775D01*
X145276812Y-94351220D01*
X145761220Y-93866812D01*
X145787774Y-93814697D01*
X145822149Y-93767383D01*
X145840223Y-93711758D01*
X145866776Y-93659646D01*
X145875926Y-93601876D01*
X145893999Y-93546254D01*
X145893999Y-93488279D01*
X145894000Y-93488273D01*
X145894000Y-91890127D01*
X150847279Y-91890127D01*
X150879352Y-92144008D01*
X150978516Y-92379910D01*
X151137466Y-92580456D01*
X151344491Y-92730869D01*
X151584340Y-92820068D01*
X151839341Y-92841480D01*
X152090706Y-92793530D01*
X152319917Y-92679749D01*
X152510086Y-92508520D01*
X152647203Y-92292458D01*
X152721360Y-92046838D01*
X152724231Y-91772699D01*
X152685326Y-91633360D01*
X152768850Y-91501749D01*
X152843007Y-91256129D01*
X152845878Y-90981990D01*
X152776881Y-90734871D01*
X152644319Y-90515985D01*
X152457777Y-90340811D01*
X152231000Y-90222254D01*
X151980694Y-90169050D01*
X151725300Y-90185118D01*
X151483637Y-90269275D01*
X151273507Y-90415319D01*
X151110392Y-90612491D01*
X151006308Y-90846266D01*
X150968926Y-91099418D01*
X151000999Y-91353298D01*
X151010779Y-91376565D01*
X150988744Y-91403201D01*
X150884661Y-91636975D01*
X150847279Y-91890127D01*
X145894000Y-91890127D01*
X145894000Y-91314031D01*
X149394032Y-87814000D01*
X150667875Y-87814000D01*
X150689352Y-87984008D01*
X150788516Y-88219910D01*
X150947466Y-88420456D01*
X151139793Y-88560191D01*
X151137092Y-88578484D01*
X151169165Y-88832364D01*
X151268329Y-89068266D01*
X151427279Y-89268812D01*
X151634304Y-89419225D01*
X151874153Y-89508424D01*
X152129154Y-89529836D01*
X152380519Y-89481886D01*
X152609730Y-89368105D01*
X152799899Y-89196876D01*
X152937016Y-88980814D01*
X153011173Y-88735194D01*
X153014044Y-88461055D01*
X152945047Y-88213936D01*
X152812485Y-87995050D01*
X152625943Y-87819876D01*
X152614703Y-87814000D01*
X153328273Y-87814000D01*
X153328279Y-87813999D01*
X153386254Y-87813999D01*
X153441877Y-87795926D01*
X153499645Y-87786776D01*
X153551760Y-87760222D01*
X153607382Y-87742149D01*
X153654694Y-87707775D01*
X153706812Y-87681220D01*
X153857108Y-87530923D01*
X154374032Y-87014000D01*
X159925969Y-87014000D01*
X159973474Y-87061505D01*
X159851860Y-87146028D01*
X159688745Y-87343200D01*
X159584661Y-87576975D01*
X159547279Y-87830127D01*
X159579352Y-88084008D01*
X159678516Y-88319910D01*
X159837467Y-88520456D01*
X159909240Y-88572602D01*
X159908744Y-88573201D01*
X159804661Y-88806975D01*
X159767279Y-89060127D01*
X159799352Y-89314008D01*
X159898516Y-89549910D01*
X160057466Y-89750456D01*
X160264491Y-89900869D01*
X160504340Y-89990068D01*
X160759341Y-90011480D01*
X161010706Y-89963530D01*
X161239917Y-89849749D01*
X161430086Y-89678520D01*
X161567203Y-89462458D01*
X161641360Y-89216838D01*
X161644231Y-88942699D01*
X161575234Y-88695580D01*
X161442672Y-88476694D01*
X161285733Y-88329319D01*
X161347203Y-88232458D01*
X161381571Y-88118626D01*
X161460706Y-88103530D01*
X161689917Y-87989749D01*
X161880086Y-87818520D01*
X162017203Y-87602458D01*
X162091360Y-87356838D01*
X162094231Y-87082699D01*
X162025234Y-86835580D01*
X161892672Y-86616694D01*
X161706130Y-86441520D01*
X161479353Y-86322963D01*
X161265551Y-86277518D01*
X160715184Y-85727152D01*
X160666812Y-85678780D01*
X160614694Y-85652225D01*
X160567382Y-85617851D01*
X160511760Y-85599778D01*
X160459645Y-85573224D01*
X160401877Y-85564074D01*
X160346254Y-85546001D01*
X160288279Y-85546001D01*
X160288273Y-85546000D01*
X154011727Y-85546000D01*
X154011721Y-85546001D01*
X153953746Y-85546001D01*
X153898124Y-85564074D01*
X153840354Y-85573224D01*
X153788242Y-85599777D01*
X153732617Y-85617851D01*
X153685303Y-85652225D01*
X153633188Y-85678780D01*
X153591153Y-85720815D01*
X153591146Y-85720821D01*
X152965968Y-86346000D01*
X152383568Y-86346000D01*
X152384231Y-86282699D01*
X152315234Y-86035580D01*
X152182672Y-85816694D01*
X151996130Y-85641520D01*
X151769353Y-85522963D01*
X151519047Y-85469759D01*
X151263653Y-85485827D01*
X151021990Y-85569984D01*
X150811860Y-85716028D01*
X150648745Y-85913200D01*
X150544661Y-86146975D01*
X150515272Y-86346000D01*
X149031727Y-86346000D01*
X149031721Y-86346001D01*
X148973746Y-86346001D01*
X148918124Y-86364074D01*
X148860354Y-86373224D01*
X148808242Y-86399777D01*
X148752617Y-86417851D01*
X148705303Y-86452225D01*
X148653188Y-86478780D01*
X148611153Y-86520815D01*
X148611146Y-86520821D01*
X144598330Y-90533638D01*
X144598326Y-90533643D01*
X144558780Y-90573189D01*
X144532225Y-90625304D01*
X144497851Y-90672618D01*
X144479777Y-90728243D01*
X144453224Y-90780355D01*
X144444074Y-90838125D01*
X144426001Y-90893747D01*
X144426001Y-90951722D01*
X144426000Y-90951728D01*
X144426001Y-93016000D01*
X144344315Y-93016000D01*
X144354343Y-92994042D01*
X144389224Y-92751442D01*
X144389224Y-92248000D01*
X143277999Y-92247999D01*
X143277999Y-92248000D01*
X143022000Y-92247999D01*
X143022000Y-91992000D01*
X143277999Y-91992000D01*
X144389224Y-91992001D01*
X144389224Y-91484024D01*
X144312309Y-91130451D01*
X144172382Y-90912721D01*
X143980270Y-90746255D01*
X143749042Y-90640657D01*
X143506442Y-90605776D01*
X143278000Y-90605776D01*
X143277999Y-91992000D01*
X143022000Y-91992000D01*
X143022001Y-90605776D01*
X142789024Y-90605776D01*
X142435451Y-90682691D01*
X142217721Y-90822618D01*
X142059517Y-91005195D01*
X142047692Y-90990140D01*
X141869846Y-90835814D01*
X141666027Y-90717901D01*
X141443587Y-90640657D01*
X141210555Y-90606869D01*
X140975338Y-90617756D01*
X140746423Y-90672925D01*
X140532070Y-90770385D01*
X140340013Y-90906620D01*
X140177183Y-91076715D01*
X140149444Y-91119676D01*
X140047692Y-90990140D01*
X139869846Y-90835814D01*
X139666027Y-90717901D01*
X139443587Y-90640657D01*
X139210555Y-90606869D01*
X138975338Y-90617756D01*
X138746423Y-90672925D01*
X138532070Y-90770385D01*
X138340013Y-90906620D01*
X138177183Y-91076715D01*
X138149444Y-91119676D01*
X138047692Y-90990140D01*
X137869846Y-90835814D01*
X137666027Y-90717901D01*
X137443587Y-90640657D01*
X137210555Y-90606869D01*
X136975338Y-90617756D01*
X136746423Y-90672925D01*
X136532070Y-90770385D01*
X136340013Y-90906620D01*
X136177183Y-91076715D01*
X136049455Y-91274531D01*
X135960272Y-91495820D01*
X135916000Y-91801159D01*
X134634000Y-91801159D01*
X134634000Y-86981159D01*
X135916000Y-86981159D01*
X135916000Y-87633810D01*
X135932753Y-87809404D01*
X135999038Y-88035351D01*
X136106854Y-88244688D01*
X136252308Y-88429860D01*
X136430154Y-88584186D01*
X136633973Y-88702099D01*
X136856413Y-88779343D01*
X137089445Y-88813131D01*
X137324662Y-88802244D01*
X137553577Y-88747075D01*
X137767929Y-88649615D01*
X137959988Y-88513380D01*
X138122818Y-88343285D01*
X138150557Y-88300325D01*
X138252308Y-88429860D01*
X138430154Y-88584186D01*
X138633973Y-88702099D01*
X138856413Y-88779343D01*
X139089445Y-88813131D01*
X139324662Y-88802244D01*
X139553577Y-88747075D01*
X139767929Y-88649615D01*
X139959988Y-88513380D01*
X140122818Y-88343285D01*
X140150557Y-88300325D01*
X140252308Y-88429860D01*
X140430154Y-88584186D01*
X140633973Y-88702099D01*
X140856413Y-88779343D01*
X141089445Y-88813131D01*
X141324662Y-88802244D01*
X141553577Y-88747075D01*
X141767929Y-88649615D01*
X141959988Y-88513380D01*
X142062631Y-88406157D01*
X142127618Y-88507279D01*
X142319730Y-88673745D01*
X142550958Y-88779343D01*
X142793558Y-88814224D01*
X143022000Y-88814224D01*
X143277999Y-88814224D01*
X143510976Y-88814224D01*
X143864549Y-88737309D01*
X144082279Y-88597382D01*
X144248745Y-88405270D01*
X144354343Y-88174042D01*
X144389224Y-87931442D01*
X144389224Y-87428000D01*
X143278000Y-87427999D01*
X143277999Y-88814224D01*
X143022000Y-88814224D01*
X143022001Y-87427999D01*
X143022000Y-87427999D01*
X143022000Y-87172000D01*
X143277999Y-87172000D01*
X144389224Y-87172001D01*
X144389224Y-86664024D01*
X144312309Y-86310451D01*
X144172382Y-86092721D01*
X143980270Y-85926255D01*
X143749042Y-85820657D01*
X143506442Y-85785776D01*
X143278000Y-85785776D01*
X143277999Y-87172000D01*
X143022000Y-87172000D01*
X143022001Y-85785776D01*
X142789024Y-85785776D01*
X142435451Y-85862691D01*
X142217721Y-86002618D01*
X142059517Y-86185195D01*
X142047692Y-86170140D01*
X141869846Y-86015814D01*
X141666027Y-85897901D01*
X141443587Y-85820657D01*
X141210555Y-85786869D01*
X140975338Y-85797756D01*
X140746423Y-85852925D01*
X140532070Y-85950385D01*
X140340013Y-86086620D01*
X140177183Y-86256715D01*
X140149444Y-86299676D01*
X140047692Y-86170140D01*
X139869846Y-86015814D01*
X139666027Y-85897901D01*
X139443587Y-85820657D01*
X139210555Y-85786869D01*
X138975338Y-85797756D01*
X138746423Y-85852925D01*
X138532070Y-85950385D01*
X138340013Y-86086620D01*
X138177183Y-86256715D01*
X138149444Y-86299676D01*
X138047692Y-86170140D01*
X137869846Y-86015814D01*
X137666027Y-85897901D01*
X137443587Y-85820657D01*
X137210555Y-85786869D01*
X136975338Y-85797756D01*
X136746423Y-85852925D01*
X136532070Y-85950385D01*
X136340013Y-86086620D01*
X136177183Y-86256715D01*
X136049455Y-86454531D01*
X135960272Y-86675820D01*
X135916000Y-86981159D01*
X134634000Y-86981159D01*
X134634000Y-82121159D01*
X135916000Y-82121159D01*
X135916000Y-82773810D01*
X135932753Y-82949404D01*
X135999038Y-83175351D01*
X136106854Y-83384688D01*
X136252308Y-83569860D01*
X136430154Y-83724186D01*
X136633973Y-83842099D01*
X136856413Y-83919343D01*
X137089445Y-83953131D01*
X137324662Y-83942244D01*
X137553577Y-83887075D01*
X137767929Y-83789615D01*
X137959988Y-83653380D01*
X138062631Y-83546157D01*
X138127618Y-83647279D01*
X138319730Y-83813745D01*
X138550958Y-83919343D01*
X138793558Y-83954224D01*
X139510976Y-83954224D01*
X139864549Y-83877309D01*
X140082279Y-83737382D01*
X140248745Y-83545270D01*
X140354343Y-83314042D01*
X140389224Y-83071442D01*
X140389224Y-82499399D01*
X157468007Y-82499399D01*
X157500080Y-82753280D01*
X157599244Y-82989182D01*
X157758194Y-83189728D01*
X157965219Y-83340141D01*
X158205069Y-83429340D01*
X158308163Y-83437997D01*
X158326002Y-83579201D01*
X158425166Y-83815103D01*
X158584116Y-84015649D01*
X158791141Y-84166062D01*
X159030990Y-84255261D01*
X159156482Y-84265799D01*
X159177287Y-84430486D01*
X159276451Y-84666388D01*
X159435401Y-84866934D01*
X159642426Y-85017347D01*
X159882275Y-85106546D01*
X160137276Y-85127958D01*
X160388641Y-85080008D01*
X160617852Y-84966227D01*
X160808021Y-84794998D01*
X160936318Y-84592834D01*
X196530778Y-84592834D01*
X196549120Y-84855135D01*
X196609163Y-85111130D01*
X196709362Y-85354232D01*
X196913282Y-85685699D01*
X197988981Y-84610000D01*
X198351019Y-84610000D01*
X199413509Y-85672489D01*
X199538577Y-85512410D01*
X199665250Y-85281992D01*
X199753454Y-85034286D01*
X199801040Y-84775010D01*
X199801940Y-84688976D01*
X207058163Y-84688976D01*
X207058163Y-85872000D01*
X208872000Y-85872001D01*
X208872000Y-85872000D01*
X209127999Y-85872000D01*
X210941837Y-85872001D01*
X210941837Y-84683412D01*
X210861205Y-84382489D01*
X210713815Y-84206835D01*
X210520186Y-84095044D01*
X210311024Y-84058163D01*
X209128000Y-84058163D01*
X209127999Y-85872000D01*
X208872000Y-85872000D01*
X208872001Y-84058163D01*
X207683412Y-84058163D01*
X207382489Y-84138795D01*
X207206835Y-84286185D01*
X207095044Y-84479814D01*
X207058163Y-84688976D01*
X199801940Y-84688976D01*
X199804138Y-84479185D01*
X199761992Y-84218970D01*
X199678994Y-83969470D01*
X199557175Y-83736450D01*
X199414838Y-83546181D01*
X198351019Y-84610000D01*
X197988981Y-84610000D01*
X196916927Y-83537946D01*
X196725269Y-83835342D01*
X196620000Y-84076292D01*
X196554608Y-84330973D01*
X196530778Y-84592834D01*
X160936318Y-84592834D01*
X160945138Y-84578936D01*
X161019295Y-84333316D01*
X161019393Y-84324000D01*
X166681163Y-84324000D01*
X166814492Y-84420869D01*
X167054340Y-84510068D01*
X167309341Y-84531480D01*
X167560706Y-84483530D01*
X167789917Y-84369749D01*
X167980086Y-84198520D01*
X168117203Y-83982458D01*
X168191360Y-83736838D01*
X168194231Y-83462699D01*
X168167537Y-83367089D01*
X197108108Y-83367089D01*
X198170000Y-84428981D01*
X199237194Y-83361786D01*
X198994606Y-83193183D01*
X198757477Y-83079571D01*
X198505233Y-83005331D01*
X198244364Y-82972375D01*
X197981582Y-82981552D01*
X197723648Y-83032625D01*
X197477197Y-83124278D01*
X197248570Y-83254157D01*
X197108108Y-83367089D01*
X168167537Y-83367089D01*
X168125234Y-83215580D01*
X167992672Y-82996694D01*
X167806130Y-82821520D01*
X167579353Y-82702963D01*
X167329047Y-82649759D01*
X167073653Y-82665827D01*
X166831990Y-82749984D01*
X166679452Y-82856000D01*
X165403254Y-82856000D01*
X165404231Y-82762699D01*
X165335234Y-82515580D01*
X165202672Y-82296694D01*
X165016130Y-82121520D01*
X164789353Y-82002963D01*
X164575549Y-81957518D01*
X164558159Y-81940127D01*
X179377279Y-81940127D01*
X179409352Y-82194008D01*
X179508516Y-82429910D01*
X179667466Y-82630456D01*
X179874491Y-82780869D01*
X180114340Y-82870068D01*
X180369341Y-82891480D01*
X180620706Y-82843530D01*
X180849917Y-82729749D01*
X181040086Y-82558520D01*
X181177203Y-82342458D01*
X181251360Y-82096838D01*
X181254231Y-81822699D01*
X181185234Y-81575580D01*
X181052672Y-81356694D01*
X180866130Y-81181520D01*
X180639353Y-81062963D01*
X180389047Y-81009759D01*
X180133653Y-81025827D01*
X179891990Y-81109984D01*
X179681860Y-81256028D01*
X179518745Y-81453200D01*
X179414661Y-81686975D01*
X179377279Y-81940127D01*
X164558159Y-81940127D01*
X164526084Y-81908052D01*
X164473966Y-81881497D01*
X164426654Y-81847123D01*
X164371032Y-81829050D01*
X164318917Y-81802496D01*
X164261149Y-81793346D01*
X164205526Y-81775273D01*
X164147551Y-81775273D01*
X164147545Y-81775272D01*
X158993576Y-81775272D01*
X158956858Y-81740792D01*
X158730081Y-81622235D01*
X158479775Y-81569031D01*
X158224381Y-81585099D01*
X157982718Y-81669256D01*
X157772588Y-81815300D01*
X157609473Y-82012472D01*
X157505389Y-82246247D01*
X157468007Y-82499399D01*
X140389224Y-82499399D01*
X140389224Y-81804024D01*
X140312309Y-81450451D01*
X140172382Y-81232721D01*
X139980270Y-81066255D01*
X139749042Y-80960657D01*
X139506442Y-80925776D01*
X138789024Y-80925776D01*
X138435451Y-81002691D01*
X138217721Y-81142618D01*
X138059517Y-81325195D01*
X138047692Y-81310140D01*
X137869846Y-81155814D01*
X137666027Y-81037901D01*
X137443587Y-80960657D01*
X137210555Y-80926869D01*
X136975338Y-80937756D01*
X136746423Y-80992925D01*
X136532070Y-81090385D01*
X136340013Y-81226620D01*
X136177183Y-81396715D01*
X136049455Y-81594531D01*
X135960272Y-81815820D01*
X135916000Y-82121159D01*
X134634000Y-82121159D01*
X134634000Y-80730127D01*
X155197279Y-80730127D01*
X155229352Y-80984008D01*
X155328516Y-81219910D01*
X155487466Y-81420456D01*
X155694491Y-81570869D01*
X155934340Y-81660068D01*
X156189341Y-81681480D01*
X156440706Y-81633530D01*
X156669917Y-81519749D01*
X156860086Y-81348520D01*
X156997203Y-81132458D01*
X157067347Y-80900127D01*
X169627279Y-80900127D01*
X169659352Y-81154008D01*
X169758516Y-81389910D01*
X169917466Y-81590456D01*
X170124491Y-81740869D01*
X170364340Y-81830068D01*
X170619341Y-81851480D01*
X170870706Y-81803530D01*
X171099917Y-81689749D01*
X171290086Y-81518520D01*
X171427203Y-81302458D01*
X171501360Y-81056838D01*
X171504231Y-80782699D01*
X171475593Y-80680127D01*
X181217279Y-80680127D01*
X181249352Y-80934008D01*
X181348516Y-81169910D01*
X181507466Y-81370456D01*
X181714491Y-81520869D01*
X181954340Y-81610068D01*
X182209341Y-81631480D01*
X182460706Y-81583530D01*
X182689917Y-81469749D01*
X182880086Y-81298520D01*
X183017203Y-81082458D01*
X183091360Y-80836838D01*
X183094231Y-80562699D01*
X183025234Y-80315580D01*
X182892672Y-80096694D01*
X182706130Y-79921520D01*
X182479353Y-79802963D01*
X182229047Y-79749759D01*
X181973653Y-79765827D01*
X181731990Y-79849984D01*
X181521860Y-79996028D01*
X181358745Y-80193200D01*
X181254661Y-80426975D01*
X181217279Y-80680127D01*
X171475593Y-80680127D01*
X171435234Y-80535580D01*
X171302672Y-80316694D01*
X171116130Y-80141520D01*
X170889353Y-80022963D01*
X170639047Y-79969759D01*
X170383653Y-79985827D01*
X170141990Y-80069984D01*
X169931860Y-80216028D01*
X169768745Y-80413200D01*
X169664661Y-80646975D01*
X169627279Y-80900127D01*
X157067347Y-80900127D01*
X157071360Y-80886838D01*
X157074231Y-80612699D01*
X157005234Y-80365580D01*
X156996401Y-80350994D01*
X157027203Y-80302458D01*
X157101360Y-80056838D01*
X157104231Y-79782699D01*
X157035234Y-79535580D01*
X156999010Y-79475767D01*
X157137466Y-79650456D01*
X157344491Y-79800869D01*
X157584340Y-79890068D01*
X157839341Y-79911480D01*
X158090706Y-79863530D01*
X158319917Y-79749749D01*
X158510086Y-79578520D01*
X158647203Y-79362458D01*
X158721360Y-79116838D01*
X158724231Y-78842699D01*
X158723513Y-78840127D01*
X164647279Y-78840127D01*
X164679352Y-79094008D01*
X164778516Y-79329910D01*
X164937466Y-79530456D01*
X165144491Y-79680869D01*
X165384340Y-79770068D01*
X165639341Y-79791480D01*
X165890706Y-79743530D01*
X166047425Y-79665735D01*
X166054491Y-79670869D01*
X166294340Y-79760068D01*
X166549341Y-79781480D01*
X166800706Y-79733530D01*
X167029917Y-79619749D01*
X167220086Y-79448520D01*
X167357203Y-79232458D01*
X167431360Y-78986838D01*
X167434231Y-78712699D01*
X167365234Y-78465580D01*
X167232672Y-78246694D01*
X167046130Y-78071520D01*
X166892088Y-77990988D01*
X186366000Y-77990988D01*
X186366000Y-82013546D01*
X186419619Y-82260028D01*
X186519875Y-82416030D01*
X186656533Y-82534445D01*
X186821017Y-82609561D01*
X186990988Y-82634000D01*
X187197609Y-82634000D01*
X187337466Y-82810456D01*
X187544491Y-82960869D01*
X187784340Y-83050068D01*
X188039341Y-83071480D01*
X188290706Y-83023530D01*
X188519917Y-82909749D01*
X188710086Y-82738520D01*
X188776416Y-82634000D01*
X207965194Y-82634000D01*
X208095482Y-82715571D01*
X208358995Y-82830423D01*
X208636590Y-82905064D01*
X208922168Y-82937854D01*
X209209455Y-82928072D01*
X209492143Y-82875935D01*
X209764018Y-82782586D01*
X210019108Y-82650077D01*
X210041276Y-82634000D01*
X212513546Y-82634000D01*
X212760028Y-82580381D01*
X212916030Y-82480125D01*
X213034445Y-82343467D01*
X213109561Y-82178983D01*
X213134000Y-82009012D01*
X213134000Y-77986454D01*
X213080381Y-77739972D01*
X212980125Y-77583970D01*
X212843467Y-77465555D01*
X212678983Y-77390439D01*
X212509012Y-77366000D01*
X186986454Y-77366000D01*
X186739972Y-77419619D01*
X186583970Y-77519875D01*
X186465555Y-77656533D01*
X186390439Y-77821017D01*
X186366000Y-77990988D01*
X166892088Y-77990988D01*
X166819353Y-77952963D01*
X166569047Y-77899759D01*
X166313653Y-77915827D01*
X166071990Y-77999984D01*
X166032572Y-78027380D01*
X165909352Y-77962963D01*
X165659047Y-77909759D01*
X165403653Y-77925827D01*
X165161990Y-78009984D01*
X164951860Y-78156028D01*
X164788745Y-78353200D01*
X164684661Y-78586975D01*
X164647279Y-78840127D01*
X158723513Y-78840127D01*
X158655234Y-78595580D01*
X158522672Y-78376694D01*
X158336130Y-78201520D01*
X158109353Y-78082963D01*
X157859047Y-78029759D01*
X157603653Y-78045827D01*
X157361990Y-78129984D01*
X157151860Y-78276028D01*
X156988745Y-78473200D01*
X156884661Y-78706975D01*
X156847279Y-78960127D01*
X156879352Y-79214008D01*
X156967547Y-79423815D01*
X156902672Y-79316694D01*
X156716130Y-79141520D01*
X156489353Y-79022963D01*
X156239047Y-78969759D01*
X155983653Y-78985827D01*
X155741990Y-79069984D01*
X155531860Y-79216028D01*
X155368745Y-79413200D01*
X155264661Y-79646975D01*
X155227279Y-79900127D01*
X155259352Y-80154008D01*
X155317192Y-80291607D01*
X155234661Y-80476975D01*
X155197279Y-80730127D01*
X134634000Y-80730127D01*
X134634000Y-76340127D01*
X169727279Y-76340127D01*
X169759352Y-76594008D01*
X169858516Y-76829910D01*
X170017466Y-77030456D01*
X170224491Y-77180869D01*
X170464340Y-77270068D01*
X170719341Y-77291480D01*
X170970706Y-77243530D01*
X171199917Y-77129749D01*
X171390086Y-76958520D01*
X171527203Y-76742458D01*
X171601360Y-76496838D01*
X171604231Y-76222699D01*
X171535234Y-75975580D01*
X171402672Y-75756694D01*
X171216130Y-75581520D01*
X170989353Y-75462963D01*
X170739047Y-75409759D01*
X170483653Y-75425827D01*
X170241990Y-75509984D01*
X170031860Y-75656028D01*
X169868745Y-75853200D01*
X169764661Y-76086975D01*
X169727279Y-76340127D01*
X134634000Y-76340127D01*
X134634000Y-73128898D01*
X135764496Y-73128898D01*
X135802672Y-73431098D01*
X135881510Y-73725321D01*
X135999547Y-74006122D01*
X136154602Y-74268307D01*
X136343805Y-74507021D01*
X136563655Y-74717849D01*
X136810083Y-74896890D01*
X137078530Y-75040830D01*
X137364028Y-75147006D01*
X137661294Y-75213452D01*
X137964828Y-75238941D01*
X138269012Y-75223000D01*
X138568220Y-75165923D01*
X138856911Y-75068767D01*
X139129747Y-74933330D01*
X139381678Y-74762119D01*
X139608041Y-74558300D01*
X139787998Y-74345349D01*
X149114515Y-74345349D01*
X149154660Y-74564084D01*
X149236527Y-74770855D01*
X149356996Y-74957786D01*
X149511479Y-75117759D01*
X149694093Y-75244679D01*
X149897881Y-75333711D01*
X150115080Y-75381466D01*
X150337420Y-75386123D01*
X150556429Y-75347505D01*
X150763766Y-75267085D01*
X150951534Y-75147924D01*
X151112582Y-74994561D01*
X151240773Y-74812837D01*
X151331227Y-74609677D01*
X151380693Y-74391948D01*
X151381343Y-74345349D01*
X153514515Y-74345349D01*
X153554660Y-74564084D01*
X153636527Y-74770855D01*
X153756996Y-74957786D01*
X153911479Y-75117759D01*
X154094093Y-75244679D01*
X154297881Y-75333711D01*
X154515080Y-75381466D01*
X154737420Y-75386123D01*
X154956429Y-75347505D01*
X155130141Y-75280127D01*
X164387279Y-75280127D01*
X164419352Y-75534008D01*
X164518516Y-75769910D01*
X164677466Y-75970456D01*
X164884491Y-76120869D01*
X165124340Y-76210068D01*
X165379341Y-76231480D01*
X165630706Y-76183530D01*
X165859917Y-76069749D01*
X166050086Y-75898520D01*
X166122151Y-75784963D01*
X166237466Y-75930456D01*
X166444491Y-76080869D01*
X166684340Y-76170068D01*
X166939341Y-76191480D01*
X167190706Y-76143530D01*
X167419917Y-76029749D01*
X167610086Y-75858520D01*
X167747203Y-75642458D01*
X167821360Y-75396838D01*
X167824231Y-75122699D01*
X167755234Y-74875580D01*
X167622672Y-74656694D01*
X167436130Y-74481520D01*
X167209353Y-74362963D01*
X166959047Y-74309759D01*
X166703653Y-74325827D01*
X166461990Y-74409984D01*
X166251860Y-74556028D01*
X166093449Y-74747513D01*
X166062672Y-74696694D01*
X165876130Y-74521520D01*
X165649353Y-74402963D01*
X165399047Y-74349759D01*
X165143653Y-74365827D01*
X164901990Y-74449984D01*
X164691860Y-74596028D01*
X164528745Y-74793200D01*
X164424661Y-75026975D01*
X164387279Y-75280127D01*
X155130141Y-75280127D01*
X155163766Y-75267085D01*
X155351534Y-75147924D01*
X155512582Y-74994561D01*
X155640773Y-74812837D01*
X155731227Y-74609677D01*
X155780693Y-74391948D01*
X155784216Y-74139679D01*
X155740848Y-73920653D01*
X155656102Y-73715046D01*
X155533034Y-73529814D01*
X155376333Y-73372015D01*
X155191965Y-73247657D01*
X154986954Y-73161479D01*
X154769108Y-73116761D01*
X154546726Y-73115209D01*
X154328277Y-73156880D01*
X154122083Y-73240188D01*
X153935996Y-73361959D01*
X153777107Y-73517555D01*
X153651465Y-73701051D01*
X153563857Y-73905455D01*
X153517620Y-74122984D01*
X153514515Y-74345349D01*
X151381343Y-74345349D01*
X151384216Y-74139679D01*
X151340848Y-73920653D01*
X151256102Y-73715046D01*
X151133034Y-73529814D01*
X151049332Y-73445525D01*
X151239341Y-73461480D01*
X151490706Y-73413530D01*
X151719917Y-73299749D01*
X151910086Y-73128520D01*
X152047203Y-72912458D01*
X152121360Y-72666838D01*
X152122477Y-72560127D01*
X158267279Y-72560127D01*
X158299352Y-72814008D01*
X158398516Y-73049910D01*
X158557466Y-73250456D01*
X158764491Y-73400869D01*
X159004340Y-73490068D01*
X159259341Y-73511480D01*
X159510706Y-73463530D01*
X159739917Y-73349749D01*
X159930086Y-73178520D01*
X160067203Y-72962458D01*
X160141360Y-72716838D01*
X160144231Y-72442699D01*
X160075234Y-72195580D01*
X159942672Y-71976694D01*
X159756130Y-71801520D01*
X159529353Y-71682963D01*
X159332680Y-71641159D01*
X161696000Y-71641159D01*
X161696000Y-72293810D01*
X161712753Y-72469404D01*
X161779038Y-72695351D01*
X161886854Y-72904688D01*
X162032308Y-73089860D01*
X162210154Y-73244186D01*
X162413973Y-73362099D01*
X162636413Y-73439343D01*
X162869445Y-73473131D01*
X163104662Y-73462244D01*
X163333577Y-73407075D01*
X163547929Y-73309615D01*
X163739988Y-73173380D01*
X163902818Y-73003285D01*
X163930557Y-72960325D01*
X164032308Y-73089860D01*
X164210154Y-73244186D01*
X164413973Y-73362099D01*
X164636413Y-73439343D01*
X164869445Y-73473131D01*
X165104662Y-73462244D01*
X165333577Y-73407075D01*
X165547929Y-73309615D01*
X165739988Y-73173380D01*
X165902818Y-73003285D01*
X165930557Y-72960325D01*
X166032308Y-73089860D01*
X166210154Y-73244186D01*
X166413973Y-73362099D01*
X166636413Y-73439343D01*
X166869445Y-73473131D01*
X167104662Y-73462244D01*
X167333577Y-73407075D01*
X167547929Y-73309615D01*
X167739988Y-73173380D01*
X167842631Y-73066157D01*
X167907618Y-73167279D01*
X168099730Y-73333745D01*
X168330958Y-73439343D01*
X168573558Y-73474224D01*
X168802000Y-73474224D01*
X169057999Y-73474224D01*
X169290976Y-73474224D01*
X169644549Y-73397309D01*
X169862279Y-73257382D01*
X169973611Y-73128898D01*
X208684496Y-73128898D01*
X208722672Y-73431098D01*
X208801510Y-73725321D01*
X208919547Y-74006122D01*
X209074602Y-74268307D01*
X209263805Y-74507021D01*
X209483655Y-74717849D01*
X209730083Y-74896890D01*
X209998530Y-75040830D01*
X210284028Y-75147006D01*
X210581294Y-75213452D01*
X210884828Y-75238941D01*
X211189012Y-75223000D01*
X211488220Y-75165923D01*
X211776911Y-75068767D01*
X212049747Y-74933330D01*
X212301678Y-74762119D01*
X212528041Y-74558300D01*
X212724649Y-74325646D01*
X212887863Y-74068463D01*
X213014663Y-73791507D01*
X213102702Y-73499906D01*
X213150456Y-73198399D01*
X213154122Y-72848356D01*
X213112692Y-72545916D01*
X213030780Y-72252534D01*
X212909808Y-71972984D01*
X212752015Y-71712438D01*
X212560323Y-71475718D01*
X212338277Y-71267204D01*
X212089988Y-71090753D01*
X211820049Y-70949633D01*
X211533454Y-70846452D01*
X211235509Y-70783121D01*
X210931724Y-70760813D01*
X210627723Y-70779939D01*
X210329131Y-70840147D01*
X210041472Y-70940319D01*
X209770070Y-71078606D01*
X209519946Y-71252446D01*
X209295729Y-71458624D01*
X209101568Y-71693324D01*
X208941057Y-71952203D01*
X208817163Y-72230471D01*
X208732183Y-72522979D01*
X208687685Y-72824313D01*
X208684496Y-73128898D01*
X169973611Y-73128898D01*
X170028745Y-73065270D01*
X170134343Y-72834042D01*
X170169224Y-72591442D01*
X170169224Y-72088000D01*
X169058000Y-72087999D01*
X169057999Y-73474224D01*
X168802000Y-73474224D01*
X168802001Y-72087999D01*
X168802000Y-72087999D01*
X168802000Y-71832000D01*
X169057999Y-71832000D01*
X170169224Y-71832001D01*
X170169224Y-71324024D01*
X170092309Y-70970451D01*
X169952382Y-70752721D01*
X169760270Y-70586255D01*
X169529042Y-70480657D01*
X169286442Y-70445776D01*
X169058000Y-70445776D01*
X169057999Y-71832000D01*
X168802000Y-71832000D01*
X168802001Y-70445776D01*
X168569024Y-70445776D01*
X168215451Y-70522691D01*
X167997721Y-70662618D01*
X167839517Y-70845195D01*
X167827692Y-70830140D01*
X167649846Y-70675814D01*
X167446027Y-70557901D01*
X167223587Y-70480657D01*
X166990555Y-70446869D01*
X166755338Y-70457756D01*
X166526423Y-70512925D01*
X166312070Y-70610385D01*
X166120013Y-70746620D01*
X165957183Y-70916715D01*
X165929444Y-70959676D01*
X165827692Y-70830140D01*
X165649846Y-70675814D01*
X165446027Y-70557901D01*
X165223587Y-70480657D01*
X164990555Y-70446869D01*
X164755338Y-70457756D01*
X164526423Y-70512925D01*
X164312070Y-70610385D01*
X164120013Y-70746620D01*
X163957183Y-70916715D01*
X163929444Y-70959676D01*
X163827692Y-70830140D01*
X163649846Y-70675814D01*
X163446027Y-70557901D01*
X163223587Y-70480657D01*
X162990555Y-70446869D01*
X162755338Y-70457756D01*
X162526423Y-70512925D01*
X162312070Y-70610385D01*
X162120013Y-70746620D01*
X161957183Y-70916715D01*
X161829455Y-71114531D01*
X161740272Y-71335820D01*
X161696000Y-71641159D01*
X159332680Y-71641159D01*
X159279047Y-71629759D01*
X159023653Y-71645827D01*
X158781990Y-71729984D01*
X158571860Y-71876028D01*
X158408745Y-72073200D01*
X158304661Y-72306975D01*
X158267279Y-72560127D01*
X152122477Y-72560127D01*
X152124231Y-72392699D01*
X152055234Y-72145580D01*
X151922672Y-71926694D01*
X151736130Y-71751520D01*
X151646100Y-71704453D01*
X151741789Y-71645585D01*
X151902323Y-71494834D01*
X152029265Y-71314883D01*
X152117429Y-71113082D01*
X152163262Y-70897458D01*
X152163684Y-70776197D01*
X152990418Y-70776197D01*
X153011908Y-70995365D01*
X153077029Y-71205736D01*
X153183120Y-71398716D01*
X153325849Y-71566422D01*
X153499384Y-71702002D01*
X153696638Y-71799919D01*
X153909551Y-71856174D01*
X154129427Y-71868467D01*
X154347284Y-71836297D01*
X154554222Y-71760977D01*
X154741789Y-71645585D01*
X154902323Y-71494834D01*
X155029265Y-71314883D01*
X155117429Y-71113082D01*
X155163262Y-70897458D01*
X155164055Y-70670108D01*
X155119729Y-70454169D01*
X155032975Y-70251757D01*
X154907294Y-70070924D01*
X154747817Y-69919056D01*
X154561060Y-69802358D01*
X154354652Y-69725595D01*
X154137024Y-69691905D01*
X153917067Y-69702663D01*
X153703768Y-69757429D01*
X153505835Y-69853966D01*
X153331357Y-69988333D01*
X153187462Y-70155037D01*
X153080025Y-70347272D01*
X153013437Y-70557184D01*
X152990418Y-70776197D01*
X152163684Y-70776197D01*
X152164055Y-70670108D01*
X152119729Y-70454169D01*
X152032975Y-70251757D01*
X151907294Y-70070924D01*
X151747817Y-69919056D01*
X151561060Y-69802358D01*
X151354652Y-69725595D01*
X151137024Y-69691905D01*
X150917067Y-69702663D01*
X150703768Y-69757429D01*
X150505835Y-69853966D01*
X150331357Y-69988333D01*
X150187462Y-70155037D01*
X150080025Y-70347272D01*
X150013437Y-70557184D01*
X149990418Y-70776197D01*
X150011908Y-70995365D01*
X150077029Y-71205736D01*
X150183120Y-71398716D01*
X150325849Y-71566422D01*
X150499384Y-71702002D01*
X150634096Y-71768873D01*
X150551860Y-71826028D01*
X150388745Y-72023200D01*
X150284661Y-72256975D01*
X150247279Y-72510127D01*
X150279352Y-72764008D01*
X150378516Y-72999910D01*
X150490955Y-73141773D01*
X150369108Y-73116761D01*
X150146726Y-73115209D01*
X149928277Y-73156880D01*
X149722083Y-73240188D01*
X149535996Y-73361959D01*
X149377107Y-73517555D01*
X149251465Y-73701051D01*
X149163857Y-73905455D01*
X149117620Y-74122984D01*
X149114515Y-74345349D01*
X139787998Y-74345349D01*
X139804649Y-74325646D01*
X139967863Y-74068463D01*
X140094663Y-73791507D01*
X140182702Y-73499906D01*
X140230456Y-73198399D01*
X140234122Y-72848356D01*
X140192692Y-72545916D01*
X140110780Y-72252534D01*
X139989808Y-71972984D01*
X139832015Y-71712438D01*
X139640323Y-71475718D01*
X139418277Y-71267204D01*
X139169988Y-71090753D01*
X138900049Y-70949633D01*
X138613454Y-70846452D01*
X138315509Y-70783121D01*
X138011724Y-70760813D01*
X137707723Y-70779939D01*
X137409131Y-70840147D01*
X137121472Y-70940319D01*
X136850070Y-71078606D01*
X136599946Y-71252446D01*
X136375729Y-71458624D01*
X136181568Y-71693324D01*
X136021057Y-71952203D01*
X135897163Y-72230471D01*
X135812183Y-72522979D01*
X135767685Y-72824313D01*
X135764496Y-73128898D01*
X134634000Y-73128898D01*
X134634000Y-73065158D01*
X134637520Y-73048161D01*
X134638414Y-73032168D01*
X134656629Y-72666289D01*
X134706304Y-72335871D01*
X134788547Y-72012038D01*
X134902555Y-71697950D01*
X135047186Y-71396759D01*
X135221022Y-71111408D01*
X135422344Y-70844730D01*
X135649139Y-70599385D01*
X135899190Y-70377770D01*
X136170021Y-70182082D01*
X136458946Y-70014260D01*
X136763120Y-69875960D01*
X137079498Y-69768565D01*
X137404993Y-69693120D01*
X137739711Y-69649945D01*
X138034065Y-69638378D01*
X138057921Y-69634000D01*
X175526070Y-69634000D01*
X175473768Y-69647429D01*
G37*
D24*
X175473768Y-69647429D02*
X175275835Y-69743966D01*
X175101357Y-69878333D01*
X174957462Y-70045037D01*
X174850025Y-70237272D01*
X174783437Y-70447184D01*
X174760418Y-70666197D01*
X174781908Y-70885365D01*
X174847029Y-71095736D01*
X174953120Y-71288716D01*
X175095849Y-71456422D01*
X175269384Y-71592002D01*
X175466638Y-71689919D01*
X175679551Y-71746174D01*
X175899427Y-71758467D01*
X176117284Y-71726297D01*
X176324222Y-71650977D01*
X176511789Y-71535585D01*
X176672323Y-71384834D01*
X176799265Y-71204883D01*
X176887429Y-71003082D01*
X176933262Y-70787458D01*
X176934055Y-70560108D01*
X176889729Y-70344169D01*
X176802975Y-70141757D01*
X176677294Y-69960924D01*
X176517817Y-69809056D01*
X176331060Y-69692358D01*
X176174141Y-69634000D01*
X178526070Y-69634000D01*
X178473768Y-69647429D01*
X178275835Y-69743966D01*
X178101357Y-69878333D01*
X177957462Y-70045037D01*
X177850025Y-70237272D01*
X177783437Y-70447184D01*
X177760418Y-70666197D01*
X177781908Y-70885365D01*
X177847029Y-71095736D01*
X177953120Y-71288716D01*
X178095849Y-71456422D01*
X178269384Y-71592002D01*
X178466638Y-71689919D01*
X178679551Y-71746174D01*
X178899427Y-71758467D01*
X179117284Y-71726297D01*
X179324222Y-71650977D01*
X179511789Y-71535585D01*
X179672323Y-71384834D01*
X179799265Y-71204883D01*
X179832854Y-71128000D01*
X196140776Y-71128000D01*
X196140776Y-71635976D01*
X196217691Y-71989549D01*
X196357618Y-72207279D01*
X196549730Y-72373745D01*
X196780958Y-72479343D01*
X197023558Y-72514224D01*
X197252000Y-72514224D01*
X197252000Y-71128000D01*
X196140776Y-71128000D01*
X179832854Y-71128000D01*
X179887429Y-71003082D01*
X179933262Y-70787458D01*
X179934055Y-70560108D01*
X179889729Y-70344169D01*
X179802975Y-70141757D01*
X179677294Y-69960924D01*
X179517817Y-69809056D01*
X179331060Y-69692358D01*
X179174141Y-69634000D01*
X196554492Y-69634000D01*
X196447721Y-69702618D01*
X196281255Y-69894730D01*
X196175657Y-70125958D01*
X196140776Y-70368558D01*
X196140776Y-70872000D01*
X197508000Y-70872000D01*
X197508000Y-72514224D01*
X197740976Y-72514224D01*
X198094549Y-72437309D01*
X198312279Y-72297382D01*
X198470483Y-72114805D01*
X198482309Y-72129860D01*
X198660155Y-72284186D01*
X198863974Y-72402099D01*
X199086414Y-72479343D01*
X199319446Y-72513131D01*
X199554663Y-72502244D01*
X199783578Y-72447075D01*
X199997931Y-72349615D01*
X200189988Y-72213380D01*
X200352818Y-72043285D01*
X200480546Y-71845468D01*
X200569728Y-71624179D01*
X200614000Y-71318840D01*
X200614000Y-70666189D01*
X200597247Y-70490595D01*
X200530961Y-70264648D01*
X200423146Y-70055312D01*
X200277692Y-69870140D01*
X200099846Y-69715814D01*
X199958425Y-69634000D01*
X210934842Y-69634000D01*
X210951839Y-69637520D01*
X210967832Y-69638414D01*
X211333711Y-69656629D01*
X211664129Y-69706304D01*
X211987962Y-69788547D01*
X212302050Y-69902555D01*
X212603241Y-70047186D01*
X212888592Y-70221022D01*
X213155270Y-70422344D01*
X213400615Y-70649139D01*
X213622230Y-70899190D01*
X213817918Y-71170021D01*
X213985740Y-71458946D01*
X214124040Y-71763120D01*
X214231435Y-72079498D01*
X214306880Y-72404993D01*
X214350055Y-72739711D01*
X214361622Y-73034065D01*
X214366000Y-73057921D01*
X214366001Y-114934837D01*
X214362480Y-114951838D01*
X214361586Y-114967832D01*
X214343371Y-115333709D01*
X214293695Y-115664132D01*
X214211453Y-115987962D01*
X214097445Y-116302049D01*
X213952814Y-116603242D01*
X213778974Y-116888597D01*
X213577666Y-117155258D01*
X213350854Y-117400621D01*
X213100816Y-117622225D01*
X212829968Y-117817926D01*
X212541058Y-117985738D01*
X212236880Y-118124040D01*
X211920505Y-118231434D01*
X211595007Y-118306880D01*
X211260287Y-118350056D01*
X210965934Y-118361622D01*
X210942078Y-118366000D01*
X204825240Y-118366000D01*
X204864877Y-118342512D01*
X205056807Y-118179455D01*
X205218521Y-117986391D01*
X205345393Y-117768840D01*
X205433796Y-117533022D01*
X205486508Y-117258000D01*
X202502668Y-117258000D01*
X202590096Y-117609970D01*
X202691123Y-117840662D01*
X202829575Y-118051033D01*
X203001493Y-118235071D01*
X203173673Y-118366000D01*
X201325240Y-118366000D01*
X201364877Y-118342512D01*
X201556807Y-118179455D01*
X201718521Y-117986391D01*
X201845393Y-117768840D01*
X201933796Y-117533022D01*
X201986508Y-117258000D01*
X199002668Y-117258000D01*
X199090096Y-117609970D01*
X199191123Y-117840662D01*
X199329575Y-118051033D01*
X199501493Y-118235071D01*
X199673673Y-118366000D01*
X197825240Y-118366000D01*
X197864877Y-118342512D01*
X198056807Y-118179455D01*
X198218521Y-117986391D01*
X198345393Y-117768840D01*
X198433796Y-117533022D01*
X198486508Y-117258000D01*
X195502668Y-117258000D01*
X195590096Y-117609970D01*
X195691123Y-117840662D01*
X195829575Y-118051033D01*
X196001493Y-118235071D01*
X196173673Y-118366000D01*
X194325240Y-118366000D01*
X194364877Y-118342512D01*
X194556807Y-118179455D01*
X194718521Y-117986391D01*
X194845393Y-117768840D01*
X194933796Y-117533022D01*
X194986508Y-117258000D01*
X192002668Y-117258000D01*
X192090096Y-117609970D01*
X192191123Y-117840662D01*
X192329575Y-118051033D01*
X192501493Y-118235071D01*
X192673673Y-118366000D01*
X176778365Y-118366000D01*
X176834877Y-118332512D01*
X177026807Y-118169455D01*
X177188521Y-117976391D01*
X177315393Y-117758840D01*
X177403796Y-117523022D01*
X177456508Y-117248000D01*
X174472668Y-117248000D01*
X174560096Y-117599970D01*
X174661123Y-117830662D01*
X174799575Y-118041033D01*
X174971493Y-118225071D01*
X175156824Y-118366000D01*
X173278365Y-118366000D01*
X173334877Y-118332512D01*
X173526807Y-118169455D01*
X173688521Y-117976391D01*
X173815393Y-117758840D01*
X173903796Y-117523022D01*
X173956508Y-117248000D01*
X170972668Y-117248000D01*
X171060096Y-117599970D01*
X171161123Y-117830662D01*
X171299575Y-118041033D01*
X171471493Y-118225071D01*
X171656824Y-118366000D01*
X169778365Y-118366000D01*
X169834877Y-118332512D01*
X170026807Y-118169455D01*
X170188521Y-117976391D01*
X170315393Y-117758840D01*
X170403796Y-117523022D01*
X170456508Y-117248000D01*
X167472668Y-117248000D01*
X167560096Y-117599970D01*
X167661123Y-117830662D01*
X167799575Y-118041033D01*
X167971493Y-118225071D01*
X168156824Y-118366000D01*
X166278365Y-118366000D01*
X166334877Y-118332512D01*
X166526807Y-118169455D01*
X166688521Y-117976391D01*
X166815393Y-117758840D01*
X166903796Y-117523022D01*
X166956508Y-117248000D01*
X163972668Y-117248000D01*
X164060096Y-117599970D01*
X164161123Y-117830662D01*
X164299575Y-118041033D01*
X164471493Y-118225071D01*
X164656824Y-118366000D01*
X138065158Y-118366000D01*
X138048161Y-118362480D01*
X138032168Y-118361586D01*
X137666291Y-118343371D01*
X137335868Y-118293695D01*
X137012038Y-118211453D01*
X136697951Y-118097445D01*
X136396758Y-117952814D01*
X136111403Y-117778974D01*
X135844742Y-117577666D01*
X135599379Y-117350854D01*
X135377775Y-117100816D01*
X135182074Y-116829968D01*
X135014262Y-116541058D01*
X134875960Y-116236880D01*
X134768566Y-115920505D01*
X134693120Y-115595007D01*
X134649944Y-115260287D01*
X134644782Y-115128898D01*
X135764496Y-115128898D01*
X135802672Y-115431098D01*
X135881510Y-115725321D01*
X135999547Y-116006122D01*
X136154602Y-116268307D01*
X136343805Y-116507021D01*
X136563655Y-116717849D01*
X136810083Y-116896890D01*
X137078530Y-117040830D01*
X137364028Y-117147006D01*
X137661294Y-117213452D01*
X137964828Y-117238941D01*
X138269012Y-117223000D01*
X138568220Y-117165923D01*
X138856911Y-117068767D01*
X138991412Y-117002000D01*
X191997193Y-117002000D01*
X194983565Y-117002000D01*
X195497193Y-117002000D01*
X198483565Y-117002000D01*
X198997193Y-117002000D01*
X201983565Y-117002000D01*
X202497193Y-117002000D01*
X205483565Y-117002000D01*
X205441922Y-116757094D01*
X205358477Y-116519476D01*
X205236188Y-116299315D01*
X205078554Y-116102907D01*
X204890080Y-115935866D01*
X204767913Y-115859971D01*
X204864877Y-115802512D01*
X205056807Y-115639455D01*
X205218521Y-115446391D01*
X205345393Y-115228840D01*
X205382859Y-115128898D01*
X208684496Y-115128898D01*
X208722672Y-115431098D01*
X208801510Y-115725321D01*
X208919547Y-116006122D01*
X209074602Y-116268307D01*
X209263805Y-116507021D01*
X209483655Y-116717849D01*
X209730083Y-116896890D01*
X209998530Y-117040830D01*
X210284028Y-117147006D01*
X210581294Y-117213452D01*
X210884828Y-117238941D01*
X211189012Y-117223000D01*
X211488220Y-117165923D01*
X211776911Y-117068767D01*
X212049747Y-116933330D01*
X212301678Y-116762119D01*
X212528041Y-116558300D01*
X212724649Y-116325646D01*
X212887863Y-116068463D01*
X213014663Y-115791507D01*
X213102702Y-115499906D01*
X213150456Y-115198399D01*
X213154122Y-114848356D01*
X213112692Y-114545916D01*
X213030780Y-114252534D01*
X212909808Y-113972984D01*
X212752015Y-113712438D01*
X212560323Y-113475718D01*
X212338277Y-113267204D01*
X212089988Y-113090753D01*
X211820049Y-112949633D01*
X211533454Y-112846452D01*
X211235509Y-112783121D01*
X210931724Y-112760813D01*
X210627723Y-112779939D01*
X210329131Y-112840147D01*
X210041472Y-112940319D01*
X209770070Y-113078606D01*
X209519946Y-113252446D01*
X209295729Y-113458624D01*
X209101568Y-113693324D01*
X208941057Y-113952203D01*
X208817163Y-114230471D01*
X208732183Y-114522979D01*
X208687685Y-114824313D01*
X208684496Y-115128898D01*
X205382859Y-115128898D01*
X205433796Y-114993022D01*
X205481318Y-114745082D01*
X205484240Y-114465974D01*
X205441922Y-114217094D01*
X205358477Y-113979476D01*
X205236188Y-113759315D01*
X205078554Y-113562907D01*
X205011093Y-113503117D01*
X205167512Y-113461205D01*
X205343165Y-113313815D01*
X205454956Y-113120186D01*
X205491837Y-112911024D01*
X205491837Y-111183412D01*
X205411205Y-110882489D01*
X205263815Y-110706835D01*
X205070186Y-110595044D01*
X204861024Y-110558163D01*
X203133412Y-110558163D01*
X202832489Y-110638795D01*
X202656835Y-110786185D01*
X202545044Y-110979814D01*
X202508163Y-111188976D01*
X202508163Y-112916588D01*
X202588795Y-113217512D01*
X202736185Y-113393165D01*
X202929814Y-113504956D01*
X202977090Y-113513292D01*
X202849120Y-113644656D01*
X202706293Y-113852083D01*
X202600457Y-114080609D01*
X202534639Y-114323699D01*
X202510720Y-114574404D01*
X202529384Y-114825554D01*
X202590097Y-115069970D01*
X202691123Y-115300662D01*
X202829575Y-115511033D01*
X203001493Y-115695071D01*
X203201960Y-115847510D01*
X203224239Y-115859133D01*
X203024854Y-116004261D01*
X202849120Y-116184656D01*
X202706293Y-116392083D01*
X202600457Y-116620609D01*
X202497193Y-117002000D01*
X201983565Y-117002000D01*
X201941922Y-116757094D01*
X201858477Y-116519476D01*
X201736188Y-116299315D01*
X201578554Y-116102907D01*
X201390080Y-115935866D01*
X201267913Y-115859971D01*
X201364877Y-115802512D01*
X201556807Y-115639455D01*
X201718521Y-115446391D01*
X201845393Y-115228840D01*
X201933796Y-114993022D01*
X201981318Y-114745082D01*
X201984240Y-114465974D01*
X201941922Y-114217094D01*
X201858477Y-113979476D01*
X201736188Y-113759315D01*
X201578554Y-113562907D01*
X201511093Y-113503117D01*
X201667512Y-113461205D01*
X201843165Y-113313815D01*
X201954956Y-113120186D01*
X201991837Y-112911024D01*
X201991837Y-111183412D01*
X201911205Y-110882489D01*
X201763815Y-110706835D01*
X201570186Y-110595044D01*
X201361024Y-110558163D01*
X199633412Y-110558163D01*
X199332489Y-110638795D01*
X199156835Y-110786185D01*
X199045044Y-110979814D01*
X199008163Y-111188976D01*
X199008163Y-112916588D01*
X199088795Y-113217512D01*
X199236185Y-113393165D01*
X199429814Y-113504956D01*
X199477090Y-113513292D01*
X199349120Y-113644656D01*
X199206293Y-113852083D01*
X199100457Y-114080609D01*
X199034639Y-114323699D01*
X199010720Y-114574404D01*
X199029384Y-114825554D01*
X199090097Y-115069970D01*
X199191123Y-115300662D01*
X199329575Y-115511033D01*
X199501493Y-115695071D01*
X199701960Y-115847510D01*
X199724239Y-115859133D01*
X199524854Y-116004261D01*
X199349120Y-116184656D01*
X199206293Y-116392083D01*
X199100457Y-116620609D01*
X198997193Y-117002000D01*
X198483565Y-117002000D01*
X198441922Y-116757094D01*
X198358477Y-116519476D01*
X198236188Y-116299315D01*
X198078554Y-116102907D01*
X197890080Y-115935866D01*
X197767913Y-115859971D01*
X197864877Y-115802512D01*
X198056807Y-115639455D01*
X198218521Y-115446391D01*
X198345393Y-115228840D01*
X198433796Y-114993022D01*
X198481318Y-114745082D01*
X198484240Y-114465974D01*
X198441922Y-114217094D01*
X198358477Y-113979476D01*
X198236188Y-113759315D01*
X198078554Y-113562907D01*
X198011093Y-113503117D01*
X198167512Y-113461205D01*
X198343165Y-113313815D01*
X198454956Y-113120186D01*
X198491837Y-112911024D01*
X198491837Y-111183412D01*
X198411205Y-110882489D01*
X198263815Y-110706835D01*
X198070186Y-110595044D01*
X197861024Y-110558163D01*
X196133412Y-110558163D01*
X195832489Y-110638795D01*
X195656835Y-110786185D01*
X195545044Y-110979814D01*
X195508163Y-111188976D01*
X195508163Y-112916588D01*
X195588795Y-113217512D01*
X195736185Y-113393165D01*
X195929814Y-113504956D01*
X195977090Y-113513292D01*
X195849120Y-113644656D01*
X195706293Y-113852083D01*
X195600457Y-114080609D01*
X195534639Y-114323699D01*
X195510720Y-114574404D01*
X195529384Y-114825554D01*
X195590097Y-115069970D01*
X195691123Y-115300662D01*
X195829575Y-115511033D01*
X196001493Y-115695071D01*
X196201960Y-115847510D01*
X196224239Y-115859133D01*
X196024854Y-116004261D01*
X195849120Y-116184656D01*
X195706293Y-116392083D01*
X195600457Y-116620609D01*
X195497193Y-117002000D01*
X194983565Y-117002000D01*
X194941922Y-116757094D01*
X194858477Y-116519476D01*
X194736188Y-116299315D01*
X194578554Y-116102907D01*
X194390080Y-115935866D01*
X194267913Y-115859971D01*
X194364877Y-115802512D01*
X194556807Y-115639455D01*
X194718521Y-115446391D01*
X194845393Y-115228840D01*
X194933796Y-114993022D01*
X194981318Y-114745082D01*
X194984240Y-114465974D01*
X194941922Y-114217094D01*
X194858477Y-113979476D01*
X194736188Y-113759315D01*
X194578554Y-113562907D01*
X194511093Y-113503117D01*
X194667512Y-113461205D01*
X194843165Y-113313815D01*
X194954956Y-113120186D01*
X194991837Y-112911024D01*
X194991837Y-111183412D01*
X194911205Y-110882489D01*
X194763815Y-110706835D01*
X194570186Y-110595044D01*
X194361024Y-110558163D01*
X192633412Y-110558163D01*
X192332489Y-110638795D01*
X192156835Y-110786185D01*
X192045044Y-110979814D01*
X192008163Y-111188976D01*
X192008163Y-112916588D01*
X192088795Y-113217512D01*
X192236185Y-113393165D01*
X192429814Y-113504956D01*
X192477090Y-113513292D01*
X192349120Y-113644656D01*
X192206293Y-113852083D01*
X192100457Y-114080609D01*
X192034639Y-114323699D01*
X192010720Y-114574404D01*
X192029384Y-114825554D01*
X192090097Y-115069970D01*
X192191123Y-115300662D01*
X192329575Y-115511033D01*
X192501493Y-115695071D01*
X192701960Y-115847510D01*
X192724239Y-115859133D01*
X192524854Y-116004261D01*
X192349120Y-116184656D01*
X192206293Y-116392083D01*
X192100457Y-116620609D01*
X191997193Y-117002000D01*
X138991412Y-117002000D01*
X139011557Y-116992000D01*
X163967193Y-116992000D01*
X166953565Y-116992000D01*
X167467193Y-116992000D01*
X170453565Y-116992000D01*
X170967193Y-116992000D01*
X173953565Y-116992000D01*
X174467193Y-116992000D01*
X177453565Y-116992000D01*
X177411922Y-116747094D01*
X177328477Y-116509476D01*
X177206188Y-116289315D01*
X177048554Y-116092907D01*
X176860080Y-115925866D01*
X176737913Y-115849971D01*
X176834877Y-115792512D01*
X177026807Y-115629455D01*
X177188521Y-115436391D01*
X177315393Y-115218840D01*
X177403796Y-114983022D01*
X177451318Y-114735082D01*
X177454240Y-114455974D01*
X177411922Y-114207094D01*
X177328477Y-113969476D01*
X177206188Y-113749315D01*
X177048554Y-113552907D01*
X176981093Y-113493117D01*
X177137512Y-113451205D01*
X177313165Y-113303815D01*
X177424956Y-113110186D01*
X177461837Y-112901024D01*
X177461837Y-111173412D01*
X177381205Y-110872489D01*
X177233815Y-110696835D01*
X177040186Y-110585044D01*
X176831024Y-110548163D01*
X175103412Y-110548163D01*
X174802489Y-110628795D01*
X174626835Y-110776185D01*
X174515044Y-110969814D01*
X174478163Y-111178976D01*
X174478163Y-112906588D01*
X174558795Y-113207512D01*
X174706185Y-113383165D01*
X174899814Y-113494956D01*
X174947090Y-113503292D01*
X174819120Y-113634656D01*
X174676293Y-113842083D01*
X174570457Y-114070609D01*
X174504639Y-114313699D01*
X174480720Y-114564404D01*
X174499384Y-114815554D01*
X174560097Y-115059970D01*
X174661123Y-115290662D01*
X174799575Y-115501033D01*
X174971493Y-115685071D01*
X175171960Y-115837510D01*
X175194239Y-115849133D01*
X174994854Y-115994261D01*
X174819120Y-116174656D01*
X174676293Y-116382083D01*
X174570457Y-116610609D01*
X174467193Y-116992000D01*
X173953565Y-116992000D01*
X173911922Y-116747094D01*
X173828477Y-116509476D01*
X173706188Y-116289315D01*
X173548554Y-116092907D01*
X173360080Y-115925866D01*
X173237913Y-115849971D01*
X173334877Y-115792512D01*
X173526807Y-115629455D01*
X173688521Y-115436391D01*
X173815393Y-115218840D01*
X173903796Y-114983022D01*
X173951318Y-114735082D01*
X173954240Y-114455974D01*
X173911922Y-114207094D01*
X173828477Y-113969476D01*
X173706188Y-113749315D01*
X173548554Y-113552907D01*
X173481093Y-113493117D01*
X173637512Y-113451205D01*
X173813165Y-113303815D01*
X173924956Y-113110186D01*
X173961837Y-112901024D01*
X173961837Y-111173412D01*
X173881205Y-110872489D01*
X173733815Y-110696835D01*
X173540186Y-110585044D01*
X173331024Y-110548163D01*
X171603412Y-110548163D01*
X171302489Y-110628795D01*
X171126835Y-110776185D01*
X171015044Y-110969814D01*
X170978163Y-111178976D01*
X170978163Y-112906588D01*
X171058795Y-113207512D01*
X171206185Y-113383165D01*
X171399814Y-113494956D01*
X171447090Y-113503292D01*
X171319120Y-113634656D01*
X171176293Y-113842083D01*
X171070457Y-114070609D01*
X171004639Y-114313699D01*
X170980720Y-114564404D01*
X170999384Y-114815554D01*
X171060097Y-115059970D01*
X171161123Y-115290662D01*
X171299575Y-115501033D01*
X171471493Y-115685071D01*
X171671960Y-115837510D01*
X171694239Y-115849133D01*
X171494854Y-115994261D01*
X171319120Y-116174656D01*
X171176293Y-116382083D01*
X171070457Y-116610609D01*
X170967193Y-116992000D01*
X170453565Y-116992000D01*
X170411922Y-116747094D01*
X170328477Y-116509476D01*
X170206188Y-116289315D01*
X170048554Y-116092907D01*
X169860080Y-115925866D01*
X169737913Y-115849971D01*
X169834877Y-115792512D01*
X170026807Y-115629455D01*
X170188521Y-115436391D01*
X170315393Y-115218840D01*
X170403796Y-114983022D01*
X170451318Y-114735082D01*
X170454240Y-114455974D01*
X170411922Y-114207094D01*
X170328477Y-113969476D01*
X170206188Y-113749315D01*
X170048554Y-113552907D01*
X169981093Y-113493117D01*
X170137512Y-113451205D01*
X170313165Y-113303815D01*
X170424956Y-113110186D01*
X170461837Y-112901024D01*
X170461837Y-111173412D01*
X170381205Y-110872489D01*
X170233815Y-110696835D01*
X170040186Y-110585044D01*
X169831024Y-110548163D01*
X168103412Y-110548163D01*
X167802489Y-110628795D01*
X167626835Y-110776185D01*
X167515044Y-110969814D01*
X167478163Y-111178976D01*
X167478163Y-112906588D01*
X167558795Y-113207512D01*
X167706185Y-113383165D01*
X167899814Y-113494956D01*
X167947090Y-113503292D01*
X167819120Y-113634656D01*
X167676293Y-113842083D01*
X167570457Y-114070609D01*
X167504639Y-114313699D01*
X167480720Y-114564404D01*
X167499384Y-114815554D01*
X167560097Y-115059970D01*
X167661123Y-115290662D01*
X167799575Y-115501033D01*
X167971493Y-115685071D01*
X168171960Y-115837510D01*
X168194239Y-115849133D01*
X167994854Y-115994261D01*
X167819120Y-116174656D01*
X167676293Y-116382083D01*
X167570457Y-116610609D01*
X167467193Y-116992000D01*
X166953565Y-116992000D01*
X166911922Y-116747094D01*
X166828477Y-116509476D01*
X166706188Y-116289315D01*
X166548554Y-116092907D01*
X166360080Y-115925866D01*
X166237913Y-115849971D01*
X166334877Y-115792512D01*
X166526807Y-115629455D01*
X166688521Y-115436391D01*
X166815393Y-115218840D01*
X166903796Y-114983022D01*
X166951318Y-114735082D01*
X166954240Y-114455974D01*
X166911922Y-114207094D01*
X166828477Y-113969476D01*
X166706188Y-113749315D01*
X166548554Y-113552907D01*
X166481093Y-113493117D01*
X166637512Y-113451205D01*
X166813165Y-113303815D01*
X166924956Y-113110186D01*
X166961837Y-112901024D01*
X166961837Y-111173412D01*
X166881205Y-110872489D01*
X166733815Y-110696835D01*
X166540186Y-110585044D01*
X166331024Y-110548163D01*
X164603412Y-110548163D01*
X164302489Y-110628795D01*
X164126835Y-110776185D01*
X164015044Y-110969814D01*
X163978163Y-111178976D01*
X163978163Y-112906588D01*
X164058795Y-113207512D01*
X164206185Y-113383165D01*
X164399814Y-113494956D01*
X164447090Y-113503292D01*
X164319120Y-113634656D01*
X164176293Y-113842083D01*
X164070457Y-114070609D01*
X164004639Y-114313699D01*
X163980720Y-114564404D01*
X163999384Y-114815554D01*
X164060097Y-115059970D01*
X164161123Y-115290662D01*
X164299575Y-115501033D01*
X164471493Y-115685071D01*
X164671960Y-115837510D01*
X164694239Y-115849133D01*
X164494854Y-115994261D01*
X164319120Y-116174656D01*
X164176293Y-116382083D01*
X164070457Y-116610609D01*
X163967193Y-116992000D01*
X139011557Y-116992000D01*
X139129747Y-116933330D01*
X139381678Y-116762119D01*
X139608041Y-116558300D01*
X139804649Y-116325646D01*
X139967863Y-116068463D01*
X140094663Y-115791507D01*
X140182702Y-115499906D01*
X140230456Y-115198399D01*
X140234122Y-114848356D01*
X140192692Y-114545916D01*
X140110780Y-114252534D01*
X140006328Y-114011159D01*
X146296000Y-114011159D01*
X146296000Y-114663810D01*
X146312753Y-114839404D01*
X146379038Y-115065351D01*
X146486854Y-115274688D01*
X146632308Y-115459860D01*
X146810154Y-115614186D01*
X147013973Y-115732099D01*
X147236413Y-115809343D01*
X147469445Y-115843131D01*
X147704662Y-115832244D01*
X147933577Y-115777075D01*
X148147929Y-115679615D01*
X148339988Y-115543380D01*
X148502818Y-115373285D01*
X148530557Y-115330325D01*
X148632308Y-115459860D01*
X148810154Y-115614186D01*
X149013973Y-115732099D01*
X149236413Y-115809343D01*
X149469445Y-115843131D01*
X149704662Y-115832244D01*
X149933577Y-115777075D01*
X150147929Y-115679615D01*
X150339988Y-115543380D01*
X150502818Y-115373285D01*
X150530557Y-115330325D01*
X150632308Y-115459860D01*
X150810154Y-115614186D01*
X151013973Y-115732099D01*
X151236415Y-115809344D01*
X151402000Y-115833346D01*
X151402001Y-114457999D01*
X151402000Y-114457999D01*
X151402000Y-114202001D01*
X151657999Y-114202001D01*
X151658000Y-114202001D01*
X151657999Y-115843489D01*
X151933577Y-115777075D01*
X152147929Y-115679615D01*
X152339988Y-115543380D01*
X152502818Y-115373285D01*
X152530557Y-115330325D01*
X152632308Y-115459860D01*
X152810154Y-115614186D01*
X153013973Y-115732099D01*
X153236413Y-115809343D01*
X153469445Y-115843131D01*
X153704662Y-115832244D01*
X153933577Y-115777075D01*
X154147929Y-115679615D01*
X154339988Y-115543380D01*
X154502818Y-115373285D01*
X154530557Y-115330325D01*
X154632308Y-115459860D01*
X154810154Y-115614186D01*
X155013973Y-115732099D01*
X155236413Y-115809343D01*
X155469445Y-115843131D01*
X155704662Y-115832244D01*
X155933577Y-115777075D01*
X156147929Y-115679615D01*
X156339988Y-115543380D01*
X156442631Y-115436157D01*
X156507618Y-115537279D01*
X156699730Y-115703745D01*
X156930958Y-115809343D01*
X157173558Y-115844224D01*
X157890976Y-115844224D01*
X158244549Y-115767309D01*
X158462279Y-115627382D01*
X158628745Y-115435270D01*
X158734343Y-115204042D01*
X158769224Y-114961442D01*
X158769224Y-113694024D01*
X158692309Y-113340451D01*
X158552382Y-113122721D01*
X158360270Y-112956255D01*
X158129042Y-112850657D01*
X157886442Y-112815776D01*
X157169024Y-112815776D01*
X156815451Y-112892691D01*
X156597721Y-113032618D01*
X156439517Y-113215195D01*
X156427692Y-113200140D01*
X156249846Y-113045814D01*
X156239025Y-113039554D01*
X156236776Y-113025355D01*
X156210222Y-112973240D01*
X156192149Y-112917618D01*
X156157775Y-112870306D01*
X156131220Y-112818188D01*
X156024000Y-112710969D01*
X156024000Y-107429693D01*
X203651326Y-107429693D01*
X203873768Y-107603486D01*
X204132231Y-107752710D01*
X204408948Y-107864511D01*
X204698530Y-107936711D01*
X204995343Y-107967908D01*
X205293609Y-107957492D01*
X205587522Y-107905667D01*
X205871363Y-107813441D01*
X206139606Y-107682611D01*
X206499106Y-107440125D01*
X205070000Y-106011019D01*
X203651326Y-107429693D01*
X156024000Y-107429693D01*
X156024000Y-105830000D01*
X202930789Y-105830000D01*
X202951608Y-106127721D01*
X203013658Y-106419646D01*
X203115734Y-106700095D01*
X203255846Y-106963609D01*
X203466052Y-107252929D01*
X204888981Y-105830000D01*
X205251019Y-105830000D01*
X206667322Y-107246303D01*
X206800658Y-107087396D01*
X206958811Y-106834299D01*
X207080200Y-106561653D01*
X207162464Y-106274767D01*
X207204000Y-105979224D01*
X207204000Y-105680776D01*
X207162464Y-105385233D01*
X207080200Y-105098347D01*
X206958811Y-104825701D01*
X206800658Y-104572604D01*
X206667322Y-104413697D01*
X205251019Y-105830000D01*
X204888981Y-105830000D01*
X203466052Y-104407071D01*
X203255846Y-104696391D01*
X203115734Y-104959905D01*
X203013658Y-105240354D01*
X202951608Y-105532279D01*
X202930789Y-105830000D01*
X156024000Y-105830000D01*
X156024000Y-100780127D01*
X161777279Y-100780127D01*
X161809352Y-101034008D01*
X161908516Y-101269910D01*
X162067466Y-101470456D01*
X162274491Y-101620869D01*
X162514340Y-101710068D01*
X162769341Y-101731480D01*
X163020706Y-101683530D01*
X163249917Y-101569749D01*
X163440086Y-101398520D01*
X163577203Y-101182458D01*
X163651360Y-100936838D01*
X163654231Y-100662699D01*
X163585234Y-100415580D01*
X163452672Y-100196694D01*
X163266130Y-100021520D01*
X163039353Y-99902963D01*
X162789047Y-99849759D01*
X162533653Y-99865827D01*
X162291990Y-99949984D01*
X162081860Y-100096028D01*
X161918745Y-100293200D01*
X161814661Y-100526975D01*
X161777279Y-100780127D01*
X156024000Y-100780127D01*
X156024000Y-96536776D01*
X156250706Y-96493530D01*
X156479917Y-96379749D01*
X156670086Y-96208520D01*
X156807203Y-95992458D01*
X156881360Y-95746838D01*
X156884231Y-95472699D01*
X156862388Y-95394466D01*
X156904340Y-95410068D01*
X157159341Y-95431480D01*
X157363850Y-95392468D01*
X157327279Y-95640127D01*
X157359352Y-95894008D01*
X157458516Y-96129910D01*
X157617466Y-96330456D01*
X157824491Y-96480869D01*
X158064340Y-96570068D01*
X158319341Y-96591480D01*
X158570706Y-96543530D01*
X158799917Y-96429749D01*
X158990086Y-96258520D01*
X159127203Y-96042458D01*
X159201360Y-95796838D01*
X159201710Y-95763398D01*
X159410706Y-95723530D01*
X159639917Y-95609749D01*
X159830086Y-95438520D01*
X159967203Y-95222458D01*
X159986923Y-95157143D01*
X160110706Y-95133530D01*
X160162593Y-95107773D01*
X160224905Y-95153045D01*
X160197279Y-95340127D01*
X160229352Y-95594008D01*
X160328516Y-95829910D01*
X160487466Y-96030456D01*
X160694491Y-96180869D01*
X160934340Y-96270068D01*
X161189341Y-96291480D01*
X161440706Y-96243530D01*
X161669917Y-96129749D01*
X161860086Y-95958520D01*
X161997203Y-95742458D01*
X162071360Y-95496838D01*
X162074231Y-95222699D01*
X162005234Y-94975580D01*
X161872672Y-94756694D01*
X161686130Y-94581520D01*
X161667751Y-94571912D01*
X161681360Y-94526838D01*
X161683798Y-94294000D01*
X165305259Y-94294000D01*
X167209750Y-96198493D01*
X167209751Y-96836091D01*
X167192495Y-96856950D01*
X167088411Y-97090725D01*
X167051029Y-97343877D01*
X167083102Y-97597758D01*
X167182266Y-97833660D01*
X167341216Y-98034206D01*
X167548241Y-98184619D01*
X167788090Y-98273818D01*
X168043091Y-98295230D01*
X168294456Y-98247280D01*
X168523667Y-98133499D01*
X168713836Y-97962270D01*
X168850953Y-97746208D01*
X168925110Y-97500588D01*
X168927981Y-97226449D01*
X168858984Y-96979330D01*
X168777750Y-96845196D01*
X168777750Y-95920293D01*
X168786206Y-95848846D01*
X168767243Y-95745014D01*
X168751549Y-95640624D01*
X168746109Y-95629295D01*
X168742935Y-95611920D01*
X168720467Y-95575895D01*
X168649499Y-95428103D01*
X168584329Y-95357604D01*
X168580988Y-95352245D01*
X168559665Y-95330923D01*
X168489471Y-95254988D01*
X168475774Y-95247032D01*
X168219730Y-94990988D01*
X173366000Y-94990988D01*
X173366000Y-105013546D01*
X173419619Y-105260028D01*
X173519875Y-105416030D01*
X173656533Y-105534445D01*
X173821017Y-105609561D01*
X173990988Y-105634000D01*
X199513546Y-105634000D01*
X199760028Y-105580381D01*
X199916030Y-105480125D01*
X200034445Y-105343467D01*
X200109561Y-105178983D01*
X200134000Y-105009012D01*
X200134000Y-104230307D01*
X203651326Y-104230307D01*
X205070000Y-105648981D01*
X206499106Y-104219875D01*
X206139606Y-103977389D01*
X205871363Y-103846559D01*
X205587522Y-103754333D01*
X205293609Y-103702508D01*
X204995343Y-103692092D01*
X204698530Y-103723289D01*
X204408948Y-103795489D01*
X204132231Y-103907290D01*
X203873768Y-104056514D01*
X203651326Y-104230307D01*
X200134000Y-104230307D01*
X200134000Y-101948976D01*
X200918163Y-101948976D01*
X200918163Y-103576588D01*
X200998795Y-103877512D01*
X201146185Y-104053165D01*
X201339814Y-104164956D01*
X201548976Y-104201837D01*
X203176588Y-104201837D01*
X203477512Y-104121205D01*
X203653165Y-103973815D01*
X203764956Y-103780186D01*
X203801837Y-103571024D01*
X203801837Y-101943412D01*
X203721205Y-101642489D01*
X203573815Y-101466835D01*
X203380186Y-101355044D01*
X203302260Y-101341303D01*
X203377864Y-101277864D01*
X203539150Y-101085651D01*
X203664609Y-100868349D01*
X203750429Y-100632564D01*
X203794000Y-100385459D01*
X203794000Y-100134541D01*
X203750429Y-99887436D01*
X203664609Y-99651651D01*
X203539150Y-99434349D01*
X203392854Y-99260000D01*
X203539150Y-99085651D01*
X203664609Y-98868349D01*
X203750429Y-98632564D01*
X203794000Y-98385459D01*
X203794000Y-98134541D01*
X203750429Y-97887436D01*
X203664609Y-97651651D01*
X203539150Y-97434349D01*
X203377864Y-97242136D01*
X203185651Y-97080850D01*
X203062935Y-97010000D01*
X203294998Y-96876018D01*
X202360000Y-95941019D01*
X201425002Y-96876018D01*
X201657065Y-97010000D01*
X201534349Y-97080850D01*
X201342136Y-97242136D01*
X201180850Y-97434349D01*
X201055391Y-97651651D01*
X200969571Y-97887436D01*
X200926000Y-98134541D01*
X200926000Y-98385459D01*
X200969571Y-98632564D01*
X201055391Y-98868349D01*
X201180850Y-99085651D01*
X201327146Y-99260000D01*
X201180850Y-99434349D01*
X201055391Y-99651651D01*
X200969571Y-99887436D01*
X200926000Y-100134541D01*
X200926000Y-100385459D01*
X200969571Y-100632564D01*
X201055391Y-100868349D01*
X201180850Y-101085651D01*
X201342136Y-101277864D01*
X201427255Y-101349287D01*
X201242489Y-101398795D01*
X201066835Y-101546185D01*
X200955044Y-101739814D01*
X200918163Y-101948976D01*
X200134000Y-101948976D01*
X200134000Y-95634541D01*
X200926000Y-95634541D01*
X200926000Y-95885459D01*
X200969571Y-96132564D01*
X201055391Y-96368350D01*
X201243982Y-96694998D01*
X202178981Y-95760000D01*
X202541019Y-95760000D01*
X203476018Y-96694998D01*
X203664609Y-96368350D01*
X203750429Y-96132564D01*
X203794000Y-95885459D01*
X203794000Y-95634541D01*
X203750429Y-95387436D01*
X203664609Y-95151650D01*
X203476018Y-94825002D01*
X202541019Y-95760000D01*
X202178981Y-95760000D01*
X201243982Y-94825002D01*
X201055391Y-95151650D01*
X200969571Y-95387436D01*
X200926000Y-95634541D01*
X200134000Y-95634541D01*
X200134000Y-94986454D01*
X200080381Y-94739972D01*
X200018693Y-94643982D01*
X201425002Y-94643982D01*
X202360000Y-95578981D01*
X203294998Y-94643982D01*
X202968350Y-94455391D01*
X202732564Y-94369571D01*
X202485459Y-94326000D01*
X202234541Y-94326000D01*
X201987436Y-94369571D01*
X201751650Y-94455391D01*
X201425002Y-94643982D01*
X200018693Y-94643982D01*
X199980125Y-94583970D01*
X199843467Y-94465555D01*
X199678983Y-94390439D01*
X199509012Y-94366000D01*
X173986454Y-94366000D01*
X173739972Y-94419619D01*
X173583970Y-94519875D01*
X173465555Y-94656533D01*
X173390439Y-94821017D01*
X173366000Y-94990988D01*
X168219730Y-94990988D01*
X167518435Y-94289693D01*
X203651326Y-94289693D01*
X203873768Y-94463486D01*
X204132231Y-94612710D01*
X204408948Y-94724511D01*
X204698530Y-94796711D01*
X204995343Y-94827908D01*
X205293609Y-94817492D01*
X205587522Y-94765667D01*
X205871363Y-94673441D01*
X206139606Y-94542611D01*
X206499106Y-94300125D01*
X205070000Y-92871019D01*
X203651326Y-94289693D01*
X167518435Y-94289693D01*
X166414000Y-93185259D01*
X166414000Y-93019459D01*
X191551560Y-93019459D01*
X191906235Y-93230887D01*
X192150711Y-93327682D01*
X192407520Y-93384145D01*
X192670052Y-93398822D01*
X192931554Y-93371338D01*
X193185297Y-93302397D01*
X193424754Y-93193775D01*
X193699930Y-93010949D01*
X192630000Y-91941019D01*
X191551560Y-93019459D01*
X166414000Y-93019459D01*
X166414000Y-91742834D01*
X190990778Y-91742834D01*
X191009120Y-92005135D01*
X191069163Y-92261130D01*
X191169362Y-92504232D01*
X191373282Y-92835699D01*
X192448981Y-91760000D01*
X192811019Y-91760000D01*
X193873509Y-92822489D01*
X193977021Y-92690000D01*
X202930789Y-92690000D01*
X202951608Y-92987721D01*
X203013658Y-93279646D01*
X203115734Y-93560095D01*
X203255846Y-93823609D01*
X203466052Y-94112929D01*
X204888981Y-92690000D01*
X205251019Y-92690000D01*
X206667322Y-94106303D01*
X206800658Y-93947396D01*
X206958811Y-93694299D01*
X207080200Y-93421653D01*
X207162464Y-93134767D01*
X207204000Y-92839224D01*
X207204000Y-92540776D01*
X207162464Y-92245233D01*
X207080200Y-91958347D01*
X206958811Y-91685701D01*
X206800658Y-91432604D01*
X206667322Y-91273697D01*
X205251019Y-92690000D01*
X204888981Y-92690000D01*
X203466052Y-91267071D01*
X203255846Y-91556391D01*
X203115734Y-91819905D01*
X203013658Y-92100354D01*
X202951608Y-92392279D01*
X202930789Y-92690000D01*
X193977021Y-92690000D01*
X193998577Y-92662410D01*
X194125250Y-92431992D01*
X194213454Y-92184286D01*
X194261040Y-91925010D01*
X194264138Y-91629185D01*
X194221992Y-91368970D01*
X194138994Y-91119470D01*
X194123749Y-91090307D01*
X203651326Y-91090307D01*
X205070000Y-92508981D01*
X206499106Y-91079875D01*
X206139606Y-90837389D01*
X205871363Y-90706559D01*
X205587522Y-90614333D01*
X205293609Y-90562508D01*
X204995343Y-90552092D01*
X204698530Y-90583289D01*
X204408948Y-90655489D01*
X204132231Y-90767290D01*
X203873768Y-90916514D01*
X203651326Y-91090307D01*
X194123749Y-91090307D01*
X194017175Y-90886450D01*
X193874838Y-90696181D01*
X192811019Y-91760000D01*
X192448981Y-91760000D01*
X191376927Y-90687946D01*
X191185269Y-90985342D01*
X191080000Y-91226292D01*
X191014608Y-91480973D01*
X190990778Y-91742834D01*
X166414000Y-91742834D01*
X166414000Y-90710127D01*
X166527279Y-90710127D01*
X166559352Y-90964008D01*
X166658516Y-91199910D01*
X166817466Y-91400456D01*
X167024491Y-91550869D01*
X167264340Y-91640068D01*
X167519341Y-91661480D01*
X167770706Y-91613530D01*
X167999917Y-91499749D01*
X168190086Y-91328520D01*
X168327203Y-91112458D01*
X168401360Y-90866838D01*
X168404231Y-90592699D01*
X168335234Y-90345580D01*
X168202672Y-90126694D01*
X168016130Y-89951520D01*
X167789353Y-89832963D01*
X167539047Y-89779759D01*
X167283653Y-89795827D01*
X167041990Y-89879984D01*
X166831860Y-90026028D01*
X166668745Y-90223200D01*
X166564661Y-90456975D01*
X166527279Y-90710127D01*
X166414000Y-90710127D01*
X166414000Y-89999352D01*
X166439341Y-90001480D01*
X166690706Y-89953530D01*
X166919917Y-89839749D01*
X167110086Y-89668520D01*
X167247203Y-89452458D01*
X167287156Y-89320127D01*
X171757279Y-89320127D01*
X171789352Y-89574008D01*
X171888516Y-89809910D01*
X172047466Y-90010456D01*
X172254491Y-90160869D01*
X172328785Y-90188499D01*
X172373516Y-90294910D01*
X172532466Y-90495456D01*
X172739491Y-90645869D01*
X172979340Y-90735068D01*
X173234341Y-90756480D01*
X173485706Y-90708530D01*
X173714917Y-90594749D01*
X173801167Y-90517089D01*
X191568108Y-90517089D01*
X192630000Y-91578981D01*
X193697194Y-90511786D01*
X193454606Y-90343183D01*
X193217477Y-90229571D01*
X192965233Y-90155331D01*
X192704364Y-90122375D01*
X192441582Y-90131552D01*
X192183648Y-90182625D01*
X191937197Y-90274278D01*
X191708570Y-90404157D01*
X191568108Y-90517089D01*
X173801167Y-90517089D01*
X173905086Y-90423520D01*
X174042203Y-90207458D01*
X174116360Y-89961838D01*
X174119231Y-89687699D01*
X174050234Y-89440580D01*
X173917672Y-89221694D01*
X173731130Y-89046520D01*
X173566611Y-88960511D01*
X173565234Y-88955580D01*
X173432672Y-88736694D01*
X173246130Y-88561520D01*
X173019353Y-88442963D01*
X172769047Y-88389759D01*
X172513653Y-88405827D01*
X172271990Y-88489984D01*
X172061860Y-88636028D01*
X171898745Y-88833200D01*
X171794661Y-89066975D01*
X171757279Y-89320127D01*
X167287156Y-89320127D01*
X167321360Y-89206838D01*
X167324231Y-88932699D01*
X167255234Y-88685580D01*
X167122672Y-88466694D01*
X166936130Y-88291520D01*
X166709353Y-88172963D01*
X166459047Y-88119759D01*
X166203653Y-88135827D01*
X166004071Y-88205330D01*
X165115330Y-87316588D01*
X207058163Y-87316588D01*
X207138795Y-87617512D01*
X207286185Y-87793165D01*
X207479814Y-87904956D01*
X207688976Y-87941837D01*
X208872000Y-87941837D01*
X209127999Y-87941837D01*
X210316588Y-87941837D01*
X210617512Y-87861205D01*
X210793165Y-87713815D01*
X210904956Y-87520186D01*
X210941837Y-87311024D01*
X210941837Y-86128000D01*
X209128000Y-86127999D01*
X209127999Y-87941837D01*
X208872000Y-87941837D01*
X208872001Y-86128000D01*
X207058163Y-86127999D01*
X207058163Y-87316588D01*
X165115330Y-87316588D01*
X164585944Y-86787202D01*
X164535234Y-86605580D01*
X164402672Y-86386694D01*
X164374381Y-86360127D01*
X166367279Y-86360127D01*
X166399352Y-86614008D01*
X166498516Y-86849910D01*
X166657466Y-87050456D01*
X166864491Y-87200869D01*
X167104340Y-87290068D01*
X167359341Y-87311480D01*
X167610706Y-87263530D01*
X167633096Y-87252416D01*
X167734340Y-87290068D01*
X167989341Y-87311480D01*
X168240706Y-87263530D01*
X168258814Y-87254541D01*
X168354340Y-87290068D01*
X168609341Y-87311480D01*
X168860706Y-87263530D01*
X169089917Y-87149749D01*
X169280086Y-86978520D01*
X169417203Y-86762458D01*
X169491360Y-86516838D01*
X169494231Y-86242699D01*
X169425234Y-85995580D01*
X169348853Y-85869459D01*
X197091560Y-85869459D01*
X197446235Y-86080887D01*
X197690711Y-86177682D01*
X197947520Y-86234145D01*
X198210052Y-86248822D01*
X198471554Y-86221338D01*
X198725297Y-86152397D01*
X198964754Y-86043775D01*
X199239930Y-85860949D01*
X198170000Y-84791019D01*
X197091560Y-85869459D01*
X169348853Y-85869459D01*
X169292672Y-85776694D01*
X169106130Y-85601520D01*
X168879353Y-85482963D01*
X168629047Y-85429759D01*
X168373654Y-85445827D01*
X168262415Y-85484564D01*
X168259352Y-85482963D01*
X168009047Y-85429759D01*
X167753653Y-85445827D01*
X167636414Y-85486655D01*
X167629353Y-85482963D01*
X167379047Y-85429759D01*
X167123653Y-85445827D01*
X166881990Y-85529984D01*
X166671860Y-85676028D01*
X166508745Y-85873200D01*
X166404661Y-86106975D01*
X166367279Y-86360127D01*
X164374381Y-86360127D01*
X164216130Y-86211520D01*
X163989353Y-86092963D01*
X163739047Y-86039759D01*
X163483653Y-86055827D01*
X163241990Y-86139984D01*
X163031860Y-86286028D01*
X162868745Y-86483200D01*
X162764661Y-86716975D01*
X162727279Y-86970127D01*
X162759352Y-87224008D01*
X162858516Y-87459910D01*
X163017466Y-87660456D01*
X163224491Y-87810869D01*
X163464341Y-87900068D01*
X163482884Y-87901625D01*
X164846001Y-89264743D01*
X164846000Y-92726000D01*
X163398402Y-92726000D01*
X163422682Y-92645582D01*
X163590706Y-92613530D01*
X163819917Y-92499749D01*
X164010086Y-92328520D01*
X164147203Y-92112458D01*
X164221360Y-91866838D01*
X164224231Y-91592699D01*
X164155234Y-91345580D01*
X164105270Y-91263079D01*
X164207203Y-91102458D01*
X164281360Y-90856838D01*
X164284231Y-90582699D01*
X164215234Y-90335580D01*
X164082672Y-90116694D01*
X163896130Y-89941520D01*
X163669353Y-89822963D01*
X163419047Y-89769759D01*
X163163654Y-89785827D01*
X163072928Y-89817422D01*
X162852651Y-89702263D01*
X162602345Y-89649059D01*
X162346951Y-89665127D01*
X162105288Y-89749284D01*
X161895158Y-89895328D01*
X161732043Y-90092500D01*
X161627959Y-90326275D01*
X161590577Y-90579427D01*
X161622650Y-90833308D01*
X161721814Y-91069210D01*
X161880764Y-91269756D01*
X162087789Y-91420169D01*
X162327638Y-91509368D01*
X162376321Y-91513456D01*
X162372084Y-91542151D01*
X162313654Y-91545827D01*
X162071990Y-91629984D01*
X161861860Y-91776028D01*
X161698745Y-91973200D01*
X161594661Y-92206975D01*
X161557279Y-92460127D01*
X161589352Y-92714008D01*
X161594393Y-92726000D01*
X158822743Y-92726000D01*
X159011458Y-92537285D01*
X159067961Y-92492743D01*
X159127982Y-92405899D01*
X159190690Y-92320998D01*
X159194853Y-92309144D01*
X159204895Y-92294615D01*
X159214484Y-92253244D01*
X159268804Y-92098566D01*
X159272574Y-92002628D01*
X159274000Y-91996472D01*
X159274000Y-91966310D01*
X159278058Y-91862998D01*
X159274000Y-91847692D01*
X159274000Y-89756543D01*
X159282456Y-89685096D01*
X159263493Y-89581264D01*
X159247799Y-89476874D01*
X159242359Y-89465545D01*
X159239185Y-89448170D01*
X159216717Y-89412145D01*
X159145749Y-89264353D01*
X159080579Y-89193853D01*
X159077236Y-89188493D01*
X159055922Y-89167180D01*
X158985722Y-89091237D01*
X158972024Y-89083281D01*
X158795944Y-88907202D01*
X158745234Y-88725580D01*
X158612672Y-88506694D01*
X158426130Y-88331520D01*
X158199353Y-88212963D01*
X157949047Y-88159759D01*
X157693653Y-88175827D01*
X157451990Y-88259984D01*
X157241860Y-88406028D01*
X157078745Y-88603200D01*
X156974661Y-88836975D01*
X156937279Y-89090127D01*
X156969352Y-89344008D01*
X157068516Y-89579910D01*
X157227466Y-89780456D01*
X157228188Y-89780981D01*
X157057010Y-89840592D01*
X156846880Y-89986636D01*
X156683765Y-90183808D01*
X156579681Y-90417583D01*
X156542299Y-90670735D01*
X156574372Y-90924616D01*
X156673536Y-91160518D01*
X156832486Y-91361064D01*
X157039511Y-91511477D01*
X157279360Y-91600676D01*
X157534361Y-91622088D01*
X157706000Y-91589346D01*
X157706000Y-91625258D01*
X155791038Y-93540221D01*
X155561990Y-93619984D01*
X155351860Y-93766028D01*
X155188745Y-93963200D01*
X155084661Y-94196975D01*
X155047279Y-94450127D01*
X155079352Y-94704008D01*
X155164428Y-94906395D01*
X155044000Y-94785968D01*
X155044000Y-93419033D01*
X155154340Y-93460068D01*
X155409341Y-93481480D01*
X155660706Y-93433530D01*
X155889917Y-93319749D01*
X156080086Y-93148520D01*
X156217203Y-92932458D01*
X156291360Y-92686838D01*
X156294231Y-92412699D01*
X156225234Y-92165580D01*
X156092672Y-91946694D01*
X155906130Y-91771520D01*
X155679353Y-91652963D01*
X155429047Y-91599759D01*
X155173653Y-91615827D01*
X155066976Y-91652976D01*
X155169611Y-91550342D01*
X155362636Y-91513520D01*
X155591847Y-91399739D01*
X155782016Y-91228510D01*
X155919133Y-91012448D01*
X155993290Y-90766828D01*
X155996161Y-90492689D01*
X155927164Y-90245570D01*
X155794602Y-90026684D01*
X155608060Y-89851510D01*
X155381283Y-89732953D01*
X155130977Y-89679749D01*
X154875583Y-89695817D01*
X154633920Y-89779974D01*
X154423790Y-89926018D01*
X154260675Y-90123190D01*
X154156591Y-90356965D01*
X154134011Y-90509876D01*
X153750821Y-90893067D01*
X153750815Y-90893074D01*
X153708781Y-90935108D01*
X153682228Y-90987221D01*
X153647851Y-91034538D01*
X153629776Y-91090165D01*
X153603225Y-91142275D01*
X153594076Y-91200037D01*
X153576001Y-91255666D01*
X153576001Y-91324075D01*
X153576000Y-95148272D01*
X153576001Y-95148278D01*
X153576001Y-95206253D01*
X153594074Y-95261875D01*
X153603224Y-95319645D01*
X153629777Y-95371757D01*
X153647851Y-95427382D01*
X153682225Y-95474696D01*
X153708780Y-95526811D01*
X153748326Y-95566357D01*
X153748330Y-95566362D01*
X154556001Y-96374034D01*
X154556000Y-113073272D01*
X154556001Y-113073278D01*
X154556001Y-113131253D01*
X154574074Y-113186875D01*
X154583224Y-113244645D01*
X154588168Y-113254348D01*
X154557183Y-113286716D01*
X154529444Y-113329676D01*
X154427692Y-113200140D01*
X154249846Y-113045814D01*
X154046027Y-112927901D01*
X153823587Y-112850657D01*
X153590555Y-112816869D01*
X153355338Y-112827756D01*
X153126423Y-112882925D01*
X152912070Y-112980385D01*
X152720013Y-113116620D01*
X152557183Y-113286715D01*
X152529444Y-113329676D01*
X152427692Y-113200140D01*
X152249846Y-113045814D01*
X152046027Y-112927901D01*
X151823585Y-112850656D01*
X151658000Y-112826654D01*
X151657999Y-114202001D01*
X151402000Y-114202001D01*
X151402001Y-112816511D01*
X151126423Y-112882925D01*
X150912070Y-112980385D01*
X150720013Y-113116620D01*
X150557183Y-113286715D01*
X150529444Y-113329676D01*
X150427692Y-113200140D01*
X150249846Y-113045814D01*
X150046027Y-112927901D01*
X149823587Y-112850657D01*
X149590555Y-112816869D01*
X149355338Y-112827756D01*
X149126423Y-112882925D01*
X148912070Y-112980385D01*
X148720013Y-113116620D01*
X148557183Y-113286715D01*
X148529444Y-113329676D01*
X148427692Y-113200140D01*
X148249846Y-113045814D01*
X148046027Y-112927901D01*
X147823587Y-112850657D01*
X147590555Y-112816869D01*
X147355338Y-112827756D01*
X147126423Y-112882925D01*
X146912070Y-112980385D01*
X146720013Y-113116620D01*
X146557183Y-113286715D01*
X146429455Y-113484531D01*
X146340272Y-113705820D01*
X146296000Y-114011159D01*
X140006328Y-114011159D01*
X139989808Y-113972984D01*
X139832015Y-113712438D01*
X139640323Y-113475718D01*
X139418277Y-113267204D01*
X139169988Y-113090753D01*
X138900049Y-112949633D01*
X138613454Y-112846452D01*
X138315509Y-112783121D01*
X138011724Y-112760813D01*
X137707723Y-112779939D01*
X137409131Y-112840147D01*
X137121472Y-112940319D01*
X136850070Y-113078606D01*
X136599946Y-113252446D01*
X136375729Y-113458624D01*
X136181568Y-113693324D01*
X136021057Y-113952203D01*
X135897163Y-114230471D01*
X135812183Y-114522979D01*
X135767685Y-114824313D01*
X135764496Y-115128898D01*
X134644782Y-115128898D01*
X134638378Y-114965934D01*
X134634000Y-114942078D01*
X134634000Y-110320127D01*
X143017279Y-110320127D01*
X143049352Y-110574008D01*
X143148516Y-110809910D01*
X143307466Y-111010456D01*
X143514491Y-111160869D01*
X143754340Y-111250068D01*
X144009341Y-111271480D01*
X144260706Y-111223530D01*
X144489917Y-111109749D01*
X144680086Y-110938520D01*
X144817203Y-110722458D01*
X144891360Y-110476838D01*
X144894231Y-110202699D01*
X144825234Y-109955580D01*
X144692672Y-109736694D01*
X144506130Y-109561520D01*
X144279353Y-109442963D01*
X144029047Y-109389759D01*
X143773653Y-109405827D01*
X143531990Y-109489984D01*
X143321860Y-109636028D01*
X143158745Y-109833200D01*
X143054661Y-110066975D01*
X143017279Y-110320127D01*
X134634000Y-110320127D01*
X134634000Y-107970127D01*
X143497279Y-107970127D01*
X143529352Y-108224008D01*
X143628516Y-108459910D01*
X143787466Y-108660456D01*
X143994491Y-108810869D01*
X144234340Y-108900068D01*
X144489341Y-108921480D01*
X144740706Y-108873530D01*
X144969917Y-108759749D01*
X145160086Y-108588520D01*
X145297203Y-108372458D01*
X145371360Y-108126838D01*
X145374231Y-107852699D01*
X145305234Y-107605580D01*
X145172672Y-107386694D01*
X144986130Y-107211520D01*
X144759353Y-107092963D01*
X144509047Y-107039759D01*
X144253653Y-107055827D01*
X144011990Y-107139984D01*
X143801860Y-107286028D01*
X143638745Y-107483200D01*
X143534661Y-107716975D01*
X143497279Y-107970127D01*
X134634000Y-107970127D01*
X134634000Y-104640127D01*
X145987279Y-104640127D01*
X146019352Y-104894008D01*
X146118516Y-105129910D01*
X146263678Y-105313060D01*
X146238745Y-105343200D01*
X146134661Y-105576975D01*
X146097279Y-105830127D01*
X146129352Y-106084008D01*
X146228516Y-106319910D01*
X146387466Y-106520456D01*
X146594491Y-106670869D01*
X146834340Y-106760068D01*
X147089341Y-106781480D01*
X147340706Y-106733530D01*
X147569917Y-106619749D01*
X147760086Y-106448520D01*
X147897203Y-106232458D01*
X147971360Y-105986838D01*
X147974231Y-105712699D01*
X147905234Y-105465580D01*
X147772672Y-105246694D01*
X147700564Y-105178980D01*
X147787203Y-105042458D01*
X147861360Y-104796838D01*
X147864231Y-104522699D01*
X147795234Y-104275580D01*
X147670808Y-104070127D01*
X148197279Y-104070127D01*
X148229352Y-104324008D01*
X148328516Y-104559910D01*
X148487466Y-104760456D01*
X148694491Y-104910869D01*
X148934340Y-105000068D01*
X149189341Y-105021480D01*
X149440706Y-104973530D01*
X149669917Y-104859749D01*
X149860086Y-104688520D01*
X149997203Y-104472458D01*
X150071360Y-104226838D01*
X150074231Y-103952699D01*
X150005234Y-103705580D01*
X149872672Y-103486694D01*
X149686130Y-103311520D01*
X149459353Y-103192963D01*
X149209047Y-103139759D01*
X148953653Y-103155827D01*
X148711990Y-103239984D01*
X148501860Y-103386028D01*
X148338745Y-103583200D01*
X148234661Y-103816975D01*
X148197279Y-104070127D01*
X147670808Y-104070127D01*
X147662672Y-104056694D01*
X147476130Y-103881520D01*
X147249353Y-103762963D01*
X146999047Y-103709759D01*
X146743653Y-103725827D01*
X146501990Y-103809984D01*
X146291860Y-103956028D01*
X146128745Y-104153200D01*
X146024661Y-104386975D01*
X145987279Y-104640127D01*
X134634000Y-104640127D01*
X134634000Y-103500127D01*
X138617279Y-103500127D01*
X138649352Y-103754008D01*
X138748516Y-103989910D01*
X138907466Y-104190456D01*
X139114491Y-104340869D01*
X139354340Y-104430068D01*
X139609341Y-104451480D01*
X139860706Y-104403530D01*
X140089917Y-104289749D01*
X140280086Y-104118520D01*
X140417203Y-103902458D01*
X140491360Y-103656838D01*
X140494231Y-103382699D01*
X140425234Y-103135580D01*
X140292672Y-102916694D01*
X140179190Y-102810127D01*
X143547279Y-102810127D01*
X143579352Y-103064008D01*
X143678516Y-103299910D01*
X143837466Y-103500456D01*
X144044491Y-103650869D01*
X144284340Y-103740068D01*
X144539341Y-103761480D01*
X144790706Y-103713530D01*
X145019917Y-103599749D01*
X145210086Y-103428520D01*
X145347203Y-103212458D01*
X145421360Y-102966838D01*
X145424231Y-102692699D01*
X145355234Y-102445580D01*
X145222672Y-102226694D01*
X145036130Y-102051520D01*
X144809353Y-101932963D01*
X144559047Y-101879759D01*
X144303653Y-101895827D01*
X144061990Y-101979984D01*
X143851860Y-102126028D01*
X143688745Y-102323200D01*
X143584661Y-102556975D01*
X143547279Y-102810127D01*
X140179190Y-102810127D01*
X140106130Y-102741520D01*
X139879353Y-102622963D01*
X139629047Y-102569759D01*
X139373653Y-102585827D01*
X139131990Y-102669984D01*
X138921860Y-102816028D01*
X138758745Y-103013200D01*
X138654661Y-103246975D01*
X138617279Y-103500127D01*
X134634000Y-103500127D01*
X134634000Y-100277249D01*
X150730157Y-100277249D01*
X150762230Y-100531130D01*
X150861394Y-100767032D01*
X151020344Y-100967578D01*
X151227369Y-101117991D01*
X151467218Y-101207190D01*
X151722219Y-101228602D01*
X151973584Y-101180652D01*
X152202795Y-101066871D01*
X152392964Y-100895642D01*
X152530081Y-100679580D01*
X152604238Y-100433960D01*
X152607109Y-100159821D01*
X152538112Y-99912702D01*
X152405550Y-99693816D01*
X152219008Y-99518642D01*
X151992231Y-99400085D01*
X151741925Y-99346881D01*
X151486531Y-99362949D01*
X151244868Y-99447106D01*
X151034738Y-99593150D01*
X150871623Y-99790322D01*
X150767539Y-100024097D01*
X150730157Y-100277249D01*
X134634000Y-100277249D01*
X134634000Y-96631159D01*
X135916000Y-96631159D01*
X135916000Y-97283810D01*
X135932753Y-97459404D01*
X135999038Y-97685351D01*
X136106854Y-97894688D01*
X136252308Y-98079860D01*
X136430154Y-98234186D01*
X136633973Y-98352099D01*
X136856413Y-98429343D01*
X137089445Y-98463131D01*
X137324662Y-98452244D01*
X137553577Y-98397075D01*
X137767929Y-98299615D01*
X137959988Y-98163380D01*
X138122818Y-97993285D01*
X138150557Y-97950325D01*
X138252308Y-98079860D01*
X138430154Y-98234186D01*
X138633973Y-98352099D01*
X138856413Y-98429343D01*
X139089445Y-98463131D01*
X139324662Y-98452244D01*
X139553577Y-98397075D01*
X139767929Y-98299615D01*
X139959988Y-98163380D01*
X140122818Y-97993285D01*
X140150557Y-97950325D01*
X140252308Y-98079860D01*
X140430154Y-98234186D01*
X140633973Y-98352099D01*
X140856413Y-98429343D01*
X141089445Y-98463131D01*
X141324662Y-98452244D01*
X141553577Y-98397075D01*
X141767929Y-98299615D01*
X141959988Y-98163380D01*
X142062631Y-98056157D01*
X142127618Y-98157279D01*
X142319730Y-98323745D01*
X142550958Y-98429343D01*
X142793558Y-98464224D01*
X143022000Y-98464224D01*
X143277999Y-98464224D01*
X143510976Y-98464224D01*
X143864549Y-98387309D01*
X144082279Y-98247382D01*
X144248745Y-98055270D01*
X144354343Y-97824042D01*
X144389224Y-97581442D01*
X144389224Y-97078000D01*
X143278000Y-97077999D01*
X143277999Y-98464224D01*
X143022000Y-98464224D01*
X143022001Y-97077999D01*
X143022000Y-97077999D01*
X143022000Y-96822000D01*
X143277999Y-96822000D01*
X144389224Y-96822001D01*
X144389224Y-96314024D01*
X144388377Y-96310127D01*
X151947279Y-96310127D01*
X151979352Y-96564008D01*
X152078516Y-96799910D01*
X152155746Y-96897350D01*
X152127279Y-97090127D01*
X152159352Y-97344008D01*
X152258516Y-97579910D01*
X152417466Y-97780456D01*
X152624491Y-97930869D01*
X152678766Y-97951054D01*
X152699352Y-98114008D01*
X152798516Y-98349910D01*
X152957466Y-98550456D01*
X153164491Y-98700869D01*
X153404340Y-98790068D01*
X153659341Y-98811480D01*
X153910706Y-98763530D01*
X154139917Y-98649749D01*
X154330086Y-98478520D01*
X154467203Y-98262458D01*
X154541360Y-98016838D01*
X154544231Y-97742699D01*
X154475234Y-97495580D01*
X154342672Y-97276694D01*
X154156130Y-97101520D01*
X154003716Y-97021840D01*
X154004231Y-96972699D01*
X153935234Y-96725580D01*
X153807113Y-96514027D01*
X153821360Y-96466838D01*
X153824231Y-96192699D01*
X153755234Y-95945580D01*
X153622672Y-95726694D01*
X153436130Y-95551520D01*
X153209353Y-95432963D01*
X152959047Y-95379759D01*
X152703653Y-95395827D01*
X152461990Y-95479984D01*
X152251860Y-95626028D01*
X152088745Y-95823200D01*
X151984661Y-96056975D01*
X151947279Y-96310127D01*
X144388377Y-96310127D01*
X144312309Y-95960451D01*
X144172382Y-95742721D01*
X143980270Y-95576255D01*
X143749042Y-95470657D01*
X143506442Y-95435776D01*
X143278000Y-95435776D01*
X143277999Y-96822000D01*
X143022000Y-96822000D01*
X143022001Y-95435776D01*
X142789024Y-95435776D01*
X142435451Y-95512691D01*
X142217721Y-95652618D01*
X142059517Y-95835195D01*
X142047692Y-95820140D01*
X141869846Y-95665814D01*
X141666027Y-95547901D01*
X141443587Y-95470657D01*
X141210555Y-95436869D01*
X140975338Y-95447756D01*
X140746423Y-95502925D01*
X140532070Y-95600385D01*
X140340013Y-95736620D01*
X140177183Y-95906715D01*
X140149444Y-95949676D01*
X140047692Y-95820140D01*
X139869846Y-95665814D01*
X139666027Y-95547901D01*
X139443587Y-95470657D01*
X139210555Y-95436869D01*
X138975338Y-95447756D01*
X138746423Y-95502925D01*
X138532070Y-95600385D01*
X138340013Y-95736620D01*
X138177183Y-95906715D01*
X138149444Y-95949676D01*
X138047692Y-95820140D01*
X137869846Y-95665814D01*
X137666027Y-95547901D01*
X137443587Y-95470657D01*
X137210555Y-95436869D01*
X136975338Y-95447756D01*
X136746423Y-95502925D01*
X136532070Y-95600385D01*
X136340013Y-95736620D01*
X136177183Y-95906715D01*
X136049455Y-96104531D01*
X135960272Y-96325820D01*
X135916000Y-96631159D01*
X134634000Y-96631159D01*
X134634000Y-91801159D01*
X135916000Y-91801159D01*
X135916000Y-92453810D01*
X135932753Y-92629404D01*
X135999038Y-92855351D01*
X136106854Y-93064688D01*
X136252308Y-93249860D01*
X136430154Y-93404186D01*
X136633973Y-93522099D01*
X136856413Y-93599343D01*
X137089445Y-93633131D01*
X137324662Y-93622244D01*
X137553577Y-93567075D01*
X137767929Y-93469615D01*
X137959988Y-93333380D01*
X138122818Y-93163285D01*
X138150557Y-93120325D01*
X138252308Y-93249860D01*
X138430154Y-93404186D01*
X138633973Y-93522099D01*
X138856413Y-93599343D01*
X139089445Y-93633131D01*
X139324662Y-93622244D01*
X139553577Y-93567075D01*
X139767929Y-93469615D01*
X139959988Y-93333380D01*
X140122818Y-93163285D01*
X140150557Y-93120325D01*
X140252308Y-93249860D01*
X140430154Y-93404186D01*
X140633973Y-93522099D01*
X140856413Y-93599343D01*
X141089445Y-93633131D01*
X141324663Y-93622244D01*
X141336387Y-93619419D01*
X142026146Y-94309179D01*
X142026153Y-94309185D01*
X142068188Y-94351220D01*
X142120303Y-94377775D01*
X142167617Y-94412149D01*
X142223242Y-94430223D01*
X142275354Y-94456776D01*
X142333124Y-94465926D01*
X142388746Y-94483999D01*
X142446721Y-94483999D01*
X142446727Y-94484000D01*
X144898273Y-94484000D01*
X144898279Y-94483999D01*
X144956254Y-94483999D01*
X145011877Y-94465926D01*
X145069645Y-94456776D01*
X145121760Y-94430222D01*
X145177382Y-94412149D01*
X145224694Y-94377775D01*
X145276812Y-94351220D01*
X145761220Y-93866812D01*
X145787774Y-93814697D01*
X145822149Y-93767383D01*
X145840223Y-93711758D01*
X145866776Y-93659646D01*
X145875926Y-93601876D01*
X145893999Y-93546254D01*
X145893999Y-93488279D01*
X145894000Y-93488273D01*
X145894000Y-91890127D01*
X150847279Y-91890127D01*
X150879352Y-92144008D01*
X150978516Y-92379910D01*
X151137466Y-92580456D01*
X151344491Y-92730869D01*
X151584340Y-92820068D01*
X151839341Y-92841480D01*
X152090706Y-92793530D01*
X152319917Y-92679749D01*
X152510086Y-92508520D01*
X152647203Y-92292458D01*
X152721360Y-92046838D01*
X152724231Y-91772699D01*
X152685326Y-91633360D01*
X152768850Y-91501749D01*
X152843007Y-91256129D01*
X152845878Y-90981990D01*
X152776881Y-90734871D01*
X152644319Y-90515985D01*
X152457777Y-90340811D01*
X152231000Y-90222254D01*
X151980694Y-90169050D01*
X151725300Y-90185118D01*
X151483637Y-90269275D01*
X151273507Y-90415319D01*
X151110392Y-90612491D01*
X151006308Y-90846266D01*
X150968926Y-91099418D01*
X151000999Y-91353298D01*
X151010779Y-91376565D01*
X150988744Y-91403201D01*
X150884661Y-91636975D01*
X150847279Y-91890127D01*
X145894000Y-91890127D01*
X145894000Y-91314031D01*
X149394032Y-87814000D01*
X150667875Y-87814000D01*
X150689352Y-87984008D01*
X150788516Y-88219910D01*
X150947466Y-88420456D01*
X151139793Y-88560191D01*
X151137092Y-88578484D01*
X151169165Y-88832364D01*
X151268329Y-89068266D01*
X151427279Y-89268812D01*
X151634304Y-89419225D01*
X151874153Y-89508424D01*
X152129154Y-89529836D01*
X152380519Y-89481886D01*
X152609730Y-89368105D01*
X152799899Y-89196876D01*
X152937016Y-88980814D01*
X153011173Y-88735194D01*
X153014044Y-88461055D01*
X152945047Y-88213936D01*
X152812485Y-87995050D01*
X152625943Y-87819876D01*
X152614703Y-87814000D01*
X153328273Y-87814000D01*
X153328279Y-87813999D01*
X153386254Y-87813999D01*
X153441877Y-87795926D01*
X153499645Y-87786776D01*
X153551760Y-87760222D01*
X153607382Y-87742149D01*
X153654694Y-87707775D01*
X153706812Y-87681220D01*
X153857108Y-87530923D01*
X154374032Y-87014000D01*
X159925969Y-87014000D01*
X159973474Y-87061505D01*
X159851860Y-87146028D01*
X159688745Y-87343200D01*
X159584661Y-87576975D01*
X159547279Y-87830127D01*
X159579352Y-88084008D01*
X159678516Y-88319910D01*
X159837467Y-88520456D01*
X159909240Y-88572602D01*
X159908744Y-88573201D01*
X159804661Y-88806975D01*
X159767279Y-89060127D01*
X159799352Y-89314008D01*
X159898516Y-89549910D01*
X160057466Y-89750456D01*
X160264491Y-89900869D01*
X160504340Y-89990068D01*
X160759341Y-90011480D01*
X161010706Y-89963530D01*
X161239917Y-89849749D01*
X161430086Y-89678520D01*
X161567203Y-89462458D01*
X161641360Y-89216838D01*
X161644231Y-88942699D01*
X161575234Y-88695580D01*
X161442672Y-88476694D01*
X161285733Y-88329319D01*
X161347203Y-88232458D01*
X161381571Y-88118626D01*
X161460706Y-88103530D01*
X161689917Y-87989749D01*
X161880086Y-87818520D01*
X162017203Y-87602458D01*
X162091360Y-87356838D01*
X162094231Y-87082699D01*
X162025234Y-86835580D01*
X161892672Y-86616694D01*
X161706130Y-86441520D01*
X161479353Y-86322963D01*
X161265551Y-86277518D01*
X160715184Y-85727152D01*
X160666812Y-85678780D01*
X160614694Y-85652225D01*
X160567382Y-85617851D01*
X160511760Y-85599778D01*
X160459645Y-85573224D01*
X160401877Y-85564074D01*
X160346254Y-85546001D01*
X160288279Y-85546001D01*
X160288273Y-85546000D01*
X154011727Y-85546000D01*
X154011721Y-85546001D01*
X153953746Y-85546001D01*
X153898124Y-85564074D01*
X153840354Y-85573224D01*
X153788242Y-85599777D01*
X153732617Y-85617851D01*
X153685303Y-85652225D01*
X153633188Y-85678780D01*
X153591153Y-85720815D01*
X153591146Y-85720821D01*
X152965968Y-86346000D01*
X152383568Y-86346000D01*
X152384231Y-86282699D01*
X152315234Y-86035580D01*
X152182672Y-85816694D01*
X151996130Y-85641520D01*
X151769353Y-85522963D01*
X151519047Y-85469759D01*
X151263653Y-85485827D01*
X151021990Y-85569984D01*
X150811860Y-85716028D01*
X150648745Y-85913200D01*
X150544661Y-86146975D01*
X150515272Y-86346000D01*
X149031727Y-86346000D01*
X149031721Y-86346001D01*
X148973746Y-86346001D01*
X148918124Y-86364074D01*
X148860354Y-86373224D01*
X148808242Y-86399777D01*
X148752617Y-86417851D01*
X148705303Y-86452225D01*
X148653188Y-86478780D01*
X148611153Y-86520815D01*
X148611146Y-86520821D01*
X144598330Y-90533638D01*
X144598326Y-90533643D01*
X144558780Y-90573189D01*
X144532225Y-90625304D01*
X144497851Y-90672618D01*
X144479777Y-90728243D01*
X144453224Y-90780355D01*
X144444074Y-90838125D01*
X144426001Y-90893747D01*
X144426001Y-90951722D01*
X144426000Y-90951728D01*
X144426001Y-93016000D01*
X144344315Y-93016000D01*
X144354343Y-92994042D01*
X144389224Y-92751442D01*
X144389224Y-92248000D01*
X143277999Y-92247999D01*
X143277999Y-92248000D01*
X143022000Y-92247999D01*
X143022000Y-91992000D01*
X143277999Y-91992000D01*
X144389224Y-91992001D01*
X144389224Y-91484024D01*
X144312309Y-91130451D01*
X144172382Y-90912721D01*
X143980270Y-90746255D01*
X143749042Y-90640657D01*
X143506442Y-90605776D01*
X143278000Y-90605776D01*
X143277999Y-91992000D01*
X143022000Y-91992000D01*
X143022001Y-90605776D01*
X142789024Y-90605776D01*
X142435451Y-90682691D01*
X142217721Y-90822618D01*
X142059517Y-91005195D01*
X142047692Y-90990140D01*
X141869846Y-90835814D01*
X141666027Y-90717901D01*
X141443587Y-90640657D01*
X141210555Y-90606869D01*
X140975338Y-90617756D01*
X140746423Y-90672925D01*
X140532070Y-90770385D01*
X140340013Y-90906620D01*
X140177183Y-91076715D01*
X140149444Y-91119676D01*
X140047692Y-90990140D01*
X139869846Y-90835814D01*
X139666027Y-90717901D01*
X139443587Y-90640657D01*
X139210555Y-90606869D01*
X138975338Y-90617756D01*
X138746423Y-90672925D01*
X138532070Y-90770385D01*
X138340013Y-90906620D01*
X138177183Y-91076715D01*
X138149444Y-91119676D01*
X138047692Y-90990140D01*
X137869846Y-90835814D01*
X137666027Y-90717901D01*
X137443587Y-90640657D01*
X137210555Y-90606869D01*
X136975338Y-90617756D01*
X136746423Y-90672925D01*
X136532070Y-90770385D01*
X136340013Y-90906620D01*
X136177183Y-91076715D01*
X136049455Y-91274531D01*
X135960272Y-91495820D01*
X135916000Y-91801159D01*
X134634000Y-91801159D01*
X134634000Y-86981159D01*
X135916000Y-86981159D01*
X135916000Y-87633810D01*
X135932753Y-87809404D01*
X135999038Y-88035351D01*
X136106854Y-88244688D01*
X136252308Y-88429860D01*
X136430154Y-88584186D01*
X136633973Y-88702099D01*
X136856413Y-88779343D01*
X137089445Y-88813131D01*
X137324662Y-88802244D01*
X137553577Y-88747075D01*
X137767929Y-88649615D01*
X137959988Y-88513380D01*
X138122818Y-88343285D01*
X138150557Y-88300325D01*
X138252308Y-88429860D01*
X138430154Y-88584186D01*
X138633973Y-88702099D01*
X138856413Y-88779343D01*
X139089445Y-88813131D01*
X139324662Y-88802244D01*
X139553577Y-88747075D01*
X139767929Y-88649615D01*
X139959988Y-88513380D01*
X140122818Y-88343285D01*
X140150557Y-88300325D01*
X140252308Y-88429860D01*
X140430154Y-88584186D01*
X140633973Y-88702099D01*
X140856413Y-88779343D01*
X141089445Y-88813131D01*
X141324662Y-88802244D01*
X141553577Y-88747075D01*
X141767929Y-88649615D01*
X141959988Y-88513380D01*
X142062631Y-88406157D01*
X142127618Y-88507279D01*
X142319730Y-88673745D01*
X142550958Y-88779343D01*
X142793558Y-88814224D01*
X143022000Y-88814224D01*
X143277999Y-88814224D01*
X143510976Y-88814224D01*
X143864549Y-88737309D01*
X144082279Y-88597382D01*
X144248745Y-88405270D01*
X144354343Y-88174042D01*
X144389224Y-87931442D01*
X144389224Y-87428000D01*
X143278000Y-87427999D01*
X143277999Y-88814224D01*
X143022000Y-88814224D01*
X143022001Y-87427999D01*
X143022000Y-87427999D01*
X143022000Y-87172000D01*
X143277999Y-87172000D01*
X144389224Y-87172001D01*
X144389224Y-86664024D01*
X144312309Y-86310451D01*
X144172382Y-86092721D01*
X143980270Y-85926255D01*
X143749042Y-85820657D01*
X143506442Y-85785776D01*
X143278000Y-85785776D01*
X143277999Y-87172000D01*
X143022000Y-87172000D01*
X143022001Y-85785776D01*
X142789024Y-85785776D01*
X142435451Y-85862691D01*
X142217721Y-86002618D01*
X142059517Y-86185195D01*
X142047692Y-86170140D01*
X141869846Y-86015814D01*
X141666027Y-85897901D01*
X141443587Y-85820657D01*
X141210555Y-85786869D01*
X140975338Y-85797756D01*
X140746423Y-85852925D01*
X140532070Y-85950385D01*
X140340013Y-86086620D01*
X140177183Y-86256715D01*
X140149444Y-86299676D01*
X140047692Y-86170140D01*
X139869846Y-86015814D01*
X139666027Y-85897901D01*
X139443587Y-85820657D01*
X139210555Y-85786869D01*
X138975338Y-85797756D01*
X138746423Y-85852925D01*
X138532070Y-85950385D01*
X138340013Y-86086620D01*
X138177183Y-86256715D01*
X138149444Y-86299676D01*
X138047692Y-86170140D01*
X137869846Y-86015814D01*
X137666027Y-85897901D01*
X137443587Y-85820657D01*
X137210555Y-85786869D01*
X136975338Y-85797756D01*
X136746423Y-85852925D01*
X136532070Y-85950385D01*
X136340013Y-86086620D01*
X136177183Y-86256715D01*
X136049455Y-86454531D01*
X135960272Y-86675820D01*
X135916000Y-86981159D01*
X134634000Y-86981159D01*
X134634000Y-82121159D01*
X135916000Y-82121159D01*
X135916000Y-82773810D01*
X135932753Y-82949404D01*
X135999038Y-83175351D01*
X136106854Y-83384688D01*
X136252308Y-83569860D01*
X136430154Y-83724186D01*
X136633973Y-83842099D01*
X136856413Y-83919343D01*
X137089445Y-83953131D01*
X137324662Y-83942244D01*
X137553577Y-83887075D01*
X137767929Y-83789615D01*
X137959988Y-83653380D01*
X138062631Y-83546157D01*
X138127618Y-83647279D01*
X138319730Y-83813745D01*
X138550958Y-83919343D01*
X138793558Y-83954224D01*
X139510976Y-83954224D01*
X139864549Y-83877309D01*
X140082279Y-83737382D01*
X140248745Y-83545270D01*
X140354343Y-83314042D01*
X140389224Y-83071442D01*
X140389224Y-82499399D01*
X157468007Y-82499399D01*
X157500080Y-82753280D01*
X157599244Y-82989182D01*
X157758194Y-83189728D01*
X157965219Y-83340141D01*
X158205069Y-83429340D01*
X158308163Y-83437997D01*
X158326002Y-83579201D01*
X158425166Y-83815103D01*
X158584116Y-84015649D01*
X158791141Y-84166062D01*
X159030990Y-84255261D01*
X159156482Y-84265799D01*
X159177287Y-84430486D01*
X159276451Y-84666388D01*
X159435401Y-84866934D01*
X159642426Y-85017347D01*
X159882275Y-85106546D01*
X160137276Y-85127958D01*
X160388641Y-85080008D01*
X160617852Y-84966227D01*
X160808021Y-84794998D01*
X160936318Y-84592834D01*
X196530778Y-84592834D01*
X196549120Y-84855135D01*
X196609163Y-85111130D01*
X196709362Y-85354232D01*
X196913282Y-85685699D01*
X197988981Y-84610000D01*
X198351019Y-84610000D01*
X199413509Y-85672489D01*
X199538577Y-85512410D01*
X199665250Y-85281992D01*
X199753454Y-85034286D01*
X199801040Y-84775010D01*
X199801940Y-84688976D01*
X207058163Y-84688976D01*
X207058163Y-85872000D01*
X208872000Y-85872001D01*
X208872000Y-85872000D01*
X209127999Y-85872000D01*
X210941837Y-85872001D01*
X210941837Y-84683412D01*
X210861205Y-84382489D01*
X210713815Y-84206835D01*
X210520186Y-84095044D01*
X210311024Y-84058163D01*
X209128000Y-84058163D01*
X209127999Y-85872000D01*
X208872000Y-85872000D01*
X208872001Y-84058163D01*
X207683412Y-84058163D01*
X207382489Y-84138795D01*
X207206835Y-84286185D01*
X207095044Y-84479814D01*
X207058163Y-84688976D01*
X199801940Y-84688976D01*
X199804138Y-84479185D01*
X199761992Y-84218970D01*
X199678994Y-83969470D01*
X199557175Y-83736450D01*
X199414838Y-83546181D01*
X198351019Y-84610000D01*
X197988981Y-84610000D01*
X196916927Y-83537946D01*
X196725269Y-83835342D01*
X196620000Y-84076292D01*
X196554608Y-84330973D01*
X196530778Y-84592834D01*
X160936318Y-84592834D01*
X160945138Y-84578936D01*
X161019295Y-84333316D01*
X161019393Y-84324000D01*
X166681163Y-84324000D01*
X166814492Y-84420869D01*
X167054340Y-84510068D01*
X167309341Y-84531480D01*
X167560706Y-84483530D01*
X167789917Y-84369749D01*
X167980086Y-84198520D01*
X168117203Y-83982458D01*
X168191360Y-83736838D01*
X168194231Y-83462699D01*
X168167537Y-83367089D01*
X197108108Y-83367089D01*
X198170000Y-84428981D01*
X199237194Y-83361786D01*
X198994606Y-83193183D01*
X198757477Y-83079571D01*
X198505233Y-83005331D01*
X198244364Y-82972375D01*
X197981582Y-82981552D01*
X197723648Y-83032625D01*
X197477197Y-83124278D01*
X197248570Y-83254157D01*
X197108108Y-83367089D01*
X168167537Y-83367089D01*
X168125234Y-83215580D01*
X167992672Y-82996694D01*
X167806130Y-82821520D01*
X167579353Y-82702963D01*
X167329047Y-82649759D01*
X167073653Y-82665827D01*
X166831990Y-82749984D01*
X166679452Y-82856000D01*
X165403254Y-82856000D01*
X165404231Y-82762699D01*
X165335234Y-82515580D01*
X165202672Y-82296694D01*
X165016130Y-82121520D01*
X164789353Y-82002963D01*
X164575549Y-81957518D01*
X164558159Y-81940127D01*
X179377279Y-81940127D01*
X179409352Y-82194008D01*
X179508516Y-82429910D01*
X179667466Y-82630456D01*
X179874491Y-82780869D01*
X180114340Y-82870068D01*
X180369341Y-82891480D01*
X180620706Y-82843530D01*
X180849917Y-82729749D01*
X181040086Y-82558520D01*
X181177203Y-82342458D01*
X181251360Y-82096838D01*
X181254231Y-81822699D01*
X181185234Y-81575580D01*
X181052672Y-81356694D01*
X180866130Y-81181520D01*
X180639353Y-81062963D01*
X180389047Y-81009759D01*
X180133653Y-81025827D01*
X179891990Y-81109984D01*
X179681860Y-81256028D01*
X179518745Y-81453200D01*
X179414661Y-81686975D01*
X179377279Y-81940127D01*
X164558159Y-81940127D01*
X164526084Y-81908052D01*
X164473966Y-81881497D01*
X164426654Y-81847123D01*
X164371032Y-81829050D01*
X164318917Y-81802496D01*
X164261149Y-81793346D01*
X164205526Y-81775273D01*
X164147551Y-81775273D01*
X164147545Y-81775272D01*
X158993576Y-81775272D01*
X158956858Y-81740792D01*
X158730081Y-81622235D01*
X158479775Y-81569031D01*
X158224381Y-81585099D01*
X157982718Y-81669256D01*
X157772588Y-81815300D01*
X157609473Y-82012472D01*
X157505389Y-82246247D01*
X157468007Y-82499399D01*
X140389224Y-82499399D01*
X140389224Y-81804024D01*
X140312309Y-81450451D01*
X140172382Y-81232721D01*
X139980270Y-81066255D01*
X139749042Y-80960657D01*
X139506442Y-80925776D01*
X138789024Y-80925776D01*
X138435451Y-81002691D01*
X138217721Y-81142618D01*
X138059517Y-81325195D01*
X138047692Y-81310140D01*
X137869846Y-81155814D01*
X137666027Y-81037901D01*
X137443587Y-80960657D01*
X137210555Y-80926869D01*
X136975338Y-80937756D01*
X136746423Y-80992925D01*
X136532070Y-81090385D01*
X136340013Y-81226620D01*
X136177183Y-81396715D01*
X136049455Y-81594531D01*
X135960272Y-81815820D01*
X135916000Y-82121159D01*
X134634000Y-82121159D01*
X134634000Y-80730127D01*
X155197279Y-80730127D01*
X155229352Y-80984008D01*
X155328516Y-81219910D01*
X155487466Y-81420456D01*
X155694491Y-81570869D01*
X155934340Y-81660068D01*
X156189341Y-81681480D01*
X156440706Y-81633530D01*
X156669917Y-81519749D01*
X156860086Y-81348520D01*
X156997203Y-81132458D01*
X157067347Y-80900127D01*
X169627279Y-80900127D01*
X169659352Y-81154008D01*
X169758516Y-81389910D01*
X169917466Y-81590456D01*
X170124491Y-81740869D01*
X170364340Y-81830068D01*
X170619341Y-81851480D01*
X170870706Y-81803530D01*
X171099917Y-81689749D01*
X171290086Y-81518520D01*
X171427203Y-81302458D01*
X171501360Y-81056838D01*
X171504231Y-80782699D01*
X171475593Y-80680127D01*
X181217279Y-80680127D01*
X181249352Y-80934008D01*
X181348516Y-81169910D01*
X181507466Y-81370456D01*
X181714491Y-81520869D01*
X181954340Y-81610068D01*
X182209341Y-81631480D01*
X182460706Y-81583530D01*
X182689917Y-81469749D01*
X182880086Y-81298520D01*
X183017203Y-81082458D01*
X183091360Y-80836838D01*
X183094231Y-80562699D01*
X183025234Y-80315580D01*
X182892672Y-80096694D01*
X182706130Y-79921520D01*
X182479353Y-79802963D01*
X182229047Y-79749759D01*
X181973653Y-79765827D01*
X181731990Y-79849984D01*
X181521860Y-79996028D01*
X181358745Y-80193200D01*
X181254661Y-80426975D01*
X181217279Y-80680127D01*
X171475593Y-80680127D01*
X171435234Y-80535580D01*
X171302672Y-80316694D01*
X171116130Y-80141520D01*
X170889353Y-80022963D01*
X170639047Y-79969759D01*
X170383653Y-79985827D01*
X170141990Y-80069984D01*
X169931860Y-80216028D01*
X169768745Y-80413200D01*
X169664661Y-80646975D01*
X169627279Y-80900127D01*
X157067347Y-80900127D01*
X157071360Y-80886838D01*
X157074231Y-80612699D01*
X157005234Y-80365580D01*
X156996401Y-80350994D01*
X157027203Y-80302458D01*
X157101360Y-80056838D01*
X157104231Y-79782699D01*
X157035234Y-79535580D01*
X156999010Y-79475767D01*
X157137466Y-79650456D01*
X157344491Y-79800869D01*
X157584340Y-79890068D01*
X157839341Y-79911480D01*
X158090706Y-79863530D01*
X158319917Y-79749749D01*
X158510086Y-79578520D01*
X158647203Y-79362458D01*
X158721360Y-79116838D01*
X158724231Y-78842699D01*
X158723513Y-78840127D01*
X164647279Y-78840127D01*
X164679352Y-79094008D01*
X164778516Y-79329910D01*
X164937466Y-79530456D01*
X165144491Y-79680869D01*
X165384340Y-79770068D01*
X165639341Y-79791480D01*
X165890706Y-79743530D01*
X166047425Y-79665735D01*
X166054491Y-79670869D01*
X166294340Y-79760068D01*
X166549341Y-79781480D01*
X166800706Y-79733530D01*
X167029917Y-79619749D01*
X167220086Y-79448520D01*
X167357203Y-79232458D01*
X167431360Y-78986838D01*
X167434231Y-78712699D01*
X167365234Y-78465580D01*
X167232672Y-78246694D01*
X167046130Y-78071520D01*
X166892088Y-77990988D01*
X186366000Y-77990988D01*
X186366000Y-82013546D01*
X186419619Y-82260028D01*
X186519875Y-82416030D01*
X186656533Y-82534445D01*
X186821017Y-82609561D01*
X186990988Y-82634000D01*
X187197609Y-82634000D01*
X187337466Y-82810456D01*
X187544491Y-82960869D01*
X187784340Y-83050068D01*
X188039341Y-83071480D01*
X188290706Y-83023530D01*
X188519917Y-82909749D01*
X188710086Y-82738520D01*
X188776416Y-82634000D01*
X207965194Y-82634000D01*
X208095482Y-82715571D01*
X208358995Y-82830423D01*
X208636590Y-82905064D01*
X208922168Y-82937854D01*
X209209455Y-82928072D01*
X209492143Y-82875935D01*
X209764018Y-82782586D01*
X210019108Y-82650077D01*
X210041276Y-82634000D01*
X212513546Y-82634000D01*
X212760028Y-82580381D01*
X212916030Y-82480125D01*
X213034445Y-82343467D01*
X213109561Y-82178983D01*
X213134000Y-82009012D01*
X213134000Y-77986454D01*
X213080381Y-77739972D01*
X212980125Y-77583970D01*
X212843467Y-77465555D01*
X212678983Y-77390439D01*
X212509012Y-77366000D01*
X186986454Y-77366000D01*
X186739972Y-77419619D01*
X186583970Y-77519875D01*
X186465555Y-77656533D01*
X186390439Y-77821017D01*
X186366000Y-77990988D01*
X166892088Y-77990988D01*
X166819353Y-77952963D01*
X166569047Y-77899759D01*
X166313653Y-77915827D01*
X166071990Y-77999984D01*
X166032572Y-78027380D01*
X165909352Y-77962963D01*
X165659047Y-77909759D01*
X165403653Y-77925827D01*
X165161990Y-78009984D01*
X164951860Y-78156028D01*
X164788745Y-78353200D01*
X164684661Y-78586975D01*
X164647279Y-78840127D01*
X158723513Y-78840127D01*
X158655234Y-78595580D01*
X158522672Y-78376694D01*
X158336130Y-78201520D01*
X158109353Y-78082963D01*
X157859047Y-78029759D01*
X157603653Y-78045827D01*
X157361990Y-78129984D01*
X157151860Y-78276028D01*
X156988745Y-78473200D01*
X156884661Y-78706975D01*
X156847279Y-78960127D01*
X156879352Y-79214008D01*
X156967547Y-79423815D01*
X156902672Y-79316694D01*
X156716130Y-79141520D01*
X156489353Y-79022963D01*
X156239047Y-78969759D01*
X155983653Y-78985827D01*
X155741990Y-79069984D01*
X155531860Y-79216028D01*
X155368745Y-79413200D01*
X155264661Y-79646975D01*
X155227279Y-79900127D01*
X155259352Y-80154008D01*
X155317192Y-80291607D01*
X155234661Y-80476975D01*
X155197279Y-80730127D01*
X134634000Y-80730127D01*
X134634000Y-76340127D01*
X169727279Y-76340127D01*
X169759352Y-76594008D01*
X169858516Y-76829910D01*
X170017466Y-77030456D01*
X170224491Y-77180869D01*
X170464340Y-77270068D01*
X170719341Y-77291480D01*
X170970706Y-77243530D01*
X171199917Y-77129749D01*
X171390086Y-76958520D01*
X171527203Y-76742458D01*
X171601360Y-76496838D01*
X171604231Y-76222699D01*
X171535234Y-75975580D01*
X171402672Y-75756694D01*
X171216130Y-75581520D01*
X170989353Y-75462963D01*
X170739047Y-75409759D01*
X170483653Y-75425827D01*
X170241990Y-75509984D01*
X170031860Y-75656028D01*
X169868745Y-75853200D01*
X169764661Y-76086975D01*
X169727279Y-76340127D01*
X134634000Y-76340127D01*
X134634000Y-73128898D01*
X135764496Y-73128898D01*
X135802672Y-73431098D01*
X135881510Y-73725321D01*
X135999547Y-74006122D01*
X136154602Y-74268307D01*
X136343805Y-74507021D01*
X136563655Y-74717849D01*
X136810083Y-74896890D01*
X137078530Y-75040830D01*
X137364028Y-75147006D01*
X137661294Y-75213452D01*
X137964828Y-75238941D01*
X138269012Y-75223000D01*
X138568220Y-75165923D01*
X138856911Y-75068767D01*
X139129747Y-74933330D01*
X139381678Y-74762119D01*
X139608041Y-74558300D01*
X139787998Y-74345349D01*
X149114515Y-74345349D01*
X149154660Y-74564084D01*
X149236527Y-74770855D01*
X149356996Y-74957786D01*
X149511479Y-75117759D01*
X149694093Y-75244679D01*
X149897881Y-75333711D01*
X150115080Y-75381466D01*
X150337420Y-75386123D01*
X150556429Y-75347505D01*
X150763766Y-75267085D01*
X150951534Y-75147924D01*
X151112582Y-74994561D01*
X151240773Y-74812837D01*
X151331227Y-74609677D01*
X151380693Y-74391948D01*
X151381343Y-74345349D01*
X153514515Y-74345349D01*
X153554660Y-74564084D01*
X153636527Y-74770855D01*
X153756996Y-74957786D01*
X153911479Y-75117759D01*
X154094093Y-75244679D01*
X154297881Y-75333711D01*
X154515080Y-75381466D01*
X154737420Y-75386123D01*
X154956429Y-75347505D01*
X155130141Y-75280127D01*
X164387279Y-75280127D01*
X164419352Y-75534008D01*
X164518516Y-75769910D01*
X164677466Y-75970456D01*
X164884491Y-76120869D01*
X165124340Y-76210068D01*
X165379341Y-76231480D01*
X165630706Y-76183530D01*
X165859917Y-76069749D01*
X166050086Y-75898520D01*
X166122151Y-75784963D01*
X166237466Y-75930456D01*
X166444491Y-76080869D01*
X166684340Y-76170068D01*
X166939341Y-76191480D01*
X167190706Y-76143530D01*
X167419917Y-76029749D01*
X167610086Y-75858520D01*
X167747203Y-75642458D01*
X167821360Y-75396838D01*
X167824231Y-75122699D01*
X167755234Y-74875580D01*
X167622672Y-74656694D01*
X167436130Y-74481520D01*
X167209353Y-74362963D01*
X166959047Y-74309759D01*
X166703653Y-74325827D01*
X166461990Y-74409984D01*
X166251860Y-74556028D01*
X166093449Y-74747513D01*
X166062672Y-74696694D01*
X165876130Y-74521520D01*
X165649353Y-74402963D01*
X165399047Y-74349759D01*
X165143653Y-74365827D01*
X164901990Y-74449984D01*
X164691860Y-74596028D01*
X164528745Y-74793200D01*
X164424661Y-75026975D01*
X164387279Y-75280127D01*
X155130141Y-75280127D01*
X155163766Y-75267085D01*
X155351534Y-75147924D01*
X155512582Y-74994561D01*
X155640773Y-74812837D01*
X155731227Y-74609677D01*
X155780693Y-74391948D01*
X155784216Y-74139679D01*
X155740848Y-73920653D01*
X155656102Y-73715046D01*
X155533034Y-73529814D01*
X155376333Y-73372015D01*
X155191965Y-73247657D01*
X154986954Y-73161479D01*
X154769108Y-73116761D01*
X154546726Y-73115209D01*
X154328277Y-73156880D01*
X154122083Y-73240188D01*
X153935996Y-73361959D01*
X153777107Y-73517555D01*
X153651465Y-73701051D01*
X153563857Y-73905455D01*
X153517620Y-74122984D01*
X153514515Y-74345349D01*
X151381343Y-74345349D01*
X151384216Y-74139679D01*
X151340848Y-73920653D01*
X151256102Y-73715046D01*
X151133034Y-73529814D01*
X151049332Y-73445525D01*
X151239341Y-73461480D01*
X151490706Y-73413530D01*
X151719917Y-73299749D01*
X151910086Y-73128520D01*
X152047203Y-72912458D01*
X152121360Y-72666838D01*
X152122477Y-72560127D01*
X158267279Y-72560127D01*
X158299352Y-72814008D01*
X158398516Y-73049910D01*
X158557466Y-73250456D01*
X158764491Y-73400869D01*
X159004340Y-73490068D01*
X159259341Y-73511480D01*
X159510706Y-73463530D01*
X159739917Y-73349749D01*
X159930086Y-73178520D01*
X160067203Y-72962458D01*
X160141360Y-72716838D01*
X160144231Y-72442699D01*
X160075234Y-72195580D01*
X159942672Y-71976694D01*
X159756130Y-71801520D01*
X159529353Y-71682963D01*
X159332680Y-71641159D01*
X161696000Y-71641159D01*
X161696000Y-72293810D01*
X161712753Y-72469404D01*
X161779038Y-72695351D01*
X161886854Y-72904688D01*
X162032308Y-73089860D01*
X162210154Y-73244186D01*
X162413973Y-73362099D01*
X162636413Y-73439343D01*
X162869445Y-73473131D01*
X163104662Y-73462244D01*
X163333577Y-73407075D01*
X163547929Y-73309615D01*
X163739988Y-73173380D01*
X163902818Y-73003285D01*
X163930557Y-72960325D01*
X164032308Y-73089860D01*
X164210154Y-73244186D01*
X164413973Y-73362099D01*
X164636413Y-73439343D01*
X164869445Y-73473131D01*
X165104662Y-73462244D01*
X165333577Y-73407075D01*
X165547929Y-73309615D01*
X165739988Y-73173380D01*
X165902818Y-73003285D01*
X165930557Y-72960325D01*
X166032308Y-73089860D01*
X166210154Y-73244186D01*
X166413973Y-73362099D01*
X166636413Y-73439343D01*
X166869445Y-73473131D01*
X167104662Y-73462244D01*
X167333577Y-73407075D01*
X167547929Y-73309615D01*
X167739988Y-73173380D01*
X167842631Y-73066157D01*
X167907618Y-73167279D01*
X168099730Y-73333745D01*
X168330958Y-73439343D01*
X168573558Y-73474224D01*
X168802000Y-73474224D01*
X169057999Y-73474224D01*
X169290976Y-73474224D01*
X169644549Y-73397309D01*
X169862279Y-73257382D01*
X169973611Y-73128898D01*
X208684496Y-73128898D01*
X208722672Y-73431098D01*
X208801510Y-73725321D01*
X208919547Y-74006122D01*
X209074602Y-74268307D01*
X209263805Y-74507021D01*
X209483655Y-74717849D01*
X209730083Y-74896890D01*
X209998530Y-75040830D01*
X210284028Y-75147006D01*
X210581294Y-75213452D01*
X210884828Y-75238941D01*
X211189012Y-75223000D01*
X211488220Y-75165923D01*
X211776911Y-75068767D01*
X212049747Y-74933330D01*
X212301678Y-74762119D01*
X212528041Y-74558300D01*
X212724649Y-74325646D01*
X212887863Y-74068463D01*
X213014663Y-73791507D01*
X213102702Y-73499906D01*
X213150456Y-73198399D01*
X213154122Y-72848356D01*
X213112692Y-72545916D01*
X213030780Y-72252534D01*
X212909808Y-71972984D01*
X212752015Y-71712438D01*
X212560323Y-71475718D01*
X212338277Y-71267204D01*
X212089988Y-71090753D01*
X211820049Y-70949633D01*
X211533454Y-70846452D01*
X211235509Y-70783121D01*
X210931724Y-70760813D01*
X210627723Y-70779939D01*
X210329131Y-70840147D01*
X210041472Y-70940319D01*
X209770070Y-71078606D01*
X209519946Y-71252446D01*
X209295729Y-71458624D01*
X209101568Y-71693324D01*
X208941057Y-71952203D01*
X208817163Y-72230471D01*
X208732183Y-72522979D01*
X208687685Y-72824313D01*
X208684496Y-73128898D01*
X169973611Y-73128898D01*
X170028745Y-73065270D01*
X170134343Y-72834042D01*
X170169224Y-72591442D01*
X170169224Y-72088000D01*
X169058000Y-72087999D01*
X169057999Y-73474224D01*
X168802000Y-73474224D01*
X168802001Y-72087999D01*
X168802000Y-72087999D01*
X168802000Y-71832000D01*
X169057999Y-71832000D01*
X170169224Y-71832001D01*
X170169224Y-71324024D01*
X170092309Y-70970451D01*
X169952382Y-70752721D01*
X169760270Y-70586255D01*
X169529042Y-70480657D01*
X169286442Y-70445776D01*
X169058000Y-70445776D01*
X169057999Y-71832000D01*
X168802000Y-71832000D01*
X168802001Y-70445776D01*
X168569024Y-70445776D01*
X168215451Y-70522691D01*
X167997721Y-70662618D01*
X167839517Y-70845195D01*
X167827692Y-70830140D01*
X167649846Y-70675814D01*
X167446027Y-70557901D01*
X167223587Y-70480657D01*
X166990555Y-70446869D01*
X166755338Y-70457756D01*
X166526423Y-70512925D01*
X166312070Y-70610385D01*
X166120013Y-70746620D01*
X165957183Y-70916715D01*
X165929444Y-70959676D01*
X165827692Y-70830140D01*
X165649846Y-70675814D01*
X165446027Y-70557901D01*
X165223587Y-70480657D01*
X164990555Y-70446869D01*
X164755338Y-70457756D01*
X164526423Y-70512925D01*
X164312070Y-70610385D01*
X164120013Y-70746620D01*
X163957183Y-70916715D01*
X163929444Y-70959676D01*
X163827692Y-70830140D01*
X163649846Y-70675814D01*
X163446027Y-70557901D01*
X163223587Y-70480657D01*
X162990555Y-70446869D01*
X162755338Y-70457756D01*
X162526423Y-70512925D01*
X162312070Y-70610385D01*
X162120013Y-70746620D01*
X161957183Y-70916715D01*
X161829455Y-71114531D01*
X161740272Y-71335820D01*
X161696000Y-71641159D01*
X159332680Y-71641159D01*
X159279047Y-71629759D01*
X159023653Y-71645827D01*
X158781990Y-71729984D01*
X158571860Y-71876028D01*
X158408745Y-72073200D01*
X158304661Y-72306975D01*
X158267279Y-72560127D01*
X152122477Y-72560127D01*
X152124231Y-72392699D01*
X152055234Y-72145580D01*
X151922672Y-71926694D01*
X151736130Y-71751520D01*
X151646100Y-71704453D01*
X151741789Y-71645585D01*
X151902323Y-71494834D01*
X152029265Y-71314883D01*
X152117429Y-71113082D01*
X152163262Y-70897458D01*
X152163684Y-70776197D01*
X152990418Y-70776197D01*
X153011908Y-70995365D01*
X153077029Y-71205736D01*
X153183120Y-71398716D01*
X153325849Y-71566422D01*
X153499384Y-71702002D01*
X153696638Y-71799919D01*
X153909551Y-71856174D01*
X154129427Y-71868467D01*
X154347284Y-71836297D01*
X154554222Y-71760977D01*
X154741789Y-71645585D01*
X154902323Y-71494834D01*
X155029265Y-71314883D01*
X155117429Y-71113082D01*
X155163262Y-70897458D01*
X155164055Y-70670108D01*
X155119729Y-70454169D01*
X155032975Y-70251757D01*
X154907294Y-70070924D01*
X154747817Y-69919056D01*
X154561060Y-69802358D01*
X154354652Y-69725595D01*
X154137024Y-69691905D01*
X153917067Y-69702663D01*
X153703768Y-69757429D01*
X153505835Y-69853966D01*
X153331357Y-69988333D01*
X153187462Y-70155037D01*
X153080025Y-70347272D01*
X153013437Y-70557184D01*
X152990418Y-70776197D01*
X152163684Y-70776197D01*
X152164055Y-70670108D01*
X152119729Y-70454169D01*
X152032975Y-70251757D01*
X151907294Y-70070924D01*
X151747817Y-69919056D01*
X151561060Y-69802358D01*
X151354652Y-69725595D01*
X151137024Y-69691905D01*
X150917067Y-69702663D01*
X150703768Y-69757429D01*
X150505835Y-69853966D01*
X150331357Y-69988333D01*
X150187462Y-70155037D01*
X150080025Y-70347272D01*
X150013437Y-70557184D01*
X149990418Y-70776197D01*
X150011908Y-70995365D01*
X150077029Y-71205736D01*
X150183120Y-71398716D01*
X150325849Y-71566422D01*
X150499384Y-71702002D01*
X150634096Y-71768873D01*
X150551860Y-71826028D01*
X150388745Y-72023200D01*
X150284661Y-72256975D01*
X150247279Y-72510127D01*
X150279352Y-72764008D01*
X150378516Y-72999910D01*
X150490955Y-73141773D01*
X150369108Y-73116761D01*
X150146726Y-73115209D01*
X149928277Y-73156880D01*
X149722083Y-73240188D01*
X149535996Y-73361959D01*
X149377107Y-73517555D01*
X149251465Y-73701051D01*
X149163857Y-73905455D01*
X149117620Y-74122984D01*
X149114515Y-74345349D01*
X139787998Y-74345349D01*
X139804649Y-74325646D01*
X139967863Y-74068463D01*
X140094663Y-73791507D01*
X140182702Y-73499906D01*
X140230456Y-73198399D01*
X140234122Y-72848356D01*
X140192692Y-72545916D01*
X140110780Y-72252534D01*
X139989808Y-71972984D01*
X139832015Y-71712438D01*
X139640323Y-71475718D01*
X139418277Y-71267204D01*
X139169988Y-71090753D01*
X138900049Y-70949633D01*
X138613454Y-70846452D01*
X138315509Y-70783121D01*
X138011724Y-70760813D01*
X137707723Y-70779939D01*
X137409131Y-70840147D01*
X137121472Y-70940319D01*
X136850070Y-71078606D01*
X136599946Y-71252446D01*
X136375729Y-71458624D01*
X136181568Y-71693324D01*
X136021057Y-71952203D01*
X135897163Y-72230471D01*
X135812183Y-72522979D01*
X135767685Y-72824313D01*
X135764496Y-73128898D01*
X134634000Y-73128898D01*
X134634000Y-73065158D01*
X134637520Y-73048161D01*
X134638414Y-73032168D01*
X134656629Y-72666289D01*
X134706304Y-72335871D01*
X134788547Y-72012038D01*
X134902555Y-71697950D01*
X135047186Y-71396759D01*
X135221022Y-71111408D01*
X135422344Y-70844730D01*
X135649139Y-70599385D01*
X135899190Y-70377770D01*
X136170021Y-70182082D01*
X136458946Y-70014260D01*
X136763120Y-69875960D01*
X137079498Y-69768565D01*
X137404993Y-69693120D01*
X137739711Y-69649945D01*
X138034065Y-69638378D01*
X138057921Y-69634000D01*
X175526070Y-69634000D01*
X175473768Y-69647429D01*
G36*
X191312489Y-95198795D02*
G01*
X191136835Y-95346185D01*
X191025044Y-95539814D01*
X190988163Y-95748976D01*
X190988163Y-96632000D01*
X192502001Y-96632001D01*
X192502001Y-96632000D01*
X194271837Y-96632001D01*
X194271837Y-95743412D01*
X194191205Y-95442489D01*
X194043815Y-95266835D01*
X193850186Y-95155044D01*
X193685470Y-95126000D01*
X199374000Y-95126000D01*
X199374000Y-104874000D01*
X174126000Y-104874000D01*
X174126000Y-97776588D01*
X190988163Y-97776588D01*
X191068795Y-98077512D01*
X191216185Y-98253165D01*
X191409814Y-98364956D01*
X191618976Y-98401837D01*
X192502000Y-98401837D01*
X192757999Y-98401837D01*
X193646588Y-98401837D01*
X193947512Y-98321205D01*
X194123165Y-98173815D01*
X194234956Y-97980186D01*
X194271837Y-97771024D01*
X194271837Y-96888000D01*
X192758000Y-96887999D01*
X192757999Y-98401837D01*
X192502000Y-98401837D01*
X192502001Y-96888000D01*
X190988163Y-96887999D01*
X190988163Y-97776588D01*
X174126000Y-97776588D01*
X174126000Y-95126000D01*
X191584164Y-95126000D01*
X191312489Y-95198795D01*
G37*
X191312489Y-95198795D02*
X191136835Y-95346185D01*
X191025044Y-95539814D01*
X190988163Y-95748976D01*
X190988163Y-96632000D01*
X192502001Y-96632001D01*
X192502001Y-96632000D01*
X194271837Y-96632001D01*
X194271837Y-95743412D01*
X194191205Y-95442489D01*
X194043815Y-95266835D01*
X193850186Y-95155044D01*
X193685470Y-95126000D01*
X199374000Y-95126000D01*
X199374000Y-104874000D01*
X174126000Y-104874000D01*
X174126000Y-97776588D01*
X190988163Y-97776588D01*
X191068795Y-98077512D01*
X191216185Y-98253165D01*
X191409814Y-98364956D01*
X191618976Y-98401837D01*
X192502000Y-98401837D01*
X192757999Y-98401837D01*
X193646588Y-98401837D01*
X193947512Y-98321205D01*
X194123165Y-98173815D01*
X194234956Y-97980186D01*
X194271837Y-97771024D01*
X194271837Y-96888000D01*
X192758000Y-96887999D01*
X192757999Y-98401837D01*
X192502000Y-98401837D01*
X192502001Y-96888000D01*
X190988163Y-96887999D01*
X190988163Y-97776588D01*
X174126000Y-97776588D01*
X174126000Y-95126000D01*
X191584164Y-95126000D01*
X191312489Y-95198795D01*
G36*
X196676835Y-78196185D02*
G01*
X196565044Y-78389814D01*
X196528163Y-78598976D01*
X196528163Y-79482000D01*
X198042001Y-79482001D01*
X198042001Y-79482000D01*
X199811837Y-79482001D01*
X199811837Y-78593412D01*
X199731205Y-78292489D01*
X199591505Y-78126000D01*
X212374000Y-78126000D01*
X212374000Y-81874000D01*
X188888298Y-81874000D01*
X188855234Y-81755580D01*
X188722672Y-81536694D01*
X188536130Y-81361520D01*
X188309353Y-81242963D01*
X188059047Y-81189759D01*
X187803653Y-81205827D01*
X187561990Y-81289984D01*
X187351860Y-81436028D01*
X187188745Y-81633200D01*
X187126000Y-81774127D01*
X187126000Y-79704995D01*
X187388013Y-79704995D01*
X187420086Y-79958876D01*
X187519250Y-80194778D01*
X187678200Y-80395324D01*
X187885225Y-80545737D01*
X188125074Y-80634936D01*
X188380075Y-80656348D01*
X188536083Y-80626588D01*
X196528163Y-80626588D01*
X196608795Y-80927512D01*
X196756185Y-81103165D01*
X196949814Y-81214956D01*
X197158976Y-81251837D01*
X198042000Y-81251837D01*
X198297999Y-81251837D01*
X199186588Y-81251837D01*
X199487512Y-81171205D01*
X199663165Y-81023815D01*
X199774956Y-80830186D01*
X199811837Y-80621024D01*
X199811837Y-79738000D01*
X198298000Y-79737999D01*
X198297999Y-81251837D01*
X198042000Y-81251837D01*
X198042001Y-79738000D01*
X196528163Y-79737999D01*
X196528163Y-80626588D01*
X188536083Y-80626588D01*
X188631440Y-80608398D01*
X188860651Y-80494617D01*
X189050820Y-80323388D01*
X189187937Y-80107326D01*
X189262094Y-79861706D01*
X189264965Y-79587567D01*
X189195968Y-79340448D01*
X189063406Y-79121562D01*
X188876864Y-78946388D01*
X188650087Y-78827831D01*
X188399781Y-78774627D01*
X188144387Y-78790695D01*
X187902724Y-78874852D01*
X187692594Y-79020896D01*
X187529479Y-79218068D01*
X187425395Y-79451843D01*
X187388013Y-79704995D01*
X187126000Y-79704995D01*
X187126000Y-78126000D01*
X196760479Y-78126000D01*
X196676835Y-78196185D01*
G37*
X196676835Y-78196185D02*
X196565044Y-78389814D01*
X196528163Y-78598976D01*
X196528163Y-79482000D01*
X198042001Y-79482001D01*
X198042001Y-79482000D01*
X199811837Y-79482001D01*
X199811837Y-78593412D01*
X199731205Y-78292489D01*
X199591505Y-78126000D01*
X212374000Y-78126000D01*
X212374000Y-81874000D01*
X188888298Y-81874000D01*
X188855234Y-81755580D01*
X188722672Y-81536694D01*
X188536130Y-81361520D01*
X188309353Y-81242963D01*
X188059047Y-81189759D01*
X187803653Y-81205827D01*
X187561990Y-81289984D01*
X187351860Y-81436028D01*
X187188745Y-81633200D01*
X187126000Y-81774127D01*
X187126000Y-79704995D01*
X187388013Y-79704995D01*
X187420086Y-79958876D01*
X187519250Y-80194778D01*
X187678200Y-80395324D01*
X187885225Y-80545737D01*
X188125074Y-80634936D01*
X188380075Y-80656348D01*
X188536083Y-80626588D01*
X196528163Y-80626588D01*
X196608795Y-80927512D01*
X196756185Y-81103165D01*
X196949814Y-81214956D01*
X197158976Y-81251837D01*
X198042000Y-81251837D01*
X198297999Y-81251837D01*
X199186588Y-81251837D01*
X199487512Y-81171205D01*
X199663165Y-81023815D01*
X199774956Y-80830186D01*
X199811837Y-80621024D01*
X199811837Y-79738000D01*
X198298000Y-79737999D01*
X198297999Y-81251837D01*
X198042000Y-81251837D01*
X198042001Y-79738000D01*
X196528163Y-79737999D01*
X196528163Y-80626588D01*
X188536083Y-80626588D01*
X188631440Y-80608398D01*
X188860651Y-80494617D01*
X189050820Y-80323388D01*
X189187937Y-80107326D01*
X189262094Y-79861706D01*
X189264965Y-79587567D01*
X189195968Y-79340448D01*
X189063406Y-79121562D01*
X188876864Y-78946388D01*
X188650087Y-78827831D01*
X188399781Y-78774627D01*
X188144387Y-78790695D01*
X187902724Y-78874852D01*
X187692594Y-79020896D01*
X187529479Y-79218068D01*
X187425395Y-79451843D01*
X187388013Y-79704995D01*
X187126000Y-79704995D01*
X187126000Y-78126000D01*
X196760479Y-78126000D01*
X196676835Y-78196185D01*
M02*
