M48
; DRILL file {KiCad 5.99.0-unknown-a5c7d45~86~ubuntu18.04.1} date tor  9 jan 2020 21:59:49
; FORMAT={-:-/ absolute / metric / decimal}
; #@! TF.CreationDate,2020-01-09T21:59:49+01:00
; #@! TF.GenerationSoftware,Kicad,Pcbnew,5.99.0-unknown-a5c7d45~86~ubuntu18.04.1
; #@! TF.FileFunction,Plated,1,4,PTH
FMAT,2
METRIC
T1C0.300
T2C0.750
T3C0.920
T4C1.000
T5C1.300
T6C2.300
%
G90
G05
T1
X139.55Y-78.35
X139.56Y-103.51
X139.85Y-76.3
X141.08Y-107.27
X142.2Y-76.8
X143.96Y-110.33
X144.39Y-104.49
X144.44Y-107.98
X144.49Y-102.82
X145.56Y-69.91
X146.88Y-86.94
X146.89Y-91.06
X146.93Y-104.65
X147.04Y-105.84
X148.92Y-98.84
X149.14Y-104.08
X150.85Y-78.99
X151.19Y-72.52
X151.41Y-84.04
X151.45Y-86.41
X151.53Y-96.245
X151.6Y-87.74
X151.673Y-100.287
X151.79Y-91.9
X151.912Y-91.109
X151.97Y-97.64
X152.08Y-88.588
X152.47Y-70.73
X152.89Y-96.32
X153.06Y-98.73
X153.07Y-97.1
X153.61Y-97.87
X154.94Y-88.99
X155.062Y-90.62
X155.36Y-92.54
X155.56Y-84.46
X155.95Y-95.6
X155.99Y-94.46
X156.14Y-80.74
X156.17Y-79.91
X156.373Y-92.843
X157.09Y-111.81
X157.11Y-94.49
X157.17Y-87.33
X157.485Y-90.681
X157.79Y-78.97
X157.88Y-89.1
X157.91Y-94.16
X158.27Y-95.65
X158.4Y-88.09
X158.411Y-82.509
X159.11Y-94.83
X159.15Y-91.97
X159.21Y-72.57
X159.237Y-83.335
X159.69Y-106.14
X159.69Y-107.58
X159.81Y-94.24
X160.088Y-84.186
X160.43Y-110.29
X160.49Y-87.84
X160.71Y-89.07
X160.75Y-94.38
X161.14Y-95.35
X161.16Y-87.21
X161.48Y-117.16
X162.5Y-92.47
X162.533Y-90.589
X162.72Y-100.79
X162.72Y-102.21
X163.22Y-94.68
X163.29Y-91.72
X163.35Y-90.71
X163.67Y-86.98
X164.47Y-82.89
X165.33Y-75.29
X165.59Y-78.85
X166.0Y-85.94
X166.06Y-105.37
X166.39Y-89.06
X166.5Y-78.84
X166.89Y-75.25
X166.89Y-96.07
X167.04Y-93.8
X167.26Y-83.59
X167.31Y-86.37
X167.47Y-90.72
X167.94Y-86.37
X167.994Y-97.354
X168.56Y-86.37
X168.87Y-88.84
X169.72Y-84.73
X169.74Y-78.57
X169.74Y-82.96
X170.4Y-75.1
X170.57Y-80.91
X170.67Y-76.35
X171.0Y-101.0
X171.0Y-102.0
X171.46Y-78.56
X172.0Y-92.0
X172.0Y-101.0
X172.09Y-82.23
X172.3Y-73.2
X172.7Y-89.33
X173.0Y-101.0
X173.05Y-85.03
X173.05Y-87.22
X173.1Y-104.15
X173.185Y-89.815
X175.37Y-82.23
X176.35Y-75.45
X177.95Y-75.35
X178.0Y-102.0
X178.0Y-103.0
X178.0Y-104.0
X178.5Y-93.0
X179.0Y-102.0
X179.0Y-103.0
X179.0Y-104.0
X180.0Y-93.0
X180.0Y-102.0
X180.0Y-103.0
X180.0Y-104.0
X180.32Y-81.95
X181.0Y-102.0
X181.0Y-103.0
X181.0Y-104.0
X181.3Y-74.95
X181.5Y-93.0
X181.87Y-70.61
X182.0Y-102.0
X182.0Y-103.0
X182.0Y-104.0
X182.16Y-80.69
X184.0Y-74.0
X184.0Y-75.0
X184.0Y-76.0
X184.0Y-77.0
X185.0Y-74.0
X185.0Y-75.0
X185.0Y-97.0
X185.0Y-98.0
X185.0Y-99.0
X185.0Y-102.0
X185.0Y-104.0
X185.32Y-82.34
X186.0Y-74.0
X186.0Y-75.0
X186.0Y-83.0
X186.0Y-84.0
X186.0Y-85.0
X186.0Y-86.0
X187.0Y-83.0
X187.0Y-84.0
X187.0Y-85.0
X187.0Y-86.0
X187.0Y-97.0
X187.0Y-99.0
X187.0Y-102.0
X187.0Y-104.0
X187.99Y-82.13
X188.0Y-85.0
X188.0Y-86.0
X188.331Y-79.715
X189.0Y-85.0
X189.0Y-86.0
X189.0Y-88.0
X189.0Y-97.0
X189.0Y-99.0
X189.0Y-102.0
X189.0Y-104.0
X190.0Y-85.0
X190.0Y-86.0
X191.0Y-85.0
X191.0Y-86.0
X191.0Y-88.0
X191.0Y-97.0
X191.0Y-99.0
X191.0Y-102.0
X191.0Y-104.0
X191.07Y-79.12
X192.0Y-85.0
X192.0Y-86.0
X192.19Y-79.12
X193.0Y-85.0
X193.0Y-86.0
X193.0Y-88.0
X193.0Y-102.0
X193.0Y-104.0
X193.27Y-79.12
X194.0Y-85.0
X194.0Y-86.0
X195.0Y-85.0
X195.0Y-86.0
X195.0Y-88.0
X195.0Y-97.0
X195.0Y-99.0
X195.0Y-102.0
X195.0Y-104.0
X196.0Y-85.0
X196.0Y-86.0
X197.0Y-88.0
X197.0Y-97.0
X197.0Y-99.0
X197.0Y-102.0
X197.0Y-104.0
X199.0Y-88.0
X199.0Y-89.0
X199.0Y-97.0
X199.0Y-98.0
X199.0Y-99.0
X199.0Y-102.0
X199.0Y-104.0
X200.0Y-88.0
X200.0Y-89.0
X200.0Y-90.0
X200.0Y-91.0
X200.0Y-92.0
X201.0Y-88.0
X201.0Y-89.0
X202.0Y-88.0
X202.0Y-89.0
X203.0Y-88.0
X203.0Y-89.0
X204.0Y-86.0
X204.0Y-87.0
X204.0Y-88.0
X204.0Y-89.0
X204.5Y-75.0
X205.0Y-84.0
X205.0Y-85.0
X205.0Y-86.0
X205.0Y-87.0
X205.0Y-88.0
X205.0Y-89.0
X206.0Y-84.0
X206.0Y-85.0
X206.0Y-86.0
X206.0Y-87.0
X206.0Y-88.0
X206.0Y-89.0
X206.69Y-117.3
X206.69Y-117.3
X206.9Y-96.2
X207.05Y-114.9
X207.7Y-101.2
X208.7Y-89.25
X210.3Y-111.25
X211.15Y-97.55
X211.75Y-91.7
X211.9Y-106.3
X212.85Y-110.0
T2
X197.38Y-71.0
X199.38Y-71.0
X147.53Y-114.33
X149.53Y-114.33
X151.53Y-114.33
X153.53Y-114.33
X155.53Y-114.33
X157.53Y-114.33
X162.93Y-71.96
X164.93Y-71.96
X166.93Y-71.96
X168.93Y-71.96
X137.15Y-96.95
X139.15Y-96.95
X141.15Y-96.95
X143.15Y-96.95
X137.15Y-82.44
X139.15Y-82.44
X137.15Y-87.3
X139.15Y-87.3
X141.15Y-87.3
X143.15Y-87.3
X137.15Y-92.12
X139.15Y-92.12
X141.15Y-92.12
X143.15Y-92.12
T3
X202.36Y-95.76
X202.36Y-98.26
X202.36Y-100.26
X202.36Y-102.76
T4
X168.97Y-112.04
X168.97Y-114.58
X168.97Y-117.12
X204.0Y-112.05
X204.0Y-114.59
X204.0Y-117.13
X192.63Y-91.76
X192.63Y-96.76
X193.5Y-112.05
X193.5Y-114.59
X193.5Y-117.13
X198.17Y-79.61
X198.17Y-84.61
X165.47Y-112.04
X165.47Y-114.58
X165.47Y-117.12
X200.5Y-112.05
X200.5Y-114.59
X200.5Y-117.13
X175.97Y-112.04
X175.97Y-114.58
X175.97Y-117.12
X172.47Y-112.04
X172.47Y-114.58
X172.47Y-117.12
X197.0Y-112.05
X197.0Y-114.59
X197.0Y-117.13
T5
X209.0Y-81.0
X209.0Y-86.0
T6
X205.07Y-92.69
X205.07Y-105.83
T0
M30
